<?xml version="1.0" encoding="UTF-8"?> <svg xmlns="http://www.w3.org/2000/svg" width="433" height="396" viewBox="0 0 433 396" fill="none"> <path d="M202.84 279.488C210.491 281.052 218.831 279.799 225.203 275.113C234.471 268.294 238.743 256.566 240.7 245.227C244.806 221.445 241.017 196.282 249.103 173.543C254.061 159.605 263.158 147.586 272.127 135.821C281.095 124.056 290.206 112.053 295.202 98.1275C300.198 84.203 300.511 67.7904 292.417 55.4075C284.655 43.5337 270.361 37.2013 256.246 35.7786C242.131 34.3548 227.969 37.1923 214.097 40.1648C200.227 43.1376 186.173 46.2795 172.011 45.4705C150.12 44.2197 127.587 33.6963 107.145 41.6266C91.4171 47.7292 81.6413 63.1511 72.9631 77.619C57.9367 102.67 42.9104 127.721 27.8841 152.772C20.9043 164.406 13.8541 176.201 10.0171 189.215C6.1787 202.229 5.84429 216.814 12.0348 228.887C21.4 247.151 43.4 255.565 63.9086 256.384C76.7716 256.897 89.5363 255.075 102.32 253.325C109.92 252.286 117.526 251.272 125.162 250.791C145.93 249.482 165.562 253.395 182.164 266.396C188.762 271.564 193.287 277.235 201.878 279.275C202.197 279.351 202.518 279.421 202.84 279.488Z" fill="#04294F"></path> <path d="M165.504 79.7509C164.85 80.4924 163.719 80.5636 162.978 79.9099C162.236 79.2561 162.165 78.1251 162.819 77.3836C163.473 76.6421 164.603 76.571 165.345 77.2247C166.086 77.8784 166.157 79.0094 165.504 79.7509Z" fill="#00AEE0"></path> <path d="M136.418 144.356C135.764 145.097 134.633 145.168 133.892 144.515C133.15 143.861 133.079 142.73 133.733 141.988C134.387 141.247 135.518 141.176 136.259 141.829C137 142.483 137.072 143.614 136.418 144.356Z" fill="white"></path> <path d="M268.872 121.884C268.218 122.625 267.087 122.697 266.346 122.043C265.604 121.389 265.533 120.258 266.187 119.517C266.841 118.775 267.972 118.704 268.713 119.358C269.455 120.011 269.526 121.142 268.872 121.884Z" fill="white"></path> <path d="M264.634 67.1191C263.98 67.8606 262.849 67.9317 262.108 67.278C261.367 66.6243 261.296 65.4933 261.949 64.7518C262.603 64.0103 263.734 63.9391 264.475 64.5928C265.217 65.2466 265.288 66.3776 264.634 67.1191Z" fill="white"></path> <path d="M54.7626 199.093C54.1089 199.834 52.9779 199.905 52.2365 199.252C51.4951 198.598 51.4239 197.467 52.0776 196.725C52.7313 195.984 53.8623 195.913 54.6037 196.566C55.3451 197.22 55.4163 198.351 54.7626 199.093Z" fill="white"></path> <path d="M153.447 98.8146C152.793 99.5561 151.662 99.6273 150.921 98.9736C150.18 98.3199 150.109 97.1888 150.762 96.4473C151.416 95.7058 152.547 95.6347 153.288 96.2884C154.03 96.9421 154.101 98.0732 153.447 98.8146Z" fill="white"></path> <path d="M184.125 173.823C183.472 174.565 182.341 174.636 181.599 173.982C180.858 173.329 180.787 172.198 181.44 171.456C182.094 170.715 183.225 170.643 183.966 171.297C184.708 171.951 184.779 173.082 184.125 173.823Z" fill="white"></path> <path d="M222.126 167.77C221.472 168.512 220.341 168.583 219.6 167.929C218.858 167.276 218.787 166.145 219.441 165.403C220.095 164.662 221.226 164.59 221.967 165.244C222.708 165.898 222.78 167.029 222.126 167.77Z" fill="white"></path> <path d="M142.492 70.1027C141.838 70.8442 140.707 70.9154 139.966 70.2617C139.225 69.6079 139.153 68.4769 139.807 67.7354C140.461 66.9939 141.592 66.9228 142.333 67.5765C143.075 68.2302 143.146 69.3612 142.492 70.1027Z" fill="white"></path> <path d="M112.371 56.4072C111.718 57.1487 110.587 57.2198 109.845 56.5661C109.104 55.9124 109.033 54.7813 109.687 54.0399C110.34 53.2984 111.471 53.2272 112.213 53.8809C112.954 54.5346 113.025 55.6657 112.371 56.4072Z" fill="#00AEE0"></path> <path d="M83.2318 113.709C82.5781 114.451 81.4471 114.522 80.7057 113.868C79.9643 113.215 79.8932 112.084 80.5469 111.342C81.2005 110.601 82.3315 110.529 83.0729 111.183C83.8144 111.837 83.8855 112.968 83.2318 113.709Z" fill="white"></path> <path d="M53.2504 128.781C52.5967 129.522 51.4657 129.593 50.7243 128.94C49.9828 128.286 49.9117 127.155 50.5654 126.413C51.2191 125.672 52.3501 125.601 53.0915 126.254C53.8329 126.908 53.904 128.039 53.2504 128.781Z" fill="white"></path> <path d="M129.746 102.604C129.311 103.097 128.558 103.145 128.064 102.71C127.571 102.274 127.523 101.521 127.959 101.028C128.394 100.534 129.147 100.487 129.64 100.922C130.134 101.357 130.181 102.11 129.746 102.604Z" fill="white"></path> <path d="M149.818 89.4241C149.383 89.9177 148.63 89.9651 148.136 89.5299C147.643 89.0947 147.595 88.3418 148.03 87.8481C148.466 87.3545 149.218 87.3071 149.712 87.7423C150.206 88.1775 150.253 88.9305 149.818 89.4241Z" fill="#00AEE0"></path> <path d="M105.417 95.7259C104.982 96.2195 104.229 96.2669 103.735 95.8317C103.242 95.3965 103.194 94.6435 103.63 94.1499C104.065 93.6563 104.818 93.6089 105.311 94.0441C105.805 94.4793 105.852 95.2322 105.417 95.7259Z" fill="#00AEE0"></path> <path d="M46.728 136.544C46.2928 137.038 45.5399 137.085 45.0463 136.65C44.5527 136.215 44.5054 135.462 44.9406 134.968C45.3757 134.475 46.1286 134.428 46.6222 134.863C47.1158 135.298 47.1632 136.051 46.728 136.544Z" fill="#00AEE0"></path> <path d="M126.2 76.2918C125.765 76.7854 125.012 76.8328 124.518 76.3976C124.025 75.9624 123.978 75.2094 124.413 74.7158C124.848 74.2222 125.601 74.1748 126.094 74.61C126.588 75.0452 126.635 75.7982 126.2 76.2918Z" fill="#00AEE0"></path> <path d="M166.743 117.861C166.308 118.355 165.555 118.402 165.061 117.967C164.568 117.532 164.521 116.779 164.956 116.285C165.391 115.792 166.144 115.744 166.637 116.179C167.131 116.615 167.178 117.367 166.743 117.861Z" fill="#00AEE0"></path> <path d="M133.72 68.3299C133.285 68.8235 132.532 68.8709 132.039 68.4357C131.545 68.0005 131.498 67.2475 131.933 66.7539C132.368 66.2603 133.121 66.2129 133.614 66.6481C134.108 67.0833 134.155 67.8362 133.72 68.3299Z" fill="white"></path> <path d="M121.2 222.258C120.765 222.751 120.012 222.799 119.518 222.364C119.025 221.928 118.978 221.176 119.413 220.682C119.848 220.188 120.601 220.141 121.094 220.576C121.588 221.011 121.635 221.764 121.2 222.258Z" fill="white"></path> <path d="M110.401 156.023C109.966 156.516 109.213 156.564 108.72 156.129C108.226 155.693 108.179 154.94 108.614 154.447C109.049 153.953 109.802 153.906 110.296 154.341C110.789 154.776 110.837 155.529 110.401 156.023Z" fill="white"></path> <path d="M198.739 51.7862C198.304 52.2798 197.551 52.3272 197.057 51.892C196.563 51.4568 196.516 50.7038 196.951 50.2102C197.386 49.7166 198.139 49.6692 198.633 50.1044C199.127 50.5396 199.174 51.2925 198.739 51.7862Z" fill="white"></path> <path d="M62.6601 226.091C62.2249 226.585 61.472 226.632 60.9784 226.197C60.4849 225.762 60.4375 225.009 60.8727 224.515C61.3079 224.022 62.0608 223.974 62.5544 224.409C63.0479 224.845 63.0953 225.597 62.6601 226.091Z" fill="white"></path> <path d="M47.1591 189.656C46.724 190.149 45.9711 190.197 45.4775 189.762C44.9839 189.326 44.9365 188.573 45.3717 188.08C45.8069 187.586 46.5598 187.539 47.0534 187.974C47.547 188.409 47.5943 189.162 47.1591 189.656Z" fill="white"></path> <path d="M31.2734 215.351C30.8382 215.845 30.0853 215.892 29.5917 215.457C29.0981 215.022 29.0508 214.269 29.486 213.775C29.9211 213.282 30.6741 213.234 31.1676 213.669C31.6612 214.105 31.7086 214.857 31.2734 215.351Z" fill="white"></path> <path d="M154.243 55.3785C153.808 55.8721 153.055 55.9195 152.561 55.4843C152.068 55.0491 152.021 54.2961 152.456 53.8025C152.891 53.3089 153.644 53.2615 154.137 53.6967C154.631 54.1319 154.678 54.8848 154.243 55.3785Z" fill="white"></path> <path d="M94.624 92.732C94.1888 93.2256 93.4359 93.273 92.9423 92.8378C92.4487 92.4026 92.4014 91.6496 92.8366 91.156C93.2717 90.6624 94.0246 90.615 94.5182 91.0502C95.0118 91.4854 95.0592 92.2383 94.624 92.732Z" fill="white"></path> <path d="M217.824 136.218C216.864 136.452 215.895 135.864 215.661 134.903C215.427 133.943 216.016 132.975 216.976 132.74C217.936 132.506 218.905 133.095 219.139 134.055C219.373 135.016 218.784 135.984 217.824 136.218Z" fill="#00AEE0"></path> <path d="M24.9778 208.565C24.0175 208.799 23.0492 208.211 22.8151 207.25C22.581 206.29 23.1696 205.322 24.1299 205.087C25.0902 204.853 26.0585 205.442 26.2926 206.402C26.5267 207.363 25.9381 208.331 24.9778 208.565Z" fill="#00AEE0"></path> <path d="M131.021 229.345C130.061 229.579 129.093 228.991 128.859 228.03C128.624 227.07 129.213 226.102 130.173 225.867C131.134 225.633 132.102 226.222 132.336 227.182C132.57 228.143 131.982 229.111 131.021 229.345Z" fill="#00AEE0"></path> <path d="M230.439 231.233C229.479 231.467 228.511 230.879 228.277 229.918C228.042 228.958 228.631 227.99 229.591 227.756C230.552 227.521 231.52 228.11 231.754 229.07C231.988 230.031 231.399 230.999 230.439 231.233Z" fill="white"></path> <path d="M199.943 131.906C198.983 132.141 198.015 131.552 197.78 130.591C197.546 129.631 198.135 128.663 199.095 128.429C200.056 128.194 201.024 128.783 201.258 129.743C201.492 130.704 200.903 131.672 199.943 131.906Z" fill="white"></path> <path d="M188.017 55.1463C187.057 55.3805 186.088 54.7918 185.854 53.8315C185.62 52.8712 186.209 51.9028 187.169 51.6686C188.129 51.4345 189.098 52.0231 189.332 52.9835C189.566 53.9438 188.977 54.9122 188.017 55.1463Z" fill="white"></path> <path d="M142.441 190.183C141.48 190.417 140.512 189.829 140.278 188.868C140.044 187.908 140.633 186.94 141.593 186.706C142.553 186.471 143.521 187.06 143.755 188.02C143.99 188.981 143.401 189.949 142.441 190.183Z" fill="white"></path> <path d="M103.202 150.609C102.242 150.843 101.274 150.254 101.04 149.294C100.806 148.334 101.394 147.365 102.355 147.131C103.315 146.897 104.283 147.486 104.517 148.446C104.751 149.406 104.163 150.375 103.202 150.609Z" fill="white"></path> <path d="M173.656 216.647C172.696 216.881 171.727 216.292 171.493 215.332C171.259 214.371 171.848 213.403 172.808 213.169C173.768 212.935 174.737 213.523 174.971 214.484C175.205 215.444 174.616 216.412 173.656 216.647Z" fill="#00AEE0"></path> <path d="M54.7078 153.111C53.7475 153.345 52.7792 152.757 52.5451 151.796C52.3109 150.836 52.8996 149.868 53.8599 149.633C54.8202 149.399 55.7884 149.988 56.0226 150.948C56.2567 151.909 55.668 152.877 54.7078 153.111Z" fill="#00AEE0"></path> <path d="M203.574 82.7264C202.614 82.9606 201.646 82.3719 201.412 81.4116C201.178 80.4512 201.766 79.4829 202.727 79.2487C203.687 79.0145 204.655 79.6032 204.889 80.5636C205.123 81.5239 204.535 82.4922 203.574 82.7264Z" fill="#00AEE0"></path> <path d="M95.4236 245.933C94.4633 246.167 93.495 245.579 93.2609 244.618C93.0268 243.658 93.6154 242.69 94.5757 242.456C95.536 242.221 96.5043 242.81 96.7384 243.77C96.9725 244.731 96.3839 245.699 95.4236 245.933Z" fill="#00AEE0"></path> <path d="M190.766 261.1C189.806 261.334 188.837 260.746 188.603 259.785C188.369 258.825 188.958 257.857 189.918 257.622C190.878 257.388 191.847 257.977 192.081 258.937C192.315 259.898 191.726 260.866 190.766 261.1Z" fill="white"></path> <path d="M85.0393 209.693C84.079 209.927 83.1108 209.339 82.8766 208.378C82.6425 207.418 83.2312 206.45 84.1914 206.216C85.1517 205.981 86.12 206.57 86.3541 207.53C86.5882 208.491 85.9996 209.459 85.0393 209.693Z" fill="white"></path> <path d="M221.922 228.097C221.283 228.253 220.638 227.861 220.482 227.222C220.326 226.582 220.718 225.938 221.358 225.782C221.997 225.626 222.641 226.018 222.797 226.657C222.953 227.296 222.561 227.941 221.922 228.097Z" fill="white"></path> <path d="M222.595 204.095C221.956 204.25 221.311 203.859 221.155 203.219C220.999 202.58 221.391 201.935 222.03 201.779C222.67 201.623 223.314 202.015 223.47 202.655C223.626 203.294 223.234 203.939 222.595 204.095Z" fill="#00AEE0"></path> <path d="M245.654 164.385C245.015 164.541 244.37 164.149 244.214 163.51C244.058 162.871 244.45 162.226 245.09 162.07C245.729 161.914 246.373 162.306 246.529 162.945C246.685 163.585 246.293 164.229 245.654 164.385Z" fill="#00AEE0"></path> <path d="M191.311 134.893C190.671 135.049 190.027 134.657 189.871 134.018C189.715 133.378 190.107 132.734 190.746 132.578C191.386 132.422 192.03 132.814 192.186 133.453C192.342 134.092 191.95 134.737 191.311 134.893Z" fill="#00AEE0"></path> <path d="M202.364 244.118C201.725 244.274 201.08 243.882 200.924 243.243C200.768 242.604 201.16 241.959 201.8 241.803C202.439 241.647 203.083 242.039 203.239 242.679C203.395 243.318 203.003 243.963 202.364 244.118Z" fill="#00AEE0"></path> <path d="M256.261 126.816C255.622 126.972 254.978 126.58 254.822 125.941C254.666 125.302 255.058 124.657 255.697 124.501C256.336 124.345 256.981 124.737 257.137 125.376C257.293 126.016 256.901 126.66 256.261 126.816Z" fill="#00AEE0"></path> <path d="M186.689 190.656C186.049 190.811 185.405 190.42 185.249 189.78C185.093 189.141 185.485 188.496 186.124 188.34C186.764 188.184 187.408 188.576 187.564 189.216C187.72 189.855 187.328 190.5 186.689 190.656Z" fill="#00AEE0"></path> <path d="M253.799 71.1092C253.159 71.2651 252.515 70.8732 252.359 70.2338C252.203 69.5945 252.595 68.9499 253.234 68.794C253.873 68.6381 254.518 69.03 254.674 69.6693C254.83 70.3086 254.438 70.9533 253.799 71.1092Z" fill="#00AEE0"></path> <path d="M94.0519 153.781C93.4127 153.937 92.7681 153.545 92.6122 152.906C92.4563 152.267 92.8482 151.622 93.4875 151.466C94.1268 151.31 94.7714 151.702 94.9272 152.341C95.0831 152.981 94.6912 153.625 94.0519 153.781Z" fill="#00AEE0"></path> <path d="M210.106 62.6724C209.466 62.8283 208.822 62.4364 208.666 61.7971C208.51 61.1578 208.902 60.5131 209.541 60.3572C210.18 60.2013 210.825 60.5932 210.981 61.2325C211.137 61.8719 210.745 62.5165 210.106 62.6724Z" fill="#00AEE0"></path> <path d="M105.964 169.778C105.325 169.934 104.68 169.542 104.524 168.903C104.368 168.263 104.76 167.619 105.4 167.463C106.039 167.307 106.683 167.699 106.839 168.338C106.995 168.977 106.603 169.622 105.964 169.778Z" fill="#00AEE0"></path> <path d="M187.939 218.486C187.3 218.642 186.655 218.25 186.499 217.61C186.344 216.971 186.735 216.326 187.375 216.17C188.014 216.015 188.659 216.406 188.814 217.046C188.97 217.685 188.578 218.33 187.939 218.486Z" fill="white"></path> <path d="M239.909 172.553C239.27 172.709 238.625 172.317 238.47 171.678C238.314 171.039 238.706 170.394 239.345 170.238C239.984 170.082 240.629 170.474 240.785 171.113C240.941 171.753 240.549 172.397 239.909 172.553Z" fill="white"></path> <path d="M243.345 50.3062C242.706 50.4621 242.062 50.0702 241.906 49.4309C241.75 48.7915 242.142 48.1469 242.781 47.991C243.42 47.8351 244.065 48.227 244.221 48.8663C244.377 49.5056 243.985 50.1503 243.345 50.3062Z" fill="white"></path> <path d="M202.733 264.337C202.093 264.493 201.449 264.101 201.293 263.462C201.137 262.822 201.529 262.178 202.168 262.022C202.807 261.866 203.452 262.258 203.608 262.897C203.764 263.536 203.372 264.181 202.733 264.337Z" fill="white"></path> <path d="M285.293 81.1546C284.653 81.3105 284.009 80.9186 283.853 80.2792C283.697 79.6399 284.089 78.9953 284.728 78.8394C285.368 78.6835 286.012 79.0754 286.168 79.7147C286.324 80.354 285.932 80.9987 285.293 81.1546Z" fill="white"></path> <path fill-rule="evenodd" clip-rule="evenodd" d="M308.72 369.576C304.53 373.203 303.927 375.124 299.594 378.578C295.561 381.794 292.729 383.265 291.905 388.796C291.638 390.587 292.056 392.58 293.404 393.789C294.407 394.688 295.772 395.044 297.089 395.327C300.764 396.114 304.383 396.364 307.864 394.758C309.276 394.107 310.668 393.409 312.07 392.735C316.715 390.501 315.674 391.418 320.319 389.183L324.644 387.102C325.892 386.502 326.93 385.54 327.624 384.341C328.318 383.143 328.634 381.763 328.533 380.381L327.711 369.134L308.72 369.576Z" fill="#04294F"></path> <path d="M311.381 380.199C311.393 380.329 311.226 380.465 310.908 380.601C310.717 380.682 310.52 380.746 310.319 380.793C310.058 380.861 309.793 380.915 309.526 380.953C308.832 381.055 308.132 381.098 307.431 381.082C307.036 381.068 306.62 381.055 306.192 381.005C305.763 380.966 305.322 380.895 304.872 380.817C304.424 380.726 303.988 380.632 303.574 380.514C303.156 380.405 302.764 380.267 302.391 380.136C301.732 379.897 301.095 379.602 300.485 379.256C300.25 379.123 300.022 378.978 299.804 378.82C299.633 378.702 299.473 378.571 299.325 378.426C299.079 378.184 298.972 377.996 299.03 377.879C299.087 377.763 299.304 377.728 299.637 377.762C299.804 377.78 300.001 377.814 300.227 377.854C300.453 377.895 300.701 377.959 300.979 378.019L302.89 378.474C303.249 378.55 303.622 378.645 304.013 378.721C304.401 378.808 304.806 378.881 305.219 378.965C305.635 379.036 306.039 379.115 306.432 379.175C306.824 379.246 307.206 379.292 307.569 379.352L309.515 379.621C309.795 379.667 310.05 379.698 310.276 379.741C310.501 379.784 310.697 379.826 310.858 379.869C311.181 379.957 311.369 380.068 311.381 380.199Z" fill="white"></path> <path fill-rule="evenodd" clip-rule="evenodd" d="M408.928 357.039C408.083 362.518 408.866 364.372 407.803 369.812C406.813 374.876 405.608 377.833 408.56 382.579C409.517 384.117 411.126 385.365 412.936 385.412C414.282 385.448 415.553 384.834 416.739 384.196C420.049 382.413 422.966 380.26 424.58 376.781C425.234 375.37 425.843 373.936 426.474 372.514C428.567 367.801 428.366 369.175 430.459 364.462L432.406 360.074C432.968 358.808 433.137 357.403 432.889 356.04C432.641 354.677 431.989 353.42 431.018 352.433L423.108 344.395L408.928 357.039Z" fill="#04294F"></path> <path d="M417.833 363.407C417.926 363.498 417.888 363.709 417.732 364.021C417.64 364.205 417.532 364.382 417.409 364.549C417.254 364.77 417.087 364.982 416.908 365.185C416.446 365.711 415.94 366.198 415.396 366.64C415.086 366.886 414.76 367.146 414.402 367.384C414.049 367.631 413.668 367.864 413.274 368.098C412.874 368.319 412.481 368.53 412.088 368.708C411.701 368.896 411.312 369.044 410.943 369.187C410.286 369.431 409.61 369.62 408.922 369.751C408.657 369.803 408.389 369.84 408.12 369.861C407.914 369.882 407.707 369.885 407.501 369.871C407.155 369.847 406.952 369.773 406.921 369.646C406.89 369.52 407.031 369.354 407.308 369.164C407.446 369.069 407.619 368.967 407.817 368.851C408.016 368.735 408.246 368.624 408.496 368.489L410.247 367.597C410.57 367.422 410.915 367.253 411.261 367.057C411.613 366.872 411.969 366.665 412.339 366.462C412.701 366.247 413.06 366.045 413.399 365.836C413.744 365.636 414.064 365.424 414.379 365.234L416.036 364.178C416.279 364.032 416.493 363.891 416.692 363.777C416.892 363.664 417.068 363.569 417.22 363.497C417.525 363.354 417.74 363.316 417.833 363.407Z" fill="white"></path> <path d="M379.123 245.272C379.109 245.335 379.005 245.374 378.818 245.39C378.549 245.409 378.28 245.397 378.014 245.354C377.842 245.329 377.652 245.296 377.442 245.257C377.236 245.213 377.015 245.149 376.776 245.084C376.236 244.925 375.709 244.725 375.199 244.486C374.578 244.195 373.979 243.857 373.41 243.475C372.757 243.028 372.142 242.527 371.572 241.977C370.939 241.366 370.367 240.695 369.862 239.974C368.762 238.417 368.015 236.638 367.674 234.762C367.512 233.897 367.434 233.018 367.441 232.138C367.447 231.346 367.52 230.556 367.659 229.776C367.784 229.101 367.962 228.437 368.189 227.79C368.375 227.258 368.601 226.742 368.866 226.245C368.987 226.028 369.096 225.826 369.209 225.647C369.327 225.47 369.437 225.311 369.538 225.171C369.694 224.951 369.875 224.75 370.076 224.571C370.218 224.448 370.318 224.402 370.374 224.436C370.429 224.471 370.436 224.584 370.401 224.766C370.372 224.95 370.278 225.19 370.188 225.509C370.14 225.667 370.084 225.841 370.02 226.028L369.838 226.644C369.712 227.085 369.58 227.588 369.47 228.148C369.349 228.756 369.26 229.369 369.204 229.986C369.148 230.689 369.138 231.396 369.174 232.1C369.255 233.701 369.608 235.276 370.218 236.758C370.849 238.23 371.726 239.585 372.812 240.763C373.29 241.282 373.801 241.769 374.342 242.221C374.821 242.614 375.321 242.98 375.84 243.318C376.317 243.632 376.768 243.89 377.172 244.108L377.739 244.41C377.917 244.495 378.08 244.577 378.226 244.654C378.518 244.812 378.754 244.914 378.906 245.022C379.061 245.123 379.137 245.208 379.123 245.272Z" fill="#04294F"></path> <path d="M324.134 223.959C324.259 223.924 324.484 224.257 324.777 224.898C325.181 225.811 325.509 226.757 325.758 227.724C326.16 229.204 326.312 230.741 326.208 232.271C326.128 233.191 325.937 234.098 325.639 234.972C325.333 235.875 324.976 236.76 324.569 237.622C324.164 238.492 323.697 239.332 323.173 240.136C322.677 240.896 322.113 241.609 321.488 242.266C320.917 242.868 320.282 243.407 319.596 243.875C318.998 244.281 318.359 244.623 317.689 244.895C317.138 245.118 316.565 245.284 315.98 245.391C315.54 245.467 315.093 245.499 314.646 245.486C314.363 245.482 314.083 245.44 313.811 245.362C313.623 245.303 313.529 245.239 313.531 245.174C313.532 245.109 313.629 245.045 313.805 244.982C313.981 244.92 314.239 244.849 314.56 244.757C314.881 244.665 315.267 244.537 315.7 244.373C316.186 244.178 316.658 243.95 317.112 243.691C317.658 243.376 318.177 243.017 318.664 242.617C319.22 242.157 319.734 241.648 320.2 241.097C321.272 239.795 322.167 238.355 322.861 236.817C323.245 235.994 323.606 235.157 323.892 234.369C324.169 233.629 324.367 232.86 324.481 232.077C324.644 230.712 324.633 229.332 324.447 227.97C324.302 226.772 324.139 225.786 324.067 225.091C323.996 224.397 324.008 223.994 324.134 223.959Z" fill="#04294F"></path> <path d="M408.364 325.755C408.277 325.638 399.605 313.878 393.573 298.914C388.424 286.144 385.897 271.099 384.743 257.305L383.901 232.667C384.004 223.724 384.502 217.323 384.651 215.583L383.313 215.468C383.221 212.768 383.128 210.068 383.036 207.368L310.854 209.081C309.776 215.786 308.697 222.491 307.618 229.196C304.617 244.472 302.393 259.89 300.955 275.391C299.284 293.446 299.102 307.303 298.941 319.529C298.719 336.414 298.73 343.88 300.482 368.69C300.53 369.396 300.821 370.063 301.306 370.578C301.791 371.094 302.44 371.425 303.141 371.515C311.288 372.539 319.557 371.947 327.475 369.773C328.163 369.582 328.762 369.157 329.17 368.571C329.577 367.985 329.767 367.274 329.706 366.563C329.086 359.144 328.491 349.593 328.255 338.451C328.132 332.611 328.183 327.233 328.279 319.916C328.44 307.664 328.606 294.996 330.171 278.099C331.076 268.317 332.327 258.529 333.903 248.822C333.97 248.409 334.167 248.028 334.465 247.734C334.763 247.44 335.147 247.25 335.561 247.189C340.829 246.421 346.791 246.051 353.18 247.197C353.619 247.278 354.017 247.506 354.31 247.843C354.602 248.18 354.772 248.606 354.79 249.052V249.068C355.849 273.011 359.742 293.476 366.362 309.895C373.876 328.533 384.408 342.722 384.853 343.317C390.151 350.4 396.106 356.966 402.64 362.928C403.078 363.329 403.623 363.595 404.209 363.692C404.795 363.789 405.397 363.715 405.941 363.477C410.02 361.695 413.663 359.046 416.615 355.713C419.567 352.381 421.759 348.445 423.037 344.179C423.206 343.626 423.214 343.036 423.062 342.477C422.91 341.919 422.603 341.415 422.176 341.024C417.093 336.39 412.468 331.276 408.364 325.755V325.755Z" fill="#F04E23"></path> <path d="M268.586 205.437C261.353 205.437 254.245 203.596 248.349 199.962C240.301 194.999 234.522 186.828 231.636 176.331C230.264 171.351 229.595 166.204 229.648 161.039L249.934 161.552C249.93 161.705 249.655 176.92 258.997 182.679C264.079 185.813 271.612 186.007 277.742 183.163C286.372 179.158 290.334 169.174 294.921 157.613C300.521 143.499 306.868 127.502 324.213 121.524C328.116 120.187 332.209 119.486 336.334 119.448L336.573 139.749C334.616 139.762 332.674 140.09 330.821 140.719C322.864 143.463 319.075 151.761 313.781 165.104C308.374 178.727 302.247 194.171 286.278 201.579C280.729 204.129 274.693 205.445 268.586 205.437V205.437Z" fill="#FFB400"></path> <path fill-rule="evenodd" clip-rule="evenodd" d="M384.322 132.863C384.915 143.622 384.915 154.406 384.322 165.166C383.858 173.307 383.246 177.517 383.564 185.789C383.749 190.629 384.172 194.741 384.322 202.719C384.404 207.088 384.367 210.684 384.322 213.089C382.984 214.819 381.523 216.45 379.95 217.969C378.53 219.338 377.025 220.614 375.443 221.791C356.726 225.089 337.584 225.155 318.845 221.989C315.042 219.343 311.662 216.136 308.82 212.477C307.707 203.045 308.155 195.632 308.82 190.46C309.356 186.29 310.275 181.701 310.014 174.827C309.879 171.401 309.48 167.99 308.82 164.626C307.679 158.365 306.946 148.517 308.82 132.863C308.821 132.566 308.846 132.27 308.894 131.977C309.129 130.518 309.934 129.212 311.132 128.347C316.849 124.205 329.608 116.575 347.223 116.765C364.15 116.948 376.378 124.257 382.015 128.347C382.707 128.847 383.274 129.5 383.673 130.254C384.072 131.009 384.292 131.845 384.316 132.698C384.322 132.753 384.322 132.808 384.322 132.863Z" fill="#04294F"></path> <path fill-rule="evenodd" clip-rule="evenodd" d="M318.845 221.99C315.225 221.378 311.875 220.689 308.82 219.976V212.479C311.662 216.137 315.042 219.344 318.845 221.99Z" fill="#04294F"></path> <path fill-rule="evenodd" clip-rule="evenodd" d="M384.321 213.089V219.975C381.59 220.612 378.626 221.229 375.442 221.791C378.786 219.31 381.773 216.382 384.321 213.089V213.089Z" fill="#04294F"></path> <path d="M360.856 121.539C360.919 121.524 361.008 121.66 361.121 121.944C361.279 122.36 361.38 122.796 361.423 123.24C361.432 123.385 361.441 123.538 361.452 123.7C361.456 123.782 361.461 123.865 361.465 123.949C361.465 124.034 361.459 124.12 361.456 124.209L361.426 124.766C361.406 124.958 361.371 125.156 361.34 125.362C361.177 126.296 360.881 127.202 360.459 128.051C359.335 130.284 357.529 132.1 355.302 133.236C354.004 133.897 352.615 134.36 351.18 134.61C349.661 134.879 348.115 134.966 346.576 134.869C345.056 134.775 343.547 134.549 342.067 134.194C340.678 133.877 339.323 133.428 338.021 132.853C336.82 132.325 335.695 131.637 334.679 130.807C334.213 130.427 333.781 130.009 333.386 129.556C333.019 129.141 332.687 128.696 332.395 128.225C331.885 127.423 331.502 126.548 331.257 125.629C331.071 124.94 330.986 124.228 331.005 123.514C331.015 123.067 331.086 122.624 331.215 122.196C331.318 121.906 331.402 121.766 331.466 121.778C331.53 121.79 331.571 121.953 331.592 122.24C331.62 122.528 331.651 122.946 331.736 123.468C331.843 124.096 332.018 124.711 332.257 125.301C332.761 126.524 333.506 127.633 334.447 128.562C334.818 128.931 335.217 129.27 335.641 129.577C336.589 130.262 337.618 130.827 338.705 131.258C339.928 131.744 341.189 132.125 342.477 132.395C343.861 132.701 345.268 132.9 346.683 132.988C348.08 133.077 349.482 133.011 350.864 132.792C352.134 132.594 353.37 132.219 354.536 131.678C355.582 131.195 356.542 130.546 357.379 129.755C358.117 129.063 358.76 128.275 359.29 127.413C359.724 126.696 360.068 125.928 360.314 125.126C360.363 124.948 360.42 124.776 360.462 124.608C360.497 124.439 360.53 124.276 360.562 124.119C360.578 124.041 360.597 123.964 360.61 123.888C360.622 123.813 360.627 123.738 360.637 123.666C360.655 123.519 360.673 123.38 360.69 123.249C360.727 122.721 360.752 122.299 360.749 122.011C360.757 121.719 360.792 121.554 360.856 121.539Z" fill="white"></path> <path d="M380.181 158.529C380.054 158.5 380.011 158.096 380.042 157.397C380.063 157.05 380.089 156.625 380.12 156.132C380.15 155.639 380.211 155.087 380.245 154.47C380.269 154.163 380.293 153.842 380.318 153.507C380.339 153.171 380.36 152.823 380.382 152.461C380.437 151.741 380.46 150.967 380.503 150.157C380.516 149.751 380.53 149.335 380.544 148.909C380.562 148.484 380.571 148.049 380.577 147.606C380.601 146.722 380.6 145.804 380.61 144.863C380.604 143.922 380.599 143.002 380.594 142.115C380.582 141.225 380.572 140.366 380.562 139.548C380.534 137.911 380.517 136.432 380.52 135.186C380.527 132.696 380.646 131.141 380.907 131.122C381.168 131.104 381.516 132.622 381.85 135.1C382.017 136.34 382.173 137.821 382.296 139.473C382.351 140.299 382.41 141.167 382.439 142.07C382.478 142.972 382.489 143.908 382.494 144.868C382.484 145.828 382.471 146.765 382.421 147.671C382.403 148.123 382.377 148.568 382.341 149.003C382.304 149.438 382.277 149.864 382.234 150.279C382.142 151.109 382.058 151.898 381.935 152.63C381.876 152.997 381.825 153.351 381.76 153.69C381.696 154.028 381.626 154.352 381.564 154.662C381.443 155.281 381.289 155.833 381.157 156.317C381.047 156.733 380.915 157.143 380.76 157.545C380.507 158.207 380.307 158.558 380.181 158.529Z" fill="white"></path> <path d="M311.918 163.692C311.788 163.699 311.642 163.263 311.489 162.466C311.411 162.067 311.334 161.578 311.262 161.009C311.19 160.44 311.112 159.792 311.049 159.074C310.912 157.639 310.804 155.926 310.734 154.022C310.704 153.07 310.674 152.07 310.669 151.033C310.657 149.997 310.666 148.923 310.681 147.823C310.705 146.724 310.733 145.651 310.782 144.615C310.823 143.579 310.889 142.581 310.952 141.631C311.089 139.731 311.258 138.023 311.446 136.593C311.534 135.877 311.634 135.232 311.727 134.666C311.82 134.1 311.914 133.615 312.005 133.219C312.186 132.428 312.348 131.997 312.477 132.009C312.607 132.02 312.692 132.475 312.736 133.281C312.757 133.685 312.769 134.177 312.777 134.748C312.785 135.319 312.777 135.968 312.775 136.685C312.759 138.117 312.729 139.821 312.687 141.711C312.645 143.601 312.608 145.677 312.565 147.856C312.532 150.036 312.5 152.113 312.47 154.003C312.441 155.892 312.416 157.596 312.381 159.028C312.359 159.745 312.342 160.393 312.315 160.963C312.288 161.534 312.257 162.026 312.222 162.428C312.149 163.235 312.048 163.685 311.918 163.692Z" fill="white"></path> <path d="M403.975 219.833C396.144 233.352 385.136 241.006 377.281 245.047C376.677 244.898 370.684 243.301 368.366 237.376C366.608 232.883 368.13 228.879 368.503 227.966C369.433 227.488 370.525 226.888 371.722 226.151C372.85 225.456 374.023 224.669 375.216 223.78C378.559 221.299 381.547 218.371 384.095 215.078C385.294 213.528 386.387 211.899 387.369 210.203C389.102 207.21 397.43 191.367 391.159 173.225C390.431 171.121 389.469 169.064 389.469 169.064C388.096 166.118 386.403 163.331 384.422 160.754C384.517 157.164 384.553 153.474 384.531 149.684C384.496 144.562 384.351 139.617 384.096 134.851C384.096 134.824 384.096 134.797 384.096 134.769C384.096 134.742 384.094 134.714 384.091 134.687C391.687 139.784 403.434 149.984 409.3 166.949C418.078 192.339 407.444 213.847 403.975 219.833Z" fill="#FFB400"></path> <path d="M378.622 245.615C378.608 245.678 378.505 245.718 378.317 245.733C378.048 245.752 377.779 245.74 377.513 245.698C377.341 245.672 377.151 245.64 376.942 245.6C376.735 245.556 376.514 245.492 376.275 245.427C375.735 245.268 375.208 245.068 374.698 244.829C374.077 244.538 373.479 244.2 372.909 243.818C372.255 243.371 371.64 242.87 371.07 242.32C370.437 241.709 369.865 241.039 369.361 240.317C368.26 238.761 367.513 236.981 367.172 235.105C367.01 234.24 366.932 233.361 366.939 232.481C366.946 231.689 367.019 230.899 367.158 230.119C367.284 229.444 367.461 228.78 367.689 228.133C367.875 227.601 368.101 227.085 368.366 226.588C368.487 226.371 368.596 226.169 368.709 225.99C368.827 225.813 368.936 225.655 369.038 225.514C369.194 225.294 369.374 225.093 369.575 224.914C369.718 224.791 369.818 224.745 369.873 224.78C369.928 224.814 369.936 224.928 369.901 225.109C369.871 225.293 369.778 225.533 369.688 225.852C369.64 226.011 369.584 226.184 369.52 226.371L369.338 226.987C369.212 227.428 369.08 227.931 368.97 228.491C368.848 229.099 368.76 229.712 368.704 230.329C368.648 231.033 368.638 231.739 368.674 232.444C368.83 235.67 370.118 238.737 372.312 241.107C372.789 241.626 373.3 242.113 373.842 242.565C374.321 242.958 374.821 243.324 375.34 243.662C375.817 243.976 376.268 244.234 376.671 244.453L377.239 244.754C377.417 244.84 377.579 244.921 377.726 244.998C378.017 245.156 378.254 245.258 378.406 245.366C378.56 245.466 378.635 245.551 378.622 245.615Z" fill="#04294F"></path> <path d="M379.953 251.24C380.043 251.333 379.938 251.592 379.651 251.996C379.463 252.227 379.261 252.446 379.046 252.652C378.916 252.766 378.772 252.883 378.617 253.008C378.456 253.141 378.286 253.263 378.108 253.373C377.707 253.638 377.286 253.871 376.849 254.069C376.611 254.168 376.366 254.281 376.107 254.373C375.846 254.459 375.578 254.558 375.298 254.633C374.715 254.795 374.12 254.915 373.519 254.992C373.208 255.03 372.889 255.07 372.567 255.083L372.079 255.11H371.585C370.942 255.107 370.3 255.064 369.663 254.981C369.355 254.941 369.054 254.886 368.76 254.838L367.906 254.651C366.927 254.415 365.976 254.076 365.069 253.638C364.451 253.346 363.876 252.972 363.357 252.527C362.998 252.198 362.85 251.951 362.919 251.844C363.066 251.616 364.009 251.997 365.538 252.391C366.304 252.589 367.22 252.787 368.253 252.949L369.041 253.059L369.864 253.145C370.423 253.188 371.003 253.227 371.595 253.224L372.036 253.226L372.47 253.209C372.758 253.205 373.039 253.178 373.315 253.156C373.869 253.111 374.396 253.032 374.896 252.942C375.146 252.898 375.384 252.835 375.621 252.787C375.855 252.732 376.076 252.662 376.295 252.606C376.725 252.473 377.128 252.342 377.483 252.194C377.657 252.132 377.828 252.061 377.994 251.982L378.451 251.781C378.726 251.636 378.978 251.526 379.184 251.429C379.587 251.224 379.862 251.146 379.953 251.24Z" fill="#04294F"></path> <path d="M336.359 246.365C336.359 246.495 336.175 246.626 335.852 246.75C335.69 246.809 335.495 246.876 335.269 246.95C335.044 247.02 334.789 247.089 334.511 247.179L334.075 247.308L333.609 247.458C333.447 247.504 333.282 247.563 333.113 247.622C332.945 247.682 332.769 247.734 332.592 247.804L332.052 248.007C331.869 248.078 331.686 248.161 331.497 248.236C331.308 248.312 331.12 248.401 330.928 248.487C330.736 248.573 330.542 248.661 330.351 248.761C329.96 248.946 329.593 249.153 329.235 249.347L328.716 249.649C328.547 249.749 328.387 249.856 328.226 249.954C328.066 250.052 327.912 250.153 327.765 250.254C327.617 250.355 327.467 250.446 327.331 250.544C327.06 250.744 326.791 250.914 326.563 251.093L325.92 251.555C325.824 251.624 325.733 251.686 325.646 251.742L325.519 251.821C325.48 251.846 325.459 251.849 325.432 251.865C325.386 251.886 325.349 251.921 325.327 251.966C325.318 252 325.337 252.013 325.348 252.01C325.382 252.006 325.357 251.919 325.313 251.905C325.297 251.897 325.279 251.892 325.261 251.89C325.235 251.885 325.21 251.884 325.184 251.888C325.121 251.902 325.056 251.905 324.992 251.898C324.953 251.894 324.916 251.881 324.884 251.858C324.851 251.836 324.825 251.806 324.808 251.77C324.775 251.668 324.78 251.556 324.822 251.457C324.844 251.4 324.87 251.344 324.898 251.29C324.921 251.246 324.944 251.199 324.969 251.151C325.02 251.055 325.079 250.952 325.143 250.843C325.289 250.596 325.453 250.361 325.633 250.138C325.847 249.864 326.075 249.602 326.318 249.354C326.447 249.217 326.592 249.09 326.739 248.953C326.885 248.816 327.038 248.679 327.205 248.55C327.371 248.421 327.538 248.281 327.717 248.151L328.276 247.769C328.677 247.513 329.091 247.28 329.518 247.07C329.735 246.958 329.955 246.859 330.176 246.77C330.397 246.681 330.61 246.585 330.83 246.515C331.049 246.445 331.26 246.365 331.473 246.304L332.1 246.139C332.304 246.087 332.509 246.057 332.703 246.017C332.898 245.978 333.09 245.948 333.277 245.931L333.816 245.876C333.989 245.864 334.157 245.864 334.316 245.861C334.602 245.853 334.888 245.867 335.173 245.901C335.39 245.918 335.606 245.957 335.815 246.017C336.17 246.117 336.357 246.235 336.359 246.365Z" fill="#04294F"></path> <path d="M342.766 243.636C342.637 243.646 342.492 243.336 342.338 242.763C342.261 242.477 342.184 242.125 342.114 241.715C342.045 241.304 341.967 240.835 341.909 240.316C341.78 239.276 341.686 238.033 341.638 236.65C341.621 235.959 341.602 235.233 341.616 234.48C341.62 233.727 341.65 232.947 341.686 232.15C341.734 231.352 341.785 230.574 341.861 229.825C341.927 229.075 342.021 228.355 342.111 227.669C342.303 226.297 342.527 225.072 342.765 224.052C342.877 223.541 343.002 223.083 343.116 222.683C343.229 222.282 343.342 221.94 343.449 221.663C343.66 221.11 343.838 220.816 343.966 220.84C344.093 220.864 344.16 221.202 344.171 221.789C344.175 222.082 344.168 222.439 344.155 222.851C344.143 223.263 344.11 223.728 344.083 224.244C344.013 225.27 343.93 226.491 343.836 227.847C343.796 228.525 343.739 229.234 343.699 229.97C343.659 230.707 343.612 231.468 343.566 232.247C343.529 233.028 343.494 233.791 343.459 234.527C343.425 235.264 343.405 235.975 343.372 236.653C343.322 238.011 343.276 239.235 343.238 240.262C343.211 240.778 343.194 241.244 343.164 241.655C343.135 242.067 343.104 242.422 343.068 242.713C342.997 243.297 342.896 243.626 342.766 243.636Z" fill="#04294F"></path> <path d="M343.328 234.853C343.298 234.978 343.074 235.057 342.687 235.072C342.135 235.081 341.585 235.002 341.058 234.84C340.67 234.727 340.297 234.568 339.947 234.366C339.507 234.112 339.121 233.776 338.809 233.376C338.455 232.908 338.218 232.363 338.118 231.786C338.033 231.259 337.998 230.724 338.013 230.19C338.019 226.224 338.446 223.009 338.966 223.01C339.486 223.01 339.903 226.226 339.898 230.193C339.885 230.624 339.899 231.055 339.941 231.484C339.973 231.8 340.072 232.106 340.232 232.38C340.579 232.895 341.045 233.319 341.589 233.617C342.096 233.93 342.563 234.161 342.875 234.363C343.187 234.565 343.358 234.725 343.328 234.853Z" fill="#04294F"></path> <path d="M324.873 260.992C324.617 261.016 324.348 260.725 324.16 260.206C323.957 259.536 323.894 258.832 323.976 258.136C324.058 257.441 324.282 256.77 324.635 256.166C324.937 255.704 325.266 255.484 325.51 255.567C325.758 255.651 325.88 256.011 325.921 256.511C325.966 257.745 325.821 258.979 325.491 260.169C325.337 260.645 325.134 260.968 324.873 260.992Z" fill="#04294F"></path> <path d="M323.421 274.02C322.904 274 322.566 271.951 322.814 269.456C323.061 266.961 323.788 265.017 324.298 265.098C324.815 265.18 324.926 267.205 324.688 269.641C324.451 272.076 323.944 274.042 323.421 274.02Z" fill="#04294F"></path> <path d="M323.142 284.217C322.626 284.249 322.11 282.683 322.155 280.719C322.199 278.755 322.78 277.213 323.294 277.268C323.815 277.323 324.077 278.882 324.039 280.761C323.995 282.639 323.664 284.186 323.142 284.217Z" fill="#04294F"></path> <path d="M322.428 295.278C322.171 295.224 322.035 294.751 321.975 294.044C321.89 292.248 321.961 290.448 322.189 288.664C322.305 287.963 322.477 287.502 322.737 287.468C322.992 287.435 323.289 287.845 323.516 288.561C324.034 290.435 323.955 292.424 323.291 294.252C323.008 294.947 322.68 295.332 322.428 295.278Z" fill="#04294F"></path> <path d="M322.256 305.49C321.735 305.49 321.314 304.129 321.314 302.451C321.314 300.773 321.736 299.412 322.256 299.412C322.777 299.412 323.198 300.773 323.198 302.451C323.198 304.129 322.777 305.49 322.256 305.49Z" fill="#04294F"></path> <path d="M321.875 318.729C321.354 318.741 320.895 317.098 320.848 315.06C320.801 313.022 321.184 311.36 321.705 311.348C322.225 311.336 322.684 312.979 322.731 315.017C322.778 317.055 322.395 318.717 321.875 318.729Z" fill="#04294F"></path> <path d="M322.316 331.965C322.059 331.99 321.78 331.588 321.557 330.904C321.055 329.127 321.02 327.25 321.458 325.456C321.655 324.765 321.919 324.352 322.178 324.369C322.7 324.408 322.998 326.1 323.039 328.152C323.074 330.204 322.837 331.907 322.316 331.965Z" fill="#04294F"></path> <path d="M322.518 343.469C322.262 343.503 321.973 343.145 321.742 342.519C321.214 340.888 321.195 339.134 321.687 337.492C321.904 336.861 322.185 336.497 322.442 336.525C322.699 336.554 322.891 336.964 323.015 337.589C323.265 339.179 323.283 340.797 323.068 342.393C322.957 343.021 322.777 343.434 322.518 343.469Z" fill="#04294F"></path> <path d="M323.623 354.969C323.107 355.042 322.478 353.598 322.217 351.742C321.955 349.886 322.162 348.324 322.677 348.252C323.191 348.179 323.821 349.623 324.082 351.479C324.343 353.335 324.138 354.897 323.623 354.969Z" fill="#04294F"></path> <path d="M417.747 337.834C417.866 337.87 417.89 338.266 417.716 338.94C417.44 339.872 417.03 340.76 416.5 341.575C416.181 342.093 415.81 342.638 415.401 343.204C414.995 343.775 414.544 344.372 414.061 344.994C413.573 345.612 413.051 346.253 412.494 346.904C411.936 347.556 411.342 348.216 410.722 348.88C410.102 349.543 409.477 350.175 408.864 350.775C408.252 351.374 407.645 351.936 407.058 352.46C406.47 352.985 405.902 353.472 405.357 353.913C404.819 354.36 404.299 354.754 403.825 355.114C403.343 355.465 402.909 355.783 402.511 356.041C402.114 356.3 401.771 356.522 401.477 356.683C400.889 357.009 400.527 357.14 400.447 357.037C400.367 356.935 400.574 356.61 401.016 356.112C401.239 355.865 401.509 355.563 401.838 355.231C402.168 354.898 402.536 354.514 402.955 354.106L405.862 351.202L407.556 349.474C408.138 348.87 408.737 348.241 409.347 347.593C409.957 346.945 410.543 346.303 411.109 345.684L412.727 343.883L414.175 342.236C414.632 341.719 415.048 341.24 415.416 340.8C415.998 340.111 416.542 339.39 417.045 338.642C417.406 338.106 417.618 337.794 417.747 337.834Z" fill="#04294F"></path> <path d="M325.29 360.797C325.338 361.31 320.179 362.211 313.752 362.583C307.326 362.96 302.098 362.665 302.085 362.149C302.073 361.624 307.252 361.076 313.643 360.701C320.034 360.331 325.242 360.274 325.29 360.797Z" fill="#04294F"></path> <path d="M408.171 192.187C408.078 192.095 408.147 191.849 408.346 191.48C408.544 191.112 408.873 190.622 409.278 190.037L409.923 189.087C410.142 188.744 410.379 188.383 410.594 187.994C411.067 187.19 411.418 186.32 411.634 185.412C411.724 184.974 411.761 184.527 411.744 184.08C411.719 183.654 411.653 183.231 411.547 182.818C411.443 182.445 411.302 182.083 411.127 181.738C411.053 181.568 410.948 181.433 410.867 181.282C410.769 181.149 410.679 181.013 410.582 180.894C410.404 180.68 410.207 180.481 409.994 180.301C409.896 180.227 409.802 180.151 409.716 180.081C409.624 180.025 409.538 179.968 409.46 179.913C409.392 179.861 409.32 179.814 409.245 179.771C409.187 179.735 409.132 179.696 409.08 179.652C408.99 179.574 408.941 179.501 408.947 179.437C408.953 179.372 409.015 179.318 409.134 179.276C409.207 179.252 409.282 179.234 409.358 179.222C409.459 179.203 409.562 179.198 409.664 179.208C409.779 179.215 409.907 179.228 410.05 179.247C410.187 179.279 410.334 179.323 410.494 179.373C410.85 179.506 411.185 179.689 411.489 179.917C411.662 180.054 411.828 180.199 411.986 180.353C412.15 180.525 412.303 180.707 412.445 180.898C412.753 181.319 413.004 181.779 413.194 182.266C413.394 182.807 413.526 183.37 413.586 183.944C413.642 184.571 413.605 185.203 413.476 185.819C413.343 186.407 413.146 186.977 412.887 187.52C412.653 188.014 412.376 188.486 412.059 188.93C411.781 189.322 411.478 189.697 411.154 190.052C410.85 190.379 410.558 190.67 410.279 190.919C409.846 191.32 409.376 191.679 408.876 191.99C408.511 192.204 408.264 192.277 408.171 192.187Z" fill="#F04E23"></path> <path d="M274.454 199.978C274.515 199.997 274.559 200.065 274.582 200.181C274.61 200.342 274.611 200.506 274.584 200.667C274.568 200.769 274.547 200.882 274.52 201.006C274.489 201.128 274.444 201.256 274.396 201.396C274.279 201.71 274.13 202.01 273.952 202.293C273.734 202.64 273.482 202.964 273.199 203.259C272.868 203.599 272.501 203.902 272.105 204.163C271.662 204.455 271.183 204.691 270.682 204.865C269.584 205.254 268.398 205.319 267.265 205.05C266.747 204.932 266.247 204.749 265.774 204.507C265.352 204.29 264.955 204.029 264.589 203.727C264.275 203.464 263.99 203.17 263.736 202.849C263.528 202.587 263.347 202.304 263.197 202.005C263.135 201.871 263.076 201.749 263.033 201.631C262.989 201.513 262.959 201.401 262.932 201.302C262.888 201.145 262.871 200.981 262.881 200.818C262.892 200.7 262.928 200.628 262.987 200.602C263.028 200.592 263.071 200.592 263.112 200.601C263.154 200.611 263.192 200.63 263.225 200.657C263.347 200.742 263.463 200.837 263.57 200.94C263.639 201.002 263.713 201.071 263.789 201.147L264.048 201.383C264.232 201.549 264.442 201.731 264.684 201.913C264.944 202.11 265.215 202.292 265.497 202.456C265.816 202.638 266.148 202.795 266.491 202.927C266.863 203.069 267.247 203.176 267.639 203.244C268.464 203.397 269.313 203.35 270.117 203.11C270.499 202.999 270.87 202.852 271.223 202.671C271.55 202.502 271.864 202.31 272.161 202.095C272.423 201.9 272.673 201.69 272.91 201.466C273.132 201.259 273.322 201.055 273.486 200.87L273.718 200.608C273.785 200.524 273.85 200.447 273.913 200.379C274.008 200.265 274.113 200.158 274.225 200.06C274.254 200.029 274.29 200.006 274.33 199.992C274.369 199.978 274.412 199.973 274.454 199.978Z" fill="#F04E23"></path> <path fill-rule="evenodd" clip-rule="evenodd" d="M334.566 121.777V113.748C326.978 112.777 313.373 110.047 313.373 92.4214C313.373 85.1624 312.88 72.4668 312.458 62.9454C311.929 51.0086 320.582 40.5638 332.428 39.0478C335.654 38.6268 338.928 38.7775 342.102 39.4931C351.48 41.6271 356.97 48.1621 358.768 50.5178C358.768 50.512 358.77 50.5115 358.771 50.5112C358.946 50.4289 368.457 70.0052 357.855 103.304C356.447 107.726 357.222 114.642 357.294 123.657C357.325 127.522 351.119 130.589 344.347 129.717C338.073 128.91 334.566 125.29 334.566 121.777Z" fill="#FFB400"></path> <path d="M345.592 111.215C345.657 111.328 345.598 111.501 345.429 111.722C345.329 111.853 345.216 111.972 345.092 112.079C344.935 112.222 344.768 112.354 344.593 112.474C344.142 112.786 343.66 113.052 343.155 113.267C342.87 113.385 342.568 113.511 342.246 113.608C341.926 113.715 341.588 113.8 341.239 113.883C340.889 113.953 340.545 114.016 340.21 114.052C339.876 114.097 339.55 114.108 339.241 114.12C338.692 114.133 338.144 114.091 337.603 113.995C337.394 113.959 337.188 113.908 336.986 113.843C336.829 113.797 336.676 113.736 336.531 113.659C336.284 113.528 336.16 113.394 336.172 113.265C336.184 113.136 336.332 113.022 336.58 112.927C336.705 112.88 336.855 112.837 337.027 112.79C337.199 112.742 337.392 112.707 337.604 112.661C338.029 112.579 338.527 112.488 339.074 112.39C339.346 112.335 339.634 112.29 339.928 112.226L340.839 112.04L341.744 111.831C342.038 111.767 342.318 111.688 342.589 111.625C343.127 111.488 343.618 111.363 344.038 111.261C344.251 111.216 344.441 111.168 344.617 111.138C344.792 111.107 344.947 111.086 345.079 111.076C345.346 111.06 345.527 111.104 345.592 111.215Z" fill="#F04E23"></path> <path fill-rule="evenodd" clip-rule="evenodd" d="M312.553 31.222C312.31 31.0077 312.019 30.8563 311.704 30.7813C311.389 30.7062 311.061 30.7099 310.748 30.7919C310.435 30.8739 310.146 31.0317 309.909 31.2514C309.671 31.4711 309.491 31.746 309.384 32.0519C308.995 33.1727 308.671 34.315 308.414 35.4731C307.735 38.5424 306.744 46.1953 310.193 52.7991C310.82 54.0116 311.689 55.0824 312.746 55.9454C313.803 56.8085 315.025 57.4455 316.338 57.8171C334.054 62.7415 354.318 47.259 349.946 81.7098C350.002 83.9175 352.404 83.2221 352.925 81.4366C353.667 79.3463 353.487 77.0093 354.269 74.9341C355.257 72.2238 358.045 71.3098 359.676 72.482C360.467 73.0503 360.772 74.1236 360.9 75.6317C361.553 83.3646 357.704 87.3452 358.691 93.8634C358.816 94.6884 359.038 95.731 359.985 95.5651C360.19 95.5241 360.382 95.4337 360.545 95.3017C360.707 95.1696 360.834 95 360.916 94.8074C361.02 94.5766 361.129 94.34 361.243 94.0974C364.504 87.2314 369.287 83.4546 370.906 81.9593C376.309 76.9722 380.129 65.0184 378.177 56.6403C375.308 44.3228 358.992 34.5974 344.945 34.0932C333.844 33.6968 324.505 39.0719 315.048 33.0882C314.169 32.5316 313.335 31.9077 312.553 31.222V31.222Z" fill="#F04E23"></path> <path d="M355.738 78.2803C355.828 77.9735 355.973 77.6859 356.167 77.4319C356.242 77.3213 356.347 77.2354 356.47 77.185C356.594 77.1347 356.729 77.1223 356.859 77.1493C357.134 77.2492 357.285 77.6163 357.377 77.9766C357.536 78.6143 357.594 79.2729 357.55 79.9287C357.535 80.4427 357.41 80.9474 357.184 81.4093C356.693 82.3141 355.787 82.2901 355.455 81.369C355.156 80.5425 355.456 79.1209 355.738 78.2803Z" fill="#F04E23"></path> <path d="M323.192 52.0099C323.174 52.131 322.905 52.1965 322.418 52.2091C322.297 52.2117 322.162 52.212 322.014 52.2073C321.869 52.192 321.711 52.1726 321.542 52.1489L320.998 52.0643C320.805 52.0333 320.61 51.971 320.4 51.917C320.192 51.8591 319.971 51.8013 319.745 51.7291L319.057 51.4648C318.938 51.418 318.816 51.3708 318.695 51.3191L318.335 51.1415C318.093 51.0171 317.836 50.8999 317.589 50.7544L316.836 50.2898C316.579 50.1301 316.341 49.9344 316.087 49.7507C315.829 49.5623 315.582 49.3591 315.348 49.1423C315.096 48.9304 314.857 48.7044 314.631 48.4654C314.405 48.2209 314.161 47.9971 313.963 47.7406C313.758 47.4887 313.555 47.2413 313.362 46.9942L312.842 46.2294C312.667 45.9836 312.54 45.7139 312.395 45.4655C312.325 45.3395 312.257 45.215 312.189 45.0921C312.124 44.968 312.072 44.8386 312.014 44.7149L311.696 43.9891C311.615 43.7463 311.536 43.5122 311.46 43.287C311.384 43.073 311.322 42.8543 311.275 42.6321C311.179 42.2545 311.11 41.8705 311.068 41.4831C311.036 41.1366 311.019 40.8534 311.018 40.5977C311.01 40.4796 311.027 40.361 311.069 40.2504C311.112 40.1398 311.178 40.0399 311.263 39.9578C311.307 39.9218 311.362 39.8999 311.418 39.895C311.475 39.8901 311.532 39.9023 311.582 39.9302C311.629 39.9624 311.6 39.9944 311.591 40.096C311.588 40.1562 311.596 40.2163 311.613 40.274C311.636 40.3466 311.666 40.4172 311.7 40.4852C311.798 40.6802 311.914 40.9456 312.03 41.2379C312.133 41.537 312.31 41.858 312.461 42.2213C312.542 42.4113 312.632 42.597 312.732 42.7775C312.829 42.9691 312.929 43.1675 313.033 43.3728L313.396 43.9863C313.459 44.0914 313.516 44.2015 313.584 44.3074L313.798 44.624C313.947 44.8334 314.074 45.0651 314.245 45.2754L314.741 45.9326L315.295 46.5793C315.476 46.8048 315.696 47 315.896 47.218C316.096 47.4359 316.315 47.6312 316.528 47.8254C316.732 48.0231 316.946 48.2103 317.169 48.3866C317.389 48.5583 317.593 48.7456 317.813 48.9008L318.454 49.3633C318.665 49.5119 318.883 49.6359 319.088 49.7709L319.393 49.9673L319.699 50.1369L320.282 50.4655L320.838 50.7377C321.017 50.821 321.182 50.9198 321.347 50.9873L321.812 51.1911C321.957 51.2572 322.092 51.3214 322.217 51.3832C322.344 51.4348 322.46 51.4835 322.565 51.5315C322.98 51.7224 323.211 51.8874 323.192 52.0099Z" fill="#FFB400"></path> <path d="M368.999 75.506C368.913 75.419 369.017 75.1348 369.271 74.7066C369.335 74.5993 369.407 74.4832 369.488 74.3584L369.735 73.9388C369.91 73.6381 370.134 73.3194 370.334 72.9344L370.668 72.3487C370.784 72.1457 370.884 71.9215 371.001 71.6992C371.242 71.2587 371.445 70.76 371.678 70.2487C371.793 69.9922 371.883 69.7165 371.993 69.4439C372.046 69.3068 372.099 69.1683 372.154 69.0285C372.199 68.8854 372.245 68.741 372.291 68.5954C372.378 68.3024 372.496 68.0137 372.567 67.7057C372.648 67.4008 372.729 67.0918 372.812 66.7786C372.877 66.4615 372.941 66.1484 373.005 65.8392C373.078 65.5317 373.101 65.2209 373.154 64.9203C373.177 64.7692 373.2 64.6195 373.223 64.4713C373.237 64.322 373.25 64.1741 373.263 64.0275C373.288 63.735 373.329 63.4479 373.34 63.167C373.358 62.6053 373.399 62.0686 373.378 61.5663C373.372 61.3153 373.383 61.0702 373.37 60.8367C373.356 60.6033 373.344 60.3781 373.331 60.1633C373.322 59.7295 373.263 59.3441 373.241 58.9973L373.207 58.5118C373.189 58.3639 373.175 58.2277 373.166 58.1031C373.129 57.6064 373.162 57.3055 373.278 57.266C373.394 57.2265 373.583 57.4538 373.83 57.9122C373.892 58.0278 373.957 58.1566 374.026 58.2986C374.089 58.4426 374.145 58.6033 374.208 58.776C374.356 59.1655 374.477 59.5647 374.571 59.9708L374.73 60.6805C374.782 60.9289 374.807 61.191 374.846 61.4614C374.923 62.0391 374.966 62.6208 374.975 63.2035C374.986 63.5115 374.962 63.8265 374.954 64.1494C374.948 64.3106 374.941 64.4736 374.934 64.6384C374.916 64.8021 374.897 64.9673 374.879 65.134C374.834 65.4674 374.815 65.8093 374.743 66.149C374.676 66.4891 374.609 66.8341 374.54 67.184C374.446 67.5274 374.353 67.8665 374.261 68.2014C374.175 68.5376 374.04 68.8535 373.932 69.1707L373.76 69.6397C373.693 69.7902 373.627 69.9393 373.561 70.0867C373.425 70.3781 373.305 70.6723 373.159 70.9433C372.892 71.461 372.594 71.9627 372.269 72.4459C372.114 72.671 371.975 72.8936 371.816 73.0935L371.357 73.6592C371.093 73.9814 370.807 74.2851 370.501 74.5679C370.368 74.694 370.247 74.8127 370.127 74.914C370.002 75.0112 369.886 75.0975 369.78 75.1729C369.356 75.4737 369.085 75.5931 368.999 75.506Z" fill="#FFB400"></path> <path d="M368.271 66.2741C368.217 66.245 368.207 66.1352 368.234 65.9641C368.261 65.793 368.319 65.559 368.397 65.274C368.474 64.989 368.564 64.6552 368.66 64.2844C368.703 64.0977 368.757 63.9046 368.799 63.7009C368.847 63.4993 368.887 63.2877 368.933 63.0727C368.971 62.8558 369.013 62.6454 369.045 62.4401C369.082 62.2366 369.105 62.0362 369.135 61.8472C369.185 61.4676 369.228 61.1231 369.261 60.8308C369.295 60.5386 369.332 60.2989 369.37 60.1301C369.407 59.9613 369.459 59.8632 369.52 59.8569C369.581 59.8506 369.647 59.937 369.713 60.1025C369.799 60.3344 369.858 60.5756 369.888 60.8211C369.939 61.1821 369.959 61.5467 369.949 61.9111C369.94 62.1163 369.933 62.3331 369.906 62.5556C369.884 62.7788 369.845 63.008 369.804 63.2422C369.755 63.4749 369.704 63.7018 369.641 63.9168C369.583 64.1335 369.509 64.3371 369.44 64.5306C369.312 64.8722 369.157 65.2024 368.974 65.518C368.854 65.7343 368.71 65.9359 368.543 66.1187C368.419 66.247 368.325 66.3015 368.271 66.2741Z" fill="#FFB400"></path> <path d="M326.312 50.7415C326.289 50.7981 326.15 50.8012 325.916 50.7564C325.775 50.73 325.636 50.6927 325.5 50.645C325.319 50.5874 325.142 50.5201 324.968 50.4433C324.514 50.2465 324.078 50.0113 323.664 49.7402C323.433 49.5827 323.187 49.4205 322.952 49.2267C322.709 49.0417 322.475 48.8297 322.236 48.6121C322.006 48.3851 321.782 48.1623 321.584 47.9302C321.378 47.7056 321.203 47.4684 321.033 47.2465C320.74 46.8473 320.482 46.4238 320.261 45.9806C320.175 45.8114 320.098 45.6376 320.031 45.46C319.976 45.3271 319.931 45.1901 319.897 45.0502C319.839 44.8185 319.835 44.68 319.89 44.6536C319.946 44.6272 320.055 44.7151 320.204 44.8915C320.276 44.981 320.363 45.0904 320.463 45.217C320.562 45.3437 320.666 45.4924 320.793 45.6489C321.034 45.9686 321.332 46.338 321.672 46.7359C321.848 46.9298 322.024 47.1409 322.225 47.3424C322.418 47.5515 322.631 47.7536 322.845 47.9662C323.068 48.1687 323.282 48.3706 323.501 48.5517C323.713 48.7415 323.933 48.9059 324.136 49.0713C324.553 49.3901 324.936 49.6672 325.268 49.8908C325.431 50.0092 325.586 50.1029 325.717 50.1973L326.056 50.4394C326.242 50.5798 326.335 50.6846 326.312 50.7415Z" fill="#FFB400"></path> <path d="M331.223 51.2433C331.194 51.2977 331.088 51.3059 330.918 51.272C330.815 51.252 330.715 51.2227 330.618 51.1847C330.49 51.1386 330.364 51.0847 330.242 51.0233C329.924 50.8655 329.621 50.6784 329.337 50.4644C329.179 50.3409 329.011 50.2125 328.852 50.0623C328.688 49.9172 328.531 49.7537 328.372 49.5858C328.218 49.4111 328.071 49.2393 327.942 49.0623C327.808 48.8898 327.696 48.7102 327.586 48.541C327.4 48.2381 327.242 47.9186 327.115 47.5865C327.066 47.4596 327.024 47.3297 326.99 47.1976C326.961 47.0974 326.942 46.9948 326.931 46.891C326.914 46.7177 326.932 46.6129 326.988 46.5897C327.045 46.5664 327.135 46.6265 327.247 46.751C327.302 46.813 327.365 46.8917 327.437 46.9816L327.668 47.2901C327.834 47.5192 328.034 47.7859 328.259 48.0766C328.376 48.219 328.491 48.3732 328.623 48.5232C328.749 48.6774 328.888 48.8295 329.027 48.9888C329.172 49.1419 329.31 49.2948 329.452 49.4349C329.588 49.5802 329.731 49.7096 329.861 49.8391C330.13 50.0905 330.376 50.3152 330.588 50.5021L330.874 50.7612C330.956 50.8416 331.028 50.9109 331.085 50.9719C331.2 51.0952 331.252 51.1903 331.223 51.2433Z" fill="#FFB400"></path> <path d="M353.206 67.6746C355.307 66.7826 357.796 65.6151 360.318 64.24C360.6 64.0803 361.703 63.4241 362.29 62.9795C362.509 62.8078 362.809 62.7878 363.049 62.9182C363.658 63.2427 364.115 63.7909 364.326 64.4536C364.295 64.3764 364.247 64.3218 364.2 64.2673C364.009 64.0491 363.678 63.9919 363.416 64.149C362.833 64.4711 362.251 64.7933 361.665 65.0954C358.982 66.4719 356.221 67.7166 353.401 68.8269C351.331 69.6537 349.977 70.0997 349.977 70.0997C349.795 69.799 349.573 69.5036 349.335 69.2309C350.337 68.8727 351.68 68.3469 353.206 67.6746Z" fill="#00ACDC"></path> <path d="M311.079 63.194C311.314 63.1421 311.53 63.0928 311.765 63.0409C311.924 63.0196 312.085 63.0182 312.246 63.0168C312.326 63.0062 312.388 63.0181 312.47 63.0274C315.328 63.2531 313.32 64.3966 327.218 66.8173C340.061 69.0545 340.263 66.6499 345.103 67.1986C347.197 67.4457 348.526 68.3237 349.355 69.2284C349.593 69.5012 349.815 69.7966 349.997 70.0973C349.997 70.0973 351.351 69.6512 353.421 68.8245C356.241 67.7142 358.982 66.4721 361.685 65.093C362.271 64.7908 362.853 64.4687 363.436 64.1466C363.698 63.9895 364.029 64.0467 364.22 64.2649C364.267 64.3194 364.315 64.374 364.346 64.4511C364.348 64.4711 364.351 64.491 364.374 64.5083C364.558 65.1337 364.684 65.7671 364.77 66.4059C364.96 67.823 364.914 68.6827 364.849 69.0979C364.816 69.3055 364.696 69.4638 364.528 69.5677C364.247 69.7274 363.945 69.8898 363.664 70.0495C363.399 70.1866 358.188 72.7359 358.188 72.7359C356.645 73.4308 355.262 73.962 354.206 74.3681C352.687 74.9379 351.759 75.2455 351.759 75.2455C352.06 76.5868 352.359 78.2128 352.617 80.129C353.086 83.622 353.179 86.2714 353.114 88.1903C353.108 88.5975 353.043 89.0127 352.912 89.396C352.63 90.0028 352.283 90.5778 351.869 91.1008C349.913 93.6801 346.561 95.4918 343.128 96.0952C344.957 95.7276 346.285 94.1877 346.52 92.3274C346.543 92.2023 346.526 91.9202 346.529 91.7977C346.595 89.8788 346.5 87.3718 346.031 83.8788C345.372 78.9686 344.376 76.2169 343.697 74.6215C343.224 73.5065 342.393 72.5818 341.247 72.1668C338.999 71.3714 333.935 70.0603 322.665 68.4043C317.843 67.6906 314.803 67.1642 312.481 66.8665C311.041 66.6738 310.029 66.505 308.993 66.4613C308.809 66.4454 308.464 66.4308 308.285 66.4548C306.524 66.4272 304.85 67.6477 304.161 69.2846C304.791 67.6557 306.018 64.4631 311.079 63.194Z" fill="#10294C"></path> <path d="M303.922 70.6578C303.931 70.1282 304.043 69.6052 304.259 69.1088L304.276 69.0862C304.968 67.4693 306.544 66.4244 308.305 66.452C308.486 66.448 308.67 66.4639 308.851 66.4599C309.887 66.5036 311.013 66.6165 312.453 66.8092C314.775 67.1069 317.892 67.6026 322.714 68.3164C333.984 69.9724 339.078 71.3607 341.326 72.156C342.45 72.5537 343.375 73.4252 343.848 74.5402C344.524 76.1156 345.439 79.0204 346.099 83.9306C346.568 87.4236 346.661 90.073 346.596 91.9919C346.592 92.1143 346.591 92.2567 346.568 92.3818C346.353 94.2395 344.96 95.7474 343.128 96.0951C342.833 96.155 342.533 96.175 342.23 96.1751C339.133 96.1238 334.002 95.8173 326.261 94.7236C322.618 94.2172 318.988 93.506 315.428 92.5618C312.427 91.7254 310.567 90.9592 309.194 90.5137C307.991 90.1267 307.019 89.2007 306.557 88.0231C305.924 86.4623 305.143 83.6613 304.486 78.7711C303.993 75.0984 303.865 72.4942 303.922 70.6578Z" fill="#00ACDC"></path> <path d="M305.277 72.1827C305.29 71.673 305.404 71.17 305.603 70.6962L305.62 70.6736C306.277 69.1019 307.837 68.0796 309.538 68.1152C309.699 68.1139 309.841 68.1152 310.005 68.1338C310.817 68.1669 311.737 68.2466 313.012 68.4207C313.875 68.5283 315.099 68.7703 316.51 69.0481C318.209 69.3685 320.327 69.7953 322.487 70.0943C331.017 71.3463 337.247 72.765 339.41 73.5311C340.514 73.9314 341.394 74.7683 341.861 75.8434C342.421 77.15 343.19 79.5665 343.742 83.6782C344.059 85.8911 344.198 88.128 344.156 90.369C344.152 90.4914 344.148 90.6138 344.125 90.7389C343.922 92.5341 342.563 93.9967 340.791 94.3364L340.533 94.371C340.335 94.3977 340.133 94.4044 339.932 94.4111C337.543 94.3663 331.926 93.9016 325.195 92.9567C321.221 92.3932 317.3 91.3147 315.181 90.7256C313.336 90.2216 312.04 89.7454 311 89.377C310.662 89.2599 310.323 89.1429 310.046 89.0378C308.882 88.6455 307.955 87.7541 307.499 86.6164C306.799 84.8613 306.207 82.2586 305.756 78.9053C305.416 76.6751 305.258 74.4409 305.277 72.1827ZM330.195 92.2851C332.924 92.6093 335.358 92.831 337.234 92.9651L336.789 89.6517C336.163 89.6545 334.985 89.6095 333.144 89.4302C332 89.3399 330.866 89.1671 329.747 88.9517L330.195 92.2851ZM308.686 86.1318C308.994 86.9235 309.641 87.5276 310.443 87.7856C310.74 87.888 311.059 88.0077 311.42 88.142C312.44 88.5131 313.713 88.972 315.496 89.464C317.592 90.0358 321.472 91.0997 325.344 91.6565C326.537 91.8213 327.711 91.9888 328.84 92.1216L328.311 88.1895C328.263 87.8302 328.52 87.4908 328.878 87.4429C328.977 87.4295 329.079 87.4362 329.163 87.4654C329.183 87.4628 330.409 87.8671 333.25 88.1154C334.602 88.2589 335.944 88.3225 337.297 88.3236C337.637 88.2982 337.955 88.5603 338 88.8996L338.558 93.0513C339.087 93.0819 339.554 93.1004 339.939 93.1096C340.143 93.1229 340.341 93.0963 340.537 93.0497C341.756 92.8046 342.673 91.8077 342.829 90.5675L342.857 90.32C342.91 88.1589 342.779 85.9819 342.472 83.8488C341.941 79.8967 341.208 77.5974 340.677 76.3479C340.357 75.6188 339.755 75.0493 339.01 74.7634C337.482 74.2167 332.042 72.8138 322.319 71.3971C320.136 71.0808 317.998 70.6567 316.299 70.3363C314.911 70.0757 313.707 69.8311 312.864 69.7208C311.65 69.5587 310.751 69.4763 309.978 69.4379C309.837 69.4366 309.695 69.4353 309.551 69.414C309.409 69.4127 309.248 69.4141 309.109 69.4327C308.097 69.5686 307.257 70.2301 306.856 71.1577L306.839 71.1803C306.701 71.5037 306.627 71.859 306.614 72.2064C306.603 74.3821 306.756 76.5764 307.066 78.7294C307.57 82.7866 308.23 84.9941 308.686 86.1318Z" fill="#10294C"></path> <path d="M310.155 74.9614C309.541 75.0438 308.947 74.3868 308.827 73.4939C308.707 72.6009 309.107 71.8103 309.721 71.7279C310.334 71.6454 310.929 72.3025 311.049 73.1954C311.169 74.0883 310.769 74.879 310.155 74.9614Z" fill="#10294C"></path> <path d="M313.974 75.4238C313.36 75.5062 312.766 74.8492 312.646 73.9563C312.526 73.0634 312.926 72.2727 313.539 72.1903C314.153 72.1078 314.748 72.7649 314.868 73.6578C314.988 74.5507 314.587 75.3414 313.974 75.4238Z" fill="#10294C"></path> <path d="M351.573 80.6346C351.179 80.7079 350.787 80.8011 350.399 80.9143C350.01 81.0274 349.644 81.1579 349.26 81.311C348.894 81.4415 348.513 81.6146 348.15 81.765C347.789 81.9354 347.431 82.1257 347.075 82.3361C346.89 82.4625 346.823 82.7154 346.949 82.9016C347.028 83.0334 347.177 83.0945 347.319 83.0959C347.741 83.0798 348.135 83.0065 348.546 82.9107C349.349 82.7216 350.135 82.4127 350.849 82.012C351.227 81.819 351.577 81.5688 351.905 81.3012C352.067 81.1575 352.095 80.91 351.951 80.7463C351.856 80.6372 351.729 80.5933 351.59 80.612L351.573 80.6346Z" fill="#00ACDC"></path> <path d="M351.201 77.8602C350.807 77.9334 350.415 78.0267 350.027 78.1398C349.638 78.253 349.272 78.3835 348.888 78.5366C348.522 78.6671 348.141 78.8401 347.778 78.9906C347.417 79.161 347.059 79.3513 346.703 79.5616C346.518 79.6881 346.451 79.9409 346.577 80.1272C346.656 80.2589 346.805 80.3201 346.947 80.3214C347.369 80.3054 347.763 80.2321 348.174 80.1362C348.977 79.9471 349.763 79.6383 350.477 79.2376C350.855 79.0446 351.205 78.7943 351.533 78.5268C351.695 78.3831 351.723 78.1355 351.579 77.9719C351.484 77.8628 351.357 77.8189 351.218 77.8376L351.201 77.8602Z" fill="#00ACDC"></path> <path d="M340.108 100.616C340.17 100.492 340.021 100.278 339.687 99.9917C339.487 99.817 339.272 99.662 339.043 99.529C338.745 99.3475 338.437 99.1829 338.121 99.0361C337.942 98.9613 337.754 98.8831 337.558 98.8014C337.46 98.762 337.359 98.7219 337.256 98.6811C337.152 98.6453 337.044 98.614 336.935 98.5802C336.715 98.5154 336.487 98.4485 336.252 98.3796C336.016 98.3165 335.767 98.2762 335.513 98.2244C335.254 98.1683 334.991 98.1284 334.726 98.105C334.456 98.0797 334.18 98.045 333.897 98.0321C333.614 98.0301 333.326 98.0281 333.033 98.0261C332.741 98.0271 332.445 98.0661 332.145 98.0885C331.848 98.1139 331.553 98.157 331.262 98.2176C331.118 98.2445 330.975 98.2713 330.833 98.2978C330.691 98.3262 330.554 98.3712 330.416 98.4073C330.144 98.489 329.871 98.5508 329.616 98.6507C329.361 98.7511 329.113 98.8494 328.869 98.9455C328.63 99.048 328.407 99.1751 328.187 99.2866C328.078 99.3444 327.971 99.4013 327.865 99.4574C327.765 99.5227 327.666 99.587 327.568 99.6502C327.377 99.7797 327.192 99.9046 327.015 100.025C326.846 100.158 326.69 100.294 326.541 100.421C326.272 100.647 326.024 100.898 325.801 101.171C325.7 101.289 325.608 101.4 325.528 101.504C325.454 101.617 325.39 101.721 325.336 101.818C325.118 102.203 325.054 102.454 325.155 102.548C325.257 102.642 325.514 102.574 325.877 102.384C325.967 102.337 326.065 102.281 326.168 102.219C326.279 102.164 326.396 102.104 326.519 102.037C326.765 101.902 327.032 101.74 327.347 101.595C327.499 101.517 327.659 101.436 327.825 101.351C327.996 101.277 328.174 101.201 328.358 101.122C328.449 101.081 328.541 101.04 328.635 100.998C328.732 100.964 328.83 100.929 328.93 100.894C329.131 100.825 329.33 100.739 329.543 100.674C329.756 100.612 329.975 100.548 330.198 100.483C330.42 100.414 330.658 100.379 330.891 100.321C331.01 100.296 331.127 100.262 331.248 100.243C331.37 100.224 331.493 100.206 331.616 100.187C331.866 100.141 332.117 100.107 332.37 100.087C332.626 100.069 332.878 100.029 333.129 100.023C333.381 100.015 333.629 100.007 333.872 99.9997C334.116 99.9984 334.357 100.015 334.592 100.017C334.824 100.019 335.055 100.033 335.285 100.059C335.51 100.081 335.732 100.089 335.946 100.116C336.161 100.146 336.369 100.174 336.571 100.202C336.672 100.215 336.772 100.227 336.87 100.24C336.967 100.258 337.062 100.276 337.155 100.294C337.344 100.326 337.525 100.358 337.698 100.388C338.046 100.445 338.355 100.528 338.639 100.573C338.924 100.614 339.163 100.676 339.371 100.703C339.783 100.762 340.047 100.739 340.108 100.616Z" fill="#04294F"></path> <path d="M341.602 98.1987C341.574 98.1212 341.526 98.0526 341.462 98.0002C341.399 97.9478 341.323 97.9136 341.242 97.9012C340.964 97.8413 340.676 97.8593 340.41 97.9532C340.014 98.082 339.654 98.3024 339.359 98.5969C338.981 98.9666 338.704 99.4281 338.555 99.9376C338.406 100.447 338.389 100.988 338.506 101.508C338.594 101.919 338.776 102.305 339.038 102.634C339.21 102.861 339.441 103.037 339.706 103.142C339.78 103.177 339.862 103.191 339.943 103.183C340.025 103.175 340.102 103.144 340.167 103.095C340.371 102.902 340.33 102.512 340.322 102.053C340.292 101.537 340.342 101.02 340.472 100.521C340.632 100.032 340.868 99.5712 341.171 99.1567C341.425 98.7774 341.669 98.4741 341.602 98.1987Z" fill="#04294F"></path> <path d="M150.23 98.4184C149.921 98.3321 149.692 98.1264 149.565 97.9015C149.405 97.6203 149.39 97.3322 149.464 97.0687C149.868 95.6196 150.591 93.0288 151.007 91.5358C151.093 91.2284 151.299 91.0019 151.525 90.8756C151.807 90.7177 152.097 90.7038 152.362 90.7777C154.968 91.505 161.286 93.2675 161.286 93.2675L159.142 100.952L150.218 98.4623L150.23 98.4184Z" fill="#00ACDC"></path> <path d="M152.228 110.714C151.609 110.541 151.258 109.922 151.43 109.308C151.699 108.342 152.103 106.892 152.373 105.926C152.544 105.312 153.165 104.964 153.784 105.137C155.242 105.543 157.716 106.234 157.716 106.234L156.172 111.767L152.24 110.67L152.228 110.714V110.714Z" fill="#FFB400"></path> <path d="M224.47 108.481L232.864 110.823C233.792 111.082 234.484 111.843 234.661 112.744C235.121 115.192 235.963 119.686 235.963 119.686L224.697 116.543L224.47 108.481Z" fill="#FFB400"></path> <path d="M164.436 91.0226L164.259 90.9733C163.067 90.6405 161.825 91.3354 161.494 92.521C160.22 97.0878 157.231 107.802 155.945 112.413C155.614 113.599 156.316 114.836 157.509 115.169C165.02 117.264 190.026 124.24 197.536 126.336C198.729 126.668 199.971 125.973 200.301 124.788C200.718 123.295 201.257 121.363 201.661 119.914C201.808 119.387 202.164 118.965 202.615 118.713C203.067 118.46 203.614 118.376 204.144 118.524C204.851 118.721 205.359 119.289 205.497 119.99C205.714 121.092 206.004 122.782 206.252 123.94C206.398 124.785 207.026 125.433 207.865 125.668L217.497 128.355C218.336 128.589 218.952 129.281 219.11 130.082C219.774 133.676 221.543 143.209 221.543 143.209L241.115 148.669C241.115 148.669 236.657 124.707 235.52 118.711C235.375 117.866 234.747 117.217 233.907 116.983C232.317 116.539 230.638 116.071 229.047 115.627C228.208 115.393 227.592 114.7 227.434 113.899C227.434 113.899 226.01 106.544 225.739 104.954C225.629 104.497 225.305 104.123 224.819 103.987C224.068 103.778 222.83 103.433 221.947 103.186C221.284 103.001 220.607 103.38 220.423 104.039L219.737 106.498L174.85 93.9753L174.225 90.5826C174.115 90.1257 173.791 89.7513 173.305 89.6158C171.803 89.1967 168.445 88.2599 166.634 87.7546C165.971 87.5697 165.294 87.9488 165.11 88.6074L164.436 91.0226V91.0226Z" fill="white"></path> <path d="M216.994 146.199C216.287 146.002 215.779 145.434 215.641 144.733C215.504 144.032 215.756 143.298 216.281 142.782C216.806 142.266 217.567 142.099 218.274 142.297C224.591 144.059 238.11 147.831 242.087 148.94C242.793 149.137 243.302 149.705 243.439 150.406C243.577 151.107 243.325 151.841 242.8 152.358C242.275 152.874 241.514 153.04 240.807 152.843C234.49 151.08 220.97 147.309 216.994 146.199Z" fill="#FFB400"></path> <path d="M218.741 116.727C219.138 116.838 219.43 117.156 219.465 117.545C219.76 119.047 220.464 122.84 220.852 125.031C220.899 125.375 220.801 125.727 220.539 125.985C220.276 126.243 219.918 126.332 219.565 126.234C216.87 125.482 211.48 123.978 209.668 123.473C209.271 123.362 208.978 123.044 208.944 122.655C208.649 121.153 207.945 117.36 207.556 115.169C207.51 114.824 207.608 114.473 207.87 114.215C208.133 113.957 208.491 113.868 208.844 113.966C211.583 114.73 216.929 116.222 218.741 116.727Z" fill="#00ACDC"></path> <path d="M201.688 108.893C201.438 109.791 200.503 110.314 199.6 110.062C198.697 109.81 198.168 108.878 198.419 107.981C198.669 107.084 199.604 106.561 200.507 106.812C201.41 107.064 201.938 107.996 201.688 108.893Z" fill="#00ACDC"></path> <path d="M227.127 108.512C227.164 108.381 227.144 108.281 227.137 108.136L226.524 104.7C226.399 103.955 225.814 103.319 225.063 103.109L222.192 102.308C221.087 102 219.958 102.631 219.652 103.729L219.174 105.442L175.569 93.2764L175.042 90.3844C174.917 89.6395 174.332 89.0031 173.581 88.7936L166.91 86.9324C165.806 86.6243 164.677 87.256 164.371 88.3538L163.881 90.1103C163.314 90.0941 162.767 90.1781 162.259 90.4624C161.864 90.6835 161.729 91.1665 161.965 91.5163C162.188 91.9099 162.674 92.0455 163.025 91.8121C163.364 91.6226 163.754 91.5894 164.107 91.688L164.284 91.7373C164.726 91.8606 165.133 91.5956 165.243 91.2004L165.929 88.7413C166.003 88.4778 166.273 88.3638 166.494 88.4254L173.165 90.2866C173.342 90.3359 173.45 90.4607 173.489 90.661L174.114 94.0537C174.173 94.3542 174.389 94.6038 174.698 94.6901L219.541 107.201C219.983 107.324 220.39 107.059 220.5 106.664L221.186 104.204C221.26 103.941 221.53 103.827 221.751 103.889L224.622 104.69C224.799 104.739 224.907 104.864 224.946 105.064L225.559 108.501C225.625 108.945 226.075 109.213 226.477 109.136C226.835 109.046 227.041 108.82 227.127 108.512Z" fill="#00ACDC"></path> <path d="M158.756 104.725L159.307 102.749C159.43 102.31 159.162 101.904 158.764 101.793C158.322 101.67 157.915 101.935 157.805 102.33L157.254 104.306C157.131 104.745 157.399 105.151 157.796 105.262C158.182 105.417 158.633 105.164 158.756 104.725Z" fill="#00ACDC"></path> <path d="M221.639 139.449L219.87 129.916C219.666 128.771 218.821 127.872 217.717 127.564L208.086 124.877C207.556 124.729 207.155 124.286 207.069 123.742L206.314 119.792C206.117 118.79 205.393 117.973 204.421 117.702C203.714 117.505 202.934 117.571 202.301 117.962C201.623 118.341 201.175 118.926 200.979 119.629L199.619 124.503C199.411 125.249 198.62 125.692 197.869 125.482L157.754 114.29C157.356 114.179 157.052 113.905 156.873 113.524C156.693 113.143 156.22 112.963 155.825 113.184C155.442 113.361 155.263 113.832 155.486 114.226C155.889 115.001 156.542 115.562 157.382 115.796L197.409 126.963C198.999 127.406 200.692 126.459 201.133 124.878L202.493 120.004C202.579 119.696 202.797 119.426 203.079 119.268C203.361 119.11 203.707 119.065 204.017 119.151C204.414 119.262 204.706 119.58 204.785 119.981L205.54 123.93C205.745 125.076 206.589 125.974 207.694 126.282L217.325 128.969C217.855 129.117 218.255 129.56 218.341 130.105L220.11 139.638L221.639 139.449Z" fill="#00ACDC"></path> <path d="M177.778 94.7448C177.901 94.3056 177.633 93.8997 177.235 93.7887L169.283 91.5701C168.841 91.4469 168.434 91.7119 168.323 92.1071C168.201 92.5462 168.469 92.9522 168.866 93.0631L176.819 95.2817C177.216 95.3927 177.668 95.14 177.778 94.7448Z" fill="#00ACDC"></path> <path d="M223.195 107.415C223.317 106.976 223.05 106.57 222.652 106.459L218.234 105.227C217.792 105.104 217.385 105.369 217.275 105.764C217.152 106.203 217.42 106.609 217.817 106.72L222.235 107.952C222.677 108.076 223.085 107.811 223.195 107.415Z" fill="#00ACDC"></path> <path d="M241.531 147.176C241.567 147.044 241.548 146.944 241.54 146.8L240.994 143.808C240.928 143.363 240.478 143.096 240.076 143.173C239.629 143.238 239.362 143.684 239.441 144.085L239.987 147.077C240.053 147.521 240.503 147.789 240.905 147.711C241.239 147.71 241.445 147.483 241.531 147.176Z" fill="#00ACDC"></path> <path d="M248.956 149.199C248.528 151.901 247.937 153.508 248.976 157.794C250.899 165.729 250.749 164.023 246.74 165.85C244.004 167.097 241.127 167.497 237.598 167.884C234.129 168.263 231.008 167.645 229.437 167.129C227.669 166.548 228.242 167.48 227.835 162.849C227.771 162.118 225.845 162.533 223.168 162.769C220.491 163.005 217.083 163.305 216.318 160.18C215.552 157.054 216.684 155.972 217.414 155.908C218.144 155.843 216.607 155.876 215.582 154.595C215.031 153.907 214.616 151.979 215.196 150.209C215.899 148.065 216.929 147.6 216.929 147.6C216.929 147.6 215.913 147.198 215.298 145.779C214.682 144.359 214.142 140.759 215.736 139.6C216.889 138.762 216.18 139.07 216.18 139.07C218.127 138.898 215.051 131.801 216.912 130.655C218.427 129.721 231.072 129.899 236.026 130.445C241.865 131.088 245.954 131.781 247.663 137.279C249.525 143.266 249.272 147.207 248.956 149.199Z" fill="#F04E23"></path> <path d="M238.196 138.908C236.933 139.299 235.656 139.429 234.344 139.522C232.971 139.618 231.599 139.678 230.223 139.703C227.433 139.754 224.648 139.684 221.864 139.481C221.478 139.453 221.093 139.412 220.709 139.371C220.332 139.33 219.976 139.244 219.605 139.179C218.896 139.055 218.169 138.968 217.524 138.635C217.245 138.491 217.315 138.043 217.611 137.969C218.22 137.817 218.853 137.847 219.479 137.859C220.135 137.871 220.784 137.854 221.441 137.884C222.777 137.944 224.111 138.021 225.449 138.053C228.221 138.119 230.989 138.142 233.761 138.057C234.492 138.035 235.222 137.985 235.952 137.967C236.661 137.948 237.376 137.992 238.081 138.058C238.553 138.103 238.683 138.757 238.196 138.908Z" fill="#04294F"></path> <path d="M233.531 139.847C233.531 139.844 233.531 139.841 233.531 139.838C233.518 139.705 233.615 139.549 233.731 139.488C234.296 139.193 235.003 139.516 235.457 139.88C235.945 140.272 236.32 140.862 236.519 141.45C236.747 142.123 236.773 142.828 236.821 143.531C236.847 143.902 236.864 144.273 236.877 144.645C236.891 145.062 236.965 145.55 236.718 145.913C236.476 146.268 235.865 146.47 235.544 146.065C235.374 145.851 235.288 145.688 235.252 145.423C235.227 145.237 235.218 145.054 235.21 144.867C235.196 144.533 235.178 144.199 235.175 143.865C235.17 143.222 235.181 142.575 235.151 141.933C235.128 141.427 235.047 140.967 234.667 140.611C234.508 140.463 234.309 140.354 234.1 140.297C233.832 140.224 233.562 140.18 233.531 139.847Z" fill="#04294F"></path> <path d="M236.281 145.873C236.647 146.129 236.582 146.546 236.381 146.89C236.157 147.274 235.607 147.426 235.216 147.553C234.175 147.89 233.131 148.162 232.06 148.385C230.995 148.607 229.915 148.801 228.833 148.924C227.763 149.045 226.669 149.038 225.589 149.039C225.104 149.04 224.965 148.256 225.471 148.166C225.951 148.08 226.432 147.993 226.911 147.903C227.355 147.819 227.776 147.684 228.222 147.608C229.173 147.446 230.123 147.284 231.072 147.112C232.004 146.944 232.925 146.729 233.857 146.562C234.308 146.482 234.767 146.411 235.213 146.302C235.368 146.264 235.486 146.203 235.627 146.136C235.671 146.117 235.715 146.098 235.759 146.08C235.711 146.107 235.704 146.104 235.738 146.069C235.79 146.021 235.839 145.969 235.893 145.923C235.995 145.836 236.159 145.788 236.281 145.873Z" fill="#04294F"></path> <path d="M236.228 147.375C236.45 147.82 236.661 148.282 236.753 148.773C236.846 149.276 236.902 149.789 236.907 150.301C236.918 151.242 236.849 152.521 236.126 153.212C235.76 153.561 235.213 153.752 234.753 153.93C234.265 154.119 233.775 154.295 233.274 154.444C232.773 154.593 232.254 154.677 231.741 154.772C231.476 154.822 231.214 154.833 230.95 154.869C230.797 154.889 230.858 154.879 230.735 154.935C230.567 155.01 230.423 155.01 230.244 154.987C229.838 154.936 229.61 154.407 230.022 154.166C230.121 154.108 230.233 154.041 230.345 154.01C230.494 153.969 230.616 154.017 230.764 153.96C230.993 153.872 231.213 153.781 231.447 153.705C231.926 153.55 232.391 153.357 232.869 153.201C233.327 153.052 233.785 152.902 234.239 152.742C234.465 152.662 234.689 152.568 234.918 152.498C235.096 152.443 235.414 152.434 235.54 152.288C235.49 152.409 235.439 152.53 235.389 152.652C235.463 151.825 235.683 151.024 235.703 150.186C235.722 149.363 235.619 148.506 235.46 147.699C235.374 147.26 236.002 146.922 236.228 147.375Z" fill="#04294F"></path> <path d="M236.176 153.731C236.602 154.031 236.622 154.672 236.718 155.149C236.818 155.642 236.882 156.137 236.931 156.638C236.977 157.11 237.019 157.582 237.055 158.054C237.095 158.593 237.141 159.237 236.758 159.666C236.552 159.898 236.178 159.864 235.966 159.666C235.578 159.304 235.575 158.65 235.545 158.156C235.515 157.667 235.498 157.177 235.467 156.689C235.437 156.216 235.417 155.748 235.419 155.274C235.421 154.804 235.301 154.174 235.638 153.8C235.76 153.665 236.022 153.623 236.176 153.731Z" fill="#04294F"></path> <path d="M236.743 159.189C236.925 159.636 236.468 159.999 236.144 160.203C235.739 160.459 235.334 160.702 234.911 160.931C234.149 161.343 233.382 161.773 232.583 162.11C230.993 162.781 229.16 163.106 227.438 162.984C226.896 162.946 226.822 162.255 227.313 162.064C228.167 161.731 229.063 161.524 229.947 161.291C230.618 161.115 231.275 160.889 231.927 160.652C232.692 160.374 233.294 160.131 234.023 159.805C234.484 159.598 234.941 159.348 235.429 159.216C235.594 159.172 235.761 159.133 235.924 159.083C236.083 159.035 236.243 159.041 236.398 158.993C236.555 158.945 236.687 159.052 236.743 159.189Z" fill="#04294F"></path> <path d="M230.996 154.652C230.465 154.974 229.825 155.131 229.231 155.3C228.678 155.457 228.124 155.62 227.56 155.734C226.493 155.948 225.419 156.124 224.338 156.257C223.283 156.387 222.232 156.467 221.168 156.463C220.588 156.46 220.01 156.449 219.431 156.405C219.116 156.38 218.814 156.303 218.5 156.27C218.192 156.237 217.868 156.207 217.596 156.047C217.384 155.922 217.367 155.58 217.596 155.459C217.873 155.314 218.192 155.29 218.5 155.266C218.814 155.242 219.117 155.171 219.431 155.148C220.01 155.106 220.589 155.083 221.168 155.046C222.193 154.98 223.22 154.923 224.242 154.822C225.232 154.725 226.216 154.58 227.195 154.405C227.764 154.303 228.339 154.231 228.911 154.141C229.527 154.044 230.179 153.89 230.802 153.936C231.173 153.963 231.337 154.446 230.996 154.652Z" fill="#04294F"></path> <path d="M227.53 148.711C227.306 148.906 227.143 148.991 226.848 149.05C226.574 149.105 226.29 149.129 226.013 149.165C225.542 149.224 225.07 149.28 224.596 149.309C223.726 149.362 222.861 149.372 221.991 149.307C221.122 149.243 220.261 149.13 219.407 148.959C218.471 148.772 217.611 148.432 216.701 148.157C216.15 147.99 216.385 147.213 216.935 147.308C217.192 147.352 217.449 147.395 217.706 147.436C217.929 147.472 218.137 147.434 218.359 147.466C218.795 147.529 219.231 147.584 219.667 147.648C220.453 147.763 221.245 147.862 222.038 147.922C222.888 147.986 223.744 148.029 224.596 148.038C225.069 148.043 225.54 148.053 226.013 148.05C226.246 148.049 226.48 148.035 226.712 148.042C227.014 148.052 227.212 148.094 227.471 148.246C227.625 148.337 227.677 148.584 227.53 148.711Z" fill="#04294F"></path> </svg> 