<?xml version="1.0" encoding="UTF-8"?> <svg xmlns="http://www.w3.org/2000/svg" width="215" height="135" viewBox="0 0 215 135" fill="none"> <path d="M208.562 26.9795C206.514 23.4711 202.446 20.9718 199.449 21.3698C194.479 22.0297 192.656 28.9594 196.136 31.5992C198.566 33.443 195.804 27.4744 199.284 26.4845C202.763 25.4945 204.954 42.7219 194.313 47.6034C179.567 54.368 168.466 45.2935 151.234 42.1586C133.941 39.0126 121.012 38.0707 119.09 37.5389C116.108 36.7139 115.279 36.5489 114.948 36.5489C108.393 36.5489 92.1529 37.7049 95.8457 47.8513C99.5388 57.9978 146.097 84.5614 147.589 84.8914C149.08 85.2214 167.968 85.7163 185.034 82.0865C198.921 79.1328 209.484 68.5041 212.705 55.5229C216.184 41.4987 212.705 34.0741 208.562 26.9795Z" fill="#F04E23"></path> <path fill-rule="evenodd" clip-rule="evenodd" d="M15.6995 56.6932C13.1755 55.8546 11.9854 56.089 11.1132 56.0097C10.2412 55.9305 7.56316 55.6881 6.374 53.4988C5.18485 51.3096 6.89012 41.4456 6.89012 41.4456L15.7373 38.4958L18.5767 40.8275L18.2556 47.5522L22.0051 53.3394L20.7732 54.8226L15.6995 56.6932Z" fill="#F9B71B"></path> <path fill-rule="evenodd" clip-rule="evenodd" d="M2.54311 52.1977C3.13793 52.867 3.84062 53.433 4.62217 53.8723C5.51756 54.4064 6.47523 54.8488 7.35736 54.8428C8.23949 54.8369 9.02073 54.2866 9.08535 53.3274C9.16455 52.1511 8.18466 50.8243 7.14032 50.0171C5.90245 49.0602 3.97598 48.3057 2.70647 48.4367C1.08504 48.6037 1.31237 50.7424 2.54311 52.1977Z" fill="#F9B71B"></path> <path fill-rule="evenodd" clip-rule="evenodd" d="M2.14639 47.7408C2.95065 48.6454 3.90037 49.4106 4.95714 50.0046C6.16767 50.7268 7.46219 51.3244 8.65433 51.3164C9.84646 51.3087 10.9029 50.5647 10.9901 49.2679C11.0968 47.6777 9.77224 45.8843 8.36073 44.793C6.68743 43.4997 4.08313 42.4798 2.36725 42.6567C0.175516 42.8831 0.4832 45.7741 2.14639 47.7408Z" fill="#F9B71B"></path> <path fill-rule="evenodd" clip-rule="evenodd" d="M3.66112 43.3186C4.39976 44.2772 5.2935 45.1068 6.3057 45.7728C7.46237 46.5775 8.71184 47.2639 9.90165 47.3391C11.0916 47.4147 12.1978 46.7461 12.3757 45.4585C12.5939 43.8801 11.3987 41.9983 10.0673 40.8114C8.48915 39.4043 5.96287 38.2055 4.23871 38.2624C2.03636 38.3352 2.14009 41.2405 3.66112 43.3186Z" fill="#F9B71B"></path> <path fill-rule="evenodd" clip-rule="evenodd" d="M6.79346 39.4416C7.53211 40.4002 8.42582 41.2298 9.43802 41.8959C10.5947 42.7006 11.8442 43.3869 13.034 43.4622C14.224 43.5377 15.3301 42.8692 15.508 41.5816C15.7263 40.0031 14.531 38.1212 13.1997 36.9344C11.6215 35.5274 9.09521 34.3286 7.37105 34.3855C5.16887 34.4584 5.27244 37.3636 6.79346 39.4416Z" fill="#F9B71B"></path> <path fill-rule="evenodd" clip-rule="evenodd" d="M21.3421 47.1624C21.4767 46.2543 21.8808 45.41 21.9496 44.49C22.3214 39.52 18.8404 36.4421 15.0998 36.3588C13.6886 36.34 12.1762 37.0425 11.1456 37.8625C10.1149 38.6825 9.68954 39.4111 8.93433 40.4651C8.20281 41.3854 8.20611 43.131 10.0136 43.5288C11.7308 43.9066 12.6643 43.4635 14.0495 42.669C14.8577 42.1321 15.3447 42.8393 14.761 43.4831C13.9653 44.5176 13.1166 45.6314 13.1374 46.9585C13.2033 49.3548 15.7412 51.0151 17.998 51.4792C19.2283 51.7685 20.5665 51.8384 21.6213 51.3035C21.9437 51.1596 22.2044 50.9201 22.3692 50.6163C22.5172 50.2759 22.0241 49.7633 21.6916 49.2063C21.3252 48.5932 21.2459 47.8098 21.3421 47.1624Z" fill="#F9B71B"></path> <path d="M17.4726 51.4497C17.4994 51.3876 17.1783 51.1939 16.5987 50.871C16.3097 50.709 15.958 50.5109 15.5694 50.262C15.135 49.9885 14.7309 49.6701 14.3637 49.3119C13.9382 48.8939 13.6112 48.3871 13.4064 47.8278C13.1825 47.1949 13.1353 46.5134 13.2699 45.856C13.4239 45.1372 13.7924 44.4816 14.3273 43.9751C14.3967 43.9109 14.4671 43.8469 14.542 43.7883C14.5634 43.7713 14.5722 43.7624 14.6043 43.7386L14.7206 43.655C14.7963 43.5995 14.8765 43.5446 14.9643 43.4768C15.246 43.2846 15.4207 42.9721 15.4361 42.6324C15.4407 42.4743 15.3983 42.3185 15.3146 42.1839C15.2303 42.0508 15.109 41.9445 14.9657 41.8783C14.63 41.7528 14.2552 41.7853 13.9463 41.9668L13.7967 42.0387L13.6645 42.1103L13.4697 42.2159C13.3721 42.2676 13.2748 42.3189 13.1777 42.3702C12.9844 42.4707 12.7925 42.5644 12.6011 42.6497C12.2364 42.8178 11.8547 42.9458 11.4623 43.0316C10.7128 43.1876 9.9506 43.1008 9.42454 42.7441C9.1649 42.571 8.95331 42.3355 8.80965 42.0593C8.67975 41.8102 8.62971 41.5271 8.66666 41.2487C8.71487 40.9663 8.82008 40.6967 8.97567 40.456C9.13291 40.2058 9.30673 39.9668 9.49612 39.7397C10.2308 38.8257 10.8914 38.1362 11.3478 37.6565C11.8061 37.1779 12.0593 36.9052 12.0171 36.8529C11.9773 36.8034 11.6449 36.9793 11.1023 37.3807C10.3408 37.957 9.63281 38.6001 8.98695 39.3025C8.75963 39.5389 8.55002 39.7917 8.35997 40.0587C8.13083 40.3753 7.97061 40.7358 7.88926 41.1176C7.80807 41.5568 7.86573 42.0103 8.05412 42.4157C8.24781 42.8318 8.54654 43.1907 8.921 43.4575C9.31004 43.7297 9.75789 43.9069 10.2284 43.9747C10.6977 44.0435 11.1752 44.0325 11.641 43.9416C12.1041 43.8488 12.5549 43.7041 12.9852 43.5103C13.1994 43.4167 13.409 43.3154 13.6148 43.2095C13.7566 43.1346 13.8991 43.0592 14.0426 42.9835C14.258 42.8696 14.0439 42.9808 14.0473 42.9823C14.0486 42.9831 14.0487 42.9844 14.0479 42.9864L13.9498 43.0669C13.8557 43.143 13.7676 43.225 13.6811 43.3075C12.391 44.5517 11.9912 46.4524 12.6712 48.1074C12.9444 48.7595 13.3669 49.3391 13.9051 49.7997C14.3324 50.163 14.8031 50.4724 15.3065 50.721C15.6762 50.9058 16.0567 51.0675 16.4463 51.2058C17.0827 51.43 17.4485 51.5074 17.4726 51.4497Z" fill="#F04E23"></path> <path d="M17.8575 40.9334C17.9914 40.9235 18.0883 40.7364 18.2192 40.4987C18.5022 39.911 18.9544 39.4205 19.5182 39.0898C19.7449 38.9397 19.9238 38.8275 19.9224 38.6939C19.9209 38.6292 19.8708 38.5671 19.7721 38.5188C19.6367 38.4606 19.4897 38.4348 19.3426 38.4436C19.1262 38.4518 18.9133 38.5016 18.716 38.5906C18.2156 38.8115 17.83 39.2297 17.6516 39.745C17.5793 39.9483 17.5474 40.1638 17.5578 40.3792C17.5616 40.5261 17.5999 40.6698 17.6696 40.7991C17.7265 40.8932 17.7926 40.9376 17.8575 40.9334Z" fill="#F04E23"></path> <path d="M16.6968 39.3139C16.8476 39.3186 16.9928 39.2574 17.0942 39.1466C17.3828 38.8809 17.636 38.5793 17.8472 38.2492C17.9388 38.13 17.9735 37.9769 17.942 37.8301C17.8963 37.7103 17.7369 37.6382 17.5067 37.6719C16.9137 37.7991 16.4834 38.3117 16.4632 38.9152C16.471 39.1467 16.5703 39.2901 16.6968 39.3139Z" fill="#F04E23"></path> <path d="M3.50433 42.9133C3.44634 42.9436 3.45944 43.0951 3.53748 43.3497C3.59133 43.5005 3.6533 43.6485 3.72289 43.7927C3.81816 43.9824 3.92402 44.1666 4.04033 44.3441C4.10296 44.4447 4.17321 44.5467 4.25175 44.6493C4.32863 44.7533 4.40884 44.8618 4.50047 44.9666C4.69018 45.1959 4.89481 45.4126 5.11318 45.615C5.22685 45.7246 5.34829 45.8308 5.47703 45.9346C5.60245 46.0425 5.73899 46.1417 5.87784 46.2433C6.01486 46.3474 6.16564 46.4372 6.3136 46.5358C6.46687 46.6261 6.62162 46.7196 6.78383 46.8038C7.09881 46.9701 7.42537 47.1133 7.76106 47.2328C8.07454 47.3464 8.39615 47.4372 8.72306 47.5037C9.28822 47.6236 9.87111 47.6353 10.4407 47.5383C10.6614 47.4959 10.8767 47.4294 11.083 47.3403C11.2377 47.271 11.3835 47.1839 11.5179 47.0811C11.6042 47.0166 11.6791 46.9386 11.7397 46.8498C11.7808 46.7861 11.7914 46.7409 11.7722 46.7145C11.7532 46.688 11.7051 46.681 11.6344 46.6904C11.5651 46.7023 11.4689 46.7231 11.3516 46.7518C11.2336 46.779 11.0918 46.8082 10.9287 46.8338C10.7438 46.8582 10.5576 46.8711 10.371 46.8724C9.88138 46.8653 9.39508 46.7922 8.92535 46.6548C8.64269 46.5731 8.36451 46.4764 8.09211 46.3654C7.79719 46.2478 7.5087 46.1144 7.22819 45.9664C7.08321 45.8917 6.94454 45.809 6.80602 45.7313C6.67264 45.6452 6.53496 45.5695 6.4087 45.4807C6.28129 45.3944 6.1537 45.3118 6.03607 45.2214C5.91462 45.1356 5.79913 45.0473 5.68911 44.957C5.46543 44.7813 5.26163 44.6026 5.07556 44.4291C4.9798 44.3448 4.89396 44.2573 4.80929 44.174C4.72297 44.0923 4.64344 44.0106 4.56938 43.9308C4.41512 43.7757 4.28622 43.6254 4.16444 43.4975C4.04845 43.366 3.94589 43.2525 3.85626 43.1619C3.68676 42.9758 3.56282 42.8833 3.50433 42.9133Z" fill="#F04E23"></path> <path d="M2.6349 48.4996C2.61104 48.5222 2.6155 48.5722 2.64665 48.6474C2.69337 48.7527 2.75221 48.8522 2.82197 48.9439C2.92751 49.0891 3.04215 49.2276 3.16526 49.3582C3.32929 49.5306 3.5031 49.6938 3.68553 49.8468C3.90805 50.0326 4.1415 50.205 4.38457 50.363C4.66458 50.5455 4.95654 50.7095 5.25826 50.8537C5.59312 51.0138 5.93808 51.1514 6.29133 51.2652C6.67424 51.3883 7.06659 51.4803 7.46424 51.5406C7.87465 51.6038 8.29103 51.6165 8.70426 51.578C9.1049 51.5416 9.49643 51.4388 9.86293 51.2736C10.2064 51.1167 10.5126 50.8887 10.7608 50.6051C10.9704 50.3591 11.1305 50.0754 11.2325 49.7692C11.3185 49.5189 11.3555 49.2548 11.342 48.9908C11.3326 48.7921 11.2845 48.597 11.2005 48.4166C11.1712 48.3516 11.1343 48.2901 11.091 48.233C11.0619 48.1894 11.0262 48.1505 10.9855 48.1177C10.9195 48.0624 10.8733 48.0451 10.8456 48.0629C10.8181 48.0805 10.8098 48.132 10.8163 48.2076C10.8252 48.282 10.8372 48.3873 10.8435 48.5141C10.8511 48.6649 10.8402 48.8161 10.811 48.9642C10.7726 49.1566 10.7051 49.3421 10.611 49.5143C10.5007 49.7207 10.357 49.908 10.1857 50.0684C9.99068 50.2441 9.76384 50.3812 9.51713 50.4722C9.23082 50.5762 8.93076 50.6374 8.62639 50.6539C8.28391 50.6732 7.94026 50.6565 7.60159 50.6039C7.2505 50.5503 6.90306 50.4747 6.56124 50.3777C6.22754 50.2827 5.91008 50.173 5.61201 50.0558C5.31277 49.9403 5.03657 49.8098 4.77925 49.6836C4.52177 49.5569 4.2888 49.4246 4.07556 49.3018C3.86331 49.1777 3.67443 49.0581 3.50675 48.953C3.33907 48.8454 3.19459 48.7527 3.07629 48.6767C2.98234 48.6163 2.88459 48.5621 2.78352 48.5145C2.70995 48.4831 2.65926 48.477 2.6349 48.4996Z" fill="#F04E23"></path> <path d="M7.24395 54.6566C7.2345 54.6924 7.24112 54.7305 7.26249 54.7609C7.29348 54.8097 7.33458 54.8509 7.38296 54.8823C7.54981 54.9895 7.74135 55.0526 7.93951 55.0653C8.23775 55.0912 8.53766 55.0443 8.81336 54.9287C8.98071 54.8607 9.13762 54.7701 9.28028 54.6596C9.5979 54.4165 9.83086 54.0803 9.94568 53.6982C9.9987 53.5262 10.0279 53.3479 10.0323 53.1679C10.0428 52.8702 9.97996 52.5742 9.84973 52.3061C9.76705 52.1263 9.63981 51.9704 9.47992 51.8532C9.43337 51.8196 9.37984 51.796 9.32317 51.7846C9.28739 51.7755 9.24913 51.7828 9.21897 51.8044C9.19163 51.8293 9.17456 51.8631 9.17025 51.8998C9.16395 51.9501 9.16312 52.0009 9.1676 52.0512C9.17721 52.1682 9.19626 52.3203 9.20471 52.4959C9.21532 52.693 9.20023 52.8905 9.16013 53.0839C9.13793 53.191 9.10579 53.2961 9.06437 53.3975C8.98152 53.6069 8.85146 53.795 8.68428 53.9465C8.60376 54.0212 8.5166 54.0884 8.42382 54.1473C8.25664 54.2532 8.07637 54.3375 7.88765 54.3979C7.72014 54.4527 7.57052 54.4888 7.45719 54.5215C7.40814 54.5352 7.36075 54.554 7.31585 54.5777C7.28321 54.5947 7.25753 54.6228 7.24395 54.6566Z" fill="#F04E23"></path> <path d="M3.80056 40.9264C3.87181 40.9397 3.94536 40.9259 4.0065 40.8871C4.04163 40.8678 4.07792 40.843 4.11768 40.8157C4.15678 40.7879 4.19224 40.7548 4.23515 40.7214C4.31435 40.6518 4.4025 40.5738 4.49329 40.4886C4.54151 40.4482 4.58559 40.4015 4.63728 40.3591C4.68666 40.3151 4.73753 40.2695 4.78972 40.2228C4.84341 40.1778 4.8961 40.1339 4.94663 40.0913C4.99601 40.0463 5.04836 40.0093 5.09525 39.9674C5.19251 39.8899 5.28232 39.8138 5.36268 39.7452C5.40195 39.7076 5.43972 39.677 5.47252 39.6424C5.50533 39.6071 5.53482 39.5747 5.55901 39.5427C5.6059 39.4878 5.6301 39.417 5.62662 39.3451C5.61304 39.2718 5.56415 39.21 5.49572 39.1798C5.45066 39.1545 5.40177 39.1367 5.35091 39.1271C5.28828 39.1129 5.224 39.1062 5.15971 39.107C4.99502 39.1085 4.83197 39.1402 4.6787 39.2001C4.5884 39.2349 4.50126 39.2774 4.41858 39.3273C4.23897 39.4325 4.08041 39.5698 3.95068 39.7325C3.88954 39.8074 3.83518 39.8872 3.78796 39.9714C3.70711 40.1141 3.65308 40.2705 3.62856 40.4329C3.61879 40.4962 3.61664 40.5606 3.62211 40.6243C3.62476 40.6756 3.63569 40.7262 3.65441 40.7742C3.67463 40.846 3.72932 40.9029 3.80056 40.9264Z" fill="#F04E23"></path> <path d="M6.42208 36.6507C6.49333 36.6641 6.56688 36.6502 6.62802 36.6115C6.66315 36.5922 6.69944 36.5674 6.73904 36.54C6.77814 36.5123 6.8136 36.4791 6.85651 36.4458C6.93571 36.3762 7.02385 36.2981 7.11465 36.213C7.16287 36.1726 7.20694 36.1259 7.25864 36.0835C7.30801 36.0394 7.35889 35.9939 7.41108 35.9472C7.46476 35.9022 7.51744 35.8583 7.56797 35.8157C7.61735 35.7707 7.66972 35.7337 7.71661 35.6918C7.81387 35.6143 7.90368 35.5382 7.98404 35.4696C8.0233 35.4319 8.06108 35.4014 8.09388 35.3668C8.12669 35.3315 8.15618 35.2991 8.18037 35.2671C8.22726 35.2122 8.25144 35.1414 8.24796 35.0694C8.23438 34.9962 8.18551 34.9343 8.11708 34.9041C8.07201 34.8789 8.02313 34.8611 7.97226 34.8515C7.90963 34.8373 7.84534 34.8305 7.78105 34.8314C7.61636 34.8329 7.45332 34.8645 7.30006 34.9244C7.20976 34.9592 7.12262 35.0018 7.03994 35.0516C6.86033 35.1569 6.70175 35.2942 6.57202 35.4568C6.51088 35.5318 6.45654 35.6116 6.40932 35.6958C6.32846 35.8385 6.27444 35.9949 6.24992 36.1572C6.24015 36.2206 6.238 36.2849 6.24347 36.3486C6.24612 36.3999 6.25705 36.4506 6.27577 36.4986C6.29615 36.5704 6.35084 36.6273 6.42208 36.6507Z" fill="#F04E23"></path> <path d="M1.92103 45.3062C1.98863 45.3015 2.05325 45.2774 2.10743 45.2369C2.16757 45.1931 2.22373 45.1437 2.2746 45.0894C2.50043 44.8388 2.70042 44.5668 2.87241 44.2769C2.90902 44.2122 2.93951 44.1442 2.9632 44.0738C2.98573 44.0102 2.98922 43.9414 2.97348 43.8759C2.95326 43.8091 2.90521 43.7543 2.84142 43.7256C2.75294 43.685 2.65437 43.671 2.55794 43.6849C2.42489 43.7009 2.29696 43.7449 2.18247 43.8141C2.11536 43.854 2.05241 43.9005 1.99475 43.953C1.86932 44.0645 1.76891 44.201 1.69982 44.3538C1.66685 44.4244 1.64133 44.4979 1.62327 44.5737C1.59162 44.7032 1.58781 44.838 1.61267 44.969C1.62841 45.0649 1.67165 45.154 1.7371 45.2261C1.78399 45.2779 1.85094 45.3071 1.92103 45.3062Z" fill="#F04E23"></path> <path d="M2.59811 51.3188C2.85874 51.3508 3.10447 51.097 3.14738 50.752C3.1903 50.4069 3.01367 50.1013 2.75304 50.0691C2.49225 50.0371 2.24636 50.2909 2.20361 50.636C2.16086 50.981 2.33732 51.2869 2.59811 51.3188Z" fill="#F04E23"></path> <path d="M11.1933 45.1537C11.2321 44.9196 11.1206 44.6861 10.9136 44.5685C10.7617 44.5046 10.5947 44.4855 10.4321 44.5129C10.2709 44.5196 10.1135 44.5657 9.97418 44.647C9.70891 44.8234 9.63749 45.1806 9.81462 45.4446C9.85654 45.5071 9.91055 45.5609 9.97335 45.603C10.4002 45.8876 11.1075 45.6924 11.1933 45.1537Z" fill="#F04E23"></path> <path d="M9.64245 48.6974C9.55281 48.3636 9.27563 48.1125 8.93348 48.0556C8.59216 48.0074 8.24885 48.1283 8.01357 48.3793C7.87986 48.51 7.79834 48.6842 7.78409 48.8701C7.80016 49.1912 8.02184 49.4656 8.3335 49.5501C8.92667 49.7349 9.82289 49.4704 9.64245 48.6974Z" fill="#F04E23"></path> <path d="M7.87672 52.9992C7.82122 52.8296 7.71832 52.6792 7.57997 52.5656C7.38446 52.3781 7.1303 52.2627 6.85973 52.2385C6.58518 52.2187 6.32289 52.3551 6.18189 52.5907C6.0611 52.8537 6.11214 53.1634 6.31097 53.3743C6.51195 53.5777 6.78583 53.693 7.0723 53.6952C7.49514 53.711 8.02203 53.5261 7.87672 52.9992Z" fill="#F04E23"></path> <path d="M127.307 68.7446C127.307 68.7446 134.626 71.9423 141.351 75.2974C145.595 77.4149 173.853 91.1463 180.051 93.6096C186.249 96.0729 186.39 98.3328 185.654 100.686C184.918 103.04 185.093 103.391 176.093 102.84C165.84 102.214 150.551 95.8878 145.167 94.017C139.783 92.1462 138.301 91.4807 136.704 91.8546C134.763 92.1973 130.948 97.6153 131.871 98.9091C132.795 100.203 148.521 105.671 158.289 109.607C167.231 113.21 171.383 116.32 172.666 117.473C173.95 118.627 177.122 119.966 174.414 121.103C171.706 122.241 170.635 125.412 152.74 120.339C134.745 115.238 112.95 106.025 105.75 99.3226C98.5508 92.6197 127.307 68.7446 127.307 68.7446Z" fill="#00AEE0"></path> <path d="M101.907 46.0644C102.198 45.9395 102.961 44.8129 103.791 45.2465C106.992 46.918 112.713 51.2741 119.247 57.392C127.093 64.7386 130.556 70.0656 131.416 71.4021C132.84 73.6148 136.366 80.6203 133.583 89.2795C131.764 94.9428 129.869 101.588 127.133 103.47C124.839 105.047 120.725 105.466 113.808 102.842C107.677 100.516 102.519 98.8454 93.3529 93.45C81.4059 86.4174 76.8867 83.8181 71.5071 79.8785C66.2684 76.0419 61.1925 83.2867 40.7547 77.0901C25.6535 72.5115 18.4697 61.9781 16.4487 60.1942C15.8832 59.6951 15.2273 58.9305 14.5673 58.3285C14.2669 58.0544 14.1291 57.6509 14.2839 57.2754C14.5856 56.543 16.0726 54.2126 17.2454 52.5583C19.0999 49.9422 21.2804 47.508 22.6757 48.1718C24.071 48.8354 31.7414 59.1637 44.4988 62.5958C59.1179 66.5287 60.6841 61.6884 69.9399 57.3592C72.1363 56.3319 71.042 58.5671 73.1007 57.6692C75.0087 56.8368 98.2045 47.6549 101.907 46.0644Z" fill="#00AEE0"></path> <path d="M122.013 90.1138C126.325 85.5153 129.155 75.2949 129.214 72.0969C129.235 70.9999 129.305 69.7647 130.241 69.5232C131.544 69.9319 133.151 70.972 134.848 72.1423C134.483 74.4003 134.621 78.8135 134.942 83.5065C135.239 87.855 136.913 91.926 136.617 91.9953C134.523 92.9617 131.114 97.9906 131.896 98.9259C132.017 99.07 131.88 99.0901 131.88 99.0901C130.042 100.286 127.1 101.534 121.933 102.38C118.173 102.995 114.577 103.826 111.36 103.434C109.824 102.641 108.246 101.458 107.214 100.582C108.976 99.8159 115.593 96.9591 122.013 90.1138Z" fill="#F04E23"></path> <path d="M107.331 100.58C107.341 100.607 107.484 100.582 107.746 100.509C108.01 100.439 108.389 100.308 108.874 100.127C109.115 100.033 109.38 99.9229 109.672 99.8028C109.958 99.6735 110.273 99.5382 110.604 99.3781C111.268 99.0628 112.008 98.6707 112.81 98.2075C114.408 97.2745 116.232 96.0214 118.103 94.4424C118.336 94.2448 118.573 94.0453 118.806 93.8358C119.041 93.6289 119.279 93.4197 119.509 93.1933C119.742 92.9699 119.981 92.7478 120.214 92.5163C120.44 92.2771 120.669 92.0357 120.899 91.792C121.8 90.7994 122.657 89.7039 123.441 88.5207C124.227 87.3387 124.886 86.1204 125.472 84.9251C126.057 83.7284 126.556 82.5464 126.99 81.4085C127.215 80.8419 127.409 80.2814 127.607 79.7404C127.793 79.1956 127.981 78.6686 128.147 78.1552C128.316 77.6427 128.477 77.1469 128.626 76.6694C128.778 76.1987 128.923 75.7194 129.028 75.2698C129.246 74.3694 129.397 73.5526 129.522 72.8327C129.645 72.1128 129.733 71.4902 129.792 70.9792C129.913 69.9572 129.902 69.3816 129.845 69.378C129.785 69.3737 129.684 69.928 129.465 70.9252C129.356 71.4238 129.221 72.0337 129.055 72.7388C128.887 73.4428 128.695 74.2467 128.445 75.1162C128.323 75.5534 128.173 75.9873 128.002 76.4619C127.834 76.9313 127.659 77.4196 127.478 77.9252C127.299 78.4314 127.099 78.9484 126.902 79.4847C126.694 80.0154 126.49 80.567 126.259 81.1215C125.81 82.2375 125.304 83.3925 124.721 84.5585C124.138 85.7233 123.49 86.9074 122.727 88.0543C121.967 89.2026 121.142 90.2658 120.278 91.234C120.058 91.4719 119.84 91.7077 119.623 91.9413C119.399 92.1677 119.17 92.3853 118.948 92.6046C118.729 92.8257 118.498 93.0349 118.27 93.2418C118.045 93.4513 117.815 93.6508 117.589 93.8491C115.78 95.4327 114.026 96.7127 112.494 97.6952C111.726 98.1831 111.018 98.6055 110.384 98.9559C110.069 99.1338 109.769 99.2879 109.497 99.4372C109.22 99.5788 108.967 99.7083 108.74 99.8248C108.281 100.053 107.925 100.229 107.683 100.349C107.442 100.474 107.321 100.553 107.331 100.58Z" fill="#04294F"></path> <path d="M136.731 91.968C136.788 91.9414 136.706 91.6722 136.606 91.1889C136.555 90.9467 136.5 90.6477 136.44 90.2978C136.381 89.9477 136.311 89.5474 136.242 89.1039C136.17 88.6611 136.09 88.1766 136.012 87.6554C135.928 87.1356 135.854 86.5776 135.772 85.9917C135.733 85.6983 135.694 85.3977 135.654 85.0907C135.618 84.7831 135.582 84.4691 135.545 84.1494C135.476 83.5095 135.408 82.8466 135.35 82.1667C135.293 81.4866 135.244 80.8222 135.207 80.1795C135.184 79.8585 135.171 79.5425 135.155 79.2331C135.139 78.9238 135.125 78.6208 135.116 78.325C135.09 77.7335 135.079 77.1709 135.062 76.6439C135.056 76.1171 135.039 75.6258 135.037 75.1768C135.03 74.7276 135.024 74.3212 135.018 73.9641C135.012 73.6068 135.001 73.2984 134.993 73.0463C134.973 72.5416 134.934 72.2596 134.875 72.2557C134.816 72.2517 134.743 72.5261 134.661 73.0272C134.618 73.2776 134.581 73.5852 134.541 73.9429C134.5 74.3004 134.465 74.7084 134.433 75.1602C134.396 75.6117 134.378 76.1075 134.354 76.6398C134.34 77.1724 134.324 77.7418 134.329 78.3412C134.327 78.641 134.332 78.9482 134.341 79.262C134.348 79.5758 134.354 79.8962 134.372 80.2223C134.398 80.8745 134.442 81.5491 134.5 82.2389C134.558 82.9289 134.633 83.6009 134.714 84.2487C134.759 84.5721 134.803 84.8895 134.847 85.2007C134.897 85.5106 134.946 85.8141 134.994 86.1101C135.099 86.7006 135.201 87.2616 135.316 87.7822C135.425 88.3042 135.541 88.7871 135.652 89.2265C135.759 89.6665 135.871 90.0613 135.975 90.4082C136.082 90.7545 136.186 91.0516 136.289 91.2894C136.496 91.767 136.682 91.9917 136.731 91.968Z" fill="#04294F"></path> <path d="M111.477 103.432C111.485 103.547 112.661 103.591 114.565 103.546C115.517 103.522 116.652 103.468 117.912 103.349C119.171 103.228 120.555 103.034 121.986 102.737C122.703 102.593 123.396 102.427 124.06 102.267C124.725 102.106 125.368 101.942 125.978 101.766C126.589 101.59 127.166 101.399 127.696 101.196C128.227 100.994 128.709 100.78 129.142 100.574C129.575 100.37 129.959 100.17 130.292 99.99C130.627 99.8113 130.908 99.6463 131.137 99.5095C131.593 99.2315 131.832 99.0522 131.806 98.9997C131.78 98.9469 131.491 99.0259 130.992 99.2117C130.742 99.302 130.441 99.4231 130.09 99.559C129.741 99.6968 129.344 99.8558 128.904 100.021C128.464 100.188 127.982 100.365 127.459 100.531C126.937 100.699 126.373 100.858 125.772 101.009C125.171 101.161 124.533 101.306 123.868 101.456C123.201 101.605 122.517 101.763 121.814 101.904C120.408 102.195 119.058 102.408 117.823 102.57C116.588 102.73 115.468 102.845 114.525 102.946C112.638 103.144 111.469 103.313 111.477 103.432Z" fill="#04294F"></path> <path d="M179.848 92.3221C179.479 92.2086 162.995 85.7102 162.995 85.7102C162.995 85.7102 164.785 90.146 163.649 93.8255C162.663 97.0205 159.851 99.356 159.687 99.2903C159.524 99.2246 165.751 101.162 178.829 104.163C181.175 104.701 185.271 108.069 189.184 110.844C191.769 112.677 197.088 113.635 197.933 110.081C198.779 106.527 195.56 102.509 194.323 100.842C193.087 99.1738 190.661 95.3238 189.002 94.482C187.343 93.6402 184.432 93.7306 179.848 92.3221Z" fill="#F04E23"></path> <path d="M169.253 113.508C166.427 112.449 154.172 107.728 154.172 107.728C154.172 107.728 155.241 110.842 153.948 114.29C152.583 117.928 149.674 119.617 149.515 119.541C149.356 119.466 155.469 122.016 168.333 125.062C170.676 125.616 173.81 129.436 177.538 132.453C180.001 134.446 185.248 135.738 186.318 132.245C187.389 128.752 185.026 124.839 183.898 123.096C182.771 121.354 179.938 116.677 178.336 115.732C176.734 114.787 174.872 115.613 169.253 113.508Z" fill="#F04E23"></path> <path d="M118.021 64.9011C117.724 64.9439 115.782 64.6089 113.237 66.4781C112.33 67.1442 110.426 69.8324 110.128 70.5861C109.786 71.4549 107.885 75.743 110.086 76.8485C111.624 77.6211 112.62 78.047 113.697 79.4573C114.361 80.3265 115.441 80.9195 116.681 81.0434C117.744 81.1496 118.945 80.8805 119.999 81.9403C120.624 82.5689 121.326 83.0601 122.15 82.7682C122.824 82.5293 123.995 81.1425 125.045 79.3289C126.096 77.5154 128.636 72.9185 127.679 70.9403C126.721 68.9622 118.021 64.9011 118.021 64.9011Z" fill="#FFB400"></path> <path d="M117.539 80.6339C117.306 80.2908 117.28 79.8577 117.311 79.4716C117.344 79.0558 117.425 78.6385 117.558 78.2483C117.685 77.8723 117.888 77.5018 118.127 77.1881C118.249 77.0279 118.381 76.8781 118.529 76.7402C118.682 76.5978 118.857 76.497 119.029 76.3785C119.193 76.265 119.45 76.4765 119.314 76.6456C119.096 76.9185 118.917 77.2493 118.745 77.5554C118.573 77.8616 118.439 78.1822 118.319 78.5133C118.202 78.8344 118.108 79.1596 118.063 79.5023C118.015 79.8601 118.022 80.2652 117.873 80.593C117.821 80.7087 117.632 80.7704 117.539 80.6339Z" fill="#F04E23"></path> <path d="M113.362 77.7977C113.238 77.0879 113.249 76.3662 113.474 75.6987C113.691 75.0537 114.097 74.437 114.627 74.0112C114.857 73.8265 115.128 74.138 115.004 74.3636C114.432 75.4083 114.013 76.5748 113.972 77.8003C113.96 78.1401 113.421 78.1386 113.362 77.7977Z" fill="#F04E23"></path> <path d="M109.976 71.4542C110.239 70.4848 110.762 69.647 111.484 68.9546C112.201 68.2667 113.039 67.8227 114.016 67.5942C114.2 67.5513 114.263 67.8204 114.11 67.896C112.516 68.6881 111.217 70.0395 110.503 71.6555C110.359 71.9807 109.883 71.7941 109.976 71.4542Z" fill="#F04E23"></path> <path d="M8.51323 40.5419C8.46634 40.5268 8.41744 40.523 8.37055 40.5091C8.30958 40.4911 8.25126 40.4578 8.19509 40.4284C8.10645 40.3821 8.01897 40.3334 7.93281 40.2826C7.74492 40.1717 7.57061 40.0476 7.40194 39.9095C7.25067 39.7856 7.10419 39.6579 6.9786 39.5078C6.8371 39.3387 6.69462 39.1572 6.65369 38.9376C6.63331 38.8287 6.72643 38.6942 6.85202 38.7402C6.90024 38.7579 6.95342 38.7721 6.99882 38.796C7.04074 38.8181 7.08481 38.8572 7.11662 38.8816C7.19118 38.9386 7.28099 39.0026 7.35886 39.0661C7.5103 39.1895 7.65726 39.3185 7.81036 39.4401C7.8261 39.4527 7.84185 39.465 7.85759 39.4773C7.88344 39.4974 7.83323 39.4596 7.87731 39.4921C7.93116 39.5317 7.98517 39.5713 8.03786 39.6124C8.0536 39.6246 8.06916 39.637 8.0849 39.6492C8.08325 39.6479 8.14771 39.6979 8.12418 39.68C8.0985 39.6606 8.15947 39.7063 8.16478 39.7102C8.18499 39.7252 8.2052 39.7399 8.22557 39.7546C8.30279 39.8104 8.38133 39.8643 8.46102 39.9163C8.50294 39.9437 8.54636 39.9689 8.58662 39.9988C8.62374 40.0263 8.67345 40.0848 8.6988 40.1041C8.79407 40.1768 8.84957 40.2849 8.79722 40.4035C8.75115 40.5076 8.62937 40.5796 8.51323 40.5419Z" fill="#F04E23"></path> <path d="M80.8931 44.2832C80.8931 44.2832 108.592 18.4804 129.846 36.1137C145.347 48.9744 128.494 71.1486 127.721 71.8364C126.485 72.9353 124.698 71.5193 121.71 70.6328C118.722 69.7463 115.67 65.9728 116.063 64.2848C116.497 62.4207 124.231 50.6399 120.002 46.1117C114.953 40.7074 109.466 43.1498 107.644 44.6363C105.845 46.1049 105.086 49.7852 104.701 50.6783C104.315 51.5714 90.4126 68.5927 88.4681 69.3222C86.5236 70.0516 75.5279 68.4944 75.5279 68.4944L73.7368 52.563L80.8931 44.2832Z" fill="#00AEE0"></path> <path fill-rule="evenodd" clip-rule="evenodd" d="M75.3179 45.7251C75.3179 45.7251 80.0094 48.918 81.611 49.8266C83.1007 50.6717 84.0971 54.8412 82.4487 57.3875C80.8004 59.9338 75.8533 63.7517 73.9669 62.5704C71.9993 61.3382 67.4836 58.3633 65.2496 57.7242C62.1285 56.8316 69.5183 46.5966 69.5183 46.5966L75.3179 45.7251Z" fill="#FFB400"></path> <path d="M82.0246 50.286C82.4027 50.6435 82.5521 51.1682 82.7427 51.6374C82.9611 52.1749 83.1504 52.723 83.2522 53.2947C83.4999 54.6854 83.4411 56.1237 82.966 57.4624C82.0491 60.0472 79.9722 62.2132 77.3778 63.147C76.9119 63.3147 76.438 63.4466 75.9502 63.5326C75.7113 63.5747 75.4646 63.6316 75.2215 63.6082C75.1364 63.5999 75.0558 63.5928 74.9762 63.5648C74.8622 63.5247 75.0452 63.5493 74.9453 63.5532C74.8572 63.5567 74.7677 63.5506 74.6794 63.5504C74.3189 63.5496 74.1361 63.0135 74.4869 62.8424C74.5477 62.8127 74.6088 62.7835 74.6701 62.7545C74.6985 62.7411 74.7303 62.7204 74.7608 62.7119C74.7167 62.7241 74.6928 62.7722 74.7321 62.7357C74.7483 62.7207 74.7646 62.7053 74.7815 62.691C74.9727 62.5273 75.2025 62.4443 75.4412 62.3739C75.8246 62.2607 76.2097 62.1475 76.5883 62.0193C76.6917 61.9843 76.7944 61.9477 76.8967 61.9094C76.9457 61.8911 76.9944 61.8723 77.0431 61.8532C77.0809 61.8383 77.2925 61.7487 77.1154 61.8256C77.3347 61.7304 77.5528 61.6317 77.767 61.5255C78.004 61.408 78.2354 61.2798 78.4603 61.1407C78.5746 61.0699 78.6874 60.9965 78.7983 60.9205C78.8513 60.884 78.904 60.8469 78.9562 60.8093C78.983 60.79 79.1775 60.6429 79.07 60.7266C80.1722 59.868 81.0381 58.8247 81.65 57.5855C82.2307 56.4094 82.4401 55.1354 82.3285 53.828C82.2776 53.2329 82.1802 52.6623 82.0324 52.0448C81.9064 51.5181 81.6357 50.99 81.647 50.4419C81.6506 50.2487 81.8849 50.1538 82.0246 50.286Z" fill="#04294F"></path> <path d="M159.595 99.3627C159.633 99.4081 159.826 99.3111 160.148 99.093C160.229 99.0384 160.317 98.9763 160.413 98.907C160.51 98.8379 160.615 98.7632 160.715 98.6683C160.921 98.4848 161.153 98.2713 161.407 98.0311C161.637 97.7696 161.897 97.4865 162.155 97.1641C162.274 96.9954 162.398 96.821 162.525 96.6415C162.587 96.5505 162.655 96.4612 162.714 96.3645C162.77 96.2659 162.827 96.166 162.885 96.0649C162.996 95.8603 163.124 95.6574 163.227 95.4356C163.325 95.2119 163.426 94.9834 163.528 94.7507C163.584 94.6359 163.617 94.5117 163.66 94.3896C163.7 94.2668 163.741 94.1429 163.782 94.0183C163.873 93.771 163.926 93.5098 163.986 93.2472C164.016 93.1158 164.046 92.9852 164.075 92.8553C164.098 92.7246 164.113 92.5933 164.132 92.4636C164.149 92.3338 164.166 92.2049 164.184 92.0771C164.191 92.013 164.202 91.9495 164.207 91.886C164.21 91.8221 164.214 91.7588 164.217 91.6954C164.229 91.4427 164.244 91.1942 164.249 90.9513C164.241 90.7088 164.232 90.4712 164.224 90.2395C164.222 90.1816 164.22 90.1242 164.217 90.0671C164.211 90.0104 164.205 89.954 164.198 89.898C164.186 89.7862 164.173 89.6756 164.161 89.5669C164.135 89.3494 164.114 89.1381 164.07 88.9376C164.03 88.7366 163.992 88.5426 163.955 88.3562C163.916 88.1706 163.861 87.9962 163.817 87.8285C163.77 87.6616 163.728 87.5019 163.679 87.3537C163.626 87.207 163.576 87.0688 163.529 86.9394C163.479 86.8114 163.434 86.6919 163.391 86.5822C163.345 86.4741 163.296 86.3776 163.254 86.2905C163.081 85.9433 162.96 85.7638 162.905 85.7843C162.85 85.8047 162.865 86.0227 162.938 86.3944C162.958 86.4868 162.979 86.5895 163.003 86.7018C163.023 86.8145 163.045 86.9369 163.069 87.0686C163.095 87.1991 163.123 87.3383 163.153 87.4862C163.18 87.634 163.2 87.7922 163.228 87.9564C163.251 88.1214 163.287 88.292 163.307 88.472C163.327 88.6518 163.347 88.8389 163.368 89.0326C163.396 89.2253 163.402 89.4265 163.413 89.6329C163.419 89.736 163.425 89.8404 163.431 89.9465C163.434 89.9995 163.437 90.0528 163.44 90.1064C163.44 90.16 163.439 90.2141 163.438 90.2684C163.437 90.4856 163.435 90.708 163.434 90.9353C163.417 91.1614 163.401 91.3922 163.383 91.627L163.371 91.8038C163.364 91.8627 163.353 91.9213 163.345 91.9805C163.327 92.0987 163.31 92.2178 163.292 92.3377C163.273 92.4575 163.259 92.5791 163.236 92.6999C163.209 92.8195 163.181 92.94 163.153 93.0611C163.098 93.3034 163.051 93.5453 162.969 93.7735C162.932 93.889 162.897 94.0037 162.861 94.1173C162.824 94.2305 162.796 94.3463 162.747 94.4531C162.659 94.6706 162.572 94.8842 162.487 95.0934C162.4 95.302 162.288 95.4939 162.194 95.6887C162.146 95.7856 162.098 95.8813 162.051 95.9756C162 96.0684 161.942 96.1548 161.889 96.2431C161.782 96.4191 161.678 96.5901 161.578 96.7552C161.36 97.0751 161.14 97.3635 160.951 97.6369C160.737 97.89 160.545 98.1227 160.378 98.3311C160.298 98.4383 160.212 98.5271 160.134 98.6115C160.057 98.6962 159.988 98.7745 159.926 98.8465C159.679 99.1344 159.558 99.3174 159.595 99.3627Z" fill="#04294F"></path> <path d="M149.424 119.616C149.463 119.66 149.641 119.573 149.932 119.375C150.076 119.274 150.257 119.156 150.445 118.993C150.635 118.833 150.851 118.648 151.084 118.437C151.306 118.215 151.553 117.974 151.804 117.702C151.926 117.562 152.051 117.417 152.181 117.267C152.244 117.191 152.311 117.116 152.375 117.037C152.436 116.956 152.498 116.873 152.561 116.79C152.686 116.621 152.818 116.452 152.942 116.271C153.061 116.086 153.182 115.897 153.306 115.705C153.37 115.61 153.427 115.509 153.481 115.406C153.537 115.304 153.593 115.201 153.649 115.096C153.705 114.992 153.763 114.888 153.817 114.78C153.866 114.671 153.916 114.56 153.966 114.449C154.064 114.226 154.168 114.008 154.24 113.781C154.316 113.555 154.404 113.338 154.463 113.114C154.52 112.891 154.577 112.671 154.632 112.456C154.675 112.239 154.706 112.023 154.741 111.814C154.782 111.606 154.787 111.398 154.803 111.198C154.814 110.997 154.836 110.804 154.824 110.615C154.818 110.427 154.813 110.246 154.808 110.071C154.801 109.897 154.769 109.731 154.751 109.573C154.728 109.416 154.714 109.265 154.683 109.125C154.649 108.986 154.617 108.855 154.587 108.732C154.554 108.611 154.524 108.498 154.497 108.394C154.46 108.292 154.423 108.2 154.39 108.118C154.255 107.79 154.154 107.621 154.098 107.637C154.041 107.654 154.034 107.854 154.066 108.194C154.076 108.279 154.086 108.372 154.098 108.475C154.104 108.578 154.11 108.69 154.116 108.81C154.125 108.929 154.134 109.056 154.145 109.191C154.153 109.325 154.146 109.469 154.15 109.617C154.148 109.767 154.16 109.922 154.149 110.084C154.139 110.246 154.128 110.414 154.117 110.588C154.114 110.762 154.079 110.94 154.056 111.124C154.028 111.307 154.014 111.497 153.965 111.687C153.922 111.877 153.885 112.074 153.838 112.272C153.781 112.468 153.723 112.669 153.663 112.873C153.604 113.077 153.517 113.277 153.445 113.484C153.376 113.693 153.278 113.895 153.187 114.102C153.141 114.205 153.095 114.308 153.05 114.41C153 114.511 152.946 114.608 152.896 114.707C152.844 114.805 152.794 114.902 152.743 114.999C152.695 115.096 152.643 115.191 152.586 115.282C152.475 115.467 152.367 115.648 152.261 115.826C152.15 116.001 152.032 116.166 151.923 116.332C151.868 116.415 151.813 116.497 151.76 116.577C151.704 116.656 151.645 116.732 151.589 116.808C151.476 116.96 151.367 117.107 151.262 117.25C151.04 117.528 150.833 117.788 150.644 118.025C150.446 118.256 150.266 118.465 150.111 118.653C149.96 118.844 149.814 118.995 149.707 119.132C149.489 119.401 149.385 119.572 149.424 119.616Z" fill="#04294F"></path> <path d="M176.097 129.981C176.079 129.84 176.069 129.698 176.064 129.556C176.06 129.456 176.065 129.375 176.08 129.273C176.083 129.252 176.117 129.024 176.1 129.144C176.147 128.803 176.285 128.498 176.454 128.2C176.74 127.696 177.123 127.211 177.575 126.845C177.825 126.643 178.081 126.455 178.366 126.306C178.418 126.279 178.47 126.253 178.523 126.228C178.591 126.195 178.661 126.165 178.732 126.137C178.804 126.111 178.88 126.098 178.958 126.097C178.827 126.146 178.976 126.069 179.008 126.058C179.081 126.032 179.154 126.012 179.231 125.997C179.517 125.941 179.821 125.902 180.113 125.918C180.252 125.925 180.378 125.936 180.517 125.938C180.698 125.941 180.836 126.006 180.998 126.077C181.229 126.178 181.113 126.475 180.936 126.549C180.8 126.605 180.709 126.654 180.559 126.677C180.436 126.696 180.348 126.739 180.231 126.787C180.047 126.864 179.825 126.979 179.63 127.086C179.579 127.114 179.528 127.14 179.477 127.166C179.443 127.184 179.409 127.202 179.375 127.221C179.436 127.177 179.427 127.184 179.348 127.243C179.234 127.332 179.107 127.398 178.985 127.476C178.879 127.544 178.774 127.615 178.671 127.688C178.648 127.705 178.484 127.831 178.597 127.74C178.552 127.777 178.507 127.814 178.462 127.852C178.27 128.016 178.084 128.186 177.915 128.375C177.876 128.418 177.838 128.462 177.801 128.506C177.779 128.533 177.693 128.648 177.759 128.557C177.679 128.667 177.602 128.778 177.531 128.894C177.47 128.992 177.414 129.093 177.361 129.196C177.334 129.248 177.307 129.298 177.278 129.348C177.259 129.379 177.083 129.66 177.152 129.539C177.032 129.75 176.898 129.95 176.791 130.168C176.72 130.314 176.521 130.38 176.37 130.339C176.199 130.292 176.117 130.146 176.097 129.981Z" fill="#04294F"></path> <path d="M187.289 108.454C186.9 108.021 186.99 107.23 187.163 106.714C187.366 106.109 187.761 105.607 188.263 105.222C188.767 104.833 189.386 104.58 190.009 104.455C190.21 104.415 190.395 104.392 190.599 104.404C190.716 104.41 190.864 104.385 191.003 104.372C191.308 104.343 191.614 104.325 191.921 104.308C192.326 104.286 192.39 104.892 192.015 104.999C191.751 105.074 191.488 105.15 191.227 105.234C191.102 105.274 190.979 105.324 190.853 105.36C190.91 105.321 190.919 105.316 190.879 105.347C190.832 105.385 190.785 105.421 190.737 105.457C190.659 105.502 190.551 105.533 190.465 105.567C190.387 105.598 190.302 105.637 190.191 105.69C190.074 105.746 189.956 105.798 189.841 105.856C189.601 105.977 189.39 106.131 189.164 106.272C189.1 106.312 189.225 106.217 189.129 106.298C189.081 106.339 189.032 106.38 188.986 106.423C188.9 106.502 188.819 106.587 188.735 106.668C188.652 106.749 188.575 106.833 188.497 106.919C188.4 107.026 188.52 106.876 188.445 106.985C188.409 107.037 188.375 107.089 188.341 107.141C188.221 107.325 188.114 107.5 188.061 107.659C187.987 107.879 187.985 108.138 187.868 108.379C187.768 108.587 187.439 108.621 187.289 108.454Z" fill="#04294F"></path> <path fill-rule="evenodd" clip-rule="evenodd" d="M60.6747 12.399C60.5506 12.1343 72.3523 21.1089 75.9031 44.6219C76.0384 45.5185 76.427 46.2661 76.9956 46.9584C76.2444 47.7295 75.8404 48.8002 75.2767 49.7248C74.3986 51.1653 73.3983 52.547 72.3773 53.8893C71.6122 54.8956 70.856 56.0992 69.8527 56.8866C68.8321 57.6874 67.4613 57.6366 66.2339 57.9633C66.0459 57.8191 65.8739 57.6845 65.7213 57.5629L64.8869 57.8691C59.9896 59.537 50.9139 61.9312 45.6435 51.2618C41.8549 43.5921 32.199 26.3417 32.199 26.3417L60.6747 12.399Z" fill="#FFB400"></path> <path fill-rule="evenodd" clip-rule="evenodd" d="M27.7594 11.7342C16.4816 27.0903 30.0661 35.441 34.034 35.2567C39.6177 34.9973 45.2532 28.9339 47.2116 27.0924C49.1701 25.2509 51.7235 23.7855 54.4103 23.9848C57.2913 24.1985 59.72 26.2808 61.3646 28.6502C63.0862 31.1302 63.2291 32.0593 64.9125 34.5614C65.0782 34.8206 65.3495 34.9945 65.6547 35.0374C66.5288 35.1342 66.7645 33.944 66.5295 33.1515C66.0783 31.629 64.9864 30.3513 64.5653 28.8202C64.0861 27.0779 65.0759 24.6225 67.155 25.2143C67.8091 25.4141 68.365 25.8505 68.7133 26.4377C71.5269 31.0073 73.4107 36.0833 74.2571 41.376C74.5449 43.1807 76.081 46.5657 76.8311 46.1519C77.5811 45.7381 81.6876 36.9369 75.9819 28.4681C75.4259 27.6582 75.26 26.6441 75.5291 25.701C77.6963 18.3827 73.6145 9.34644 70.0473 6.36983C65.0812 2.22575 55.6742 -1.04454 49.3479 0.310862C45.6462 1.10381 35.6462 3.5305 32.2547 13.8919C31.2456 16.9751 30.4743 8.0374 27.7594 11.7342Z" fill="#04294F"></path> <path d="M66.6627 28.9965C66.5853 28.781 66.5485 28.553 66.5543 28.3243C66.5471 28.1295 66.6589 27.9498 66.8372 27.8699C67.0387 27.8117 67.2822 27.9625 67.487 28.1316C67.8487 28.4342 68.1607 28.7911 68.4121 29.1894C68.6198 29.4936 68.7603 29.8384 68.8241 30.2009C68.9207 30.9313 68.3842 31.2979 67.8022 30.9043C67.2799 30.551 66.8531 29.6022 66.6627 28.9965Z" fill="#04294F"></path> <path d="M70.5565 53.5129C70.6242 53.5584 70.6378 53.6741 70.6014 53.8483C70.5797 53.9513 70.5475 54.0517 70.5056 54.1481C70.4546 54.2745 70.3951 54.3972 70.3277 54.5155C70.1539 54.8224 69.9501 55.1115 69.7192 55.3786C69.5874 55.5271 69.4483 55.6843 69.2898 55.8318C69.135 55.9841 68.9632 56.129 68.7853 56.2747C68.6025 56.4144 68.4221 56.5485 68.2383 56.6642C68.0582 56.785 67.873 56.8841 67.698 56.9785C67.3848 57.1422 67.0563 57.2745 66.7168 57.3737C66.5859 57.4124 66.4524 57.4423 66.3175 57.4633C66.2138 57.4822 66.1082 57.4906 66.0027 57.4885C65.8241 57.4844 65.714 57.4451 65.685 57.369C65.656 57.293 65.7099 57.1877 65.8277 57.064C65.887 57.0029 65.9619 56.9361 66.0486 56.861C66.1355 56.7868 66.2381 56.7122 66.3481 56.6254C66.5693 56.4629 66.8326 56.2692 67.1249 56.0546C67.2674 55.9452 67.4215 55.8383 67.5741 55.7176C67.7277 55.5994 67.8867 55.4769 68.0498 55.3515C68.2093 55.2218 68.3649 55.0951 68.5153 54.9727C68.6678 54.8521 68.807 54.7265 68.9461 54.6129C69.2222 54.3778 69.4709 54.1661 69.68 53.9882C69.7898 53.9011 69.8858 53.8184 69.978 53.7508C70.071 53.6835 70.1532 53.6261 70.2264 53.5823C70.3737 53.4959 70.4889 53.4675 70.5565 53.5129Z" fill="#F04E23"></path> <path d="M40.367 29.7549C40.3985 29.7838 40.4003 29.8418 40.374 29.9273C40.3337 30.0449 40.2781 30.1566 40.2082 30.2596C40.1041 30.4208 39.9876 30.5737 39.8597 30.717C39.6917 30.9078 39.5109 31.0872 39.3186 31.2537C39.0848 31.4569 38.8381 31.645 38.5799 31.8165C37.9483 32.2309 37.2599 32.5521 36.536 32.7704C35.715 33.0209 34.858 33.1342 33.9996 33.106C33.2432 33.0838 32.494 32.9528 31.7749 32.717C31.4805 32.6186 31.1927 32.5013 30.9135 32.3659C30.6838 32.2552 30.462 32.1291 30.2494 31.9885C30.0882 31.8836 29.9354 31.7663 29.7923 31.6378C29.6976 31.5566 29.6145 31.4632 29.5446 31.3601C29.4965 31.2847 29.4829 31.2281 29.5058 31.192C29.5285 31.1558 29.5865 31.142 29.6743 31.1474C29.7931 31.1609 29.9104 31.1842 30.0254 31.217C30.1712 31.2552 30.3443 31.3071 30.5442 31.3639C30.7435 31.4213 30.9686 31.4853 31.218 31.5472C31.4665 31.6114 31.7403 31.6694 32.033 31.7257C32.3275 31.775 32.6408 31.8259 32.9723 31.8539C33.3175 31.8862 33.6641 31.9003 34.0107 31.8958C34.7517 31.8894 35.4888 31.7919 36.2056 31.6054C36.5413 31.5196 36.8722 31.416 37.1966 31.2949C37.5092 31.1816 37.798 31.0512 38.0693 30.927C38.3368 30.7966 38.5859 30.6694 38.8086 30.5427C39.0327 30.4183 39.2332 30.2977 39.4103 30.1906C39.5883 30.084 39.7416 29.9888 39.8721 29.9141C39.9744 29.8526 40.0816 29.7996 40.1926 29.7557C40.2759 29.7275 40.3356 29.726 40.367 29.7549Z" fill="#00AEE0"></path> <path d="M40.8394 6.19632C40.8825 6.27008 40.8444 6.3892 40.7446 6.53769C40.6941 6.61111 40.629 6.69328 40.5546 6.78765C40.4795 6.88104 40.3879 6.97591 40.2938 7.08827C40.0986 7.30325 39.8733 7.55783 39.6289 7.83898C39.5114 7.98417 39.3802 8.12788 39.2582 8.28874C39.1297 8.444 39.0072 8.61262 38.8763 8.78108C38.754 8.9558 38.629 9.12244 38.5186 9.2909C38.4008 9.4549 38.3021 9.62253 38.1982 9.77762C38.0015 10.0939 37.8249 10.3841 37.6771 10.6339C37.5975 10.7568 37.5339 10.8722 37.4668 10.9715C37.3987 11.0705 37.3394 11.1569 37.284 11.2267C37.1715 11.3658 37.0686 11.4374 36.9855 11.4185C36.9021 11.3995 36.846 11.2904 36.818 11.1032C36.8012 10.9923 36.7968 10.8798 36.8047 10.7679C36.81 10.6224 36.8266 10.4774 36.8538 10.3343C36.9225 9.96225 37.0335 9.5991 37.1848 9.25229C37.2736 9.04704 37.3743 8.84707 37.4862 8.65337C37.7228 8.23413 38.0099 7.84525 38.3408 7.4953C38.4931 7.3313 38.6546 7.17604 38.8246 7.03035C39.1118 6.7832 39.4264 6.56953 39.7623 6.39349C39.8912 6.32502 40.025 6.26628 40.1629 6.21777C40.2676 6.17702 40.3766 6.14782 40.4878 6.13082C40.6754 6.10162 40.7963 6.12274 40.8394 6.19632Z" fill="#00AEE0"></path> <path d="M52.7024 4.76071C52.7103 4.84172 52.6252 4.92999 52.4702 5.01975C52.3925 5.06363 52.2978 5.10934 52.1886 5.16131C52.0794 5.21246 51.9543 5.25865 51.8191 5.31805C51.5464 5.42662 51.2272 5.55597 50.8778 5.70017C50.705 5.77772 50.5206 5.84883 50.336 5.93759C50.1483 6.0191 49.9592 6.11413 49.7629 6.20537C49.5707 6.30536 49.3801 6.39709 49.201 6.49609C49.0181 6.58832 48.8493 6.69094 48.6826 6.7807C48.3553 6.96961 48.0584 7.14351 47.8062 7.29333C47.6767 7.36427 47.5638 7.43522 47.4568 7.49049C47.3491 7.54527 47.255 7.59262 47.1728 7.62727C47.0071 7.69541 46.885 7.7091 46.8252 7.65367C46.7654 7.59823 46.774 7.47828 46.8451 7.30471C46.8873 7.20176 46.94 7.10342 47.0023 7.01136C47.0797 6.8891 47.1657 6.77245 47.2593 6.66223C47.5012 6.37482 47.7726 6.11347 48.0692 5.88249C48.244 5.74554 48.4261 5.61784 48.6143 5.49987C48.8085 5.37382 49.0201 5.26113 49.2383 5.14844C49.4605 5.04433 49.679 4.94534 49.8974 4.86829C50.1058 4.7909 50.3183 4.72458 50.5337 4.66931C50.898 4.57493 51.2715 4.519 51.6477 4.50217C51.7926 4.49491 51.9379 4.49788 52.0824 4.51075C52.1937 4.51735 52.3042 4.53533 52.4119 4.56454C52.5935 4.61387 52.6944 4.67987 52.7024 4.76071Z" fill="#00AEE0"></path> <path d="M47.0009 8.05686C47.1743 8.35104 46.748 8.92142 46.0487 9.33076C45.3491 9.7401 44.6415 9.83349 44.468 9.53931C44.2943 9.24513 44.7208 8.67475 45.4202 8.26541C46.1197 7.85607 46.8274 7.76268 47.0009 8.05686Z" fill="#00AEE0"></path> <path d="M59.3578 6.53801C59.33 6.6144 59.235 6.66489 59.0939 6.69277C59.0234 6.70581 58.9411 6.71455 58.8472 6.72396C58.7537 6.73254 58.6516 6.73155 58.5385 6.73831C58.3198 6.74293 58.0598 6.74854 57.771 6.75481C57.629 6.76355 57.4811 6.76256 57.3283 6.77609C57.1754 6.78236 57.0181 6.79936 56.8567 6.81025C56.696 6.82988 56.5384 6.84258 56.3872 6.86502C56.2344 6.8802 56.0894 6.90908 55.9483 6.92706C55.6636 6.97507 55.4071 7.0183 55.1916 7.0546C55.079 7.06912 54.9791 7.08925 54.8857 7.09832C54.7918 7.10674 54.7091 7.1135 54.6375 7.114C54.4935 7.11301 54.3906 7.08133 54.3487 7.01137C54.3068 6.94158 54.3308 6.83945 54.4165 6.71125C54.4667 6.63618 54.526 6.56754 54.5931 6.50716C54.6768 6.42648 54.7672 6.35306 54.8633 6.28772C55.1117 6.11728 55.3811 5.97968 55.6649 5.87821C55.8323 5.81782 56.0034 5.768 56.1772 5.72939C56.5505 5.64244 56.9339 5.60614 57.317 5.62165C57.4951 5.62709 57.6726 5.64376 57.8485 5.67181C58.1466 5.71833 58.4376 5.80298 58.7139 5.92375C58.821 5.96995 58.9237 6.02505 59.0213 6.08857C59.0987 6.13543 59.1701 6.19169 59.2335 6.25588C59.3424 6.36593 59.3855 6.46162 59.3578 6.53801Z" fill="#00AEE0"></path> <path d="M56.2342 8.57598C56.2714 8.91504 55.3698 9.2904 54.2203 9.41414C53.0707 9.53805 52.1087 9.36349 52.0715 9.02426C52.0343 8.68521 52.936 8.30985 54.0856 8.18611C55.2351 8.0622 56.1971 8.23676 56.2342 8.57598Z" fill="#00AEE0"></path> <path d="M66.9832 9.22114C66.9169 9.27493 66.8024 9.26717 66.6573 9.21289C66.5854 9.18501 66.5047 9.1464 66.4129 9.10218C66.3218 9.0573 66.2281 8.99873 66.1196 8.94132C65.914 8.82285 65.6694 8.68178 65.398 8.52537C65.261 8.45393 65.124 8.37012 64.9739 8.29735C64.8277 8.21766 64.6718 8.14573 64.5151 8.06587C64.3542 7.9946 64.2001 7.9187 64.0462 7.85551C63.8951 7.78489 63.7436 7.73127 63.6018 7.66973C63.309 7.55753 63.0454 7.45639 62.8237 7.37142C62.7109 7.32341 62.6063 7.28744 62.5141 7.24521C62.4218 7.20198 62.3411 7.16337 62.2741 7.12526C62.1406 7.04689 62.0627 6.9629 62.0627 6.8776C62.0629 6.7923 62.1422 6.71377 62.2934 6.64497C62.382 6.60454 62.4751 6.57501 62.5711 6.55719C62.6937 6.52997 62.8184 6.51314 62.944 6.5067C63.2691 6.48856 63.5953 6.51182 63.9148 6.57584C64.1035 6.61312 64.2897 6.66229 64.4723 6.72301C64.8667 6.84972 65.2421 7.02857 65.5889 7.25477C65.751 7.35822 65.9064 7.47174 66.0542 7.59466C66.3049 7.80222 66.5282 8.04063 66.7186 8.30428C66.7927 8.40559 66.8579 8.513 66.9138 8.62536C66.96 8.71099 66.9956 8.80173 67.02 8.89594C67.0611 9.05631 67.0496 9.16752 66.9832 9.22114Z" fill="#00AEE0"></path> <path d="M66.3287 15.3374C66.2569 15.3836 66.1494 15.3696 66.019 15.3087C65.8546 15.2236 65.6995 15.1218 65.5561 15.0049C65.3808 14.867 65.1819 14.7009 64.9693 14.5141C64.7579 14.3285 64.5258 14.1245 64.2819 13.9106C64.038 13.6967 63.8055 13.493 63.5941 13.3077C63.381 13.1212 63.1905 12.9457 63.0311 12.7899C62.8966 12.6629 62.7756 12.5225 62.6699 12.3707C62.5978 12.2875 62.5723 12.1739 62.602 12.0683C62.6388 11.9914 62.737 11.9495 62.8873 11.9419C62.9746 11.9379 63.0621 11.9437 63.1481 11.9594C63.2579 11.9767 63.3661 12.0023 63.4722 12.0358C63.7441 12.1216 64.0059 12.2366 64.2527 12.3789C64.3984 12.4619 64.5397 12.5525 64.6761 12.65C64.8192 12.7498 64.9592 12.864 65.1001 12.984C65.2373 13.108 65.3688 13.2318 65.4863 13.3608C65.6006 13.4832 65.7086 13.6114 65.8099 13.7449C65.9829 13.9711 66.1305 14.2153 66.2505 14.4732C66.2974 14.5737 66.3366 14.6776 66.3678 14.7839C66.3941 14.8668 66.4112 14.9526 66.4183 15.0394C66.4296 15.1887 66.4004 15.2912 66.3287 15.3374Z" fill="#00AEE0"></path> <path d="M76.119 37.4198C76.0338 37.4118 75.9591 37.3016 75.8968 37.1165C75.8668 37.024 75.8378 36.9126 75.8035 36.7847C75.7704 36.657 75.7464 36.5133 75.7074 36.3561C75.6733 36.1988 75.6403 36.0279 75.5961 35.8466C75.5603 35.6644 75.5073 35.473 75.4612 35.2716C75.4377 35.1709 75.4054 35.0693 75.3788 34.9647C75.353 34.8599 75.323 34.754 75.2885 34.6471C75.2287 34.4311 75.1515 34.2125 75.0796 33.9865C74.9961 33.7642 74.9214 33.5449 74.8346 33.338C74.7955 33.2328 74.7535 33.1308 74.7088 33.0325C74.6649 32.9338 74.6273 32.8342 74.5835 32.7405C74.4951 32.5535 74.418 32.3704 74.3333 32.2051C74.2558 32.0351 74.1759 31.8805 74.1054 31.7357C74.0386 31.5878 73.9685 31.46 73.9153 31.3392C73.8631 31.2174 73.8167 31.112 73.7831 31.0207C73.7175 30.8368 73.7082 30.7041 73.7702 30.6457C73.8323 30.5872 73.9609 30.6088 74.145 30.7035C74.2547 30.7596 74.3579 30.827 74.4533 30.9048C74.5812 31.0019 74.7017 31.1084 74.814 31.223C74.9524 31.3593 75.0816 31.5043 75.2009 31.6576C75.3404 31.8318 75.4698 32.0137 75.5888 32.2024C75.6532 32.3012 75.7099 32.4078 75.7714 32.5149C75.8348 32.6238 75.8927 32.7358 75.9448 32.8507C76.1785 33.3275 76.3531 33.8309 76.4646 34.3496C76.4951 34.4742 76.519 34.5978 76.536 34.7203C76.5539 34.8424 76.5753 34.9611 76.5859 35.0784C76.6093 35.3 76.62 35.5225 76.6182 35.7453C76.6192 35.939 76.6073 36.1327 76.5827 36.3249C76.5655 36.4841 76.5365 36.6418 76.4961 36.7968C76.4693 36.9165 76.4298 37.033 76.3781 37.1446C76.292 37.3318 76.2042 37.4277 76.119 37.4198Z" fill="#00AEE0"></path> <path d="M31.493 27.9595C31.4832 28.0009 31.438 28.0319 31.3595 28.0527C31.2503 28.078 31.1381 28.087 31.0263 28.0796C30.8546 28.0722 30.6838 28.0499 30.5159 28.0128C30.2932 27.9653 30.0744 27.9008 29.8615 27.8199C29.6017 27.7221 29.3495 27.6051 29.1067 27.4705C28.5159 27.1375 27.9837 26.7103 27.5312 26.206C27.0139 25.6339 26.6098 24.9695 26.3406 24.2479C26.1013 23.6148 25.9679 22.9472 25.9454 22.2714C25.9378 21.9947 25.9507 21.718 25.9839 21.4433C26.0105 21.218 26.0544 20.9949 26.1154 20.7763C26.1601 20.611 26.2193 20.4498 26.2922 20.2947C26.3374 20.1925 26.3974 20.0977 26.4705 20.0129C26.5253 19.953 26.5739 19.9276 26.6153 19.9381C26.6567 19.9487 26.6893 19.9944 26.7135 20.0699C26.7405 20.1722 26.7583 20.2768 26.7666 20.3824C26.78 20.5141 26.7898 20.6715 26.8042 20.8515C26.8179 21.0314 26.8338 21.2336 26.86 21.4544C26.8837 21.6751 26.9216 21.9139 26.9674 22.1668C27.0201 22.4189 27.0776 22.686 27.1619 22.9596C27.2466 23.245 27.3486 23.5252 27.4671 23.7984C27.7173 24.3823 28.0492 24.9281 28.4528 25.4195C28.641 25.6508 28.843 25.8705 29.0577 26.0774C29.2622 26.2786 29.4731 26.4531 29.6731 26.6163C29.8769 26.7739 30.0719 26.9179 30.2573 27.0412C30.4416 27.1665 30.6142 27.2743 30.7679 27.3697C30.9215 27.4658 31.0569 27.5473 31.1679 27.6201C31.2579 27.6762 31.3427 27.7404 31.4214 27.8115C31.4773 27.8683 31.503 27.9181 31.493 27.9595Z" fill="#00AEE0"></path> <path d="M37.6588 21.8744C37.696 21.9107 37.7131 21.9629 37.7047 22.014C37.6977 22.1019 37.6755 22.1881 37.6387 22.2684C37.511 22.5481 37.3324 22.8017 37.112 23.0167C36.9625 23.1684 36.8007 23.3077 36.6282 23.4331C36.2033 23.7372 35.7272 23.9627 35.2221 24.0988C34.6459 24.2569 34.0429 24.2945 33.4511 24.2095C32.9326 24.1374 32.4313 23.9731 31.971 23.7241C31.7839 23.6213 31.6055 23.5034 31.4378 23.3714C31.1916 23.1858 30.982 22.9563 30.8194 22.6948C30.7727 22.6197 30.7396 22.537 30.7215 22.4506C30.7066 22.4009 30.7169 22.347 30.7494 22.3064C30.7896 22.2737 30.8423 22.2605 30.8933 22.2701C30.9752 22.281 31.0555 22.3011 31.1331 22.3298C31.322 22.3966 31.5736 22.5034 31.8778 22.6167C32.0296 22.6741 32.1973 22.7284 32.3754 22.7832C32.5555 22.8327 32.7459 22.885 32.9489 22.9221C33.3817 23.0069 33.8232 23.0373 34.2633 23.0129C34.4893 22.9969 34.714 22.9667 34.9361 22.9226C35.1457 22.8805 35.3525 22.8259 35.5557 22.7593C35.7523 22.6972 35.9343 22.6217 36.1068 22.5501C36.2764 22.4737 36.4356 22.3989 36.579 22.323C36.8663 22.1727 37.1022 22.0355 37.2812 21.9457C37.3542 21.9076 37.4314 21.8776 37.5113 21.8566C37.5607 21.8404 37.6145 21.847 37.6588 21.8744Z" fill="#00AEE0"></path> <path d="M44.6788 36.4194C44.6439 36.4546 44.5963 36.4744 44.5466 36.4747C44.474 36.4772 44.4013 36.4716 44.3297 36.4582C44.2442 36.4443 44.1466 36.4234 44.0361 36.4021C43.9263 36.3803 43.8047 36.3566 43.6718 36.3378C43.5397 36.3166 43.3956 36.3039 43.2443 36.2939C43.0849 36.2868 42.9253 36.2892 42.7663 36.3013C42.5958 36.3143 42.4266 36.3414 42.2606 36.3821C41.9128 36.4638 41.5851 36.6148 41.2973 36.8258C41.1588 36.9255 41.0285 37.0363 40.9081 37.1571C40.7959 37.27 40.6905 37.3894 40.5929 37.515C40.5028 37.6362 40.4193 37.7539 40.3499 37.8677C40.2785 37.9807 40.2178 38.0883 40.1633 38.1858C40.108 38.2833 40.0611 38.3709 40.0163 38.4449C39.9802 38.5077 39.9373 38.5665 39.8884 38.6201C39.8561 38.6575 39.81 38.6808 39.7607 38.6844C39.711 38.6806 39.6661 38.6539 39.6389 38.6122C39.5907 38.5475 39.5557 38.4741 39.5363 38.3959C39.5044 38.2804 39.4873 38.1614 39.4855 38.0418C39.4815 37.8836 39.4949 37.7253 39.5257 37.5699C39.5627 37.3798 39.6193 37.1942 39.6949 37.016C39.8851 36.577 40.1746 36.1878 40.5407 35.8788C40.9626 35.5187 41.4764 35.282 42.0251 35.195C42.4989 35.1173 42.9842 35.1498 43.4435 35.2897C43.6289 35.348 43.8076 35.425 43.9771 35.5201C44.116 35.5973 44.2457 35.6895 44.3644 35.7949C44.4548 35.8738 44.535 35.9637 44.6028 36.0627C44.65 36.1281 44.6838 36.2021 44.702 36.2805C44.7166 36.3277 44.708 36.3792 44.6788 36.4194Z" fill="#04294F"></path> <path d="M54.3275 32.007C54.2886 32.042 54.2364 32.0581 54.1844 32.0514C54.1013 32.0449 54.019 32.0303 53.9388 32.0078C53.8405 31.9827 53.7274 31.9486 53.5975 31.9139C53.4684 31.8785 53.3241 31.8405 53.165 31.8082C53.0071 31.7732 52.8332 31.7481 52.6494 31.7265C52.4551 31.708 52.2599 31.7021 52.0649 31.7089C51.8543 31.7163 51.6448 31.7417 51.4387 31.7846C51.0043 31.8712 50.5929 32.0474 50.2312 32.302C50.058 32.4215 49.8957 32.5554 49.7455 32.7026C49.6065 32.8389 49.4766 32.9841 49.3565 33.1374C49.2458 33.285 49.1446 33.4281 49.0616 33.5663C48.9759 33.7036 48.9045 33.8341 48.8415 33.9517C48.7776 34.0694 48.7246 34.1748 48.6754 34.2631C48.6366 34.3365 48.5907 34.406 48.5383 34.4706C48.5075 34.5129 48.4598 34.5394 48.4076 34.5436C48.3556 34.5357 48.3112 34.5022 48.2891 34.4546C48.2431 34.3756 48.2119 34.2888 48.1973 34.1987C48.1717 34.0628 48.162 33.9245 48.1687 33.7864C48.1758 33.6031 48.2021 33.4211 48.247 33.2434C48.3014 33.0258 48.3774 32.8143 48.474 32.6119C48.588 32.3781 48.7264 32.1568 48.8868 31.9519C49.0664 31.7222 49.2728 31.5148 49.5016 31.3342C50.0009 30.9349 50.5995 30.6785 51.2338 30.5919C51.5231 30.5506 51.8162 30.5439 52.1071 30.5719C52.3669 30.5968 52.6234 30.649 52.8723 30.7272C53.0863 30.7965 53.2929 30.887 53.4891 30.9972C53.6497 31.087 53.8006 31.1931 53.9391 31.3139C54.0445 31.404 54.1388 31.5061 54.2203 31.6179C54.276 31.6905 54.3179 31.7727 54.3438 31.8603C54.3636 31.9088 54.3573 31.9639 54.3275 32.007Z" fill="#04294F"></path> <path d="M42.3143 41.4215C41.5662 39.7372 41.6201 38.0809 42.4349 37.7221C43.2496 37.3632 44.5166 38.4377 45.2648 40.122C46.0129 41.8063 45.9589 43.4625 45.1442 43.8214C44.3294 44.1803 43.0624 43.1058 42.3143 41.4215Z" fill="#04294F"></path> <path d="M51.2425 37.3265C50.4944 35.6422 50.5484 33.9859 51.3631 33.6271C52.1779 33.2682 53.4448 34.3427 54.193 36.027C54.9411 37.7113 54.8871 39.3676 54.0724 39.7264C53.2576 40.0853 51.9907 39.0108 51.2425 37.3265Z" fill="#04294F"></path> <path d="M50.9588 35.5188C50.7356 35.052 50.8502 34.5334 51.2148 34.3605C51.5795 34.1877 52.056 34.426 52.2792 34.8928C52.5024 35.3596 52.3878 35.8782 52.0232 36.0511C51.6585 36.2239 51.182 35.9856 50.9588 35.5188Z" fill="white"></path> <path d="M53.2396 36.4416C53.1359 36.1127 53.2482 35.7848 53.4903 35.7091C53.7324 35.6335 54.0126 35.8388 54.1163 36.1677C54.2199 36.4966 54.1077 36.8245 53.8656 36.9002C53.6235 36.9758 53.3432 36.7705 53.2396 36.4416Z" fill="white"></path> <path d="M42.0347 39.346C41.8522 38.8619 42.0108 38.355 42.3889 38.2137C42.7669 38.0724 43.2213 38.3502 43.4038 38.8343C43.5862 39.3183 43.4277 39.8252 43.0496 39.9665C42.6715 40.1079 42.2172 39.83 42.0347 39.346Z" fill="white"></path> <path fill-rule="evenodd" clip-rule="evenodd" d="M45.2285 40.4513C45.125 40.1224 44.8446 39.917 44.6025 39.9928C44.3605 40.0685 44.2481 40.3963 44.3519 40.7253C44.4554 41.0541 44.7358 41.2596 44.9778 41.1838C45.2199 41.1081 45.3321 40.7801 45.2285 40.4513Z" fill="white"></path> <path d="M52.3824 52.9507C53.5679 53.0812 54.7641 52.7872 55.8782 52.366C57.3348 51.8158 58.7453 51.0083 59.6654 49.7573C60.5856 48.5064 60.9241 46.7499 60.1983 45.3781C60.0732 45.1462 59.9159 44.9328 59.7312 44.7444C58.8757 43.869 57.3994 43.3629 56.4035 44.1244C55.8345 44.5611 55.489 45.5299 54.8448 46.0328C54.1743 46.5582 53.3995 46.936 52.5716 47.1409C51.6803 47.3598 50.6932 47.3922 49.9636 47.9461C49.0172 48.6687 48.8507 50.1373 49.4338 51.1728C49.4627 51.2234 49.4906 51.27 49.5224 51.3172C50.127 52.2677 51.2519 52.8277 52.3824 52.9507Z" fill="#04294F"></path> <path d="M49.8745 50.4135C52.8072 49.5739 55.4855 48.428 57.7078 46.3456C58.3863 45.7418 58.7254 45.1221 59.2681 44.3946C58.4126 43.5192 57.3998 43.3633 56.4038 44.1247C55.8348 44.5614 55.4894 45.5303 54.8452 46.0331C54.1746 46.5585 53.3998 46.9363 52.5719 47.1412C51.6807 47.3602 50.6935 47.3925 49.964 47.9464C49.0025 48.8535 48.9854 49.4468 49.1508 50.4554C49.1796 50.5064 49.7005 50.464 49.8745 50.4135Z" fill="white"></path> <path d="M96.7752 80.0266C96.6978 80.087 96.8103 80.3713 97.0837 80.8384C97.152 80.9552 97.2303 81.0832 97.3185 81.2222C97.4086 81.3593 97.5133 81.5026 97.625 81.6581C97.8513 81.9659 98.1058 82.3218 98.4213 82.6855C98.5776 82.8691 98.7413 83.0615 98.9119 83.2619C99.0846 83.4609 99.2766 83.6558 99.4706 83.8632C99.8548 84.2819 100.298 84.6961 100.763 85.1353C100.996 85.354 101.249 85.5624 101.501 85.7827C101.628 85.8916 101.756 86.0018 101.886 86.1128C102.02 86.2186 102.156 86.3253 102.292 86.4329C102.569 86.6446 102.841 86.8729 103.136 87.0784C103.429 87.2864 103.727 87.4978 104.028 87.7114C104.339 87.9116 104.645 88.1094 104.948 88.3044C105.248 88.5022 105.562 88.6697 105.861 88.8476C106.012 88.9345 106.161 89.0206 106.309 89.1058C106.461 89.185 106.611 89.2635 106.76 89.341C107.058 89.4933 107.346 89.6507 107.636 89.7859C108.217 90.0545 108.767 90.3123 109.299 90.514C109.564 90.6171 109.817 90.7233 110.066 90.8098C110.316 90.8939 110.556 90.9746 110.785 91.0517C111.241 91.2099 111.667 91.3143 112.038 91.4105C112.224 91.4567 112.396 91.5009 112.557 91.5339C112.719 91.5643 112.868 91.5895 113.002 91.6098C113.539 91.691 113.846 91.6903 113.874 91.5965C113.901 91.5026 113.648 91.3247 113.173 91.085C112.934 90.9695 112.643 90.8281 112.304 90.6641C111.967 90.4998 111.577 90.3338 111.159 90.1211C110.948 90.02 110.726 89.9139 110.496 89.8035C110.266 89.6936 110.032 89.5663 109.787 89.4438C109.293 89.2039 108.782 88.916 108.239 88.6266C107.968 88.4811 107.699 88.3156 107.419 88.1576C107.279 88.0777 107.138 87.9969 106.995 87.9154C106.855 87.8291 106.714 87.7418 106.572 87.6537C106.29 87.4748 105.992 87.3085 105.707 87.1143C105.418 86.9252 105.124 86.7335 104.828 86.5393C104.537 86.3362 104.25 86.1354 103.967 85.9374C103.681 85.7444 103.416 85.5304 103.145 85.3346C103.01 85.2352 102.877 85.1369 102.745 85.0394C102.616 84.9374 102.489 84.8364 102.363 84.7365C102.112 84.5352 101.858 84.3469 101.623 84.1494C101.152 83.7533 100.695 83.3862 100.29 83.0176C100.085 82.8354 99.88 82.666 99.6926 82.4934C99.5047 82.3208 99.3243 82.1552 99.1522 81.9971C98.7996 81.6878 98.5007 81.3876 98.2233 81.136C97.9454 80.8831 97.7062 80.6653 97.5105 80.4871C97.1119 80.1352 96.8526 79.9664 96.7752 80.0266Z" fill="#04294F"></path> <path d="M104.504 91.7861C104.543 91.8756 104.69 91.9092 104.93 91.8891C105.051 91.8803 105.193 91.8559 105.351 91.8082C105.509 91.762 105.692 91.7089 105.88 91.6223C105.975 91.581 106.074 91.5362 106.177 91.4878C106.28 91.4388 106.381 91.3784 106.487 91.3187C106.703 91.2019 106.916 91.0514 107.141 90.8917C107.253 90.8115 107.359 90.7188 107.471 90.6277C107.527 90.5814 107.583 90.5345 107.639 90.4872C107.692 90.4365 107.746 90.3854 107.801 90.3337C108.022 90.1306 108.228 89.8976 108.436 89.6571C108.632 89.4066 108.821 89.16 108.978 88.9042C109.018 88.841 109.058 88.7785 109.097 88.7165C109.133 88.6521 109.168 88.5883 109.203 88.5252C109.271 88.398 109.341 88.2763 109.398 88.151C109.511 87.9001 109.618 87.6627 109.691 87.429C109.728 87.3131 109.768 87.203 109.796 87.0931C109.824 86.9831 109.849 86.8775 109.871 86.7765C109.919 86.5764 109.936 86.3873 109.95 86.2235C109.966 86.0601 109.962 85.9161 109.947 85.7966C109.92 85.5584 109.858 85.4218 109.763 85.4008C109.667 85.3798 109.546 85.4752 109.412 85.6569C109.346 85.7481 109.275 85.8603 109.191 85.9883C109.108 86.1165 109.03 86.2657 108.929 86.4233C108.881 86.5028 108.832 86.5863 108.783 86.6732C108.733 86.76 108.673 86.8468 108.618 86.9387C108.511 87.1243 108.38 87.3124 108.254 87.5142C108.19 87.6148 108.115 87.7125 108.045 87.8159C108.01 87.8674 107.975 87.9194 107.94 87.9719C107.901 88.0227 107.862 88.0738 107.824 88.1256C107.674 88.3368 107.503 88.5426 107.335 88.7587C107.155 88.965 106.986 89.1722 106.808 89.3593C106.764 89.4074 106.721 89.4553 106.679 89.5027C106.634 89.5477 106.59 89.5924 106.546 89.6366C106.458 89.7244 106.376 89.8166 106.29 89.8988C106.116 90.0621 105.956 90.227 105.794 90.3677C105.714 90.4395 105.641 90.5145 105.565 90.5802C105.489 90.6454 105.416 90.7094 105.347 90.7723C105.212 90.9019 105.08 91.0067 104.97 91.1126C104.861 91.2199 104.764 91.3114 104.687 91.3933C104.535 91.5598 104.464 91.6965 104.504 91.7861Z" fill="#04294F"></path> <path d="M94.9688 89.9786C94.9788 90.0266 95.0515 90.0588 95.1829 90.0758C95.3135 90.0898 95.5063 90.1014 95.7467 90.075C95.8674 90.0632 96.0012 90.0472 96.1477 90.0268C96.2933 90.0035 96.4496 89.97 96.6184 89.9349C96.9544 89.8598 97.3335 89.7541 97.7428 89.6082C98.1535 89.4653 98.5918 89.2774 99.0519 89.053C99.5075 88.8214 99.9871 88.5554 100.466 88.2371C100.944 87.9179 101.435 87.5633 101.909 87.1558C102.385 86.7506 102.854 86.3044 103.305 85.8203C103.753 85.3344 104.161 84.8363 104.532 84.3397C104.905 83.8442 105.23 83.3442 105.527 82.862C105.823 82.3794 106.077 81.9064 106.306 81.4606C106.529 81.0122 106.725 80.5895 106.888 80.1974C107.215 79.4137 107.429 78.7618 107.54 78.2981C107.597 78.0671 107.625 77.8811 107.631 77.7503C107.637 77.6191 107.618 77.5414 107.573 77.5226C107.528 77.5036 107.458 77.5445 107.367 77.6389C107.276 77.733 107.166 77.8823 107.032 78.076C106.768 78.4657 106.421 79.0408 105.991 79.743C105.777 80.0945 105.538 80.475 105.28 80.8805C105.017 81.2827 104.738 81.7122 104.428 82.1503C104.117 82.588 103.788 83.044 103.424 83.4968C103.062 83.9507 102.675 84.4085 102.259 84.8596C101.842 85.3069 101.416 85.7248 100.989 86.1122C100.564 86.5019 100.13 86.8484 99.7095 87.171C99.2883 87.4925 98.8696 87.7724 98.4732 88.0291C98.0727 88.2784 97.6926 88.5026 97.3362 88.6917C96.9811 88.8839 96.6521 89.0458 96.3599 89.1855C96.2131 89.2555 96.0765 89.3205 95.9507 89.3804C95.8233 89.4368 95.707 89.4909 95.6024 89.5422C95.3941 89.6478 95.228 89.7214 95.1203 89.7968C95.0121 89.8694 94.9589 89.9306 94.9688 89.9786Z" fill="#04294F"></path> <path d="M83.3492 84.9476C83.4143 85.0223 83.8095 84.8047 84.5002 84.3851C85.1902 83.9639 86.1752 83.3371 87.3874 82.5512C87.9931 82.1577 88.6556 81.7245 89.364 81.2523C89.7185 81.0158 90.0841 80.7703 90.4606 80.5113C90.649 80.3813 90.8397 80.2486 91.0353 80.1069L91.1094 80.0528L91.1515 80.0218L91.2169 79.9701C91.3046 79.9012 91.3954 79.8333 91.4645 79.7507C91.5039 79.7121 91.538 79.6712 91.567 79.6283C91.596 79.5855 91.634 79.5451 91.6459 79.4925L91.69 79.3392C91.6998 79.2871 91.7032 79.2326 91.7092 79.179L91.7022 79.0115C91.6966 78.9553 91.6868 78.8983 91.6792 78.8416C91.6724 78.7876 91.6602 78.7201 91.652 78.6815L91.6331 78.5835C91.6071 78.4562 91.5798 78.3316 91.5515 78.21C91.4941 77.9708 91.4361 77.7287 91.3777 77.4844C91.2617 77.0034 91.1462 76.5182 91.0605 76.0374C91.0183 75.7982 90.9838 75.5588 90.9701 75.3383C90.9663 75.2829 90.9638 75.2291 90.9641 75.1791C90.9638 75.1535 90.9626 75.127 90.9646 75.1052L90.9667 75.0539C90.9676 75.0529 90.9684 75.0522 90.9692 75.0521C90.9701 75.0519 90.9716 75.0524 90.9716 75.0524L90.9722 75.0529L90.9725 75.0536C90.9669 75.0532 90.9896 75.0536 90.9987 75.0536L91.0373 75.055C91.2486 75.0641 91.5009 75.1019 91.7529 75.1474C92.2623 75.2418 92.782 75.3702 93.2957 75.5008C93.8171 75.6351 94.3309 75.7676 94.8356 75.8978L94.8928 75.912C94.9237 75.9201 94.9551 75.9252 94.9862 75.932L95.1729 75.9701C95.2967 75.9922 95.4208 75.9861 95.5418 75.9643C95.7833 75.9206 96.008 75.7988 96.1747 75.6224C96.26 75.5366 96.3255 75.4304 96.3898 75.3213L96.5018 75.1337C96.5662 75.0252 96.6302 74.9173 96.694 74.81C96.9476 74.3797 97.196 73.9585 97.4382 73.5475C98.4032 71.9011 99.2555 70.4082 99.9536 69.1439C101.35 66.6152 102.129 65.0006 101.961 64.8993C101.793 64.798 100.709 66.2293 99.0928 68.6252C98.2846 69.823 97.3433 71.262 96.3167 72.8714C96.0612 73.2743 95.7991 73.6873 95.5315 74.109C95.4649 74.2146 95.3979 74.3208 95.3307 74.4276L95.2447 74.5637C95.2438 74.5635 95.2417 74.5658 95.2402 74.5667C95.2367 74.5688 95.2326 74.569 95.2289 74.5681C95.2271 74.5676 95.2255 74.5668 95.2241 74.5657L95.2221 74.5642L95.2212 74.5635L95.1839 74.5535C94.1916 74.29 93.1553 73.9719 92.0099 73.7536C91.7187 73.7019 91.427 73.6549 91.0932 73.6407L91.0295 73.6387L90.9537 73.6381C90.8857 73.6361 90.8185 73.6439 90.7514 73.6488C90.6836 73.6523 90.6173 73.6605 90.5527 73.6747C90.4866 73.6848 90.423 73.7 90.3618 73.7217C90.1136 73.7986 89.9105 73.9719 89.7768 74.1872C89.6374 74.4003 89.5884 74.6665 89.5597 74.927L89.5542 75.0748C89.5523 75.1194 89.5539 75.159 89.5547 75.1996C89.5557 75.2821 89.5604 75.3601 89.5665 75.4362C89.5905 75.7419 89.6371 76.0204 89.6895 76.2908C89.796 76.8297 89.9294 77.3332 90.0606 77.819C90.1255 78.058 90.1898 78.2945 90.2533 78.5281C90.282 78.6405 90.3103 78.752 90.3386 78.863L90.3567 78.9419C90.3612 78.962 90.3603 78.9534 90.3618 78.9586L90.3673 78.9723C90.3723 78.9823 90.3709 78.993 90.3633 79.0001L90.3535 79.0127L90.3507 79.016L90.323 79.0383L90.2581 79.0902C90.0775 79.2298 89.8995 79.3676 89.7239 79.5034C89.3645 79.7756 89.0154 80.0399 88.6781 80.2955C88.0009 80.8079 87.3708 81.2896 86.8003 81.7365C85.6591 82.6298 84.7564 83.3856 84.1624 83.9471C83.5676 84.508 83.2854 84.8747 83.3492 84.9476Z" fill="#04294F"></path> <path d="M104.544 52.1144C104.643 52.113 104.737 52.0208 104.824 51.8614C104.866 51.7817 104.908 51.6852 104.953 51.5743C104.998 51.4636 105.036 51.3382 105.084 51.2015C105.171 50.9272 105.268 50.6063 105.372 50.2542C105.429 50.0792 105.478 49.8941 105.541 49.7058C105.602 49.5172 105.664 49.3219 105.728 49.1219C105.797 48.9236 105.865 48.7301 105.93 48.543C105.992 48.3542 106.065 48.1768 106.125 48.0029C106.254 47.6593 106.369 47.3443 106.465 47.0731C106.508 46.935 106.554 46.8119 106.585 46.6967C106.615 46.5809 106.64 46.4786 106.653 46.3895C106.68 46.2103 106.66 46.08 106.582 46.0204C106.504 45.9608 106.375 45.978 106.205 46.0656C106.119 46.1088 106.025 46.1704 105.926 46.2519C105.827 46.3327 105.716 46.4279 105.609 46.5452C105.388 46.7747 105.16 47.077 104.943 47.4362C104.84 47.6179 104.73 47.8097 104.639 48.0186C104.541 48.225 104.459 48.4464 104.378 48.6745C104.305 48.9051 104.238 49.1318 104.192 49.3552C104.139 49.5768 104.111 49.7959 104.085 50.003C104.042 50.4196 104.043 50.7977 104.081 51.1135C104.096 51.2711 104.128 51.4135 104.158 51.5374C104.188 51.6613 104.227 51.7672 104.27 51.853C104.353 52.0249 104.446 52.1157 104.544 52.1144Z" fill="#04294F"></path> <path d="M68.1777 66.76C67.9838 66.7615 67.8006 67.536 67.7109 68.8038C67.6261 70.0686 67.6364 71.8447 68.0105 73.7873C68.1059 74.2722 68.2208 74.7425 68.351 75.1916C68.4796 75.6412 68.6317 76.0678 68.7894 76.4686C68.9476 76.8695 69.1229 77.2412 69.2974 77.5828C69.4767 77.9227 69.6568 78.232 69.838 78.5039C70.0177 78.7768 70.1954 79.0134 70.362 79.2127C70.5278 79.4127 70.6837 79.5741 70.8203 79.6981C70.9541 79.824 71.0766 79.907 71.1674 79.9562C71.2597 80.0045 71.3264 80.0151 71.3659 79.9857C71.4051 79.9563 71.4151 79.8885 71.3987 79.7874C71.3839 79.6853 71.3369 79.5543 71.2777 79.3871C71.2159 79.2218 71.1342 79.0261 71.0411 78.8001C70.9475 78.5747 70.8408 78.3203 70.729 78.038C70.6153 77.7567 70.4995 77.446 70.3789 77.1127C70.2627 76.7771 70.1404 76.4193 70.0269 76.0371C69.9141 75.655 69.799 75.2533 69.6972 74.8309C69.5942 74.4092 69.4966 73.97 69.4073 73.5169C69.0567 71.701 68.8877 70.0064 68.7163 68.7703C68.5495 67.5342 68.3767 66.7584 68.1777 66.76Z" fill="#04294F"></path> <path d="M115.566 64.9385C115.666 64.9984 115.97 64.6991 116.366 64.1584C116.763 63.6185 117.249 62.8386 117.739 61.9543C118.228 61.0698 118.632 60.2501 118.893 59.6391C119.155 59.0281 119.273 58.6238 119.171 58.5632C119.071 58.5035 118.767 58.8019 118.369 59.3411C117.971 59.8798 117.481 60.6584 116.991 61.5436C116.501 62.4288 116.101 63.2506 115.841 63.8621C115.582 64.4738 115.464 64.8779 115.566 64.9385Z" fill="#04294F"></path> <path d="M118.167 60.0417C118.218 60.0709 118.457 59.7477 118.847 59.1333C118.896 59.0562 118.947 58.9749 119.001 58.8894C119.05 58.8011 119.101 58.7086 119.154 58.6117C119.26 58.4167 119.374 58.205 119.497 57.9775C119.624 57.7515 119.738 57.4995 119.859 57.2316C119.977 56.9625 120.118 56.6845 120.234 56.3784C120.35 56.072 120.471 55.7511 120.597 55.4167C120.701 55.0733 120.809 54.7163 120.921 54.3467C121.008 53.9692 121.105 53.5797 121.182 53.1731C121.213 52.9681 121.244 52.7598 121.275 52.5488C121.29 52.443 121.309 52.3373 121.32 52.2294C121.327 52.1212 121.335 52.0123 121.343 51.9025C121.429 51.0282 121.384 50.0896 121.206 49.1365C121.024 48.1848 120.672 47.2127 120.098 46.3374C119.527 45.4609 118.768 44.7386 117.934 44.2167C117.099 43.6924 116.199 43.3596 115.324 43.1747C114.446 42.9978 113.598 42.9643 112.813 42.997C112.422 43.0351 112.043 43.0517 111.686 43.1235C111.508 43.1537 111.332 43.1834 111.161 43.2123C110.992 43.2535 110.828 43.2938 110.667 43.3331C110.507 43.3755 110.347 43.4053 110.198 43.456C110.049 43.5045 109.903 43.5518 109.762 43.5977C109.621 43.6457 109.482 43.6853 109.352 43.7368C109.223 43.7896 109.098 43.8407 108.977 43.8902C108.488 44.0767 108.095 44.2966 107.769 44.4613C107.448 44.6367 107.213 44.7992 107.054 44.9076C106.897 45.0191 106.822 45.0897 106.836 45.1155C106.85 45.141 106.953 45.1207 107.134 45.059C107.317 45.0005 107.573 44.8873 107.909 44.7614C108.249 44.6461 108.651 44.4753 109.139 44.3372C109.259 44.2994 109.384 44.2603 109.513 44.2199C109.641 44.1801 109.778 44.1526 109.916 44.1163C110.054 44.0816 110.197 44.0458 110.343 44.0092C110.488 43.9701 110.642 43.9514 110.797 43.9201C110.952 43.8914 111.111 43.8617 111.273 43.8317C111.437 43.8127 111.604 43.7934 111.775 43.7736C112.115 43.7214 112.472 43.7234 112.839 43.7015C113.573 43.701 114.357 43.7582 115.154 43.9394C115.947 44.1285 116.749 44.4443 117.483 44.9185C118.218 45.391 118.878 46.0279 119.382 46.8012C119.889 47.5733 120.21 48.4369 120.386 49.2998C120.558 50.1639 120.619 51.0286 120.558 51.8509C120.554 51.9538 120.549 52.0561 120.545 52.1578C120.538 52.2592 120.522 52.3599 120.511 52.4599C120.488 52.6602 120.464 52.8577 120.441 53.0525C120.381 53.4406 120.301 53.8154 120.234 54.1794C120.142 54.5394 120.054 54.8871 119.969 55.2212C119.864 55.5512 119.764 55.8679 119.668 56.1702C119.574 56.4736 119.454 56.7526 119.358 57.0232C119.259 57.2926 119.168 57.5479 119.063 57.7794C118.965 58.0136 118.874 58.2319 118.79 58.4327C118.748 58.5337 118.709 58.6304 118.671 58.7224C118.63 58.8129 118.59 58.899 118.553 58.9805C118.256 59.6345 118.116 60.0127 118.167 60.0417Z" fill="#04294F"></path> <path d="M129.869 69.1955C129.893 69.2121 129.978 69.1374 130.118 68.9798C130.258 68.8216 130.457 68.5835 130.695 68.2644C130.937 67.9478 131.221 67.5518 131.543 67.0861C131.863 66.6188 132.217 66.0796 132.594 65.4736C132.966 64.8644 133.366 64.1914 133.761 63.449C134.163 62.7103 134.557 61.9004 134.941 61.0338C135.328 60.1683 135.68 59.2341 136.001 58.2503C136.32 57.2661 136.594 56.226 136.788 55.1423C136.985 54.0595 137.099 52.9874 137.138 51.9489C137.172 50.9097 137.116 49.906 137.013 48.9573C136.948 48.4843 136.892 48.0223 136.798 47.5796C136.753 47.3582 136.721 47.1376 136.666 46.9254C136.614 46.7128 136.562 46.5034 136.512 46.2975C136.465 46.0909 136.404 45.8919 136.344 45.6963C136.285 45.5007 136.227 45.3089 136.171 45.1209C136.046 44.7486 135.913 44.3958 135.791 44.0579C135.656 43.7251 135.52 43.4111 135.394 43.1137C135.263 42.8182 135.122 42.5476 134.999 42.2915C134.877 42.0341 134.747 41.8036 134.626 41.5919C134.505 41.3809 134.394 41.1882 134.294 41.0146C133.862 40.3403 133.597 39.9871 133.547 40.0166C133.495 40.0468 133.664 40.4561 134 41.1689C134.079 41.3499 134.166 41.551 134.261 41.7711C134.359 41.9899 134.466 42.2265 134.564 42.4878C134.665 42.7482 134.783 43.0216 134.891 43.3181C134.996 43.6156 135.107 43.9299 135.223 44.26C135.323 44.5953 135.435 44.9437 135.54 45.3097C135.587 45.4941 135.635 45.6822 135.684 45.874C135.734 46.0653 135.786 46.2599 135.824 46.4615C135.865 46.6618 135.908 46.8657 135.951 47.0728C135.997 47.279 136.021 47.4932 136.058 47.7077C136.137 48.1365 136.178 48.5831 136.231 49.0393C136.308 49.9544 136.346 50.9187 136.302 51.9173C136.254 52.9153 136.138 53.9455 135.948 54.9899C135.761 56.0348 135.501 57.042 135.203 58.0008C134.902 58.9591 134.576 59.8741 134.217 60.7283C133.861 61.5834 133.499 62.3883 133.13 63.1282C132.769 63.8717 132.406 64.5521 132.072 65.173C131.732 65.7909 131.418 66.3467 131.139 66.8339C130.857 67.3207 130.615 67.7401 130.417 68.0828C130.222 68.4283 130.068 68.6954 129.975 68.8843C129.882 69.0719 129.844 69.179 129.869 69.1955Z" fill="#04294F"></path> </svg> 