<?xml version="1.0" encoding="UTF-8"?> <svg xmlns="http://www.w3.org/2000/svg" width="350" height="803" viewBox="0 0 350 803" fill="none"> <g clip-path="url(#clip0_166_206)"> <path d="M282.285 655.765C280.793 656.337 279.192 656.633 277.902 657.673C277.411 658.071 276.92 657.475 276.265 657.715C274.678 658.457 273.014 659.018 271.301 659.388C269.341 659.74 267.555 660.825 265.629 660.921C264.323 660.988 263.207 661.571 261.933 661.672C260.515 661.874 259.122 662.217 257.773 662.695C254.496 663.59 251.173 664.311 247.819 664.855C247.047 664.996 246.353 666.101 245.44 665.164C245.284 665.928 244.674 665.717 244.136 665.876C242.405 666.391 240.634 666.626 238.889 667.188C237.145 667.749 235.242 667.965 233.455 668.403C230.44 669.091 227.362 669.517 224.311 670.042C221.72 670.389 219.111 670.581 216.497 670.616C215.066 670.617 213.644 670.824 212.272 671.229C211.284 671.553 210.271 671.795 209.243 671.951C206.666 672.371 204.139 672.726 201.537 672.924C198.074 673.101 194.623 673.461 191.198 674.001C189.656 674.308 187.826 673.899 186.271 674.163C184.359 674.496 182.511 674.142 180.637 674.334C178.185 674.588 175.694 674.472 173.219 674.516C172.517 673.207 172.469 671.689 171.974 670.331C172.136 669.998 172.212 669.63 172.197 669.26C172.181 668.89 172.074 668.529 171.885 668.21C171.696 667.891 171.431 667.625 171.113 667.434C170.796 667.243 170.436 667.134 170.067 667.117C169.673 667.114 169.289 667.491 168.886 667.289C167.862 666.942 166.77 666.847 165.702 667.013C163.726 667.132 161.744 667.147 159.766 667.058C159.367 667.017 159.059 666.705 158.598 666.777C156.47 667.127 154.352 666.604 152.233 666.611C150.913 666.622 149.381 666.223 148.355 666.581C147.071 667.026 145.929 666.695 144.77 666.838C142.296 667.121 139.738 667.08 137.22 667.227C135.743 667.311 134.243 667.322 132.793 667.28C131.344 667.238 129.593 667.342 127.98 667.426C126.787 667.51 125.561 667.863 124.391 667.794C123.653 667.752 122.923 667.956 122.314 668.375C121.705 668.793 121.252 669.403 121.027 670.108C120.767 670.861 121.25 671.904 120.25 672.394C119.485 671.793 118.598 671.371 117.651 671.157C116.231 670.743 114.984 669.877 114.097 668.691C113.56 667.934 112.955 667.227 112.289 666.58C111.568 665.903 111.105 664.994 110.984 664.012C110.93 663.587 110.701 663.244 110.625 662.848C109.998 662.281 109.53 661.561 109.265 660.759C109.22 660.487 109.447 660.139 109.187 659.943C108.17 659.175 108.412 657.888 107.96 656.879C107.49 655.928 107.096 654.943 106.78 653.931C106.604 653.277 106.611 652.424 105.862 652.006C105.619 651.562 105.67 651.012 105.488 650.592C104.55 648.618 104.896 646.199 103.324 644.436C104.251 643.201 101.884 642.558 102.701 641.094C102.941 640.653 102.393 639.289 102.11 638.386C101.66 636.802 101.85 635.102 101.363 633.491C100.986 632.339 100.818 631.128 100.869 629.917C100.967 628.612 100.66 627.318 100.914 625.971C101.047 625.059 100.972 624.129 100.695 623.25C100.438 622.405 100.402 621.51 100.59 620.648C100.962 619.097 100.68 617.516 100.855 615.986C101.031 614.456 100.799 612.551 100.897 610.883C101.058 608.245 101.875 605.65 102.055 602.969C102.064 602.393 102.219 601.829 102.505 601.33C102.666 601.097 102.77 600.828 102.809 600.547C102.847 600.265 102.819 599.979 102.726 599.71C103.081 599.313 103.382 598.871 103.622 598.396C104.325 596.404 104.897 594.392 105.82 592.454C106.565 590.845 107.576 589.346 108.175 587.66C109.416 586.006 110.608 584.327 111.999 582.776C112.769 581.849 113.667 581.038 114.666 580.366L116.117 582.863C115.705 583.321 116.123 583.637 116.356 583.914C117.187 584.681 117.714 585.722 117.842 586.845C117.894 587.048 117.992 587.235 118.128 587.393C118.265 587.551 118.436 587.675 118.629 587.755C119.813 588.422 120.996 588.082 122.189 588.179C123.856 588.233 125.524 588.165 127.181 587.976C128.681 587.875 130.174 587.452 131.703 587.463C133.64 587.488 135.586 587.667 137.503 587.87C138.709 587.867 139.915 587.942 141.112 588.093C141.626 588.221 141.578 587.472 141.982 587.822C142.246 588.083 142.594 588.24 142.963 588.265C143.332 588.29 143.698 588.182 143.993 587.96C144.336 587.827 144.715 587.817 145.065 587.932C145.896 588.115 146.758 588.089 147.575 587.857C147.822 587.784 148.306 587.787 148.367 587.901C148.935 589.042 150.004 588.265 150.45 588.138C152.092 587.759 153.758 588.01 155.399 587.676C156.569 587.428 158.125 587.81 159.1 587.46C160.449 586.973 161.68 587.427 162.911 587.112C164.626 586.665 166.453 587.183 168.154 586.453C168.555 586.281 168.811 585.818 169.313 585.858C169.815 585.897 170.733 586.511 170.741 585.115C170.742 584.527 171.381 583.946 170.829 583.281C170.892 583.001 170.882 582.744 170.555 582.622C170.738 582.181 170.832 581.708 170.832 581.23C170.831 580.752 170.736 580.279 170.553 579.838C170.25 578.479 169.019 577.754 168.532 576.504C168.58 576.366 168.677 576.249 168.804 576.177C168.931 576.104 169.08 576.08 169.224 576.11C171.422 576.706 173.593 576.149 175.786 576.028C176.979 575.945 178.294 575.489 179.317 575.616C180.926 575.823 182.545 575.292 184.177 575.89C184.879 576.16 185.874 575.678 186.769 575.72C188.728 575.807 190.681 575.855 192.637 575.917C195.323 575.998 197.974 576.788 200.614 576.676C203.253 576.564 205.594 577.572 208.094 577.254C208.836 577.169 209.663 576.775 210.203 577.713C210.261 577.757 210.448 577.808 210.553 577.774C212.239 577.259 213.83 577.792 215.465 578.144C216.297 578.245 217.137 578.257 217.971 578.179C219.915 578.165 221.819 578.459 223.74 578.551C226.123 578.675 228.47 579.134 230.851 579.2C232.523 579.251 234.19 579.41 235.842 579.675C236.846 579.844 237.714 580.465 238.794 580.262C240.187 580.152 241.588 580.338 242.906 580.808C243.167 580.881 243.545 580.951 243.729 580.706C244.043 580.287 243.984 580.366 244.252 580.807C244.644 581.475 245.579 581.118 246.144 581.103C248.755 581.195 251.35 581.54 253.896 582.133C255.668 582.543 257.477 583.387 259.19 583.515C260.903 583.643 262.144 584.851 263.825 584.75C264.556 584.725 265.152 585.288 265.888 585.481C267.462 585.9 269.138 585.761 270.654 586.453C270.881 586.557 271.195 586.59 271.316 586.76C272.052 587.813 272.886 587.606 274.013 586.692C273.646 587.602 273.37 588.197 274.502 587.909C274.937 587.796 275.534 588.326 276.058 588.562C275.68 589.578 274.638 590.454 275.43 591.719C275.378 591.807 275.304 591.88 275.215 591.93C274.65 591.628 274.897 592.097 274.78 592.314C274.332 593.107 274.037 593.936 273.607 594.675C272.776 596.129 272.001 597.613 271.191 599.083C270.909 599.595 271.31 600.236 271.033 600.423C269.943 601.139 270.404 602.391 269.967 603.351C269.445 604.438 269.836 605.921 269.362 607.169C269.156 607.715 269.625 607.888 269.726 608.19C269.961 608.797 268.778 608.278 268.802 608.986C268.802 608.986 268.753 609.051 268.78 609.105C269.022 610.524 268.884 611.981 268.381 613.327C267.766 614.99 269.349 616.557 268.555 618.322C268.397 618.69 268.359 619.099 268.447 619.491C268.535 619.882 268.745 620.236 269.045 620.501C267.837 622.111 269.233 623.866 268.821 625.545C268.652 626.306 268.671 627.097 268.878 627.85C269.346 629.561 269.546 631.328 269.951 633.048C270.311 634.451 270.379 636.153 271.097 637.305C271.965 638.695 271.684 640.666 273.33 641.591C273.091 642.542 274.328 642.762 274.358 643.068C274.417 644.219 274.873 645.315 275.649 646.168C276.663 647.272 276.923 648.825 277.785 650.041C279.133 652.177 280.928 653.792 282.285 655.765ZM106.573 619.485C106.145 619.841 105.833 620.317 105.677 620.852C105.522 621.387 105.529 621.957 105.698 622.489C106.338 624.318 107.442 625.965 108.154 627.803C108.684 629.175 109.593 630.404 109.435 631.97C109.394 632.493 109.637 632.982 110.181 632.86C111.473 632.569 112.777 632.851 114.06 632.632C114.463 632.563 114.781 632.124 115.207 632.264C116.802 632.79 118.384 632.128 120.003 632.276C121.636 632.421 123.278 632.398 124.905 632.207C127.573 631.891 130.226 632.83 132.88 632.321C133.131 632.273 133.424 632.471 133.707 632.515C134.669 632.773 135.654 632.929 136.648 632.981C138.034 632.896 139.41 633.052 140.784 633.059C142.737 633.063 144.71 633.522 146.631 633.343C149.072 633.103 151.505 633.627 153.938 633.428C154.931 633.34 156.076 632.779 157.08 633.536C157.188 633.617 157.54 633.419 157.74 633.288C157.941 633.156 158.049 632.876 158.354 633.072C158.72 633.271 159.134 633.365 159.55 633.343C159.965 633.321 160.366 633.185 160.708 632.948C161.611 632.499 162.87 632.555 163.341 631.339C163.53 630.73 163.625 630.096 163.622 629.458C164.526 627.461 164.786 625.23 164.365 623.075C164.355 622.684 164.249 622.302 164.058 621.961C163.867 621.619 163.596 621.33 163.269 621.117C161.608 620.181 159.868 619.411 158.148 618.6C157.253 618.25 156.401 617.797 155.611 617.25C154.457 616.167 153.104 615.319 151.627 614.754C150.828 614.524 150.371 613.807 149.397 613.705C148.617 613.614 147.727 612.841 146.884 612.397C145.514 611.619 144.106 610.912 142.665 610.277C141.475 609.798 140.499 608.643 139.004 609.008C138.036 609.216 137.055 609.356 136.067 609.427C133.696 609.663 131.319 609.848 128.936 609.995C128.327 609.998 127.719 610.034 127.114 610.103C126.089 610.279 125.072 610.021 123.996 610.204C122.92 610.388 121.879 610.179 120.817 610.237C119.135 610.325 117.529 611.093 115.822 610.868C114.71 610.707 113.59 611.446 112.559 611.177C110.881 610.793 109.631 612.067 108.042 611.999C107.992 611.961 107.858 612.244 107.82 612.385C107.681 612.857 107.567 613.325 107.455 613.806C107.238 614.773 107.203 616.07 106.782 616.691C105.915 617.756 105.866 618.499 106.573 619.485V619.485ZM240.017 658.245C240.573 658.212 241.031 658.083 241.003 657.383C241.382 657.284 241.75 657.019 241.947 657.631C242.062 657.944 242.477 657.964 242.568 657.557C242.875 656.183 244.294 656.236 245.114 655.52C245.768 654.95 247.12 655.303 247.261 653.894C247.415 653.598 247.626 653.336 247.882 653.123C248.139 652.911 248.436 652.752 248.755 652.657C250.201 652.357 250.337 651.951 250.088 650.972C250.402 650.869 250.745 651.377 251.072 650.73C251.57 649.64 252.342 648.699 253.314 647.999C254.302 647.213 255.017 646.134 255.357 644.916C255.913 643.622 256.64 642.409 257.52 641.311C258.089 640.431 258.578 639.502 258.981 638.535C259.429 637.652 259.564 636.554 260.279 635.736C260.496 635.448 260.572 634.894 260.456 634.898C259.317 634.909 259.957 634.057 259.711 633.646C260.897 633.783 261.504 633.065 261.553 631.869C261.517 631.029 261.744 630.2 262.203 629.498C262.324 629.402 262.424 629.283 262.499 629.147C262.574 629.012 262.62 628.863 262.637 628.709C262.654 628.556 262.639 628.4 262.595 628.252C262.551 628.103 262.478 627.965 262.38 627.845C261.574 626.795 262.423 625.966 262.694 625.152C262.965 624.339 263.176 624.51 262.51 624.222C261.844 623.935 261.81 623.784 262.44 623.502C263.07 623.22 263.04 622.824 262.489 622.804C261.229 622.69 262.022 622.237 262.158 621.74C262.293 621.243 263.117 620.552 261.895 619.89C261.267 619.552 260.692 617.727 261.141 617.399C262.496 616.408 260.563 615.775 261.128 615.037C260.406 614.492 260.436 613.745 260.566 612.939C260.647 612.424 260.473 611.738 260.074 611.561C259.641 611.39 259.273 611.086 259.021 610.694C258.77 610.301 258.648 609.839 258.674 609.374C258.647 609.049 259.173 607.851 257.775 608.357C257.34 608.515 257.418 607.748 257.669 607.429C257.927 607.177 258.208 606.95 258.507 606.749C258.879 606.419 258.656 606.024 258.511 605.734C258.284 605.269 258.055 605.469 257.894 605.834C257.846 605.848 257.795 605.852 257.746 605.846C257.696 605.84 257.648 605.823 257.605 605.797C256.824 604.925 256.485 603.674 255.254 603.175C255.014 603.073 255.14 602.739 255.359 602.553C254.841 602.219 255.448 601.32 254.935 601.25C254.134 601.143 254.12 600.634 253.791 600.138C253.21 599.315 253.101 598.045 251.819 597.779C251.72 597.746 251.634 597.68 251.577 597.592C251.52 597.503 251.495 597.398 251.505 597.294C251.472 596.811 251.324 596.344 251.075 595.93C250.825 595.515 250.482 595.166 250.071 594.911C249.025 594.121 247.678 593.581 247.014 592.356C246.946 592.236 246.601 591.762 246.202 592.083C245.953 592.279 245.904 592.208 245.704 591.933C245.504 591.657 246.087 590.503 244.823 590.952C244.168 591.193 244.508 589.685 243.699 589.889C242.89 590.093 243.745 589.03 243.191 589.256C242.41 589.572 241.992 589.483 241.205 588.889C240.413 588.267 239.426 587.948 238.422 587.988L238.351 587.991C237.897 587.287 236.589 587.522 236.547 586.359C236.547 586.359 236.417 586.261 236.339 586.259C235.37 586.194 234.451 585.761 233.525 585.685C232.337 585.58 231.157 585.029 229.951 585.431C229.859 585.463 229.651 585.408 229.622 585.341C229.11 584.186 227.958 584.742 227.254 584.686C225.512 584.641 223.77 584.758 222.051 585.035C221.473 585.097 221.127 584.338 220.444 584.75C219.461 585.389 218.301 585.7 217.129 585.642C216.545 585.657 215.97 585.789 215.438 586.028C214.427 586.306 213.434 586.665 212.403 586.848C211.02 587.094 209.74 587.655 208.366 587.964C206.392 588.409 204.754 589.763 203.123 590.942C202.607 591.299 202.026 591.018 201.518 591.574C200.483 592.637 198.665 592.815 198.157 594.546C196.594 594.746 196.199 596.462 194.941 597.039C194.287 597.337 194.742 598.087 194.326 598.294C192.151 599.401 191.335 601.692 189.712 603.328C189.35 603.689 189.413 604.72 189.081 604.832C187.96 605.196 188.43 606.602 187.455 606.998C187.31 609.15 185.715 610.898 185.517 613.135C185.547 613.962 185.374 614.783 185.012 615.525C184.533 616.301 184.342 617.222 184.473 618.126C184.529 618.609 184.542 619.096 184.512 619.581C184.307 621.36 183.812 623.18 184.417 625.04C184.534 625.411 184.771 626.075 184.435 626.523C183.783 627.286 184.143 627.966 184.441 628.699C185.011 630.26 185.469 631.86 185.811 633.487C186.621 636.79 187.47 639.5 189.26 642.072C189.512 642.443 190.012 642.877 189.664 643.507C189.479 643.753 189.775 644.021 189.97 644.259C190.643 645.094 191.567 645.746 191.729 646.977C191.75 647.201 191.82 647.418 191.934 647.613C192.047 647.808 192.201 647.976 192.386 648.105C194.203 648.923 194.693 651.056 196.269 652.075C197.355 652.782 198.239 653.788 199.286 654.578C200.167 655.242 201.26 655.638 201.812 656.71C201.864 656.822 201.937 656.923 202.029 657.006C202.121 657.088 202.228 657.151 202.345 657.191C204.063 657.357 205.081 658.848 206.591 659.456C208.102 660.064 209.436 660.743 210.876 661.354C211.608 661.525 212.324 661.762 213.013 662.062C213.496 662.483 214.068 662.787 214.686 662.951C215.304 663.115 215.95 663.135 216.576 663.009C216.676 662.974 216.785 662.981 216.88 663.027C216.974 663.073 217.047 663.155 217.082 663.254C217.275 663.841 217.804 663.799 218.222 663.798C220.082 663.957 221.869 663.247 223.79 663.565C225.552 663.854 227.323 662.714 229.177 663.242C229.399 663.308 229.508 663.073 229.67 662.992C230.513 662.576 231.496 661.915 232.313 662.272C233.483 662.792 233.901 660.97 234.94 661.709C234.98 661.64 235.006 661.564 235.018 661.485C234.968 660.633 235.56 660.763 235.981 660.956C236.071 661.01 236.171 661.044 236.275 661.056C236.38 661.068 236.485 661.059 236.585 661.027C236.685 660.996 236.778 660.945 236.856 660.875C236.935 660.806 236.998 660.721 237.042 660.626C237.501 660 238.161 659.551 238.911 659.356C239.398 659.126 239.789 658.733 240.017 658.245V658.245Z" fill="#E86367"></path> <path d="M105.785 652.11C106.534 652.528 106.526 653.382 106.703 654.035C107.019 655.047 107.413 656.033 107.882 656.983C108.34 657.985 108.092 659.279 109.11 660.047C109.37 660.243 109.143 660.592 109.188 660.863C109.453 661.666 109.921 662.386 110.548 662.953C108.762 664.342 106.809 665.502 104.735 666.404C103.521 666.891 102.267 667.268 101.017 667.682C100.79 667.759 100.432 667.693 100.311 667.839C99.2653 669.097 97.6171 669.109 96.2936 669.502C94.783 670.041 93.2345 670.468 91.6606 670.779C90.7287 670.972 89.8265 671.288 88.9775 671.718C87.4241 672.369 85.7847 672.793 84.1098 672.976C82.1762 673.202 80.3886 673.957 78.4316 674.109C76.87 674.232 75.2704 674.404 73.6943 674.606C71.7824 674.849 70.4777 673.695 69.1964 672.615C68.6406 672.196 69.1898 671.389 69.5456 670.945C70.4356 669.756 71.4901 668.701 72.6775 667.811C73.4396 667.081 74.045 666.203 74.4569 665.23C75.5393 663.095 77.1505 661.37 78.4711 659.414C78.7366 659.061 79.2712 658.695 78.9518 658.262C78.6325 657.828 78.0926 658.066 77.6791 658.24C75.1512 659.273 72.3692 659.289 69.8233 660.331C69.5471 660.41 69.2541 660.409 68.9784 660.327C67.3862 660.054 65.8623 660.623 64.2989 660.732C61.8959 660.921 59.4063 661.226 56.9332 660.83C55.7404 660.747 54.5433 660.751 53.3515 660.842C51.4073 660.759 49.4719 660.528 47.5622 660.15C45.1235 659.724 42.6956 659.238 40.2586 658.779C38.1841 658.348 36.14 657.781 34.1395 657.08C33.829 656.982 33.589 656.789 33.2369 656.897C33.1196 656.933 32.829 656.747 32.8272 656.735C33.1617 655.732 32.2088 654.968 32.3158 654.087C32.4227 653.206 33.2804 652.892 33.9991 652.462C35.1801 651.747 36.7488 651.811 37.643 650.619C37.8816 650.584 38.1128 650.511 38.3273 650.401C39.7775 649.312 41.2277 648.223 42.6255 647.084C43.0355 646.749 43.635 646.477 43.6479 645.797C45.4702 644.432 47.1418 642.877 48.6346 641.156C48.7213 641.041 49.2361 640.355 48.5428 640.42C46.6779 640.675 44.9974 640.007 43.2971 639.516C41.2971 638.957 39.1921 638.884 37.2392 638.112C36.2627 637.726 35.3621 637.193 34.3567 636.831C33.348 636.574 32.3682 636.213 31.4326 635.756C30.1796 635.14 28.963 634.452 27.7887 633.696C27.3286 633.44 26.8236 633.274 26.3014 633.208C24.9639 632.775 24.0112 631.74 22.7965 631.129C19.8672 629.654 17.4148 627.453 14.5506 625.891C13.8936 625.532 13.2674 625.116 12.6249 624.721C12.7406 624.402 12.5493 624.189 12.3743 623.956C11.8096 623.202 11.9201 622.482 12.0721 621.556C12.2514 620.414 13.1126 620.17 13.7231 619.567C15.8895 618.707 17.9673 617.639 19.9276 616.377C22.23 615.027 24.7795 614.191 27.1919 613.07C28.9109 612.286 30.6606 611.627 32.412 610.981C33.6362 610.525 34.9903 610.438 36.2109 609.911C38.737 608.82 41.5062 609.077 44.1079 608.518C45.3898 608.241 46.6355 608.163 47.9535 607.914C48.6739 607.767 49.419 608.658 50.1705 607.777C48.9739 606.976 48.7924 605.29 47.3611 604.696C46.6155 603.952 45.934 603.147 45.324 602.288C44.6446 601.12 43.6313 600.182 42.4152 599.596C41.797 598.662 41.0018 597.858 40.0748 597.231C39.1607 596.489 38.2005 595.806 37.2 595.187C36.4763 594.72 35.5465 594.753 34.9547 594.035C34.3629 593.318 33.9985 592.884 34.8382 592.217C34.9899 592.119 35.0992 591.968 35.1447 591.793C35.1903 591.618 35.1687 591.432 35.0842 591.272C34.9202 590.752 34.7455 589.75 36.0053 590.406C36.3049 590.564 36.825 590.188 37.2259 590.06C39.6905 589.262 42.2594 589.244 44.8086 588.996C47.3578 588.748 49.8638 588.286 52.4039 588.246C54.7304 588.09 57.0677 588.206 59.3685 588.592C60.6592 588.876 62.1938 588.654 63.5964 588.819C64.862 588.916 66.1063 589.203 67.2879 589.67C68.2444 589.991 69.2473 590.152 70.2555 590.145C71.2427 590.083 72.2317 590.242 73.151 590.61C74.7682 591.468 76.6402 591.625 78.317 592.359C79.4721 592.868 80.6489 593.349 81.8402 593.886C81.629 593.22 81.307 592.595 80.8878 592.037C79.1851 589.078 77.4173 586.116 75.821 583.136C75.4281 582.471 74.9029 581.894 74.2783 581.441C73.4336 580.747 72.8371 579.796 72.579 578.734C72.5632 578.653 72.5673 578.569 72.591 578.491C72.6146 578.412 72.657 578.34 72.7146 578.282C73.7601 577.702 74.5585 576.789 75.835 576.474C76.9175 576.283 78.0303 576.348 79.0844 576.664C80.026 576.872 80.9509 577.15 81.8516 577.496C82.736 577.824 83.7669 577.641 84.7091 577.967C85.0485 578.087 85.3842 578.227 85.7181 578.355C86.9688 578.862 88.2449 579.304 89.5411 579.679C91.1711 580.128 92.6673 580.906 94.2358 581.513C96.2718 582.28 98.2825 583.141 100.243 584.054C101.208 584.387 102.142 584.807 103.031 585.31C104.098 586.058 105.5 586.178 106.578 587.002C107.058 587.306 107.567 587.561 108.098 587.764C107.499 589.45 106.487 590.948 105.743 592.558C104.841 594.513 104.27 596.524 103.545 598.499C103.305 598.975 103.003 599.417 102.649 599.814C101.903 599.691 101.177 599.467 100.492 599.148C98.9181 598.475 97.3057 597.897 95.6635 597.416C94.7086 597.182 93.7157 596.999 92.6904 596.768C91.4016 596.497 90.1182 596.218 88.9478 597.235C88.2543 597.843 87.9219 598.316 88.5858 599.224C88.9972 599.761 89.3851 600.313 89.8145 600.841C91.2615 602.634 92.0873 604.817 93.5431 606.945C92.1933 605.926 90.7562 605.973 89.5379 605.472C87.7566 604.882 85.9251 604.458 84.0666 604.206C81.4207 603.824 78.7509 603.635 76.0785 603.642C74.7931 603.577 73.5632 604.628 72.2837 603.742C71.4022 604.705 70.1857 604.081 69.1422 604.357C68.3724 604.601 67.5781 604.761 66.7734 604.832C66.2733 604.85 65.6831 604.507 65.5257 605.349C65.3682 606.192 64.7448 607.429 65.8151 607.977C67.3038 608.772 68.7018 609.728 69.984 610.828C71.3789 611.982 72.2988 613.603 73.757 614.704C74.1324 614.987 74.0508 615.592 73.7331 615.579C72.2347 615.512 70.819 616.253 69.337 616.119C67.4704 615.954 65.9065 616.923 64.2725 617.398C62.8411 617.8 61.4498 618.333 60.1159 618.99C58.9458 619.6 57.5106 619.614 56.5641 620.709C56.0831 621.097 55.5311 621.388 54.9389 621.564C53.7797 622.114 52.5049 622.578 51.9897 623.987C51.6716 624.878 51.8767 626.277 52.7178 626.663C55.7952 628.091 58.2853 630.467 61.4494 631.825C63.433 632.677 65.4329 633.507 67.4129 634.424C67.7377 634.579 67.9506 634.988 68.3767 634.903C70.1659 634.567 71.5644 635.837 73.2432 635.95C73.1794 637.226 71.9951 637.418 71.4008 638.134C69.8809 639.948 67.9002 641.318 65.6671 642.098C64.869 642.378 63.9193 642.725 63.9747 643.886C63.9846 644.413 64.1767 644.921 64.5182 645.323C64.8597 645.725 65.3295 645.996 65.8475 646.091C67.7519 646.566 69.5931 647.05 71.5029 647.338C72.0301 647.419 72.6296 647.057 72.9652 647.378C73.9306 648.321 75.2486 648.117 76.2541 648.118C78.9223 648.118 81.648 648.794 84.3311 647.901C85.5409 647.479 86.891 647.955 88.2308 647.45C89.3503 647.028 90.679 647.035 91.8906 646.536C91.503 647.295 90.9879 647.981 90.3677 648.565C89.8413 649.239 89.4092 649.982 89.0831 650.773C88.9961 651.08 88.8333 651.36 88.6098 651.586C88.3863 651.813 88.1093 651.979 87.8043 652.07C86.5856 652.474 86.4063 653.617 86.1115 654.672C86.0781 654.763 86.0736 654.862 86.0984 654.956C86.1232 655.049 86.1763 655.133 86.2503 655.196C86.8909 655.728 87.6341 656.122 88.4334 656.354C89.2326 656.585 90.0706 656.648 90.8947 656.539C92.2767 656.119 93.6874 655.8 95.1159 655.585C96.122 655.45 97.1094 655.201 98.0589 654.842C99.256 654.422 100.515 654.026 101.694 653.705C103.102 653.297 104.472 652.763 105.785 652.11V652.11Z" fill="#F2BD1E"></path> <path d="M283.166 592.037C284.109 591.73 284.76 592.414 285.477 592.785C286.141 593.045 286.772 593.381 287.359 593.787C288.339 594.696 289.821 594.513 290.702 595.63C291.248 596.303 292.243 596.589 292.959 597.141C294.547 598.339 296.094 599.593 297.599 600.902C299.095 601.98 300.448 603.244 301.626 604.664C302.858 606.226 304.009 607.849 305.076 609.528C306.481 612.024 308.621 614.114 309.353 616.996C309.63 618.132 310.054 619.255 310.246 620.429C310.32 620.858 310.427 620.927 310.963 620.891C313.568 620.719 316.189 620.706 318.805 620.61C319.982 620.548 321.197 620.436 322.412 620.414C324.206 620.333 325.993 620.136 327.761 619.824C328.449 619.721 329.487 619.995 329.503 620.38C329.559 621.18 329.845 622.199 328.955 622.873C328.278 623.422 327.43 623.715 326.559 623.701C324.438 623.65 322.342 624.319 320.269 624.157C319.318 624.084 318.366 624.689 317.415 624.119C317.106 623.997 316.762 624.002 316.457 624.131C314.895 624.705 313.256 624.554 311.643 624.684C311.114 624.726 310.93 624.745 310.757 625.338C310.418 626.265 310.228 627.24 310.194 628.227C310.211 629.326 310.037 630.419 309.68 631.458C309.142 633.335 308.51 635.183 307.785 636.995C307.27 637.918 306.684 638.799 306.033 639.631C304.932 641.079 303.699 642.42 302.348 643.637C301.055 644.837 299.696 645.963 298.277 647.012C297.369 647.555 296.494 648.152 295.657 648.801C295.637 648.834 295.613 648.866 295.587 648.895C294.11 647.713 294.501 650.009 293.512 650.032C292.972 650.043 292.511 650.883 291.681 650.664C291.246 650.551 290.991 651.071 290.758 651.381C290.62 651.607 290.436 651.802 290.22 651.953C290.003 652.105 289.757 652.21 289.498 652.262L284.275 648.933C284.744 648.427 285.121 649.311 285.36 648.903C285.375 647.783 284.214 647.688 283.9 646.795C283.79 646.475 282.967 646.352 283.338 645.602C283.408 645.508 283.074 645.29 282.852 645.36C281.743 645.722 281.767 645.299 282.264 644.532C282.298 644.493 282.324 644.447 282.34 644.398C282.356 644.348 282.362 644.296 282.358 644.244C282.353 644.193 282.339 644.142 282.314 644.096C282.29 644.05 282.257 644.009 282.217 643.976C281.223 643.147 280.987 641.669 279.713 641.092L280.022 641.042C280.386 640.887 280.545 640.736 280.217 640.33C279.582 639.534 279.086 638.628 278.389 637.899C278.254 637.797 278.141 637.669 278.057 637.522C277.973 637.375 277.92 637.212 277.901 637.044C277.83 635.939 277.625 634.846 277.29 633.79C277.014 632.757 276.258 631.881 276.281 630.767C276.303 629.653 276 628.655 275.995 627.577C275.992 627.145 276.191 626.458 275.68 626.039L275.637 626.006C276.068 625.868 276.359 625.511 275.987 625.208C275.076 624.463 275.414 623.531 275.456 622.647C275.463 622.471 275.716 622.3 275.396 622.183C274.512 621.855 275.05 621.018 275.217 620.917C275.796 620.461 275.506 620.004 275.513 619.512C275.539 617.971 275.159 616.519 275.162 614.995C275.164 614.148 276.117 613.239 275.28 612.517C274.443 611.795 275.003 611.38 275.162 610.822C275.256 610.44 275.871 610.78 275.87 610.361C275.856 608.767 276.619 607.194 276.265 605.661C276.17 605.313 276.164 604.947 276.247 604.597C276.33 604.246 276.5 603.923 276.741 603.656C277.814 602.633 277.791 601.293 278.014 600.092C278.164 599.335 278.305 599.057 279.276 599.405C278.619 598.909 278.135 598.544 279.123 598.328C280.111 598.112 280.123 597.703 279.665 596.928C279.207 596.152 281.014 596.532 280.467 595.588C280.352 595.432 280.222 595.288 280.078 595.158C280.684 594.847 281.683 595.114 281.717 594.133C281.752 593.153 282.558 592.607 283.166 592.037ZM295.826 608.521C297.045 606.896 296.019 604.301 294.364 603.539C294.081 603.404 293.982 603.522 293.781 603.744C292.036 605.658 290.822 607.997 290.259 610.53C290.095 611.276 289.847 612.209 290.143 612.794C290.556 613.593 291.052 614.346 291.622 615.041C292.066 615.579 292.922 615.343 293.541 615.166C294.16 614.988 293.973 614.485 293.702 614.032C293.563 613.815 293.514 613.552 293.566 613.299C293.618 613.047 293.767 612.825 293.981 612.682C294.195 612.385 294.372 612.062 294.508 611.722C295.244 610.683 294.266 608.927 295.826 608.521ZM282.447 603.946C282.031 604.712 281.663 605.504 281.347 606.316C281.184 606.804 281.854 606.846 282.146 607.089C282.19 607.122 282.181 607.239 282.171 607.312C282.048 608.35 282.927 608.73 283.544 609.218C284.331 609.812 285.028 609.637 285.2 608.669C285.372 607.702 285.993 607.221 286.176 606.33C286.359 605.438 286.433 604.375 287.571 603.989C287.621 603.971 287.666 603.941 287.701 603.902C287.737 603.862 287.761 603.814 287.773 603.762C287.785 603.71 287.784 603.656 287.769 603.605C287.755 603.553 287.728 603.506 287.69 603.468C287.264 603.057 287.523 602.743 287.77 602.398C287.867 602.29 287.922 602.151 287.925 602.006C287.928 601.861 287.879 601.72 287.787 601.607C287.347 600.926 286.869 600.271 286.354 599.645C285.618 598.863 285.14 598.988 284.61 599.98C283.949 601.223 283.573 602.613 282.447 603.946ZM302.842 614.267C303.803 613.725 303.173 613.057 303.087 612.54C303.001 612.028 302.78 611.547 302.447 611.149C302.114 610.751 301.681 610.448 301.192 610.274C300.12 609.849 299.092 611.189 299.007 612.628C298.921 614.068 298.671 615.44 300.269 616.43C300.991 616.884 302.126 617.345 302.778 616.717C302.93 616.515 303.137 616.163 302.957 616.072C301.623 615.394 303.057 614.779 302.813 614.245L302.842 614.267Z" fill="#F2BD1E"></path> <path d="M120.103 672.465C121.098 671.983 120.613 670.927 120.881 670.179C121.106 669.474 121.559 668.865 122.168 668.446C122.777 668.027 123.507 667.823 124.245 667.865C125.426 667.919 126.62 667.564 127.835 667.497C129.44 667.407 131.027 667.327 132.648 667.351C134.269 667.375 135.631 667.339 137.075 667.298C139.594 667.151 142.13 667.176 144.625 666.91C145.835 666.804 146.943 667.12 148.211 666.652C149.237 666.294 150.769 666.693 152.089 666.682C154.214 666.668 156.331 667.191 158.455 666.848C158.908 666.771 159.224 667.088 159.623 667.129C161.601 667.218 163.582 667.203 165.559 667.084C166.627 666.918 167.719 667.013 168.743 667.36C169.144 667.55 169.531 667.185 169.924 667.188C170.294 667.205 170.653 667.314 170.971 667.505C171.288 667.696 171.553 667.963 171.742 668.281C171.931 668.6 172.039 668.961 172.054 669.331C172.07 669.701 171.993 670.07 171.831 670.402C171.199 670.717 171.352 671.477 170.942 671.994C170.194 672.99 168.735 673.427 168.541 674.876C168.492 674.941 168.287 675.08 168.146 675.086C167.761 675.102 167.618 675.277 167.337 675.607C166.887 676.206 166.426 676.82 165.892 677.367C165.066 678.271 163.912 678.859 163.171 679.771C161.301 682.286 159.182 684.605 156.846 686.693C155.282 687.978 153.855 689.412 151.731 689.937C149.341 690.531 146.867 690.587 144.516 691.279C143.469 691.62 142.292 691.411 141.234 691.856C140.176 692.302 138.863 692.092 137.69 692.225C136.516 692.357 135.204 692.193 134.19 692.684C132.385 693.583 130.361 693.402 128.478 693.893C127.27 694.072 126.048 694.131 124.829 694.069C123.312 694.147 121.808 694.584 120.267 694.122C119.904 694.018 119.75 694.343 119.483 694.368C117.927 694.483 116.347 694.886 114.906 693.867C114.234 691.313 115.328 689.073 115.914 686.71C116.5 684.347 117.317 682.023 117.84 679.624C118.065 678.032 118.554 676.49 119.286 675.061C119.589 674.705 119.817 674.292 119.957 673.846C120.098 673.401 120.147 672.931 120.103 672.465V672.465Z" fill="#55B8CA"></path> <path d="M170.759 583.289C171.304 583.949 170.672 584.535 170.672 585.123C170.664 586.519 169.807 585.883 169.244 585.866C168.68 585.848 168.492 586.294 168.084 586.461C166.398 587.202 164.543 586.661 162.842 587.12C161.605 587.442 160.38 586.981 159.031 587.468C158.034 587.846 156.495 587.443 155.33 587.684C153.684 588.025 152.023 587.767 150.382 588.146C149.914 588.257 148.845 589.033 148.299 587.909C148.243 587.787 147.754 587.791 147.507 587.865C146.69 588.097 145.828 588.123 144.997 587.94C144.647 587.825 144.268 587.835 143.925 587.967C143.63 588.19 143.264 588.298 142.895 588.273C142.526 588.248 142.178 588.09 141.914 587.83C141.488 587.509 141.551 588.223 141.044 588.101C139.847 587.949 138.642 587.875 137.436 587.877C135.519 587.675 133.578 587.489 131.636 587.471C130.105 587.447 128.601 587.884 127.114 587.983C125.457 588.173 123.789 588.241 122.122 588.187C120.929 588.089 119.746 588.43 118.563 587.763C118.37 587.683 118.198 587.559 118.062 587.401C117.925 587.243 117.827 587.055 117.776 586.853C117.648 585.73 117.12 584.689 116.29 583.922C116.063 583.638 115.617 583.313 116.05 582.871C116.089 582.874 116.128 582.873 116.166 582.868C116.166 582.868 116.193 582.831 116.209 582.81L116.054 582.896L114.604 580.4C113.907 578.798 113.38 577.127 113.032 575.414C112.843 574.492 111.979 573.489 112.57 572.431C112.581 572.392 112.583 572.351 112.575 572.312C112.567 572.273 112.55 572.236 112.524 572.204C110.772 570.668 111.326 568.439 110.791 566.531C110.774 566.409 110.731 566.291 110.664 566.187C109.822 565.292 109.606 564.586 111.192 564.46C111.192 564.46 111.29 564.33 111.339 564.265C111.494 564.13 111.694 564.058 111.899 564.063C112.104 564.068 112.301 564.148 112.451 564.289C112.718 564.491 113.028 564.544 113.243 564.152C113.651 563.397 114.325 563.374 115.092 563.421C116.296 563.504 117.446 564.156 118.644 563.975C119.672 563.839 120.717 563.925 121.709 564.23C123.301 564.684 124.959 564.419 126.48 564.696C127.327 564.849 128.372 563.953 129.036 565.177C129.124 565.346 129.312 565.126 129.455 565.086C132.405 564.304 135.34 565.229 138.282 565.21C139.474 565.203 140.663 565.319 141.831 565.557C142.802 565.77 143.762 565.59 144.687 565.88C145.701 566.119 146.737 566.253 147.779 566.279C148.477 566.342 149.277 565.623 149.633 566.128C150.143 566.864 150.744 566.651 151.329 566.685C151.585 566.674 151.841 566.718 152.079 566.814C152.317 566.909 152.532 567.055 152.71 567.24C152.941 567.505 153.056 567.501 153.45 567.459C153.902 567.421 154.357 567.476 154.787 567.62C155.217 567.764 155.614 567.994 155.953 568.296C157.041 569.694 158.77 570.297 159.771 571.719C159.798 571.749 159.83 571.773 159.865 571.79C160.861 572.316 161.962 572.626 162.46 573.861C162.958 575.096 164.293 576.103 165.296 577.132C166.471 578.323 166.854 580.207 168.605 580.872C168.642 580.886 168.675 580.911 168.699 580.943C169.229 581.571 169.828 582.137 170.485 582.63V582.63C170.362 582.944 170.512 583.136 170.759 583.289Z" fill="#55B8CA"></path> <path d="M114.965 693.844C116.393 694.865 117.985 694.46 119.542 694.345C119.804 694.328 119.963 693.995 120.325 694.099C121.845 694.545 123.344 694.115 124.888 694.046C126.107 694.108 127.329 694.049 128.537 693.87C130.42 693.38 132.417 693.551 134.25 692.661C135.263 692.17 136.588 692.333 137.749 692.202C138.91 692.071 140.168 692.308 141.293 691.833C142.418 691.359 143.557 691.574 144.576 691.256C146.954 690.528 149.427 690.472 151.791 689.914C153.914 689.389 155.341 687.955 156.905 686.67C159.242 684.582 161.361 682.263 163.231 679.748C163.941 678.802 165.133 678.253 165.952 677.344C166.465 676.781 166.911 676.156 167.397 675.584C167.641 675.259 167.776 675.078 168.206 675.063C168.347 675.056 168.589 674.945 168.601 674.853C168.793 673.391 170.24 672.956 171.002 671.97C171.398 671.443 171.252 670.688 171.891 670.379C172.376 671.751 172.435 673.255 173.137 674.565C173.859 677.474 172.214 679.32 170.391 681.236C168.856 682.86 167.681 684.846 166.279 686.594C164.968 688.251 164.136 690.247 162.359 691.621C161.722 692.276 161.219 693.048 160.878 693.896C160.443 694.798 159.693 695.508 158.77 695.891C157.661 696.254 156.648 697.423 155.288 696.658C155.238 696.62 155.121 696.656 155.048 696.692C153.026 697.654 150.726 697.389 148.671 698.078C147.257 698.561 145.802 698.888 144.391 699.26C143.34 699.531 142.286 700.183 140.944 699.906C139.979 699.686 138.837 700.454 137.808 700.876C136.788 701.263 135.696 701.422 134.607 701.345C133.725 701.421 132.852 701.576 131.998 701.808C130.876 701.991 129.746 702.021 128.657 702.161C127.016 702.359 125.278 702.144 123.672 702.777C123.303 702.989 122.866 703.05 122.452 702.948C122.038 702.847 121.679 702.589 121.448 702.23C120.403 701.071 119.28 699.986 118.086 698.981C117.765 698.671 117.113 698.53 117.473 697.84C117.505 697.796 117.399 697.592 117.325 697.57C115.976 697.197 115.591 696.205 115.519 694.929C115.505 694.556 115.158 694.205 114.965 693.844Z" fill="#F2BD1E"></path> <path d="M170.483 582.646C169.826 582.153 169.227 581.587 168.697 580.959C168.673 580.927 168.64 580.903 168.603 580.888C166.84 580.225 166.469 578.34 165.295 577.148C164.286 576.127 163.008 575.254 162.458 573.878C161.909 572.502 160.855 572.34 159.864 571.807C159.828 571.79 159.796 571.766 159.77 571.736C158.774 570.307 157.056 569.689 155.952 568.313C155.624 568.012 155.239 567.779 154.821 567.628C154.402 567.477 153.958 567.411 153.514 567.435C153.12 567.477 153.005 567.481 152.774 567.216C152.596 567.03 152.381 566.885 152.143 566.789C151.905 566.694 151.649 566.65 151.393 566.661C150.803 566.634 150.214 566.845 149.697 566.104C149.348 565.604 148.52 566.347 147.843 566.255C146.801 566.229 145.765 566.095 144.751 565.856C143.828 565.578 142.845 565.729 141.895 565.533C140.713 565.305 139.51 565.201 138.307 565.223C135.354 565.257 132.43 564.318 129.48 565.1C129.337 565.139 129.15 565.359 129.061 565.191C128.392 563.974 127.359 564.868 126.505 564.71C124.932 564.427 123.332 564.691 121.735 564.243C120.743 563.939 119.697 563.852 118.67 563.989C117.45 564.199 116.322 563.518 115.118 563.435C114.356 563.381 113.683 563.404 113.269 564.166C113.061 564.563 112.749 564.497 112.476 564.303C112.327 564.162 112.13 564.081 111.925 564.077C111.719 564.072 111.52 564.144 111.365 564.278C110.932 563.771 111.34 563.016 111.452 562.807C112.334 561.21 113.444 559.685 114.461 558.134C114.637 557.932 114.866 557.785 115.123 557.71C115.38 557.635 115.653 557.636 115.909 557.711C117.749 558.092 119.466 557.251 121.276 557.384C124.379 557.683 127.495 557.815 130.612 557.778C132.944 557.683 135.263 558.178 137.592 558.284C139.675 558.385 141.765 558.537 143.83 558.829C144.839 558.991 145.817 559.073 146.781 559.28C147.806 559.551 148.887 559.522 149.895 559.198C150.104 559.11 150.334 559.088 150.556 559.132C150.779 559.177 150.982 559.287 151.142 559.449C153.585 561.677 156.133 563.78 158.545 566.018C159.844 567.224 161.113 568.622 162.372 569.821C164.1 571.464 165.502 573.438 167.38 574.911C167.877 575.396 168.291 575.96 168.604 576.58C169.061 577.808 170.265 578.569 170.624 579.914C170.936 580.809 170.885 581.79 170.483 582.646Z" fill="#F2BD1E"></path> <path d="M276.98 589.049C276.677 589.544 276.366 589.717 276.119 589.021L276.98 589.049Z" fill="#E86367"></path> <path d="M319.847 666.75L319.835 666.708L319.84 666.744L319.847 666.75Z" fill="#E86367"></path> <path d="M326.547 636.712L326.542 636.676L326.549 636.724L326.547 636.712Z" fill="#E86367"></path> <path d="M238.458 587.958C239.463 587.918 240.449 588.237 241.242 588.859C242.007 589.436 242.409 589.548 243.227 589.226C243.782 589 242.88 590.095 243.736 589.859C244.592 589.622 244.205 591.162 244.86 590.922C246.124 590.473 245.501 591.575 245.741 591.903C245.981 592.231 245.997 592.254 246.239 592.052C246.638 591.732 246.988 592.199 247.051 592.326C247.744 593.572 249.083 594.063 250.108 594.881C250.519 595.136 250.863 595.485 251.112 595.9C251.361 596.314 251.509 596.781 251.542 597.264C251.532 597.368 251.557 597.473 251.614 597.562C251.671 597.65 251.757 597.716 251.856 597.749C253.131 598.01 253.248 599.285 253.828 600.108C254.168 600.59 254.187 601.136 254.972 601.22C255.491 601.283 254.878 602.189 255.396 602.523C255.183 602.702 255.022 603.022 255.291 603.145C256.522 603.644 256.861 604.895 257.642 605.767C257.685 605.793 257.733 605.81 257.783 605.816C257.833 605.823 257.883 605.819 257.931 605.804C258.092 605.439 258.343 605.256 258.548 605.705C258.695 606.007 258.924 606.395 258.544 606.719C258.245 606.92 257.964 607.147 257.706 607.399C257.463 607.724 257.377 608.485 257.812 608.327C259.21 607.821 258.7 608.997 258.711 609.345C258.686 609.81 258.807 610.271 259.058 610.664C259.31 611.057 259.678 611.36 260.111 611.532C260.515 611.701 260.679 612.401 260.603 612.909C260.473 613.716 260.386 614.464 261.165 615.007C260.623 615.729 262.528 616.386 261.179 617.37C260.729 617.698 261.309 619.515 261.932 619.861C263.147 620.517 262.314 621.144 262.195 621.71C262.075 622.276 261.283 622.684 262.527 622.775C263.055 622.823 262.992 623.239 262.477 623.473C261.963 623.707 262.011 623.958 262.548 624.193C263.084 624.428 262.95 624.44 262.731 625.123C262.512 625.806 261.611 626.766 262.418 627.816C262.515 627.936 262.588 628.074 262.633 628.222C262.677 628.371 262.691 628.526 262.674 628.68C262.658 628.834 262.611 628.983 262.536 629.118C262.462 629.254 262.361 629.373 262.24 629.468C261.781 630.171 261.554 631 261.591 631.84C261.541 633.035 260.934 633.754 259.748 633.617C260.008 634.039 259.376 634.896 260.493 634.869C260.609 634.865 260.555 635.435 260.316 635.707C259.606 636.518 259.467 637.622 259.019 638.506C258.615 639.473 258.126 640.402 257.557 641.282C256.677 642.38 255.95 643.593 255.394 644.887C255.054 646.105 254.339 647.184 253.351 647.971C252.379 648.67 251.607 649.611 251.109 650.701C250.782 651.348 250.427 650.842 250.125 650.943C250.381 651.927 250.224 652.318 248.792 652.629C248.473 652.724 248.176 652.882 247.919 653.094C247.663 653.307 247.452 653.569 247.298 653.865C247.164 655.28 245.81 654.914 245.151 655.491C244.338 656.212 242.912 656.154 242.605 657.528C242.514 657.935 242.099 657.916 241.984 657.603C241.751 656.963 241.383 657.228 241.04 657.354C241.045 657.03 241.166 656.658 241.04 656.404C240.611 655.47 240.595 654.677 241.577 654.062C241.671 653.995 241.749 653.908 241.805 653.808C241.861 653.707 241.894 653.595 241.901 653.48C241.472 652.229 242.152 651.939 243.163 651.798C243.495 651.741 243.793 651.563 244.001 651.299C244.749 650.302 245.928 649.891 246.804 649.071C247.444 648.49 247.903 646.326 247.324 645.697C247.005 645.354 246.423 645.255 246.219 645.542C245.569 646.408 244.28 646.544 243.913 647.681C243.846 647.89 243.705 648.259 243.432 648.02C243.16 647.78 242.737 647.755 242.898 647.3C243.27 645.925 243.814 644.602 244.518 643.365C244.683 643.126 244.788 642.85 244.824 642.561C244.86 642.272 244.825 641.979 244.724 641.706C244.623 641.433 244.457 641.188 244.241 640.993C244.025 640.798 243.766 640.657 243.485 640.584C242.965 640.463 242.353 640.42 242.475 641.326C242.502 641.51 242.464 641.698 242.366 641.856C242.268 642.014 242.117 642.132 241.94 642.189C241.606 642.333 241.229 642.625 241.317 643.02C241.587 644.015 240.759 644.351 240.381 645.05C239.99 644.517 240.271 644.142 240.436 643.802C240.575 643.482 240.643 643.136 240.633 642.786C240.624 642.437 240.537 642.094 240.381 641.782C240.254 641.319 239.978 640.91 239.595 640.622C239.212 640.333 238.744 640.179 238.266 640.186C237.646 640.273 237.455 641.372 237.335 642.209C237.145 643.547 237.373 644.93 236.835 646.22C236.306 645.721 235.89 645.114 235.615 644.44C235.341 643.767 235.214 643.042 235.243 642.316C235.316 642.023 235.286 641.713 235.158 641.439C235.03 641.165 234.811 640.944 234.539 640.813C234.166 640.594 233.753 640.454 233.324 640.401C232.895 640.348 232.461 640.383 232.046 640.504C231.674 640.608 231.663 641.119 231.84 641.366C232.434 642.187 232.114 643.156 232.351 644.014C232.589 644.872 232.376 645.683 232.825 646.395C233.09 646.81 233.753 647.254 233.314 647.658C232.875 648.061 232.679 646.997 232.079 647.043C231.996 647.048 231.895 646.791 231.782 646.671C231.328 646.253 230.769 645.967 230.165 645.847C229.561 645.727 228.936 645.776 228.359 645.989C227.646 646.276 227.577 646.609 228.124 647.146C228.847 647.992 229.521 648.879 230.144 649.801C230.682 650.354 231.391 650.705 232.155 650.798C233.164 650.96 233.235 650.866 233.086 651.862C232.903 653.07 232.681 654.271 232.463 655.464C232.246 656.657 233.794 658.481 235.071 658.257C236.73 657.959 238.372 658.588 240.025 658.239C239.76 658.714 239.338 659.08 238.831 659.273C238.08 659.468 237.42 659.916 236.962 660.543C236.918 660.638 236.854 660.723 236.776 660.792C236.697 660.861 236.605 660.913 236.505 660.944C236.404 660.975 236.299 660.985 236.195 660.973C236.091 660.96 235.99 660.926 235.9 660.873C235.458 660.663 234.887 660.55 234.937 661.402C234.925 661.481 234.899 661.557 234.86 661.626C233.842 660.858 233.402 662.709 232.233 662.189C231.392 661.803 230.433 662.493 229.589 662.909C229.427 662.99 229.34 663.241 229.096 663.159C227.235 662.625 225.449 663.8 223.709 663.482C221.789 663.164 220.01 663.892 218.142 663.715C217.737 663.681 217.188 663.765 217.001 663.171C216.966 663.072 216.893 662.99 216.799 662.944C216.704 662.898 216.595 662.891 216.495 662.926C215.869 663.052 215.223 663.032 214.605 662.868C213.987 662.703 213.415 662.399 212.932 661.979C212.243 661.678 211.527 661.442 210.795 661.271C209.355 660.66 207.945 659.947 206.51 659.373C205.075 658.799 203.998 657.252 202.263 657.108C202.147 657.068 202.039 657.005 201.948 656.922C201.856 656.84 201.782 656.739 201.731 656.627C201.179 655.555 200.085 655.159 199.205 654.495C198.165 653.71 197.274 652.699 196.187 651.992C194.583 650.951 194.127 648.832 192.304 648.022C192.12 647.893 191.965 647.725 191.852 647.53C191.739 647.335 191.669 647.118 191.648 646.893C191.468 645.627 190.562 645.011 189.889 644.175C189.701 643.943 189.439 643.689 189.582 643.424C189.929 642.781 189.436 642.352 189.178 641.988C187.389 639.417 186.54 636.706 185.729 633.403C185.387 631.777 184.929 630.176 184.359 628.615C184.062 627.882 183.701 627.202 184.353 626.439C184.689 625.991 184.458 625.32 184.336 624.956C183.724 623.104 184.254 621.298 184.43 619.497C184.461 619.012 184.448 618.525 184.391 618.042C184.26 617.138 184.451 616.217 184.93 615.441C185.292 614.698 185.466 613.878 185.435 613.051C185.633 610.814 187.206 609.094 187.373 606.913C188.37 606.534 187.9 605.128 188.999 604.747C189.332 604.636 189.263 603.612 189.63 603.244C191.23 601.624 192.069 599.316 194.245 598.21C194.653 597.997 194.199 597.247 194.859 596.954C196.113 596.384 196.512 594.662 198.076 594.461C198.607 592.759 200.438 592.579 201.437 591.49C201.966 590.95 202.556 591.203 203.042 590.857C204.704 589.713 206.318 588.33 208.284 587.88C209.651 587.565 210.939 587.01 212.322 586.764C213.353 586.58 214.346 586.221 215.357 585.943C215.907 585.713 216.497 585.597 217.094 585.603C218.265 585.661 219.425 585.349 220.409 584.711C221.08 584.313 221.43 585.052 222.015 584.996C223.756 584.716 225.52 584.6 227.283 584.65C227.995 584.712 229.147 584.156 229.652 585.306C229.702 585.344 229.861 585.464 229.98 585.395C231.201 584.959 232.367 585.545 233.554 585.649C234.488 585.731 235.421 586.175 236.369 586.223C236.419 586.261 236.571 586.285 236.576 586.323C236.626 587.492 237.926 587.251 238.381 587.956C238.305 588.057 238.301 588.167 238.491 588.141L238.458 587.958ZM209.456 644.677C209.38 644.778 209.424 644.946 209.573 644.912C209.723 644.878 209.676 644.775 209.57 644.661C209.463 644.547 209.64 644.386 209.451 644.322C210.374 643.81 211.331 643.36 212.315 642.977C213.689 642.596 215.026 642.09 216.309 641.467C217.806 640.595 219.417 639.938 221.097 639.515C221.849 639.358 222.333 638.502 223.192 638.834L223.242 638.872L223.178 638.823C224.157 637.413 225.921 637.352 227.277 636.645C228.389 635.994 229.575 635.476 230.809 635.103C232.291 634.61 233.728 633.986 235.101 633.24C236.825 632.449 238.492 631.524 240.224 630.783C242.374 629.861 244.256 628.499 246.341 627.483C248.071 626.684 249.265 625.018 251.25 624.739C251.614 624.675 252.089 624.434 252.309 624.578C253.508 625.391 254.388 624.144 255.491 624.105C256.825 624.06 257.617 621.513 257.347 619.975C257.167 618.708 255.914 618.555 255.32 617.734C255.064 617.353 254.688 617.069 254.252 616.928C253.109 616.552 252.257 616.995 251.325 617.377C250.064 616.527 248.654 615.95 247.369 615.117C247 614.954 246.642 614.766 246.297 614.556C245.799 614.024 245.162 613.641 244.458 613.452C243.71 613.3 243.014 612.955 242.44 612.45C240.74 611.009 238.612 610.364 236.737 609.278C236.348 609.145 236.014 608.889 235.786 608.547C235.558 608.205 235.449 607.797 235.476 607.388C235.477 605.669 235.405 603.942 235.411 602.216C235.418 600.49 234.584 598.934 234.314 597.26C234.267 596.83 234.076 596.428 233.772 596.119C233.469 595.81 233.07 595.612 232.642 595.557C232.373 595.447 232.136 595.269 231.956 595.04C231.476 594.519 231.142 594.618 230.616 595.092C228.942 596.698 227.026 598.031 224.939 599.042C224.888 599.07 224.844 599.108 224.81 599.154C224.775 599.2 224.751 599.253 224.738 599.309C224.64 600.027 223.965 600.128 223.508 600.406C223.051 600.683 222.128 601.219 222.227 599.823C222.211 599.68 222.166 599.542 222.094 599.417C222.022 599.293 221.925 599.185 221.808 599.1C220.864 598.424 220.109 597.515 219.616 596.463C219.551 596.278 219.378 595.966 219.315 595.975C218.174 596.245 218.383 595.273 218.185 594.738C218.115 594.544 218.001 594.367 217.854 594.222C217.706 594.077 217.527 593.967 217.331 593.901C217.135 593.835 216.927 593.814 216.722 593.839C216.517 593.865 216.321 593.937 216.147 594.049C215.035 594.929 213.646 595.725 213.006 596.893C211.658 599.382 209.356 601.094 208.015 603.543C207.91 603.77 207.724 603.948 207.493 604.043C206.181 604.286 206.101 605.582 205.501 606.396C204.254 608.057 203.838 610.118 203.036 612.001C202.813 612.523 202.266 613.026 202.255 613.493C202.307 615.352 201.165 616.843 200.882 618.621C200.509 620.94 199.835 623.18 200.444 625.562C200.586 626.384 200.684 627.214 200.739 628.046C201.083 630.375 201.107 632.768 202.057 634.967C203.402 638.085 205.019 641.069 206.609 644.056C206.822 644.465 207.144 644.459 207.544 644.603C208.315 644.811 208.767 643.953 209.467 644.255L209.456 644.677ZM229.118 587.131C229.096 587.296 229.02 587.532 228.869 587.463C228.084 587.154 227.489 587.554 226.915 587.957C225.771 587.705 224.606 587.9 223.411 587.655C222.057 587.38 220.535 588.369 219.004 587.847C218.734 587.756 218.589 588.054 218.38 588.167C217.388 588.72 216.411 589.6 215.261 589.309C213.521 588.856 212.338 590.191 210.928 590.564C209.15 591.208 207.447 592.043 205.848 593.054C204.275 593.77 202.824 594.728 201.547 595.893C201.409 596.043 201.233 596.152 201.038 596.21C199.676 596.517 199.051 597.742 198.271 598.646C197.313 599.756 196.415 600.967 195.388 601.99C194.704 602.66 194.228 603.514 194.016 604.45C193.948 604.693 193.852 604.928 193.729 605.149C192.742 607.141 191.185 608.885 190.793 611.155C190.713 611.553 190.605 611.943 190.469 612.325C189.93 613.931 188.566 615.357 189.436 617.257C189.483 617.36 189.529 617.553 189.473 617.613C188.901 618.255 189.316 618.908 189.469 619.532C189.533 619.807 189.539 620.093 189.485 620.37C189.114 621.945 189.039 623.577 189.266 625.181C189.428 625.959 190.085 626.997 188.842 627.643C188.62 627.758 188.779 628.014 189.046 628.034C189.108 628.032 189.169 628.045 189.225 628.07C189.281 628.095 189.331 628.133 189.371 628.18C189.41 628.227 189.439 628.283 189.454 628.343C189.469 628.403 189.47 628.465 189.457 628.526C189.446 630.304 190.284 631.943 190.477 633.615C190.815 636.403 192.133 638.834 192.861 641.465C193.071 642.386 193.595 643.206 194.344 643.782C195.167 644.313 195.151 645.42 195.751 645.975C196.701 646.759 197.24 647.833 198.175 648.651C200.08 650.315 201.632 652.39 203.767 653.809C205.081 654.801 206.494 655.654 207.983 656.356C209.62 656.992 211.34 657.261 212.994 657.875C214.547 658.37 216.143 658.714 217.761 658.904C218.099 658.967 218.516 658.999 218.738 658.567C218.868 658.394 218.91 658.187 218.735 657.999C218.462 657.714 218.153 657.854 217.827 657.868C217.095 657.893 216.185 658.202 215.919 657.051C215.83 656.656 215.529 656.757 215.229 656.734C214.133 656.688 213.397 655.816 212.603 655.217C212.264 654.961 212.282 654.318 211.557 654.427C211.174 654.5 210.957 654.065 210.833 653.689C210.709 653.312 210.734 652.992 210.375 653.049C208.847 653.276 208.823 651.2 207.446 651.167C207.168 651.161 207.164 650.774 207.312 650.456C207.795 649.451 207.414 648.814 206.378 648.688C205.97 648.629 205.437 648.736 205.557 647.989C205.604 647.731 205.391 647.502 205.166 647.275C204.346 646.454 203.979 645.317 203.085 644.473C202.071 643.505 201.926 641.846 200.955 640.729C200.89 640.65 200.852 640.553 200.847 640.451C200.842 640.349 200.87 640.249 200.926 640.164C201.369 639.288 201.234 638.971 200.301 638.663C200.01 638.568 200.005 638.44 200.133 638.209C200.404 637.712 200.247 637.424 199.677 637.31C199.366 637.257 199.478 637.092 199.505 636.875C199.521 635.844 199.224 634.832 198.655 633.972C198.359 633.387 197.475 632.787 198.666 632.194C198.703 632.174 198.733 632.144 198.755 632.109C198.777 632.073 198.79 632.033 198.792 631.991C198.794 631.949 198.785 631.908 198.766 631.87C198.747 631.833 198.719 631.801 198.685 631.778C196.988 630.498 197.993 628.496 197.42 626.91C197.378 626.8 197.663 626.585 197.73 626.421C197.973 625.541 198.621 624.571 198.118 623.75C197.641 622.844 197.444 621.818 197.551 620.8C197.535 620.099 199.127 619.468 197.674 618.768C197.745 618.674 197.768 618.477 197.844 618.466C198.87 618.244 198.524 617.395 198.618 616.788C198.692 616.357 198.577 615.863 199.25 615.795C199.923 615.726 199.674 615.47 199.48 615.097C199.231 614.731 199.119 614.289 199.165 613.85C199.212 613.41 199.412 613.002 199.732 612.697C199.954 612.481 200.115 612.208 200.197 611.908C200.279 611.608 200.279 611.292 200.198 610.991C200.154 610.878 200.142 610.755 200.163 610.635C200.185 610.516 200.24 610.405 200.321 610.315C201.011 609.501 201.802 608.718 201.507 607.455C201.345 606.767 202.329 606.842 202.407 606.346C202.568 605.392 202.939 604.485 203.493 603.692C204.046 602.899 204.77 602.24 205.61 601.762C205.929 601.563 206.406 601.425 206.347 600.78C206.287 600.136 207.587 600.077 207.207 599.167C207.311 599.179 207.436 599.148 207.508 599.203C208.107 599.655 208.306 599.104 208.483 598.717C208.567 598.481 208.712 598.271 208.903 598.109C209.093 597.947 209.324 597.839 209.57 597.796C210.683 597.504 211.333 596.095 212.714 596.107C212.714 596.107 212.812 595.977 212.844 595.934C212.809 595.229 213.435 595.147 213.843 594.844C214.251 594.541 215.06 594.202 215.207 593.736C215.827 591.795 217.493 591.728 219.015 591.373C219.277 591.31 219.678 591.499 219.655 591.063C219.622 590.428 220.121 590.442 220.46 590.336C221.173 590.169 221.818 589.788 222.309 589.244C222.589 588.897 222.991 588.672 223.432 588.614C223.873 588.555 224.32 588.668 224.682 588.93C224.761 588.99 224.945 589.061 224.99 589.016C225.57 588.514 226.572 588.852 226.968 588.008C228.069 588.047 229.332 588.955 230.349 587.494C229.139 587.962 229.139 587.962 229.125 587.137L229.118 587.131ZM261.543 621.569C261.399 621.46 261.305 621.57 261.269 621.679C261.233 621.787 261.02 621.875 261.265 621.925C261.337 621.979 261.485 621.842 261.577 621.765C261.67 621.687 261.572 621.636 261.55 621.575L261.543 621.569ZM187.597 638.16L187.51 638.185L187.568 638.229L187.597 638.16Z" fill="#183848"></path> <path d="M105.785 652.105C104.47 652.706 103.104 653.189 101.704 653.55C100.525 653.871 99.2665 654.267 98.0694 654.687C97.1198 655.045 96.1325 655.295 95.1264 655.43C93.6979 655.645 92.2871 655.964 90.9051 656.384C90.081 656.493 89.243 656.43 88.4438 656.199C87.6445 655.967 86.9013 655.573 86.2607 655.04C86.1867 654.978 86.1336 654.894 86.1088 654.801C86.084 654.707 86.0885 654.608 86.1219 654.517C86.4095 653.456 86.6249 652.341 87.8147 651.915C88.1197 651.824 88.3967 651.658 88.6202 651.431C88.8437 651.204 89.0065 650.925 89.0935 650.618C89.4196 649.827 89.8518 649.084 90.3781 648.41C90.9983 647.826 91.5134 647.14 91.901 646.381C90.7074 646.871 89.3607 646.873 88.2412 647.295C86.8834 647.809 85.5404 647.338 84.3415 647.746C81.6584 648.684 78.9598 647.972 76.2645 647.962C75.2662 647.967 73.9428 648.179 72.9756 647.223C72.6454 646.894 72.0404 647.264 71.5133 647.183C69.607 646.875 67.7262 646.384 65.8579 645.935C65.3398 645.841 64.87 645.57 64.5285 645.168C64.187 644.766 63.9949 644.258 63.985 643.731C63.935 642.562 64.8812 642.236 65.6774 641.943C67.9106 641.163 69.8913 639.793 71.4112 637.979C71.9892 637.284 73.2169 637.079 73.2536 635.795C71.6144 635.69 70.2051 634.434 68.387 634.747C67.9537 634.828 67.7535 634.417 67.4232 634.269C65.4577 633.363 63.4505 632.527 61.4597 631.67C58.2957 630.312 55.8055 627.936 52.7281 626.507C51.887 626.122 51.6638 624.732 52 623.832C52.5224 622.428 53.7846 621.966 54.9492 621.409C55.5414 621.232 56.0934 620.942 56.5744 620.554C57.5354 619.47 58.9706 619.455 60.1263 618.834C61.4601 618.178 62.8515 617.645 64.2828 617.243C65.9439 616.732 67.4933 615.797 69.3473 615.963C70.8294 616.098 72.2379 615.351 73.7435 615.424C74.0612 615.437 74.1716 614.853 73.7674 614.548C72.3236 613.459 71.4037 611.838 69.9943 610.673C68.7121 609.573 67.3142 608.617 65.8254 607.821C64.7263 607.252 65.3298 606.102 65.536 605.194C65.7422 604.287 66.2836 604.695 66.7837 604.677C67.5884 604.605 68.3827 604.446 69.1525 604.202C70.1961 603.926 71.418 604.543 72.294 603.586C73.5736 604.473 74.8035 603.421 76.0888 603.486C78.7613 603.48 81.4311 603.668 84.077 604.051C85.9355 604.303 87.767 604.727 89.5483 605.317C90.7775 605.804 92.1802 605.787 93.5535 606.79C92.1157 604.653 91.2791 602.484 89.8249 600.686C89.3955 600.158 89.0076 599.605 88.5962 599.069C87.9449 598.204 88.2936 597.709 88.9583 597.08C90.1231 596.07 91.4192 596.347 92.7009 596.613C93.6828 596.811 94.6865 596.98 95.6739 597.261C97.3161 597.741 98.9285 598.319 100.502 598.992C101.188 599.312 101.914 599.536 102.659 599.659C102.752 599.927 102.78 600.214 102.742 600.496C102.704 600.777 102.6 601.045 102.438 601.279C102.152 601.778 101.997 602.342 101.988 602.918C101.813 605.591 100.991 608.194 100.831 610.832C100.718 612.489 100.908 614.284 100.788 615.935C100.669 617.586 100.895 619.046 100.523 620.597C100.335 621.459 100.371 622.354 100.628 623.199C100.905 624.078 100.98 625.008 100.847 625.92C100.594 627.267 100.898 628.548 100.802 629.867C100.752 631.077 100.919 632.288 101.296 633.44C101.783 635.051 101.586 636.746 102.043 638.335C102.31 639.26 102.86 640.636 102.634 641.043C101.83 642.506 104.168 643.127 103.257 644.385C104.802 646.139 104.456 648.558 105.421 650.541C105.592 651.112 105.548 651.667 105.785 652.105Z" fill="#55B8CA"></path> <path d="M163.562 629.468C163.565 630.105 163.47 630.739 163.281 631.348C162.817 632.569 161.564 632.506 160.648 632.958C160.306 633.194 159.905 633.33 159.489 633.352C159.074 633.374 158.66 633.28 158.294 633.082C158.02 632.875 157.874 633.16 157.68 633.297C157.487 633.434 157.133 633.619 157.02 633.545C156.016 632.788 154.899 633.358 153.879 633.437C151.449 633.662 149.005 633.152 146.571 633.352C144.65 633.531 142.678 633.072 140.724 633.068C139.351 633.061 137.986 632.891 136.589 632.99C135.595 632.938 134.61 632.782 133.648 632.525C133.365 632.48 133.072 632.282 132.822 632.331C130.164 632.859 127.5 631.889 124.846 632.217C123.219 632.407 121.577 632.43 119.945 632.285C118.299 632.174 116.737 632.793 115.149 632.274C114.723 632.133 114.398 632.566 114.002 632.641C112.711 632.855 111.415 632.578 110.123 632.869C109.574 632.998 109.33 632.509 109.378 631.979C109.508 630.404 108.642 629.163 108.096 627.812C107.384 625.974 106.28 624.327 105.64 622.499C105.471 621.967 105.464 621.397 105.62 620.862C105.776 620.327 106.087 619.851 106.515 619.495C107.078 619.648 107.557 619.84 108.125 619.262C108.337 618.981 109.039 618.391 109.492 618.722C110.683 619.62 111.906 618.518 113.155 618.963C114.251 619.182 115.383 619.128 116.451 618.804C117.539 618.771 118.627 618.8 119.711 618.889C121.184 618.769 122.663 618.751 124.138 618.836C125.185 618.947 126.423 619.27 127.25 618.922C129.061 618.196 130.868 618.711 132.593 618.701C134.758 618.694 136.974 618.784 139.161 618.884C140.521 618.923 141.883 618.87 143.237 618.725C143.905 618.663 144.618 617.924 145.107 619.005C145.107 619.005 145.264 619.021 145.347 619.016C148.683 619.09 151.585 620.511 154.51 621.87C155.808 622.476 156.878 623.566 158.15 624.175C159.909 625.107 161.469 626.376 162.741 627.91C163.14 628.403 163.641 628.759 163.562 629.468Z" fill="#55B8CA"></path> <path d="M163.563 629.466C163.625 628.766 163.123 628.41 162.724 627.962C161.452 626.429 159.892 625.16 158.134 624.228C156.867 623.611 155.797 622.521 154.494 621.922C151.575 620.569 148.661 619.15 145.33 619.069C145.253 619.067 145.108 619.094 145.09 619.057C144.573 618 143.867 618.745 143.22 618.777C141.867 618.922 140.505 618.976 139.144 618.936C136.958 618.836 134.756 618.758 132.577 618.754C130.857 618.756 129.05 618.242 127.234 618.975C126.423 619.302 125.176 618.96 124.122 618.888C122.647 618.804 121.168 618.822 119.695 618.941C118.618 618.835 117.536 618.788 116.453 618.802C115.403 619.109 114.293 619.156 113.219 618.94C111.997 618.505 110.758 619.583 109.556 618.699C109.109 618.361 108.437 618.985 108.189 619.239C107.628 619.822 107.171 619.602 106.579 619.472C105.879 618.492 105.948 617.752 106.699 616.645C107.138 616.06 107.155 614.728 107.372 613.76C107.484 613.28 107.604 612.804 107.738 612.34C107.776 612.199 107.889 611.957 107.96 611.953C109.519 611.999 110.82 610.719 112.477 611.132C113.529 611.372 114.634 610.667 115.739 610.822C117.482 611.075 119.082 610.314 120.734 610.192C121.795 610.133 122.994 610.314 123.913 610.159C124.832 610.004 126.01 610.226 127.03 610.057C127.635 609.988 128.243 609.953 128.852 609.95C131.228 609.797 133.619 609.623 135.982 609.382C136.97 609.311 137.952 609.171 138.92 608.963C140.377 608.603 141.418 609.716 142.58 610.231C144.021 610.866 145.43 611.574 146.799 612.352C147.613 612.774 148.532 613.568 149.311 613.659C150.275 613.776 150.743 614.479 151.542 614.709C153.019 615.273 154.372 616.121 155.525 617.205C156.316 617.751 157.167 618.204 158.062 618.554C159.782 619.365 161.522 620.135 163.182 621.071C163.51 621.284 163.781 621.573 163.972 621.914C164.163 622.256 164.269 622.638 164.279 623.029C164.72 625.198 164.469 627.45 163.563 629.466V629.466Z" fill="#F2BD1E"></path> <path d="M240.007 658.23C238.355 658.579 236.685 657.986 235.053 658.248C233.789 658.425 232.21 656.748 232.446 655.455C232.681 654.162 232.891 653.054 233.068 651.853C233.235 650.848 233.112 650.936 232.137 650.789C231.374 650.696 230.664 650.345 230.127 649.792C229.503 648.87 228.829 647.983 228.106 647.137C227.559 646.6 227.628 646.267 228.341 645.98C228.918 645.767 229.543 645.717 230.147 645.838C230.751 645.958 231.311 646.243 231.764 646.662C231.894 646.76 231.978 647.039 232.061 647.034C232.645 646.965 232.823 648.083 233.296 647.648C233.769 647.214 233.073 646.801 232.807 646.386C232.351 645.669 232.568 644.792 232.334 644.004C232.099 643.217 232.405 642.192 231.822 641.357C231.645 641.11 231.664 640.604 232.028 640.494C232.443 640.373 232.877 640.338 233.306 640.392C233.735 640.445 234.148 640.585 234.521 640.803C234.793 640.935 235.012 641.156 235.14 641.43C235.268 641.704 235.298 642.013 235.225 642.306C235.196 643.033 235.323 643.758 235.598 644.431C235.872 645.105 236.288 645.712 236.817 646.211C237.356 644.921 237.12 643.533 237.317 642.2C237.437 641.363 237.636 640.269 238.248 640.177C238.727 640.17 239.194 640.323 239.577 640.612C239.96 640.901 240.237 641.309 240.363 641.772C240.52 642.085 240.606 642.428 240.615 642.777C240.625 643.126 240.558 643.473 240.418 643.793C240.248 644.14 239.972 644.508 240.363 645.041C240.743 644.355 241.57 644.006 241.3 643.01C241.184 642.607 241.562 642.315 241.923 642.18C242.1 642.123 242.25 642.005 242.348 641.847C242.446 641.689 242.485 641.501 242.458 641.317C242.335 640.41 242.947 640.453 243.467 640.574C243.748 640.648 244.008 640.788 244.224 640.984C244.439 641.179 244.605 641.424 244.706 641.697C244.808 641.97 244.842 642.263 244.806 642.552C244.77 642.841 244.665 643.116 244.5 643.355C243.796 644.593 243.252 645.915 242.881 647.291C242.72 647.746 243.209 647.833 243.415 648.01C243.621 648.188 243.828 647.881 243.895 647.672C244.255 646.529 245.58 646.421 246.202 645.533C246.413 645.251 246.987 645.345 247.306 645.687C247.886 646.317 247.455 648.503 246.787 649.061C245.903 649.877 244.726 650.3 243.984 651.29C243.776 651.554 243.477 651.732 243.146 651.788C242.12 651.919 241.44 652.209 241.883 653.471C241.88 653.593 241.847 653.713 241.789 653.82C241.73 653.927 241.646 654.019 241.545 654.087C240.563 654.703 240.521 655.451 241.008 656.43C241.134 656.683 241.013 657.055 241.007 657.379C241.022 658.068 240.586 658.226 240.007 658.23Z" fill="#5AB7C6"></path> <path d="M170.759 583.278C170.528 583.104 170.334 582.957 170.485 582.619C170.812 582.741 170.823 582.998 170.759 583.278Z" fill="#F2BD1E"></path> <path d="M295.831 608.519C294.271 608.926 295.249 610.681 294.547 611.736C294.411 612.076 294.234 612.398 294.02 612.695C293.813 612.838 293.668 613.054 293.615 613.301C293.563 613.547 293.606 613.805 293.738 614.02C294.014 614.466 294.134 614.998 293.576 615.154C293.018 615.31 292.123 615.584 291.657 615.03C291.087 614.334 290.591 613.581 290.178 612.782C289.882 612.197 290.13 611.264 290.294 610.518C290.857 607.985 292.071 605.646 293.816 603.731C293.995 603.493 294.082 603.377 294.4 603.526C296.017 604.294 297.05 606.849 295.831 608.519ZM290.943 609.684C290.943 609.684 290.938 609.601 290.916 609.584C290.894 609.568 290.873 609.552 290.813 609.586C290.753 609.62 290.806 609.671 290.827 609.687C290.849 609.703 290.892 609.691 290.938 609.691L290.943 609.684Z" fill="#E86367"></path> <path d="M282.454 603.948C283.608 602.636 283.977 601.24 284.633 600.005C285.155 599.008 285.634 598.882 286.377 599.67C286.892 600.296 287.37 600.951 287.81 601.633C287.902 601.745 287.951 601.886 287.948 602.031C287.945 602.176 287.89 602.315 287.793 602.423C287.539 602.762 287.3 603.08 287.713 603.494C287.751 603.532 287.778 603.579 287.793 603.63C287.807 603.681 287.809 603.735 287.797 603.787C287.785 603.839 287.76 603.887 287.725 603.927C287.689 603.967 287.644 603.997 287.594 604.014C286.467 604.386 286.375 605.549 286.199 606.355C286.024 607.161 285.377 607.827 285.223 608.695C285.069 609.563 284.34 609.872 283.567 609.244C282.939 608.77 282.055 608.397 282.194 607.337C282.232 607.287 282.212 607.147 282.169 607.115C281.866 606.886 281.236 606.852 281.37 606.342C281.68 605.521 282.042 604.722 282.454 603.948V603.948Z" fill="#E86367"></path> <path d="M302.817 614.242C303.037 614.792 301.632 615.384 302.932 616.047C303.091 616.167 302.928 616.519 302.753 616.693C302.095 617.328 300.964 616.847 300.244 616.405C298.639 615.41 298.894 614.076 298.982 612.603C299.069 611.131 300.095 609.825 301.167 610.249C301.656 610.424 302.089 610.726 302.422 611.124C302.755 611.523 302.976 612.003 303.062 612.515C303.148 613.033 303.778 613.7 302.817 614.242Z" fill="#E86367"></path> <path d="M116.031 582.888L116.186 582.802C116.186 582.802 116.154 582.845 116.143 582.86C116.105 582.865 116.066 582.866 116.028 582.863L116.031 582.888Z" fill="#E86367"></path> <path d="M289.506 652.182L284.282 648.852C284.752 648.347 285.129 649.231 285.367 648.823C285.382 647.703 284.222 647.608 283.908 646.715C283.798 646.395 282.975 646.271 283.345 645.522C283.416 645.428 283.082 645.21 282.86 645.28C281.751 645.642 281.775 645.219 282.272 644.451C282.306 644.412 282.331 644.367 282.347 644.317C282.364 644.268 282.37 644.216 282.365 644.164C282.361 644.112 282.346 644.062 282.322 644.016C282.298 643.97 282.265 643.929 282.225 643.896C281.231 643.067 280.995 641.588 279.721 641.011C279.533 640.87 279.528 640.651 279.705 640.49C279.759 640.418 279.943 640.399 280.006 640.435C280.223 640.598 280.094 640.784 280.031 640.974C280.396 640.82 280.555 640.668 280.226 640.262C279.591 639.466 279.088 638.555 278.399 637.831C278.264 637.729 278.151 637.601 278.067 637.454C277.983 637.307 277.929 637.144 277.91 636.976C277.831 635.895 277.623 634.827 277.29 633.795C277.015 632.761 276.259 631.885 276.281 630.771C276.303 629.657 276 628.659 275.995 627.581C275.992 627.149 276.191 626.462 275.68 626.043L275.312 626.308C275.268 626.275 275.252 626.161 275.27 626.107C275.283 626.069 275.304 626.035 275.331 626.007C275.359 625.979 275.393 625.957 275.43 625.944C275.467 625.931 275.507 625.926 275.546 625.93C275.585 625.935 275.623 625.948 275.657 625.969C276.088 625.83 276.379 625.473 276.007 625.17C275.096 624.426 275.434 623.493 275.476 622.609C275.483 622.434 275.736 622.262 275.417 622.146C274.532 621.818 275.07 620.98 275.237 620.879C275.816 620.423 275.526 619.966 275.533 619.474C275.559 617.933 275.179 616.482 275.182 614.957C275.184 614.11 276.138 613.201 275.3 612.479C274.463 611.757 275.023 611.342 275.182 610.784C275.276 610.402 275.891 610.742 275.89 610.323C275.876 608.729 276.639 607.156 276.286 605.622C276.19 605.275 276.184 604.909 276.267 604.558C276.35 604.208 276.52 603.885 276.761 603.618C277.834 602.595 277.811 601.255 278.034 600.054C278.184 599.297 278.325 599.018 279.296 599.367C278.639 598.871 278.156 598.506 279.143 598.29C280.131 598.074 280.144 597.665 279.685 596.889C279.227 596.114 281.034 596.493 280.488 595.549C280.373 595.393 280.242 595.249 280.098 595.12C280.705 594.808 281.703 595.075 281.738 594.095C281.772 593.115 282.538 592.652 283.147 592.082C282.595 591.19 281.616 591.108 280.77 590.73C280.342 590.531 279.871 590.526 279.412 590.294C278.593 589.879 278.018 588.959 276.969 589.106C276.665 589.601 276.354 589.773 276.107 589.078L276.075 588.715C275.697 589.73 274.655 590.606 275.447 591.871C275.395 591.959 275.321 592.032 275.232 592.082C274.667 591.78 274.914 592.249 274.797 592.466C274.349 593.259 274.054 594.089 273.624 594.827C272.793 596.281 272.018 597.766 271.208 599.236C270.927 599.747 271.327 600.389 271.051 600.576C269.96 601.291 270.421 602.544 269.984 603.503C269.462 604.591 269.853 606.074 269.379 607.322C269.173 607.868 269.643 608.041 269.744 608.343C269.978 608.95 268.796 608.431 268.819 609.139C268.819 609.139 268.77 609.204 268.797 609.258C269.039 610.677 268.901 612.134 268.398 613.48C267.783 615.143 269.366 616.71 268.572 618.475C268.414 618.843 268.376 619.252 268.464 619.644C268.552 620.035 268.762 620.389 269.063 620.654C267.854 622.265 269.25 624.019 268.838 625.699C268.67 626.46 268.689 627.251 268.895 628.003C269.363 629.714 269.563 631.482 269.968 633.201C270.329 634.604 270.396 636.306 271.114 637.459C271.982 638.849 271.701 640.819 273.347 641.745C273.109 642.695 274.345 642.916 274.376 643.222C274.434 644.373 274.891 645.469 275.667 646.322C276.681 647.426 276.94 648.979 277.803 650.195C279.148 652.183 280.96 653.776 282.315 655.737L288.949 652.486L288.975 652.302L289.063 652.47L289.506 652.182Z" fill="#5AB7C6"></path> <path d="M279.734 641.016C279.546 640.875 279.541 640.656 279.718 640.495C279.772 640.423 279.956 640.404 280.02 640.44C280.236 640.604 280.108 640.79 280.045 640.979L279.734 641.016Z" fill="#F2BD1E"></path> <path d="M275.696 626.023L275.328 626.288C275.284 626.256 275.268 626.142 275.286 626.087C275.299 626.05 275.32 626.016 275.347 625.988C275.375 625.959 275.409 625.938 275.446 625.924C275.483 625.911 275.523 625.906 275.562 625.911C275.601 625.915 275.639 625.928 275.673 625.949L275.696 626.023Z" fill="#F2BD1E"></path> <path d="M288.911 652.476L288.937 652.291L289.025 652.46L288.911 652.476Z" fill="#FFFFFE"></path> <path d="M298.584 671.152C298.515 671.141 298.448 671.117 298.387 671.083C298.163 670.914 298.212 670.759 298.356 670.596C298.44 670.525 298.534 670.466 298.634 670.422C298.734 670.621 298.779 670.802 298.584 671.152Z" fill="#FFFFFE"></path> <path d="M331.034 640.81C330.86 640.905 330.707 641.095 330.499 640.904C330.479 640.872 330.467 640.836 330.464 640.798C330.46 640.76 330.466 640.722 330.481 640.687C330.606 640.431 330.812 640.518 331.008 640.587L331.034 640.81Z" fill="#FFFFFE"></path> <path d="M297.129 669.478C297.135 669.556 297.129 669.636 297.11 669.713C297.024 669.828 296.944 669.859 296.858 669.748C296.771 669.638 296.867 669.585 296.907 669.547C296.946 669.51 297.06 669.494 297.129 669.478Z" fill="#FFFFFE"></path> <path d="M317.138 652.455C317.138 652.455 317.063 652.466 317.041 652.45C317.02 652.433 317.005 652.423 317.021 652.356C317.038 652.289 317.097 652.345 317.119 652.362C317.14 652.378 317.135 652.43 317.138 652.455Z" fill="#FFFFFE"></path> <path d="M335.412 657.474L335.364 657.539L335.313 657.41C335.313 657.41 335.4 657.386 335.421 657.402C335.443 657.418 335.407 657.436 335.412 657.474Z" fill="#FFFFFE"></path> <path d="M209.49 644.33C208.795 644.021 208.338 644.886 207.567 644.678C207.145 644.563 206.845 644.54 206.632 644.131C205.052 641.129 203.436 638.146 202.08 635.041C201.135 632.836 201.098 630.444 200.762 628.121C200.707 627.288 200.608 626.459 200.467 625.636C199.858 623.254 200.545 621.013 200.905 618.695C201.188 616.918 202.324 615.434 202.278 613.567C202.26 613.079 202.836 612.597 203.059 612.075C203.875 610.203 204.299 608.148 205.524 606.47C206.131 605.662 206.232 604.381 207.516 604.117C207.747 604.022 207.933 603.844 208.038 603.617C209.357 601.152 211.66 599.44 213.029 596.967C213.662 595.793 215.058 595.003 216.17 594.123C216.344 594.011 216.54 593.939 216.745 593.913C216.95 593.887 217.158 593.909 217.354 593.975C217.55 594.041 217.729 594.151 217.877 594.296C218.025 594.441 218.138 594.617 218.208 594.812C218.401 595.354 218.193 596.339 219.338 596.049C219.365 596.013 219.574 596.352 219.639 596.536C220.132 597.589 220.887 598.498 221.831 599.174C221.948 599.259 222.045 599.367 222.117 599.491C222.19 599.616 222.235 599.754 222.25 599.897C222.152 601.293 222.973 600.816 223.531 600.479C224.089 600.143 224.663 600.101 224.761 599.383C224.774 599.327 224.798 599.274 224.833 599.228C224.867 599.182 224.911 599.144 224.962 599.116C227.049 598.105 228.965 596.772 230.64 595.166C231.18 594.703 231.492 594.588 231.979 595.114C232.16 595.342 232.396 595.521 232.665 595.631C233.094 595.686 233.492 595.883 233.796 596.192C234.099 596.501 234.29 596.904 234.338 597.334C234.613 599.001 235.439 600.642 235.435 602.29C235.431 603.938 235.498 605.731 235.499 607.462C235.472 607.871 235.582 608.279 235.81 608.621C236.038 608.963 236.372 609.22 236.76 609.352C238.657 610.41 240.785 611.054 242.464 612.524C243.038 613.029 243.733 613.374 244.482 613.526C245.185 613.715 245.822 614.098 246.321 614.631C246.666 614.841 247.024 615.028 247.393 615.191C248.671 616.019 250.088 616.602 251.349 617.452C251.251 617.622 251.133 617.78 250.997 617.921C250.397 618.282 249.828 618.693 249.296 619.148C248.739 619.724 248.931 623.069 249.611 623.503C250.292 623.937 250.66 624.486 251.284 624.844C249.3 625.123 248.07 626.762 246.376 627.588C244.296 628.597 242.414 629.959 240.258 630.889C238.555 631.651 236.858 632.542 235.135 633.346C233.762 634.092 232.326 634.715 230.843 635.208C229.609 635.581 228.423 636.099 227.311 636.751C225.962 637.463 224.191 637.518 223.212 638.928C222.338 638.586 221.868 639.453 221.117 639.61C219.437 640.032 217.825 640.689 216.328 641.561C215.045 642.185 213.709 642.69 212.334 643.072C211.35 643.455 210.393 643.905 209.47 644.417L209.49 644.33ZM237.321 619.602C237.528 618.67 237.831 617.762 238.224 616.892C238.561 615.532 238.446 614.099 237.896 612.81C237.526 611.705 236.144 611.318 235.402 610.408C234.487 609.277 232.766 610.681 231.904 609.284C231.904 609.284 231.682 609.354 231.564 609.39C230.187 609.719 228.667 609.636 227.628 610.944C226.913 611.897 225.562 612.416 225.439 613.726C225.389 614.454 225.265 615.175 225.068 615.877C224.943 616.325 224.91 616.793 224.97 617.254C225.03 617.715 225.182 618.159 225.417 618.561C226.093 619.885 227.116 621.001 228.376 621.789C229.181 622.436 230.159 622.831 231.186 622.925C232.256 622.993 233.328 622.829 234.328 622.445C235.61 621.853 236.662 620.854 237.321 619.602V619.602ZM218.533 614.023C219.508 613.04 219.619 611.688 220.077 610.461C220.534 609.234 220.161 608.013 220.046 606.796C219.909 605.336 218.545 604.668 217.682 604.04C216.899 603.426 215.984 603.004 215.011 602.805C214.037 602.607 213.032 602.638 212.073 602.896C210.172 603.395 208.98 604.713 207.864 605.974C206.897 607.066 206.873 608.8 206.879 610.298C206.842 612.306 209.488 615.274 211.376 615.952C212.437 616.226 213.541 616.29 214.625 616.142C215.401 616.137 216.163 615.942 216.844 615.572C217.526 615.203 218.106 614.671 218.533 614.023V614.023ZM222.927 621.862C222.346 621.13 222.01 621.306 221.728 622.451C221.571 623.067 221.512 624.245 220.951 624.239C220.121 624.246 219.089 624.656 218.404 624.048C217.945 623.634 216.954 623.282 217.475 622.273C217.872 621.442 217.398 620.869 216.833 620.386C216.604 620.146 216.311 619.977 215.989 619.899C215.667 619.82 215.33 619.836 215.017 619.943C214.376 620.285 214.451 621.089 214.467 621.791C214.483 622.493 215.138 623.292 215.257 624.083C215.487 625.659 217.202 627.518 218.691 627.386C220.187 627.295 221.647 626.89 222.976 626.197C223.688 625.733 224.214 625.033 224.461 624.218C224.676 623.238 223.855 622.585 222.906 621.891L222.927 621.862ZM218.727 596.787L218.805 596.563C218.805 596.563 218.709 596.57 218.693 596.592C218.658 596.658 218.629 596.726 218.606 596.798L218.727 596.787Z" fill="#55B8CA"></path> <path d="M226.964 587.927C226.566 588.758 225.559 588.427 224.986 588.934C224.948 588.985 224.757 588.908 224.677 588.848C224.311 588.592 223.86 588.486 223.419 588.553C222.977 588.62 222.578 588.854 222.305 589.207C221.814 589.751 221.169 590.133 220.456 590.3C220.095 590.39 219.618 590.392 219.65 591.027C219.675 591.476 219.267 591.281 219.011 591.336C217.489 591.692 215.822 591.758 215.202 593.699C215.05 594.173 214.325 594.462 213.839 594.808C213.353 595.154 212.82 595.171 212.84 595.898C212.807 595.941 212.778 596.1 212.71 596.071C211.329 596.059 210.694 597.446 209.566 597.76C209.319 597.803 209.089 597.911 208.898 598.073C208.707 598.235 208.562 598.445 208.479 598.681C208.309 599.073 208.153 599.566 207.503 599.167C207.431 599.112 207.299 599.137 207.202 599.132C207.577 600.048 206.255 600.091 206.342 600.745C206.428 601.398 205.923 601.559 205.605 601.727C204.765 602.205 204.042 602.864 203.488 603.657C202.934 604.449 202.563 605.356 202.402 606.311C202.324 606.806 201.34 606.731 201.502 607.419C201.797 608.682 201.006 609.465 200.316 610.279C200.235 610.369 200.18 610.48 200.158 610.6C200.137 610.719 200.149 610.842 200.193 610.956C200.274 611.256 200.274 611.573 200.192 611.873C200.11 612.173 199.949 612.445 199.727 612.662C199.407 612.966 199.206 613.375 199.16 613.814C199.114 614.254 199.225 614.696 199.475 615.062C199.669 615.435 199.747 615.708 199.245 615.759C198.743 615.81 198.694 616.328 198.613 616.752C198.502 617.382 198.843 618.238 197.839 618.431C197.763 618.441 197.704 618.611 197.669 618.732C199.115 619.427 197.524 620.071 197.545 620.765C197.439 621.783 197.636 622.809 198.113 623.715C198.629 624.534 197.98 625.504 197.725 626.386C197.674 626.574 197.373 626.765 197.414 626.875C197.991 628.442 196.994 630.449 198.679 631.743C198.714 631.767 198.742 631.798 198.761 631.836C198.78 631.873 198.788 631.915 198.787 631.956C198.785 631.998 198.772 632.039 198.75 632.074C198.728 632.11 198.698 632.139 198.661 632.159C197.469 632.753 198.346 633.347 198.65 633.937C199.219 634.797 199.516 635.81 199.5 636.841C199.473 637.058 199.361 637.222 199.672 637.276C200.208 637.375 200.377 637.661 200.128 638.174C199.987 638.362 200.005 638.534 200.296 638.629C201.207 638.92 201.364 639.254 200.921 640.13C200.864 640.214 200.836 640.315 200.842 640.417C200.847 640.518 200.885 640.616 200.95 640.694C201.921 641.811 202.066 643.47 203.08 644.439C203.975 645.295 204.341 646.42 205.161 647.241C205.413 647.432 205.586 647.698 205.552 647.955C205.433 648.702 205.965 648.595 206.373 648.654C207.446 648.807 207.804 649.428 207.308 650.422C207.159 650.74 207.163 651.127 207.441 651.133C208.813 651.173 208.835 653.237 210.37 653.015C210.729 652.958 210.74 653.396 210.828 653.655C210.917 653.914 211.169 654.466 211.552 654.393C212.292 654.25 212.274 654.938 212.599 655.183C213.393 655.782 214.115 656.643 215.225 656.7C215.517 656.717 215.819 656.617 215.914 657.017C216.181 658.168 217.062 657.883 217.822 657.834C218.149 657.821 218.463 657.673 218.73 657.965C218.925 658.112 218.835 658.338 218.734 658.533C218.517 658.958 218.087 658.928 217.757 658.871C216.139 658.681 214.542 658.336 212.989 657.841C211.357 657.198 209.637 656.929 207.978 656.323C206.489 655.621 205.077 654.767 203.762 653.775C201.605 652.385 200.07 650.288 198.17 648.617C197.235 647.799 196.695 646.725 195.746 645.941C195.096 645.45 195.126 644.342 194.339 643.748C193.59 643.172 193.065 642.352 192.856 641.43C192.133 638.793 190.822 636.367 190.471 633.58C190.264 631.898 189.44 630.269 189.452 628.491C189.465 628.431 189.463 628.368 189.448 628.308C189.433 628.248 189.405 628.193 189.365 628.145C189.326 628.098 189.276 628.06 189.22 628.035C189.163 628.01 189.102 627.998 189.04 628C188.773 627.979 188.643 627.7 188.837 627.608C190.074 626.97 189.417 625.931 189.26 625.146C189.034 623.542 189.108 621.91 189.479 620.335C189.533 620.058 189.528 619.772 189.463 619.497C189.31 618.873 188.895 618.22 189.468 617.578C189.517 617.513 189.477 617.325 189.43 617.221C188.588 615.331 189.93 613.889 190.463 612.289C190.599 611.908 190.708 611.517 190.787 611.12C191.191 608.835 192.744 607.111 193.724 605.113C193.847 604.892 193.943 604.658 194.011 604.414C194.223 603.479 194.699 602.625 195.383 601.954C196.41 600.931 197.314 599.713 198.265 598.61C199.035 597.72 199.68 596.499 201.032 596.174C201.228 596.116 201.404 596.007 201.542 595.857C202.823 594.704 204.276 593.759 205.849 593.055C207.448 592.063 209.149 591.246 210.923 590.618C212.355 590.217 213.553 588.892 215.257 589.364C216.428 589.671 217.411 588.783 218.375 588.222C218.585 588.108 218.7 587.788 219 587.901C220.531 588.423 222.053 587.434 223.407 587.709C224.602 587.954 225.767 587.759 226.911 588.011L226.964 587.927Z" fill="#E86367"></path> <path d="M251.222 624.765C250.597 624.407 250.166 623.822 249.549 623.424C248.932 623.026 248.677 619.645 249.233 619.069C249.765 618.614 250.334 618.203 250.934 617.842C251.07 617.701 251.189 617.543 251.287 617.373C252.24 616.961 253.049 616.531 254.213 616.923C254.649 617.064 255.025 617.348 255.282 617.729C255.88 618.543 257.092 618.722 257.308 619.97C257.578 621.509 256.757 624.078 255.452 624.1C254.313 624.112 253.469 625.386 252.271 624.573C252.061 624.46 251.581 624.708 251.222 624.765Z" fill="#E86367"></path> <path d="M226.956 587.976C227.541 587.558 228.124 587.172 228.909 587.482C229.025 587.569 229.128 587.296 229.158 587.15C229.173 587.975 229.173 587.975 230.35 587.46C229.317 588.943 228.097 588.022 226.968 587.974L226.956 587.976Z" fill="#E86367"></path> <path d="M261.549 621.562C261.585 621.589 261.612 621.734 261.583 621.758C261.554 621.781 261.363 621.931 261.271 621.918C261.025 621.868 261.246 621.74 261.274 621.672C261.303 621.603 261.399 621.461 261.549 621.562Z" fill="#E86367"></path> <path d="M229.143 587.137L229.131 587.095L229.136 587.132L229.143 587.137Z" fill="#E86367"></path> <path d="M209.458 644.339C209.647 644.403 209.628 644.535 209.577 644.678L209.463 644.694L209.483 644.336L209.458 644.339Z" fill="#55B8CA"></path> <path d="M209.57 644.673C209.656 644.738 209.73 644.895 209.573 644.924C209.416 644.952 209.415 644.804 209.456 644.688L209.57 644.673Z" fill="#55B8CA"></path> <path d="M187.589 638.194L187.549 638.277L187.503 638.219L187.589 638.194Z" fill="#E86367"></path> <path d="M238.47 587.952L238.504 588.147C238.32 588.167 238.367 588.044 238.394 587.963L238.47 587.952Z" fill="#E86367"></path> <path d="M290.939 609.692C290.939 609.692 290.845 609.711 290.824 609.695C290.802 609.679 290.807 609.626 290.809 609.594C290.811 609.562 290.89 609.576 290.912 609.593C290.933 609.609 290.933 609.654 290.939 609.692Z" fill="#F2BD1E"></path> <path d="M237.321 619.599C236.663 620.843 235.616 621.837 234.339 622.427C233.339 622.812 232.268 622.975 231.198 622.907C230.168 622.82 229.187 622.429 228.377 621.785C227.111 620.986 226.087 619.853 225.418 618.512C225.183 618.111 225.031 617.667 224.971 617.206C224.911 616.745 224.944 616.276 225.069 615.829C225.266 615.127 225.39 614.406 225.44 613.677C225.563 612.368 226.885 611.827 227.629 610.896C228.646 609.616 230.172 609.693 231.565 609.342C231.685 609.319 231.889 609.213 231.905 609.236C232.751 610.655 234.494 609.221 235.403 610.36C236.139 611.277 237.527 611.657 237.897 612.761C238.446 614.051 238.562 615.484 238.225 616.843C237.829 617.728 237.526 618.651 237.321 619.599ZM227.934 614.451C227.742 615.517 227.71 616.606 227.839 617.681C227.967 617.857 228.092 617.782 228.251 617.72C228.409 617.659 228.597 617.756 228.64 618.015C228.776 618.451 229.015 618.848 229.336 619.173C229.657 619.497 230.051 619.74 230.484 619.881C231.219 619.92 231.95 619.762 232.602 619.423C233.254 619.084 233.804 618.576 234.193 617.952C234.365 617.618 234.562 617.28 234.31 616.908C234.057 616.537 234.153 616.033 234.162 615.598C234.074 615.055 233.858 614.541 233.531 614.098C233.205 613.655 232.778 613.297 232.286 613.052C231.501 612.875 230.684 612.912 229.919 613.158C229.154 613.404 228.469 613.85 227.934 614.451V614.451Z" fill="#FFFFFE"></path> <path d="M218.539 614.027C218.116 614.662 217.546 615.185 216.878 615.551C216.209 615.917 215.462 616.115 214.7 616.129C213.615 616.277 212.511 616.213 211.45 615.94C209.546 615.283 206.901 612.315 206.954 610.286C206.947 608.788 206.964 607.048 207.938 605.961C209.062 604.706 210.246 603.383 212.148 602.883C213.106 602.625 214.112 602.594 215.085 602.793C216.059 602.991 216.973 603.414 217.756 604.027C218.608 604.67 219.985 605.336 220.12 606.783C220.235 608.001 220.664 609.161 220.151 610.448C219.637 611.734 219.519 613.037 218.539 614.027ZM216.669 607.856C214.594 605.724 212.844 607.695 211.048 607.663C210.344 607.652 210.565 608.306 210.374 608.636C209.133 610.742 209.735 612.169 211.905 612.381C212.127 612.401 212.143 612.561 212.116 612.732C212.08 612.853 212.084 612.982 212.129 613.099C212.174 613.217 212.256 613.316 212.363 613.383C212.94 613.695 213.586 613.855 214.242 613.849C214.897 613.843 215.539 613.67 216.109 613.347C216.677 613.065 217.161 612.637 217.511 612.107C217.862 611.577 218.066 610.964 218.103 610.328C218.088 609.084 217.032 608.457 216.669 607.856V607.856Z" fill="#FFFFFE"></path> <path d="M222.904 621.893C223.835 622.596 224.673 623.228 224.356 624.222C224.11 625.036 223.584 625.737 222.871 626.2C221.543 626.893 220.083 627.298 218.587 627.389C217.103 627.514 215.369 625.651 215.153 624.086C215.034 623.295 214.374 622.684 214.364 621.794C214.353 620.904 214.283 620.275 214.913 619.947C215.226 619.84 215.563 619.824 215.885 619.903C216.207 619.981 216.5 620.15 216.729 620.39C217.28 620.862 217.752 621.467 217.371 622.276C216.887 623.313 217.87 623.66 218.3 624.051C218.973 624.661 220.033 624.228 220.847 624.243C221.394 624.237 221.467 623.071 221.624 622.454C221.995 621.343 222.294 621.139 222.904 621.893Z" fill="#E86367"></path> <path d="M218.737 596.789L218.616 596.799C218.638 596.728 218.667 596.659 218.703 596.593C218.703 596.593 218.741 596.543 218.815 596.565L218.737 596.789Z" fill="#183848"></path> <path d="M227.934 614.451C228.468 613.848 229.154 613.4 229.92 613.153C230.686 612.905 231.505 612.868 232.291 613.045C232.783 613.29 233.21 613.648 233.537 614.091C233.863 614.534 234.079 615.048 234.167 615.591C234.165 616.031 234.024 616.49 234.315 616.901C234.605 617.313 234.381 617.596 234.199 617.945C233.809 618.569 233.26 619.077 232.608 619.416C231.955 619.755 231.224 619.913 230.49 619.874C230.056 619.733 229.662 619.49 229.341 619.166C229.02 618.841 228.782 618.444 228.646 618.008C228.597 617.756 228.494 617.622 228.256 617.713C228.018 617.805 227.965 617.845 227.844 617.674C227.714 616.601 227.744 615.515 227.934 614.451V614.451Z" fill="#183848"></path> <path d="M216.669 607.855C217.025 608.451 218.08 609.078 218.081 610.357C218.044 610.992 217.84 611.605 217.489 612.136C217.139 612.666 216.655 613.093 216.087 613.376C215.517 613.699 214.875 613.871 214.22 613.877C213.565 613.884 212.918 613.723 212.341 613.411C212.234 613.345 212.152 613.245 212.107 613.128C212.063 613.01 212.058 612.881 212.094 612.761C212.127 612.582 212.1 612.437 211.883 612.409C209.713 612.197 209.111 610.77 210.352 608.665C210.58 608.361 210.315 607.675 211.026 607.691C212.851 607.7 214.589 605.731 216.669 607.855Z" fill="#183848"></path> </g> <defs> <clipPath id="clip0_166_206"> <rect width="350" height="803" fill="white"></rect> </clipPath> </defs> </svg> 