<?xml version="1.0" encoding="UTF-8"?> <svg xmlns="http://www.w3.org/2000/svg" width="932" height="836" viewBox="0 0 932 836" fill="none"> <path d="M305.103 637.021L263.845 627.727C263.611 635.853 254.668 648.627 254.434 656.753C254.278 662.491 261.246 675.732 261.246 675.732C257.43 677.117 253.859 679.097 250.665 681.599C242.632 688.817 243.308 702.811 250.665 710.626C258.022 718.441 267.771 718.544 277.962 713.819C286.671 709.795 294.21 707.484 298.604 698.943C301.047 694.191 298.188 674.875 295.328 662.387C292.806 650.989 305.025 640.994 305.103 637.021Z" fill="#C373E3"></path> <path d="M298.578 548.073C305.971 542.347 311.766 534.82 315.408 526.214C319.05 517.608 320.416 508.211 319.376 498.926C328.503 508.764 333.412 521.778 333.052 535.185C332.693 548.591 327.093 561.325 317.452 570.661" fill="#AE7461"></path> <path d="M127.854 587.77C123.461 607.917 123.876 630.609 136.147 647.199C144.44 658.441 157.361 665.658 170.879 669.163C184.52 672.216 198.559 673.093 212.475 671.76C230.129 671.075 247.586 667.803 264.287 662.05C281.034 656.206 295.884 645.942 307.261 632.348C318.632 618.603 324.115 600.933 322.521 583.175C320.519 565.676 309.523 549.008 293.482 541.842C282.652 537.442 270.776 536.278 259.296 538.493C247.893 540.74 236.77 544.222 226.123 548.878" fill="#C373E3"></path> <path d="M138.644 630.219C129.051 629.492 111.554 637.489 104.249 643.746C96.944 650.003 90.9386 656.571 89.0149 665.996C86.7791 676.978 89.0148 686.325 98.4518 691.777C107.889 697.229 121.563 694.633 126.763 685.156C129.363 680.639 129.674 675.109 132.794 671.033C136.304 666.463 142.257 664.724 147.795 663.244L171.426 656.857" fill="#C373E3"></path> <path d="M220.066 646.29C222.666 654.832 235.431 697.463 234.027 706.965C232.623 716.468 226.228 721.089 219.286 727.735C211.149 735.524 201.998 738.51 192.405 733.499C182.812 728.488 177.665 715.481 182.942 706.057C185.159 702.664 187.896 699.642 191.054 697.099C191.054 697.099 188.454 683.495 186.816 678.017C184.398 670.228 180.421 658.597 178.003 650.808" fill="#C373E3"></path> <path d="M305.519 597.948C308.639 600.414 309.289 616.122 320.026 620.925C331.724 626.117 348.909 635.438 351.222 640.241C355.408 648.887 352.756 656.286 350.728 665.685C348.389 676.667 342.513 684.3 331.776 685.546C321.04 686.792 309.445 678.951 308.379 668.177C308.289 664.133 308.851 660.1 310.043 656.234C310.043 656.234 288.517 654.235 284.046 650.678C277.676 645.486 275.284 639.514 273.179 625.338" fill="#C373E3"></path> <path d="M183.696 671.5C182.618 671.641 181.525 671.641 180.447 671.5C177.477 671.283 174.525 670.875 171.608 670.28C161.852 668.441 152.762 664.041 145.273 657.532C137.959 650.85 132.352 642.518 128.92 633.231C127.889 630.437 127.089 627.563 126.529 624.637C126.256 623.577 126.125 622.486 126.139 621.392C126.399 621.392 127.049 625.988 129.83 632.894C133.435 641.896 139.024 649.971 146.182 656.52C153.514 662.874 162.329 667.285 171.816 669.345C179.069 671.007 183.722 671.267 183.696 671.5Z" fill="#263238"></path> <path d="M190.17 689.674C187.32 682.906 184.889 675.969 182.891 668.904C180.423 661.991 178.382 654.933 176.781 647.77C179.64 654.535 182.071 661.472 184.06 668.54C186.533 675.452 188.574 682.51 190.17 689.674Z" fill="#263238"></path> <path d="M267.563 608.982C267.771 608.982 267.043 612.045 266.575 616.978C265.819 623.364 266.576 629.839 268.785 635.879C271.128 641.848 275.55 646.771 281.238 649.743C283.67 650.818 286.217 651.61 288.829 652.106C288.108 652.245 287.367 652.245 286.645 652.106C284.642 651.914 282.684 651.397 280.848 650.574C274.74 647.702 269.967 642.6 267.511 636.32C265.226 630.089 264.572 623.377 265.614 616.822C265.884 614.86 266.284 612.917 266.809 611.007C266.936 610.292 267.191 609.606 267.563 608.982V608.982Z" fill="#263238"></path> <path d="M309.367 589.665C309.237 589.873 307.261 588.757 303.83 587.692C299.346 586.33 294.636 585.871 289.973 586.342C285.318 586.856 280.806 588.267 276.689 590.496C273.543 592.262 271.853 593.768 271.697 593.586C272.92 591.99 274.46 590.664 276.221 589.691C280.343 587.097 285.006 585.482 289.852 584.974C294.698 584.465 299.596 585.075 304.168 586.758C306.075 587.377 307.842 588.365 309.367 589.665V589.665Z" fill="#263238"></path> <path d="M217.961 634.14C217.779 634.295 216.453 632.556 213.645 630.557C210.023 627.927 205.737 626.362 201.27 626.039C196.812 625.812 192.377 626.818 188.454 628.947C185.412 630.583 183.852 632.14 183.696 631.959C184.79 630.357 186.252 629.039 187.96 628.116C191.957 625.591 196.651 624.392 201.371 624.691C206.092 624.989 210.597 626.77 214.243 629.778C215.826 630.9 217.104 632.4 217.961 634.14Z" fill="#263238"></path> <path d="M229.035 522.422C223.371 487.211 207.717 454.36 183.93 427.762L158.947 424.387C147.986 423.66 137.008 425.524 126.904 429.827C116.799 434.131 107.853 440.752 100.791 449.155C93.2777 458.268 88.1042 469.328 79.4212 477.351C70.7381 485.373 58.3894 489.917 46.5867 493.292C45.5057 493.443 44.4701 493.825 43.5504 494.412C42.6307 494.999 41.8485 495.777 41.2573 496.693C40.8156 497.964 40.7613 499.337 41.1013 500.639C42.2252 507.245 44.742 513.536 48.485 519.096C52.2279 524.657 57.1115 529.359 62.8121 532.891C68.5126 536.424 74.8999 538.706 81.5506 539.587C88.2012 540.468 94.9634 539.927 101.389 538C104.638 537.039 108.148 535.715 111.346 536.857C114.165 538.255 116.421 540.572 117.741 543.426L131.936 566.792C133.292 569.611 135.478 571.948 138.201 573.491C142.074 575.152 146.494 573.491 150.342 571.647L220.976 539.376C223.304 538.534 225.411 537.176 227.137 535.403C230.127 531.95 229.737 526.888 229.035 522.422Z" fill="#AE7461"></path> <path d="M151.824 438.77C152.159 426.236 155.201 413.921 160.742 402.669C166.284 391.417 174.193 381.494 183.931 373.578C187.076 370.982 191.21 368.645 194.928 370.203C197.314 371.54 199.154 373.672 200.127 376.226C212.034 399.592 210.89 440.12 207.484 466.057" fill="#AE7461"></path> <path d="M87.3243 466.031C74.7149 450.928 67.4094 432.114 66.5266 412.47C66.3186 407.277 67.1245 401.176 71.726 398.814C75.0536 397.074 79.1092 398.113 82.6448 399.385C101.871 406.36 118.389 419.239 129.83 436.174" fill="#AE7461"></path> <path d="M135.185 466.135C136.662 465.875 138.181 465.999 139.596 466.493C141.011 466.987 142.276 467.836 143.269 468.958C144.262 470.08 144.95 471.438 145.267 472.901C145.584 474.365 145.52 475.885 145.08 477.317C144.641 478.748 143.841 480.043 142.756 481.078C141.672 482.112 140.341 482.852 138.888 483.225C137.436 483.598 135.913 483.593 134.463 483.21C133.014 482.827 131.687 482.079 130.61 481.038C129.646 479.942 128.957 478.633 128.598 477.22C128.239 475.806 128.222 474.328 128.547 472.906C128.871 471.484 129.529 470.16 130.467 469.041C131.404 467.923 132.593 467.042 133.937 466.472" fill="#263238"></path> <path d="M46.3009 511.725C52.3062 514.971 59.9234 514.503 66.5007 512.712C73.078 510.921 79.0834 505.728 80.0713 498.978C80.3865 497.399 80.2915 495.766 79.7955 494.234C79.2994 492.703 78.4188 491.324 77.2376 490.228C75.0075 488.743 72.3463 488.039 69.6724 488.229C59.8383 488.365 50.1915 490.934 41.5954 495.706C41.5954 495.706 35.902 506.091 46.3009 511.725Z" fill="#263238"></path> <path d="M140.385 590.834C112.619 590.834 85.4775 582.611 62.3913 567.206C39.3051 551.801 21.3116 529.905 10.6862 504.287C0.0608268 478.669 -2.71926 450.48 2.69752 423.284C8.1143 396.088 21.4847 371.107 41.1179 351.5C60.751 331.892 85.7652 318.54 112.997 313.13C140.229 307.721 168.456 310.497 194.108 321.108C219.76 331.72 241.685 349.689 257.111 372.745C272.536 395.8 280.77 422.906 280.77 450.635C280.896 482.532 270.006 513.497 249.937 538.311L247.909 536.702C267.623 512.33 278.311 481.912 278.17 450.583C278.17 423.368 270.089 396.764 254.949 374.135C239.809 351.507 218.29 333.87 193.113 323.455C167.936 313.04 140.232 310.315 113.504 315.625C86.7767 320.934 62.2257 334.039 42.9561 353.284C23.6865 372.528 10.5638 397.046 5.24729 423.738C-0.0691845 450.431 2.65942 478.098 13.0881 503.241C23.5167 528.385 41.177 549.875 63.8356 564.995C86.4943 580.115 113.134 588.186 140.385 588.186V590.834Z" fill="#E0E0E0"></path> <path d="M131.52 518.346C134.835 523.201 139.032 527.393 143.894 530.704C148.822 534.016 154.816 535.359 160.688 534.469C163.587 533.961 166.287 532.657 168.487 530.704C170.686 528.751 172.298 526.225 173.141 523.409C174.753 516.814 170.983 509.83 165.55 505.78C159.847 502.062 153.394 499.642 146.65 498.692" fill="#FF725E"></path> <path d="M57.9219 516.658C58.6367 517.911 59.2622 519.212 59.7937 520.553C61.828 523.949 64.4719 526.941 67.5928 529.38C72.2369 532.87 77.5443 535.379 83.1912 536.753C86.5074 537.615 89.8903 538.197 93.3041 538.493C96.9424 538.886 100.622 538.631 104.171 537.74C111.039 535.903 117.362 532.439 122.603 527.64C126.9 523.742 130.762 519.389 134.12 514.659C137.031 510.609 139.319 507.182 140.723 504.845C141.38 503.534 142.136 502.276 142.985 501.081C142.41 502.425 141.723 503.719 140.931 504.949C139.553 507.364 137.499 510.869 134.666 515.023C131.382 519.945 127.535 524.467 123.201 528.497C117.83 533.456 111.322 537.022 104.249 538.882C100.562 539.798 96.742 540.053 92.9661 539.635C89.4541 539.314 85.9754 538.697 82.5672 537.792C76.7893 536.344 71.3844 533.689 66.7089 530.003C63.6191 527.433 61.0737 524.273 59.2217 520.708C58.6727 519.398 58.2378 518.043 57.9219 516.658V516.658Z" fill="#263238"></path> <path d="M159.987 522.474C159.727 522.76 156.321 519.67 151.668 516.503C147.014 513.335 142.907 511.31 143.089 510.843C146.487 511.68 149.668 513.228 152.422 515.386C155.423 517.18 158.003 519.597 159.987 522.474V522.474Z" fill="#263238"></path> <path d="M146.442 445.105C145.298 446.585 140.541 444.897 135.159 445.443C129.778 445.988 125.358 448.324 123.981 447.052C123.331 446.429 123.695 444.716 125.488 442.846C127.952 440.47 131.158 439.012 134.57 438.714C137.982 438.416 141.393 439.298 144.232 441.211C146.312 442.742 146.988 444.352 146.442 445.105Z" fill="#263238"></path> <path d="M131.26 405.304C133.158 405.304 134.925 410.704 136.459 417.325C137.993 423.945 138.929 429.631 137.187 430.306C135.445 430.981 131.624 426.126 129.882 418.805C128.14 411.483 129.44 405.382 131.26 405.304Z" fill="#AE7461"></path> <path d="M142.621 395.698C144.389 396.477 143.193 403.019 142.413 410.86C141.633 418.701 141.347 425.347 139.475 425.737C138.565 425.893 137.395 424.309 136.538 421.479C134.588 414.033 135.42 406.133 138.877 399.255C140.385 396.658 141.789 395.36 142.621 395.698Z" fill="#AE7461"></path> <path d="M148.549 415.793C149.718 417.273 148.549 420.181 146.599 422.959C144.649 425.737 142.335 427.84 140.541 427.269C138.748 426.698 138.488 422.751 141.061 419.09C143.635 415.43 147.431 414.339 148.549 415.793Z" fill="#AE7461"></path> <path d="M176.781 441.678C170.204 432.305 169.762 419.662 173.09 408.731C176.417 397.801 183.125 388.195 190.014 379.056C195.993 389.129 200.257 400.657 199.451 412.34C198.645 424.023 189.052 437.576 178.133 442.016" fill="#6F4439"></path> <path d="M126.867 430.177C126.867 430.384 123.851 431.63 119.068 434.227C106.827 441.046 96.6386 451.015 89.5608 463.097C86.9611 467.719 85.5572 470.886 85.3232 470.704C85.4602 469.925 85.6961 469.166 86.0252 468.446C86.7628 466.452 87.6313 464.509 88.6249 462.63C95.3735 450.07 105.805 439.869 118.522 433.396C120.417 432.394 122.38 431.526 124.397 430.8C125.173 430.437 126.011 430.225 126.867 430.177V430.177Z" fill="#263238"></path> <path d="M256.879 543.608L125.463 603.685C124.213 604.262 122.861 604.585 121.485 604.636C120.109 604.687 118.737 604.464 117.448 603.981C116.159 603.498 114.979 602.764 113.976 601.822C112.973 600.88 112.168 599.748 111.606 598.493C111.033 597.246 110.712 595.898 110.664 594.527C110.615 593.156 110.839 591.788 111.322 590.504C111.806 589.22 112.539 588.044 113.48 587.044C114.422 586.045 115.552 585.242 116.806 584.681L248.247 524.603C249.496 524.03 250.846 523.71 252.219 523.662C253.592 523.613 254.961 523.837 256.247 524.32C257.533 524.802 258.71 525.535 259.711 526.475C260.712 527.415 261.516 528.543 262.078 529.796C262.651 531.042 262.972 532.39 263.02 533.762C263.069 535.133 262.845 536.5 262.362 537.784C261.878 539.068 261.145 540.244 260.204 541.244C259.263 542.243 258.132 543.047 256.879 543.608Z" fill="#E0E0E0"></path> <path d="M353.562 531.198C353.328 531.198 353.562 528.965 353.562 525.434C353.486 520.842 352.606 516.3 350.962 512.011C349.295 507.724 346.903 503.755 343.891 500.276C341.577 497.68 339.835 496.226 339.991 496.044C341.737 496.939 343.298 498.154 344.593 499.627C347.91 503.034 350.5 507.078 352.207 511.514C353.914 515.949 354.702 520.685 354.524 525.434C354.57 527.398 354.244 529.354 353.562 531.198V531.198Z" fill="#263238"></path> <path d="M365.078 521.565C364.844 521.565 365.078 519.67 365.078 516.658C364.982 512.766 364.097 508.933 362.479 505.39C360.811 501.866 358.461 498.707 355.563 496.096C353.302 494.123 351.638 493.188 351.768 492.98C353.399 493.423 354.904 494.241 356.161 495.369C359.38 497.886 361.959 501.125 363.69 504.824C365.42 508.523 366.252 512.578 366.118 516.658C366.156 518.352 365.8 520.032 365.078 521.565V521.565Z" fill="#263238"></path> <path d="M294.003 501.237C294.799 498.189 296.638 495.515 299.202 493.681C301.503 491.5 304.509 490.211 307.677 490.047C305.045 491.448 302.501 493.008 300.06 494.72C297.922 496.778 295.9 498.954 294.003 501.237V501.237Z" fill="#263238"></path> <path d="M285.684 490.462C287.623 487.513 290.211 485.045 293.249 483.244C296.037 481.091 299.269 479.584 302.712 478.831C302.868 479.194 298.682 481.167 294.003 484.361C289.323 487.554 285.97 490.696 285.684 490.462Z" fill="#263238"></path> <path d="M763.298 304.84L619.096 297.015C583.068 295.06 552.274 322.643 550.317 358.624L543.306 487.495C541.348 523.475 568.968 554.228 604.996 556.182L749.198 564.007C785.226 565.962 816.019 538.379 817.977 502.398L824.988 373.528C826.946 337.547 799.326 306.795 763.298 304.84Z" fill="#C373E3"></path> <path d="M688.484 560.795H690.928C693.298 560.845 695.67 560.733 698.025 560.458C707.177 559.622 716.043 556.833 724.022 552.279C736.7 545.145 746.586 533.935 752.073 520.475C752.927 518.512 753.639 516.49 754.205 514.426C754.883 512.328 755.413 510.185 755.791 508.013C756.187 505.721 756.43 503.405 756.519 501.081C756.805 498.796 756.831 496.407 756.987 494.019C757.507 484.447 758.044 474.331 758.598 463.668C759.716 442.405 760.964 419.09 762.29 394.088C762.619 387.84 762.957 381.488 763.304 375.032C763.897 368.521 763.67 361.962 762.628 355.508C760.229 342.028 753.622 329.651 743.754 320.146C733.374 310.141 719.92 303.922 705.564 302.492C701.951 302.025 698.207 301.999 694.489 301.739L683.285 301.142L660.511 299.922L565.647 294.729C549.827 293.91 534.254 298.903 521.869 308.766C509.483 318.629 501.141 332.679 498.418 348.264C497.275 355.715 497.223 363.4 496.729 370.878C496.235 378.355 495.897 385.832 495.507 393.206C494.709 407.918 493.912 422.31 493.115 436.382C492.318 450.453 491.564 464.153 490.853 477.481C490.267 483.995 490.319 490.552 491.009 497.057C491.891 503.326 493.641 509.442 496.209 515.23C498.797 520.763 502.129 525.917 506.114 530.549C509.972 535.006 514.435 538.903 519.372 542.128L521.14 543.348L523.038 544.387C524.286 545.062 525.508 545.789 526.781 546.438C529.317 547.622 531.921 548.654 534.581 549.527L538.532 550.773L542.536 551.63C545.153 552.159 547.802 552.523 550.465 552.721L651.334 558.458L678.735 560.068L685.884 560.535L688.302 560.717H685.858L678.735 560.406L651.308 559.03L550.413 553.837C547.698 553.64 544.998 553.275 542.328 552.747L538.272 551.89L534.269 550.644C531.566 549.752 528.919 548.703 526.339 547.502C525.066 546.853 523.74 546.126 522.544 545.451L520.62 544.387L518.8 543.166C513.794 539.889 509.263 535.94 505.334 531.431C501.266 526.725 497.863 521.483 495.221 515.854C492.558 510.001 490.729 503.805 489.787 497.446C489.063 490.874 489.002 484.246 489.605 477.662C490.299 464.318 491.035 450.618 491.815 436.563C492.595 422.509 493.366 408.108 494.129 393.361C494.519 385.988 494.935 378.563 495.325 371.059C495.715 363.556 495.871 355.949 497.041 348.264C499.843 332.38 508.365 318.068 521.003 308.025C533.64 297.982 549.519 292.902 565.647 293.742L660.511 298.935L683.259 300.181L694.489 300.778C698.233 301.038 701.899 301.09 705.616 301.557C720.283 302.998 734.029 309.358 744.612 319.601C754.659 329.287 761.376 341.903 763.798 355.638C764.85 362.178 765.077 368.824 764.474 375.421C764.11 381.886 763.772 388.247 763.408 394.504C762.03 419.506 760.808 442.794 759.56 464.058C758.971 474.703 758.399 484.819 757.845 494.408C757.689 496.797 757.663 499.16 757.351 501.496C757.176 503.799 756.854 506.088 756.389 508.35C756.002 510.548 755.463 512.717 754.777 514.841C754.182 516.92 753.453 518.958 752.593 520.942C746.964 534.532 736.882 545.81 723.996 552.928C715.95 557.429 707.033 560.156 697.843 560.925C695.477 561.165 693.095 561.226 690.72 561.107L688.484 560.795Z" fill="#263238"></path> <path d="M792.134 550.41C790 549.43 787.956 548.266 786.025 546.931C782.307 544.724 777.108 541.738 771.181 538.909C765.253 536.079 759.742 533.716 755.582 532.184C753.349 531.497 751.175 530.629 749.083 529.588C751.42 529.925 753.713 530.517 755.92 531.353C761.308 533.139 766.571 535.282 771.675 537.766C776.774 540.242 781.698 543.062 786.415 546.204C788.469 547.395 790.386 548.805 792.134 550.41V550.41Z" fill="#263238"></path> <path d="M814.232 330.506C814.232 330.739 811.034 330.506 805.939 330.506C792.601 330.664 779.506 334.087 767.801 340.475C763.33 343.072 760.73 344.759 760.6 344.577C760.47 344.396 761.146 343.98 762.29 343.098C763.891 341.843 765.576 340.698 767.333 339.671C773.122 336.196 779.383 333.573 785.921 331.882C792.451 330.173 799.191 329.395 805.939 329.571C807.984 329.628 810.023 329.801 812.048 330.09C812.793 330.115 813.53 330.255 814.232 330.506V330.506Z" fill="#263238"></path> <path d="M748.719 566.766C750.227 588.16 772.117 603.114 792.759 598.363C813.4 593.612 826.711 571.699 824.111 551.059C822.555 538.586 816.841 526.999 807.889 518.164C801.988 512.245 792.785 521.436 798.712 527.355C809.319 537.948 815.532 555.187 808.565 569.467C802.508 581.929 787.767 590.86 774.223 583.98C770.806 582.434 767.841 580.04 765.612 577.028C763.382 574.015 761.961 570.482 761.484 566.766C761.451 565.055 760.755 563.424 759.544 562.214C758.332 561.004 756.698 560.309 754.985 560.276C753.265 560.289 751.62 560.978 750.404 562.192C749.188 563.406 748.499 565.049 748.485 566.766H748.719Z" fill="#C373E3"></path> <path d="M498.054 336.088C498.054 336.088 436.753 309.294 415.331 284.63C393.909 259.965 345.268 209.649 330.554 218.087C315.84 226.525 327.148 241.454 328.968 247.165C330.788 252.877 348.57 266.741 348.57 266.741C348.57 266.741 332.14 267.286 334.064 284.474C334.064 284.474 316.074 287.771 323.119 302.388C323.119 302.388 307.001 307.918 317.919 326.3C328.838 344.681 386.24 401.903 424.508 417.507C462.776 433.11 489.241 433.084 489.241 433.084L498.054 336.088Z" fill="#E0E0E0"></path> <path d="M349.766 269.026C350.81 269.103 351.832 269.367 352.782 269.805C355.429 270.878 357.866 272.407 359.983 274.322C363.153 277.182 365.527 280.814 366.872 284.863C367.695 287.265 368.031 289.807 367.86 292.34C367.714 295.127 366.696 297.796 364.949 299.973C364.078 301.082 362.995 302.006 361.763 302.693C360.532 303.379 359.175 303.814 357.773 303.972C355.192 304.118 352.618 303.581 350.312 302.414C346.506 300.549 343.092 297.976 340.251 294.833C338.331 292.751 336.688 290.429 335.364 287.927C334.822 287.032 334.419 286.06 334.168 285.045C336.095 288.317 338.37 291.373 340.953 294.158C343.803 297.107 347.158 299.525 350.858 301.298C352.976 302.322 355.321 302.787 357.669 302.648C358.897 302.505 360.083 302.119 361.159 301.513C362.234 300.907 363.178 300.092 363.935 299.117C365.348 297.124 366.249 294.815 366.557 292.392C366.866 289.97 366.572 287.509 365.703 285.227C364.473 281.344 362.282 277.835 359.333 275.023C356.542 272.452 353.298 270.419 349.766 269.026V269.026Z" fill="#263238"></path> <path d="M353.562 301.947C353.996 302.471 354.291 303.096 354.42 303.764C354.901 305.541 354.901 307.414 354.42 309.19C353.698 311.856 352.118 314.21 349.922 315.889C347.154 317.864 343.77 318.785 340.381 318.485C337.033 318.245 333.822 317.056 331.126 315.058C328.954 313.464 327.094 311.484 325.641 309.216C324.652 307.71 323.832 306.099 323.197 304.413C322.903 303.822 322.735 303.177 322.703 302.518C322.937 302.518 323.847 305.114 326.421 308.671C327.919 310.744 329.745 312.559 331.828 314.045C334.379 315.842 337.372 316.911 340.485 317.135C343.556 317.392 346.623 316.585 349.168 314.85C351.202 313.381 352.735 311.324 353.562 308.957C354.194 306.663 354.194 304.241 353.562 301.947Z" fill="#263238"></path> <path d="M341.447 317.55C342.973 318.804 343.997 320.564 344.333 322.509C344.879 324.586 344.879 326.768 344.333 328.844C343.58 331.401 342.034 333.653 339.917 335.277C337.801 336.9 335.224 337.812 332.556 337.879C330.399 337.892 328.277 337.346 326.394 336.295C323.197 334.452 322.235 332.245 322.365 332.219C323.726 333.461 325.227 334.541 326.836 335.439C328.615 336.274 330.565 336.683 332.53 336.633C334.91 336.518 337.197 335.675 339.081 334.218C340.983 332.771 342.398 330.778 343.137 328.507C343.708 326.63 343.815 324.644 343.449 322.717C342.994 320.92 342.322 319.185 341.447 317.55V317.55Z" fill="#263238"></path> <path d="M381.56 327.416C376.569 327.138 371.562 327.504 366.664 328.507C361.878 329.944 357.305 332.013 353.067 334.66C353.067 334.53 354.107 333.258 356.395 331.648C359.418 329.59 362.779 328.078 366.326 327.183C369.874 326.289 373.551 326.017 377.193 326.378C378.706 326.407 380.196 326.761 381.56 327.416V327.416Z" fill="#263238"></path> <path d="M384.55 393.543C384.888 392.183 385.34 390.855 385.902 389.571C386.864 386.975 388.345 383.418 390.295 378.978C395.39 367.417 401.127 356.149 407.479 345.226C413.828 334.331 420.771 323.791 428.277 313.656C431.189 309.787 433.607 306.698 435.322 304.621C436.17 303.498 437.109 302.448 438.13 301.479C437.422 302.698 436.623 303.861 435.738 304.958C434.152 307.113 431.839 310.151 429.057 314.227C423.468 322.016 416.058 333.18 408.597 345.927C401.136 358.675 395.209 370.566 391.127 379.316C389.073 383.703 387.436 387.26 386.344 389.701C385.853 391.029 385.253 392.314 384.55 393.543V393.543Z" fill="#263238"></path> <path d="M382.315 263.34C374.509 265.141 367.472 269.36 362.211 275.394C356.949 281.427 353.731 288.967 353.016 296.936C352.6 303.011 353.952 309.606 358.397 313.734C362.843 317.862 370.954 318.251 374.567 313.344C378.623 307.892 375.503 299.298 379.767 293.924C379.51 296.915 380.137 299.915 381.571 302.554C383.005 305.192 385.182 307.352 387.833 308.767C390.484 310.182 393.492 310.789 396.485 310.514C399.478 310.238 402.325 309.092 404.672 307.217" fill="#E0E0E0"></path> <path d="M404.568 307.217C404.568 307.217 404.438 307.399 404.1 307.684C403.61 308.101 403.079 308.467 402.514 308.775C400.373 310.014 397.967 310.725 395.495 310.852C391.584 311.088 387.731 309.814 384.732 307.295C382.81 305.651 381.299 303.581 380.32 301.251C379.34 298.92 378.919 296.394 379.091 293.872L380.131 294.288C378.743 296.379 377.968 298.816 377.895 301.324C377.777 304.147 377.455 306.958 376.933 309.736C376.559 311.241 375.897 312.661 374.983 313.916C373.982 315.186 372.664 316.171 371.162 316.771C368.074 317.937 364.654 317.862 361.621 316.564C359.388 315.499 357.442 313.92 355.941 311.957C354.44 309.993 353.429 307.701 352.99 305.27C352.042 300.876 352.087 296.326 353.12 291.951C354.851 284.573 358.7 277.86 364.194 272.635C367.847 269.119 372.194 266.404 376.959 264.664C378.247 264.197 379.568 263.823 380.911 263.548C381.367 263.415 381.839 263.345 382.314 263.34C381.898 263.561 381.451 263.719 380.989 263.807C379.681 264.184 378.397 264.635 377.141 265.157C372.543 267.049 368.365 269.828 364.844 273.336C359.634 278.509 356.024 285.071 354.445 292.237C353.496 296.424 353.496 300.771 354.445 304.958C354.835 307.18 355.745 309.279 357.1 311.083C358.455 312.888 360.218 314.348 362.245 315.343C364.941 316.52 367.989 316.604 370.746 315.577C372.021 315.045 373.146 314.208 374.021 313.14C374.896 312.071 375.494 310.804 375.763 309.45C376.287 306.742 376.617 304 376.751 301.246C376.881 298.508 377.782 295.862 379.351 293.613L380.573 292.055L380.417 294.028C380.252 296.385 380.636 298.748 381.538 300.933C382.44 303.117 383.836 305.064 385.616 306.62C388.403 309.046 392.008 310.326 395.703 310.203C398.097 310.16 400.45 309.583 402.592 308.515C403.814 307.71 404.516 307.139 404.568 307.217Z" fill="#263238"></path> <path d="M458.538 316.174C440.738 347.117 427.491 380.458 419.204 415.17L435.452 421.687L472.862 323.911L458.538 316.174Z" fill="#C373E3"></path> <path d="M484.64 377.394L456.797 502.457L536.816 589.198L588.447 596.598L720.123 539.038L729.3 370.281L705.642 351.535L498.054 336.088L484.64 377.394Z" fill="#E0E0E0"></path> <path d="M722.722 502.119H720.122L712.531 501.86C705.928 501.6 696.387 501.081 684.636 500.276C661.083 498.692 628.612 495.655 592.944 490.514C557.276 485.373 525.351 479.09 502.24 473.95C490.723 471.353 481.442 469.199 475.047 467.563L467.689 465.694L465.792 465.148L465.142 464.941C465.366 464.906 465.594 464.906 465.818 464.941L467.741 465.33L475.177 466.992C481.598 468.446 490.775 470.497 502.448 472.937C525.507 477.844 557.536 483.945 593.152 489.112C628.768 494.279 661.187 497.42 684.688 499.263C696.439 500.172 705.98 500.847 712.557 501.237L720.122 501.756L722.098 501.938C722.312 501.975 722.521 502.035 722.722 502.119V502.119Z" fill="#263238"></path> <path d="M552.232 708.938L427.004 752.919C428.2 757.255 432.203 768.497 435.479 771.638C438.755 774.78 444.552 775.663 447.542 772.314C449.206 770.496 449.777 767.692 451.883 766.394C454.795 764.603 458.409 766.732 461.736 767.458C464.007 767.927 466.365 767.727 468.525 766.884C470.684 766.041 472.552 764.59 473.903 762.707C475.931 759.825 477.049 755.697 480.428 754.918C483.808 754.14 486.694 756.866 489.813 758.216C492.211 759.162 494.856 759.286 497.331 758.567C499.807 757.848 501.973 756.327 503.488 754.243C506.217 750.297 506.815 744.248 511.287 742.586C516.252 740.769 521.218 746.117 526.521 745.831C531.331 745.546 534.528 740.899 536.92 736.771C539.312 732.642 542.769 728.021 547.579 727.995C549.996 728.297 552.363 728.908 554.624 729.813C555.768 730.237 557.016 730.295 558.195 729.979C559.374 729.662 560.425 728.987 561.201 728.047C562.787 725.451 554.338 712.625 552.232 708.938Z" fill="#263238"></path> <path d="M474.527 495.551C471.615 496.693 385.304 522.163 387.8 593.794C390.296 665.425 444.734 724.36 444.734 724.36C444.734 724.36 420.817 738.224 427.004 752.919C433.451 768.263 551.505 709.717 551.505 709.717C551.505 709.717 525.507 672.928 520.152 631.128C514.797 589.328 543.887 580.527 543.887 580.527L553.74 534.131L474.527 495.551Z" fill="#E0E0E0"></path> <path d="M460.826 720.284C460.826 720.699 456.563 721.063 451.571 722.647C446.58 724.23 442.81 726.281 442.576 725.918C444.999 723.689 447.952 722.116 451.155 721.349C454.233 720.166 457.565 719.8 460.826 720.284V720.284Z" fill="#263238"></path> <path d="M518.566 644.136C517.139 644.476 515.687 644.701 514.224 644.811C511.416 645.148 507.335 645.719 502.343 646.498C476.257 650.521 450.791 657.85 426.562 668.307C421.908 670.306 418.164 671.994 415.591 673.188C414.288 673.877 412.932 674.458 411.535 674.927C412.756 674.103 414.033 673.366 415.357 672.72C417.956 671.37 421.544 669.553 426.172 667.528C438.218 662.045 450.652 657.455 463.374 653.794C476.105 650.139 489.086 647.414 502.213 645.641C507.231 644.992 511.338 644.577 514.172 644.395C515.627 644.188 517.096 644.101 518.566 644.136V644.136Z" fill="#263238"></path> <path d="M538.142 581.384C537.819 581.025 537.548 580.623 537.336 580.189L535.282 576.71C533.514 573.673 530.941 569.259 527.483 563.988C520.724 553.603 510.533 539.012 495.038 527.641C487.754 522.4 479.631 518.432 471.017 515.906C463.985 513.839 456.657 512.962 449.335 513.309C444.395 513.508 439.506 514.382 434.803 515.906C431.501 517.022 429.734 517.853 429.604 517.723C429.987 517.442 430.406 517.215 430.851 517.048C432.062 516.414 433.313 515.859 434.595 515.386C439.294 513.631 444.225 512.573 449.231 512.245C456.672 511.764 464.139 512.572 471.303 514.633C480.088 517.155 488.372 521.169 495.792 526.498C503.109 531.904 509.713 538.211 515.446 545.269C520.129 551.022 524.403 557.095 528.237 563.443C531.539 568.818 534.008 573.309 535.646 576.425C536.452 577.982 537.05 579.203 537.466 580.033C537.745 580.454 537.972 580.908 538.142 581.384V581.384Z" fill="#263238"></path> <path d="M519.658 617.16C519.658 617.16 442.29 571.803 388.242 601.141L387.8 587.355C404.227 579.851 422.185 576.295 440.236 576.97C470.731 577.956 521.529 605.01 521.529 605.01L519.658 617.16Z" fill="#C373E3"></path> <path d="M802.273 719.505L723.268 826.186C726.309 828.782 732.653 835.351 736.734 835.87C740.816 836.39 746.665 835.299 747.471 830.989C747.913 828.601 747.029 826.108 748.095 823.876C749.551 820.812 753.45 820.371 756.466 818.995C758.528 817.999 760.296 816.484 761.595 814.6C762.894 812.715 763.68 810.525 763.875 808.246C764.109 804.845 763.017 801.002 765.305 798.354C767.593 795.706 771.206 796.225 774.326 795.446C776.757 794.718 778.914 793.28 780.521 791.319C782.128 789.358 783.113 786.962 783.347 784.438C783.633 779.817 781.215 774.806 783.997 770.886C786.779 766.965 793.616 767.848 797.698 764.551C801.779 761.253 801.701 756.087 801.701 751.569C801.701 747.052 802.169 741.418 806.017 738.588C808.061 737.464 810.235 736.592 812.49 735.992C813.639 735.626 814.663 734.945 815.444 734.027C816.225 733.109 816.733 731.991 816.91 730.799C816.884 727.865 802.273 719.505 802.273 719.505Z" fill="#263238"></path> <path d="M716.222 514.374C730.001 595.611 756.986 665.84 802.663 720.44L723.268 826.186C723.268 826.186 711.205 821.331 711.283 809.025C711.283 795.291 719.316 779.453 719.316 779.453C663.578 730.124 622.71 666.489 591.93 593.249L710.633 516.191" fill="#E0E0E0"></path> <path d="M738.788 762.448C739.022 762.811 733.25 766.082 727.401 771.639C721.552 777.195 717.834 782.673 717.496 782.439C722.151 773.582 729.649 766.542 738.788 762.448V762.448Z" fill="#263238"></path> <path d="M676.993 731.422C678.038 730.466 679.159 729.598 680.347 728.826L689.706 722.283C697.505 716.779 708.476 709.094 720.279 700.371C732.081 691.647 742.636 683.495 750.227 677.576L759.118 670.618C760.177 669.702 761.317 668.885 762.524 668.177C761.575 669.205 760.55 670.16 759.456 671.033C757.429 672.798 754.439 675.317 750.721 678.38C743.286 684.508 732.835 692.79 720.98 701.539C709.126 710.289 698.181 717.844 690.122 723.166C686.118 725.762 682.817 727.917 680.529 729.345C679.416 730.143 678.232 730.839 676.993 731.422V731.422Z" fill="#263238"></path> <path d="M589.59 593.43C589.807 592.962 590.059 592.511 590.344 592.08C590.968 591.12 591.774 589.873 592.736 588.342C595.76 583.844 599.023 579.511 602.51 575.36C607.684 569.128 613.515 563.47 619.903 558.484C627.77 552.43 636.353 547.363 645.458 543.4C654.565 539.484 663.949 536.247 673.535 533.716C681.457 531.97 689.547 531.099 697.66 531.12C703.114 531.034 708.566 531.399 713.961 532.21C715.434 532.442 716.893 532.763 718.328 533.171C718.832 533.275 719.321 533.44 719.784 533.664C719.784 533.794 717.704 533.223 713.883 532.755C708.508 532.135 703.094 531.909 697.686 532.08C689.665 532.157 681.674 533.08 673.847 534.832C664.349 537.411 655.044 540.655 646.004 544.542C636.998 548.467 628.49 553.443 620.657 559.367C614.3 564.262 608.464 569.795 603.238 575.879C598.767 581.072 595.439 585.512 593.177 588.627L590.578 592.21C590.306 592.66 589.974 593.071 589.59 593.43Z" fill="#263238"></path> <path d="M738.502 596.753L628.118 665.607L637.763 679.704L744.742 611.578L738.502 596.753Z" fill="#C373E3"></path> <path d="M675.412 375.556L558.827 362.887C546.865 361.587 536.114 370.217 534.812 382.163L525.048 471.776C523.747 483.722 532.388 494.459 544.35 495.759L660.935 508.428C672.896 509.728 683.648 501.098 684.949 489.152L694.713 399.539C696.015 387.593 687.373 376.856 675.412 375.556Z" fill="#263238"></path> <path d="M513.475 379.85L503.584 470.625C502.283 482.57 510.924 493.308 522.885 494.608L639.471 507.277C651.432 508.576 662.184 499.946 663.485 488.001L673.376 397.226C674.677 385.28 666.036 374.543 654.074 373.243L537.489 360.574C525.528 359.274 514.776 367.904 513.475 379.85Z" fill="#E0E0E0"></path> <path d="M639.531 507.312C641.398 507.387 643.268 507.3 645.12 507.052C649.684 506.321 653.892 504.149 657.13 500.855C660.367 497.561 662.463 493.319 663.11 488.748C663.604 484.543 664.046 479.921 664.592 474.962C665.632 465.07 666.828 453.803 668.154 441.367L672.495 400.631C672.703 398.814 672.937 396.944 672.989 395.153C672.998 393.314 672.771 391.482 672.313 389.701C671.363 385.968 669.406 382.567 666.656 379.866C663.906 377.166 660.468 375.269 656.715 374.383C654.75 373.982 652.762 373.705 650.762 373.552L644.6 372.877L537.388 361.271C532.798 360.785 528.175 361.811 524.223 364.192C520.272 366.573 517.207 370.179 515.498 374.461C514.658 376.559 514.149 378.775 513.99 381.029C513.73 383.34 513.496 385.624 513.236 387.883C512.751 392.453 512.257 396.97 511.755 401.436C509.779 419.35 507.881 436.641 506.087 453.102C505.619 457.204 505.177 461.28 504.735 465.278C504.034 469.142 503.911 473.088 504.371 476.987C505.09 480.636 506.748 484.035 509.182 486.848C511.616 489.662 514.743 491.793 518.254 493.032C521.711 493.97 525.258 494.545 528.835 494.746L539.234 495.888L558.784 498.069L617.823 504.69L633.838 506.585L638.023 507.104C638.959 507.104 639.427 507.312 639.427 507.312C639.427 507.312 638.933 507.312 637.997 507.312L633.812 506.922L617.745 505.313L558.68 499.108L539.13 497.005L528.731 495.888L523.375 495.317C522.492 495.317 521.556 495.057 520.62 494.928C519.684 494.798 518.8 494.486 518.02 494.175C514.307 492.884 510.997 490.644 508.42 487.679C505.843 484.713 504.089 481.126 503.332 477.273C502.976 475.277 502.88 473.244 503.046 471.224C503.202 469.199 503.462 467.225 503.644 465.226C504.085 461.202 504.527 457.152 504.969 453.024C506.763 436.563 508.635 419.272 510.559 401.384C511.044 396.901 511.538 392.383 512.041 387.831C512.275 385.547 512.535 383.262 512.769 380.977C512.962 378.603 513.496 376.268 514.354 374.045C516.183 369.475 519.462 365.63 523.687 363.098C527.913 360.566 532.853 359.486 537.752 360.025L644.99 371.734L651.126 372.409C653.18 372.567 655.221 372.862 657.235 373.292C662.127 374.51 666.466 377.336 669.555 381.315C672.644 385.295 674.302 390.196 674.263 395.231C674.263 397.178 673.951 398.995 673.743 400.839C672.131 415.456 670.624 429.086 669.22 441.548C667.816 454.01 666.62 465.226 665.476 475.118C664.904 480.077 664.436 484.672 663.864 488.904C663.182 493.573 661.006 497.897 657.66 501.229C654.315 504.561 649.98 506.722 645.302 507.39C644.495 507.528 643.678 507.597 642.859 507.597C642.27 507.64 641.679 507.64 641.091 507.597L639.531 507.312Z" fill="#263238"></path> <path d="M584.937 402.578C584.666 407.71 582.876 412.647 579.794 416.763C576.712 420.878 572.476 423.988 567.623 425.697C562.769 427.406 557.517 427.639 552.532 426.365C547.546 425.091 543.051 422.368 539.616 418.541C536.182 414.714 533.962 409.955 533.237 404.867C532.513 399.778 533.317 394.59 535.548 389.958C537.779 385.327 541.336 381.461 545.768 378.85C550.201 376.239 555.31 375 560.448 375.291C567.313 375.68 573.745 378.77 578.335 383.884C582.925 388.998 585.299 395.72 584.937 402.578V402.578Z" fill="#263238"></path> <path d="M558.94 428.385H557.432C550.081 428.187 543.104 425.106 538.01 419.81C532.917 414.513 530.116 407.426 530.215 400.083C530.315 392.74 533.305 385.731 538.54 380.573C543.774 375.415 550.832 372.523 558.186 372.523C565.54 372.523 572.597 375.415 577.832 380.573C583.067 385.731 586.057 392.74 586.156 400.083C586.255 407.426 583.455 414.513 578.362 419.81C573.268 425.106 566.291 428.187 558.94 428.385V428.385ZM558.94 376.46C554.123 376.462 549.413 377.873 545.391 380.52C541.37 383.166 538.212 386.931 536.31 391.35C534.407 395.769 533.843 400.647 534.687 405.383C535.53 410.119 537.745 414.504 541.056 417.996C544.368 421.488 548.632 423.935 553.321 425.034C558.01 426.133 562.918 425.836 567.44 424.179C571.962 422.522 575.898 419.578 578.763 415.712C581.627 411.845 583.295 407.225 583.559 402.422V402.422C583.738 399.182 583.274 395.937 582.193 392.876C581.113 389.815 579.437 386.997 577.263 384.585C575.089 382.172 572.459 380.213 569.524 378.818C566.589 377.424 563.408 376.622 560.162 376.46H558.94Z" fill="#263238"></path> <path d="M575.422 402.059C575.156 407.193 573.37 412.132 570.291 416.251C567.212 420.37 562.977 423.484 558.124 425.197C553.271 426.911 548.018 427.147 543.03 425.875C538.043 424.604 533.545 421.883 530.108 418.057C526.671 414.23 524.448 409.471 523.722 404.382C522.996 399.293 523.799 394.103 526.029 389.47C528.259 384.837 531.816 380.969 536.25 378.358C540.683 375.746 545.793 374.507 550.932 374.798C557.793 375.187 564.221 378.273 568.81 383.381C573.399 388.49 575.776 395.205 575.422 402.059V402.059Z" fill="#C373E3"></path> <path d="M580.049 464.058C579.779 469.189 577.99 474.125 574.909 478.24C571.828 482.356 567.594 485.465 562.742 487.176C557.89 488.886 552.639 489.12 547.654 487.849C542.669 486.577 538.174 483.857 534.738 480.032C531.302 476.208 529.079 471.451 528.352 466.364C527.625 461.278 528.425 456.09 530.652 451.457C532.878 446.825 536.431 442.957 540.861 440.343C545.29 437.728 550.397 436.485 555.534 436.771C562.404 437.153 568.843 440.24 573.438 445.355C578.034 450.47 580.411 457.196 580.049 464.058V464.058Z" fill="#263238"></path> <path d="M554.156 489.839H552.648C548.184 489.571 543.854 488.21 540.042 485.875C536.229 483.541 533.05 480.305 530.786 476.453C528.522 472.602 527.243 468.253 527.06 463.79C526.877 459.328 527.797 454.889 529.739 450.866C531.681 446.842 534.584 443.358 538.193 440.721C541.803 438.083 546.006 436.374 550.434 435.743C554.861 435.112 559.376 435.579 563.58 437.103C567.783 438.627 571.547 441.162 574.538 444.482C576.938 447.131 578.785 450.231 579.973 453.601C581.16 456.971 581.663 460.543 581.453 464.11C581.073 471.076 578.029 477.629 572.949 482.418C567.869 487.206 561.141 489.863 554.156 489.839V489.839ZM554.156 438.043C547.799 438.224 541.769 440.896 537.369 445.482C532.969 450.068 530.553 456.198 530.644 462.549C530.734 468.899 533.324 474.959 537.853 479.418C542.381 483.876 548.485 486.376 554.845 486.376C561.204 486.376 567.308 483.876 571.837 479.418C576.366 474.959 578.955 468.899 579.046 462.549C579.136 456.198 576.72 450.068 572.321 445.482C567.921 440.896 561.891 438.224 555.534 438.043H554.156Z" fill="#263238"></path> <path d="M570.639 463.539C570.373 468.672 568.587 473.612 565.508 477.731C562.428 481.85 558.194 484.964 553.341 486.677C548.488 488.39 543.235 488.626 538.247 487.355C533.26 486.084 528.762 483.363 525.325 479.536C521.888 475.71 519.665 470.951 518.939 465.862C518.213 460.773 519.015 455.583 521.246 450.95C523.476 446.317 527.033 442.449 531.467 439.837C535.9 437.225 541.01 435.987 546.149 436.278C553.01 436.667 559.438 439.753 564.027 444.861C568.616 449.97 570.993 456.685 570.639 463.539Z" fill="#455A64"></path> <path d="M602.438 396.478L594.184 472.232C593.395 479.473 598.634 485.982 605.885 486.77L631.807 489.587C639.058 490.375 645.576 485.143 646.365 477.902L654.619 402.148C655.408 394.907 650.169 388.398 642.918 387.61L616.996 384.793C609.745 384.005 603.227 389.237 602.438 396.478Z" fill="#E0E0E0"></path> <path d="M631.732 489.631C631.732 489.631 632.772 489.631 634.644 489.475C637.392 489.111 639.956 487.894 641.975 485.996C643.42 484.646 644.524 482.973 645.199 481.115C645.888 478.839 646.273 476.482 646.342 474.105C646.888 468.913 647.486 463.123 648.162 456.658C649.514 443.677 651.152 428.333 652.972 411.25C653.18 409.121 653.414 406.966 653.648 404.759C653.998 402.627 653.998 400.452 653.648 398.32C653.209 396.174 652.219 394.179 650.774 392.531C649.329 390.883 647.479 389.639 645.407 388.922C643.166 388.354 640.877 387.997 638.569 387.857L631.732 387.104L617.122 385.495C614.792 385.256 612.442 385.665 610.331 386.678C608.221 387.691 606.432 389.267 605.163 391.232C603.953 393.201 603.256 395.442 603.135 397.749C602.875 400.112 602.615 402.448 602.381 404.759C601.341 414.054 600.353 422.933 599.418 431.578C598.482 440.224 597.546 448.221 596.818 455.828C596.376 459.618 595.96 463.305 595.57 466.81C594.902 470.092 594.797 473.463 595.258 476.78C595.962 479.71 597.696 482.29 600.145 484.049C601.262 484.859 602.499 485.49 603.811 485.918C605.077 486.271 606.374 486.497 607.685 486.593L620.839 488.151L629.158 489.19L631.316 489.475C631.565 489.488 631.811 489.541 632.044 489.631C631.803 489.672 631.557 489.672 631.316 489.631L629.132 489.475L620.787 488.696L607.607 487.372C606.245 487.29 604.895 487.072 603.577 486.723C602.169 486.276 600.837 485.62 599.625 484.776C597.021 482.879 595.178 480.118 594.426 476.987C593.992 475.292 593.877 473.532 594.088 471.795C594.27 470.107 594.452 468.368 594.634 466.602C594.998 463.071 595.388 459.411 595.804 455.594C596.61 447.987 597.468 439.887 598.404 431.345C599.339 422.803 600.275 413.82 601.289 404.525C601.549 402.189 601.783 399.852 602.043 397.489C602.175 394.976 602.944 392.537 604.279 390.402C605.672 388.223 607.646 386.476 609.979 385.357C612.312 384.238 614.912 383.791 617.486 384.067L632.096 385.65L639.271 386.429C641.678 386.574 644.064 386.956 646.394 387.572C648.682 388.362 650.723 389.737 652.315 391.558C653.906 393.38 654.993 395.586 655.467 397.957C655.833 400.227 655.833 402.541 655.467 404.811C655.234 406.992 654.974 409.147 654.74 411.276C652.842 428.333 651.1 443.703 649.54 456.658C648.812 463.097 648.136 468.939 647.538 474.079C647.429 476.505 647.001 478.905 646.264 481.219C645.373 483.521 643.858 485.529 641.888 487.02C639.918 488.51 637.572 489.423 635.112 489.657C633.991 489.833 632.85 489.824 631.732 489.631Z" fill="#263238"></path> <path d="M491.607 344.967C491.459 346.21 491.189 347.437 490.801 348.628C490.125 351.224 489.241 354.495 488.201 358.467C486.044 366.776 483.314 378.355 480.688 391.206C478.063 404.058 475.749 415.404 474.059 424.153C473.175 428.359 472.421 431.76 471.875 434.123C471.651 435.355 471.311 436.563 470.861 437.732C470.926 436.483 471.091 435.241 471.355 434.019C471.823 431.423 472.395 428.022 473.123 423.971C474.631 415.508 476.711 403.798 479.362 390.921C482.014 378.043 484.874 366.49 487.162 358.208C488.357 354.08 489.397 350.757 490.177 348.472C490.554 347.265 491.032 346.093 491.607 344.967V344.967Z" fill="#263238"></path> <path d="M472.122 183.616C474.14 146.534 458.784 115.55 437.823 114.413C416.863 113.275 398.236 142.415 396.218 179.498C394.201 216.581 409.557 247.564 430.517 248.702C451.478 249.839 470.105 220.699 472.122 183.616Z" fill="#E0E0E0"></path> <path d="M472.057 183.608C472.029 183.315 472.029 183.019 472.057 182.726V180.129C472.057 179.013 472.057 177.533 472.057 175.975C472.057 174.418 471.901 172.444 471.797 170.341C471.693 168.238 471.355 165.876 471.121 163.306C470.887 160.735 470.393 157.957 469.665 155.023C468.32 148.326 466.128 141.826 463.14 135.681C461.359 132.157 459.206 128.832 456.718 125.763C454.09 122.408 450.787 119.639 447.021 117.637C443.058 115.459 438.52 114.552 434.023 115.041C429.234 115.774 424.739 117.804 421.024 120.908C413.225 127.088 407.662 136.486 403.736 146.534C395.845 167.779 394.567 190.911 400.07 212.894C402.387 223.111 407.354 232.54 414.473 240.233C417.82 243.707 422.054 246.203 426.717 247.451C431.153 248.458 435.791 248.077 440.002 246.36C443.916 244.743 447.456 242.339 450.401 239.298C453.223 236.531 455.725 233.457 457.862 230.134C461.512 224.356 464.404 218.135 466.467 211.622C467.507 208.792 468.079 206.04 468.807 203.548C469.535 201.055 469.795 198.719 470.237 196.616C470.679 194.513 470.835 192.669 471.095 191.034C471.355 189.398 471.407 188.048 471.537 186.932C471.667 185.815 471.745 185.036 471.823 184.335C471.843 184.047 471.887 183.76 471.953 183.479C471.987 183.763 471.987 184.051 471.953 184.335C471.953 184.984 471.953 185.841 471.823 186.932C471.693 188.022 471.693 189.528 471.485 191.06C471.277 192.592 471.043 194.591 470.757 196.694C470.471 198.797 469.951 201.133 469.431 203.678C468.911 206.222 468.209 208.87 467.169 211.83C465.175 218.441 462.317 224.762 458.668 230.627C456.511 234.029 453.983 237.181 451.129 240.025C448.075 243.2 444.392 245.702 440.314 247.373C435.887 249.2 431.005 249.626 426.328 248.593C421.447 247.296 417.009 244.703 413.485 241.09C406.128 233.872 401.526 223.799 398.666 213.206C393.049 190.963 394.327 167.541 402.332 146.04C406.336 135.811 411.977 126.309 420.088 119.922C423.979 116.71 428.669 114.61 433.659 113.847C438.401 113.29 443.2 114.196 447.411 116.443C451.365 118.61 454.819 121.582 457.55 125.166C460.07 128.306 462.24 131.71 464.023 135.318C466.995 141.548 469.144 148.137 470.419 154.92C471.147 157.879 471.355 160.709 471.771 163.28C472.187 165.85 472.213 168.238 472.369 170.367C472.525 172.496 472.369 174.366 472.369 176.027C472.369 177.689 472.369 179.065 472.239 180.181C472.109 181.298 472.239 182.103 472.239 182.778C472.204 183.06 472.143 183.338 472.057 183.608V183.608Z" fill="#263238"></path> <path d="M653.049 1.92132C653.049 1.92132 449.127 -27.9099 421.96 147.728C398.302 300.752 490.801 353.898 573.836 360.622C656.871 367.347 744.793 366.854 795.436 278.113C846.078 189.372 836.693 37.672 653.049 1.92132Z" fill="#E0E0E0"></path> <path d="M423.52 246.101C423.52 246.101 441.146 326.118 589.434 332.738C736.188 339.307 793.928 197.732 793.928 197.732C774.17 109.043 701.56 38.5027 595.335 35.6728C561.66 34.385 528.138 40.8336 497.352 54.5217C477.14 63.8999 459.589 78.162 446.284 96.0181C432.98 113.874 424.343 134.761 421.154 156.789C419.507 167.385 418.577 178.08 418.372 188.801C417.748 230.03 423.52 246.101 423.52 246.101Z" fill="#263238"></path> <path d="M840.873 207.388C842.891 170.305 827.535 139.321 806.574 138.184C785.614 137.046 766.987 166.186 764.969 203.269C762.952 240.352 778.308 271.335 799.268 272.473C820.229 273.61 838.856 244.47 840.873 207.388Z" fill="#E0E0E0"></path> <path d="M840.827 207.39C840.804 207.105 840.804 206.819 840.827 206.534V203.937C840.827 202.821 840.827 201.341 840.827 199.809C840.827 198.277 840.671 196.252 840.593 194.149C840.515 192.046 840.151 189.684 839.891 187.113C839.631 184.543 839.189 181.765 838.461 178.831C837.109 172.149 834.907 165.666 831.91 159.541C830.154 156.002 828 152.674 825.489 149.623C822.857 146.274 819.565 143.5 815.818 141.471C811.851 139.304 807.316 138.398 802.819 138.875C798.033 139.614 793.539 141.643 789.821 144.742C781.919 151.633 775.959 160.467 772.532 170.367C764.683 191.615 763.424 214.73 768.919 236.702C771.252 246.918 776.227 256.345 783.347 264.041C786.696 267.519 790.928 270.023 795.592 271.285C800.03 272.282 804.668 271.892 808.877 270.168C812.792 268.553 816.332 266.149 819.275 263.106C822.085 260.354 824.579 257.297 826.711 253.993C830.358 248.218 833.241 241.996 835.29 235.482C836.355 232.652 836.902 229.9 837.629 227.408C838.357 224.915 838.643 222.578 839.085 220.501C839.527 218.424 839.683 216.529 839.943 214.919C840.203 213.31 840.255 211.908 840.385 210.791C840.515 209.675 840.593 208.896 840.671 208.195C840.675 207.905 840.719 207.617 840.801 207.338C840.835 207.632 840.835 207.928 840.801 208.221C840.801 208.87 840.801 209.701 840.645 210.817C840.489 211.934 840.645 213.414 840.333 214.945C840.021 216.477 839.865 218.476 839.605 220.579C839.345 222.682 838.773 225.019 838.253 227.563C837.733 230.108 837.031 232.756 836.018 235.716C834.014 242.295 831.165 248.587 827.542 254.435C825.386 257.837 822.857 260.989 820.003 263.833C816.95 267.007 813.266 269.51 809.188 271.181C804.764 273.019 799.878 273.446 795.202 272.401C790.319 271.11 785.879 268.516 782.359 264.898C775.046 257.069 769.934 247.45 767.541 237.014C761.933 214.772 763.202 191.356 771.181 169.848C774.705 159.738 780.828 150.731 788.937 143.73C792.836 140.519 797.536 138.428 802.533 137.68C807.276 137.107 812.08 138.014 816.286 140.277C820.157 142.377 823.548 145.26 826.243 148.74C828.771 151.874 830.942 155.278 832.716 158.892C835.702 165.119 837.861 171.708 839.137 178.494C839.839 181.454 840.073 184.283 840.489 186.854C840.905 189.424 840.931 191.813 841.061 193.942C841.191 196.071 841.061 197.966 841.191 199.627C841.321 201.289 841.191 202.639 841.061 203.756C840.931 204.872 841.061 205.677 841.061 206.352C841.026 206.706 840.947 207.055 840.827 207.39V207.39Z" fill="#263238"></path> <path d="M445.228 253.293C445.228 253.293 446.839 168.888 488.097 120.883C528.939 73.4487 621.333 51.0948 621.333 51.0948C621.333 51.0948 559.901 33.7517 490.567 75.292C475.158 84.378 462.009 96.8289 452.104 111.712C442.199 126.594 435.795 143.523 433.373 161.229C433.061 163.565 432.853 165.876 432.697 168.161C431.44 196.669 434.197 225.212 440.886 252.955" fill="#455A64"></path> <path d="M766.397 170.913C741.315 160.316 714.047 155.905 686.897 158.052C659.748 160.198 633.515 168.839 610.414 183.245C564.685 212.349 535.022 260.796 533.566 314.954C533.566 314.954 614.782 342.423 688.146 300.726C755.739 262.276 761.848 235.248 761.848 235.248C756.284 212.427 756.518 189.528 766.397 170.913Z" fill="#455A64"></path> <path d="M685.156 358.286C684.434 358.532 683.696 358.722 682.946 358.857C681.49 359.168 679.384 359.714 676.603 360.155C668.759 361.557 660.844 362.528 652.893 363.063C642.832 363.79 630.821 364.049 617.485 363.712C604.148 363.374 589.538 362.492 574.199 361.323C559.75 360.354 545.41 358.165 531.33 354.781C519.813 351.972 508.689 347.751 498.21 342.215C491.163 338.466 484.562 333.937 478.53 328.714C476.424 326.845 474.838 325.313 473.824 324.249C473.28 323.725 472.776 323.161 472.316 322.561C472.92 323.006 473.486 323.501 474.006 324.041C475.098 325.053 476.606 326.637 478.894 328.299C485.003 333.321 491.636 337.674 498.678 341.28C509.134 346.657 520.202 350.754 531.642 353.483C545.671 356.788 559.948 358.933 574.329 359.895C589.616 361.064 604.226 361.998 617.511 362.492C630.795 362.985 642.806 362.725 652.841 362.154C662.876 361.583 671.039 360.545 676.499 359.558C679.306 359.194 681.438 358.727 682.894 358.519C683.638 358.369 684.396 358.291 685.156 358.286V358.286Z" fill="#263238"></path> <path d="M780.228 371.267C780.228 371.267 813.713 363.712 814.233 362.544C814.753 361.375 833.081 331.388 840.074 324.82C847.067 318.251 868.307 320.64 865.837 336.036C863.367 351.432 860.793 354.21 860.793 354.21C860.793 354.21 879.486 343.357 899.087 342.267C917.285 341.228 919.885 354.781 917.103 361.272C913.542 369.372 893.706 374.097 893.706 374.097C893.706 374.097 913.022 370.904 919.885 372.643C922.715 373.55 925.141 375.41 926.749 377.906C928.357 380.402 929.046 383.378 928.699 386.326C928.352 389.273 926.99 392.009 924.846 394.064C922.703 396.12 919.911 397.367 916.948 397.593C900.127 400.19 894.902 400.527 894.902 400.527C894.902 400.527 924.227 399.385 929.166 404.11C930.461 405.494 931.368 407.193 931.797 409.037C932.227 410.882 932.163 412.806 931.613 414.618C931.062 416.43 930.045 418.066 928.661 419.361C927.278 420.657 925.579 421.566 923.733 421.998C915.128 424.335 889.546 426.905 889.546 426.905C889.546 426.905 912.424 426.905 914.218 432.929C916.818 441.107 909.018 445.339 895.162 445.339C885.109 445.812 875.087 446.8 865.135 448.299C865.135 448.299 811.893 479.039 758.547 479.921C725.322 480.492 710.504 475.326 710.634 473.95C710.764 472.574 728.832 370.436 728.832 370.436C728.832 370.436 762.186 376.486 780.306 371.397" fill="#E0E0E0"></path> <path d="M864.692 404.863C864.458 404.863 865.732 401.799 866.59 396.763C867.674 390.183 867.238 383.443 865.316 377.057C863.665 371.699 860.729 366.824 856.763 362.855L856.451 362.57L856.659 362.206C858.349 359.221 859.259 356.469 860.221 354.677C860.608 353.716 861.173 352.835 861.885 352.081C861.595 353.085 861.23 354.065 860.793 355.015C859.883 357.668 858.824 360.269 857.621 362.803V362.154C861.884 366.136 865.022 371.168 866.72 376.745C868.715 383.313 869.028 390.276 867.63 396.996C867.206 399.018 866.606 400.999 865.836 402.916C865.548 403.615 865.163 404.271 864.692 404.863V404.863Z" fill="#263238"></path> <path d="M890.43 423.348C890.196 423.348 891.028 420.285 891.834 415.378C892.89 408.988 893.248 402.503 892.9 396.036C892.487 389.566 891.38 383.16 889.599 376.927C888.221 372.124 886.999 369.138 887.259 369.138C887.694 369.727 888.044 370.373 888.299 371.059C889.15 372.864 889.888 374.719 890.508 376.615C894.728 389.162 895.518 402.606 892.796 415.56C892.393 417.508 891.881 419.432 891.262 421.323C891.078 422.033 890.798 422.714 890.43 423.348V423.348Z" fill="#263238"></path> <path d="M819.9 467.875C818.828 466.91 817.829 465.869 816.91 464.759C815.752 463.536 814.658 462.254 813.634 460.916C812.412 459.359 811.035 457.619 809.579 455.568C808.123 453.517 806.563 451.284 805.055 448.792C803.547 446.299 801.988 443.599 800.402 440.692C797.11 434.345 794.328 427.747 792.083 420.96C789.934 414.128 788.411 407.115 787.533 400.008C787.351 396.737 786.909 393.621 787.039 390.661C787.039 389.207 787.039 387.779 787.039 386.429C787.039 385.079 787.273 383.833 787.377 382.535C787.557 380.293 787.878 378.064 788.339 375.863C788.521 374.902 788.703 374.019 788.859 373.266L789.509 371.034C789.833 369.628 790.285 368.255 790.861 366.931C789.692 372.139 788.824 377.41 788.261 382.717C788.261 383.937 788.105 385.313 788.001 386.559C787.897 387.805 788.001 389.311 788.001 390.765C788.001 393.647 788.391 396.737 788.599 399.982C789.541 407.025 791.089 413.974 793.227 420.752C795.429 427.469 798.149 434.005 801.364 440.302C802.898 443.184 804.301 445.962 805.861 448.402C807.421 450.843 808.799 453.18 810.203 455.205C811.607 457.23 812.802 459.073 814.076 460.657C815.35 462.241 816.26 463.591 817.144 464.629C818.152 465.632 819.074 466.718 819.9 467.875V467.875Z" fill="#263238"></path> <path d="M741.206 371.968C741.206 371.968 723.58 429.813 750.149 480.181H768.035C768.035 480.181 742.22 427.295 755.712 373.059L741.206 371.968Z" fill="#C373E3"></path> <path d="M725.139 370.878C724.171 372.108 723.138 373.287 722.045 374.409C719.239 377.584 716.692 380.979 714.428 384.56C706.801 396.36 702.64 410.061 702.419 424.105C702.199 438.148 705.927 451.973 713.18 464.006C715.329 467.66 717.772 471.133 720.486 474.391C721.543 475.544 722.533 476.758 723.449 478.026C723.112 477.788 722.799 477.519 722.513 477.221C721.968 476.676 721.084 475.871 720.07 474.625C717.159 471.463 714.548 468.039 712.271 464.395C704.675 452.291 700.754 438.248 700.98 423.965C701.206 409.682 705.57 395.77 713.544 383.911C715.901 380.334 718.591 376.987 721.578 373.915C722.617 372.799 723.527 372.046 724.177 371.501C724.473 371.257 724.796 371.048 725.139 370.878Z" fill="#263238"></path> </svg> 