<?xml version="1.0" encoding="UTF-8"?> <svg xmlns="http://www.w3.org/2000/svg" width="228" height="211" viewBox="0 0 228 211" fill="none"> <path d="M25.6038 3.90637C36.6318 -1.65943 42.1458 -0.931166 45.6305 4.73844C48.5434 4.3743 50.5721 4.68637 51.0925 5.57084C49.48 6.24704 47.9192 7.02704 46.3067 7.85944C44.7656 8.68528 43.2879 9.6244 41.8858 10.669L41.8338 10.7211L41.7296 10.7728C41.1575 11.2401 40.5854 11.7094 40.0651 12.1773L40.013 12.2294L39.9609 12.2814C38.918 13.2206 37.9766 14.2667 37.1522 15.4024L37.1001 15.4545C37.048 15.5066 37.0481 15.5066 37.0481 15.5583C36.5808 16.1828 36.1135 16.86 35.6956 17.5352C35.012 18.719 34.4206 19.9537 33.9265 21.2282V21.3828C33.6707 22.0965 33.4622 22.8264 33.3024 23.5676V23.619C32.9381 25.137 32.729 26.688 32.6782 28.2482V28.3003C32.4699 33.3458 33.6665 39.1195 36.5794 45.7256V45.8298C36.7877 46.3498 37.0467 46.8701 37.3077 47.3901C37.5687 47.9101 37.8802 48.5346 38.1402 49.1066C38.195 49.164 38.2313 49.2366 38.2443 49.3149C38.5043 49.7822 38.7116 50.2511 38.9723 50.719V50.7711L39.2844 51.2914C39.4926 51.6556 39.6485 51.9676 39.8568 52.2797C39.9606 52.4876 40.1168 52.6959 40.2209 52.9038C40.3768 53.2159 40.5851 53.4759 40.741 53.7362C40.8972 53.9442 41.001 54.1521 41.1572 54.3604C41.33 54.6496 41.5211 54.9275 41.7293 55.1924L42.1455 55.7662L42.3014 56.0262L42.3535 56.0783C51.769 69.1861 63.4212 71.215 74.0327 66.792C74.0327 66.792 81.8358 64.0355 87.4537 57.8455C88.7283 57.6468 90.0138 57.5252 91.3031 57.4814V57.4814C96.1409 57.3773 100.458 58.4697 104.308 59.4059C110.446 60.9145 116.324 62.4227 125.583 59.4059L130.785 57.3773C134.209 55.8262 137.528 54.0535 140.721 52.0704C148.68 47.1288 159.343 45.7764 166.938 51.498C177.185 59.1966 169.174 72.0444 163.713 68.8713C158.199 65.6986 155.702 68.5593 152.061 70.692C147.976 73.1937 143.736 75.4344 139.368 77.4006C139.368 77.4006 135.571 79.0133 134.061 79.4813C129.555 81.0938 124.876 82.1761 120.12 82.7064C118.403 82.8623 116.739 82.9664 115.178 82.9664C112.934 82.966 110.692 82.8099 108.469 82.4991C108.469 82.4991 107.273 82.3953 105.348 82.0319V82.0839C106.492 84.4767 109.354 89.0539 112.631 93.059C113.764 94.625 115.073 96.0562 116.532 97.3245C118.977 99.6651 121.318 101.122 123.139 100.705L123.347 100.653C138.552 96.5966 154.403 95.554 170.009 97.5845C172.87 97.9485 175.783 98.4166 178.748 98.9889L184.418 100.237C190.311 101.681 196.098 103.523 201.741 105.751C202.487 105.938 203.217 106.182 203.926 106.479C203.88 106.264 203.81 106.055 203.718 105.855C201.429 90.8225 213.706 90.9266 217.036 91.3945C207.412 89.8863 208.921 138.677 217.244 136.285C210.117 139.198 208.453 133.008 198.257 127.911C192.388 125.319 186.316 123.214 180.103 121.617L174.589 120.368L174.016 120.265L167.775 119.276C160.1 118.254 152.333 118.114 144.626 118.86C137.976 119.479 131.415 120.84 125.067 122.917C125.067 122.917 123.922 123.333 122.31 123.75C122.258 124.01 122.206 124.217 122.154 124.478C120.541 127.131 113.831 137.327 104.207 139.302C111.626 138.243 119.169 138.436 126.523 139.874C129.675 140.452 132.786 141.234 135.836 142.215C136.408 142.371 137.033 142.631 137.709 142.839C138.262 142.364 138.874 141.962 139.529 141.643C139.724 141.549 139.946 141.53 140.154 141.591C145.159 142.906 149.859 145.185 153.99 148.301C154.112 148.394 154.212 148.511 154.284 148.646C154.356 148.78 154.397 148.929 154.407 149.081C154.413 149.231 154.383 149.38 154.32 149.516C154.256 149.652 154.161 149.77 154.043 149.861C153.73 150.069 153.47 150.329 153.106 150.59C153.626 150.902 154.147 151.266 154.615 151.578C157.362 153.505 159.968 155.626 162.413 157.924C164.546 159.953 164.806 160.109 166.678 162.138C170.254 165.927 173.54 169.978 176.51 174.258C177.234 175.308 177.861 176.422 178.383 177.587C178.383 177.17 178.435 176.702 178.435 176.234C180.099 161.462 192.48 165.728 195.809 167.132C186.966 163.803 176.042 210.825 184.677 210.669C177.03 211.658 171.359 204.636 166.626 197.717C161.939 190.744 156.321 184.444 149.928 178.992C149.928 178.992 147.796 177.119 145.559 175.559C125.011 160.526 105.505 161.358 104.1 161.671H104.152C100.079 162.438 95.8871 162.296 91.8756 161.254C89.3467 160.634 86.8756 159.799 84.489 158.758C84.3456 158.719 84.2062 158.667 84.0728 158.602C84.0728 158.602 83.8128 158.81 83.3445 159.174C83.3164 159.202 83.2798 159.22 83.2404 159.226C82.6101 159.765 81.9502 160.269 81.2637 160.734C81.013 160.903 80.7215 161.002 80.4196 161.021C80.1177 161.039 79.8164 160.976 79.5471 160.838C78.2988 160.214 75.8538 159.018 73.0968 157.3C72.2647 156.78 71.4323 156.26 70.6002 155.688C67.9557 153.934 65.5133 151.893 63.3174 149.602C63.0189 149.259 62.8632 148.814 62.8826 148.359C62.902 147.904 63.0949 147.474 63.4216 147.157C63.4733 147.105 63.5254 147.053 63.5774 147.053L63.8375 146.897C63.8375 146.897 65.1392 146.065 64.7741 145.701C63.4723 144.557 62.2771 143.412 61.0287 142.216L59.7801 140.967C59.468 140.655 59.208 140.343 58.8959 140.031C58.8959 140.031 55.5668 136.442 55.0464 135.766L54.4743 135.09C53.2256 133.633 52.0814 132.177 50.9362 130.668C50.4689 130.044 50.0521 129.472 49.5838 128.848C44.1739 121.358 40.2713 113.607 38.6599 106.845C38.3566 105.813 38.1821 104.748 38.1402 103.673L37.8281 104.349C37.6719 104.609 37.5677 104.921 37.4119 105.181L37.1518 105.754C36.6445 106.893 36.2439 108.078 35.9552 109.291C34.0307 116.99 35.7994 126.093 38.6081 134.157L40.6368 139.358C41.2613 140.867 41.9386 142.323 42.6138 143.676L43.29 144.977C43.29 145.029 43.3418 145.029 43.3418 145.081C43.3938 145.185 43.4459 145.237 43.4459 145.341C44.5384 147.37 46.0988 147.63 49.1161 148.15C50.0524 148.306 51.1449 148.462 52.3932 148.722C53.4857 148.93 54.734 149.19 56.0865 149.554C63.3692 151.531 60.0401 158.293 56.1385 156.785C54.3695 156.108 48.1796 156.941 53.6936 162.766C54.7279 163.808 55.668 164.94 56.5027 166.147C56.8668 166.668 57.1789 167.188 57.491 167.708C57.9263 168.458 58.2587 169.262 58.4793 170.101C59.3638 173.794 56.8148 176.239 50.9359 177.591C39.1799 180.244 36.5267 174.106 29.9726 165.576C26.1819 159.798 22.9258 153.687 20.2449 147.319L18.1642 141.961C14.575 132.078 12.9626 122.819 13.2746 114.289C13.377 110.85 13.8478 107.432 14.6789 104.093C14.9361 103.02 15.2487 101.961 15.6154 100.921C17.3444 95.6362 20.063 90.7288 23.6261 86.4602C23.7303 86.3561 23.7823 86.2523 23.8865 86.1481C25.8274 83.947 27.9314 81.8953 30.1805 80.0103C30.0764 80.1144 29.9726 80.1661 29.8685 80.2703L29.6605 80.0623C27.5797 77.4613 25.6552 74.9127 23.9382 72.4679C18.5804 64.7177 15.1992 57.7491 13.3264 51.4537C12.4458 48.6454 11.8703 45.7504 11.6098 42.8189C11.341 40.0986 11.411 37.3555 11.818 34.6525C6.92916 19.3028 18.3214 7.59844 25.6038 3.90637Z" fill="#FFB400"></path> <path d="M8.9058 58.6268C7.91748 63.6206 10.5186 70.0705 16.8647 78.289C14.8729 80.0631 13.0449 82.0129 11.4028 84.1148V84.1148C2.97589 73.4011 -0.301492 64.8167 1.20719 57.1185C2.29965 51.6048 5.7329 46.9235 11.767 42.8669C12.0272 45.7985 12.6027 48.6935 13.4836 51.5017C10.8828 53.7375 9.42616 56.1303 8.9058 58.6268Z" fill="#F04E23"></path> <path d="M11.4028 84.1148C13.0594 82.0252 14.8863 80.0766 16.8648 78.289C19.1515 76.2359 21.5479 74.3084 24.0434 72.5149C25.76 74.9597 27.6325 77.5086 29.7653 80.1093L29.9736 80.3176C27.8033 82.0889 25.8007 84.0564 23.9913 86.1951C23.8898 86.2858 23.8021 86.3909 23.7313 86.5072C23.1356 86.3612 22.5238 86.2913 21.9105 86.2992C20.7758 86.2965 19.6517 86.5179 18.6028 86.9509C17.5539 87.3838 16.6008 88.0198 15.7985 88.8221C14.9961 89.6245 14.3602 90.5775 13.9272 91.6263C13.4943 92.6752 13.2728 93.7993 13.2757 94.934C13.2812 97.1853 14.1571 99.3473 15.7203 100.968C15.3561 102.008 15.0961 103.1 14.784 104.141C13.9529 107.479 13.4821 110.897 13.3795 114.336C6.09743 102.684 3.70423 94.0495 11.4028 84.1148Z" fill="#00AEE0"></path> <path d="M13.2236 94.9862C13.2267 92.6971 14.1374 90.5027 15.7561 88.884C17.3747 87.2654 19.5692 86.3546 21.8584 86.3514C22.4718 86.3406 23.084 86.4105 23.6792 86.5594C20.0972 90.815 17.3766 95.7263 15.6685 101.02C14.1052 99.3996 13.2292 97.2376 13.2236 94.9862Z" fill="#04294F"></path> <path d="M38.6073 134.206C38.8676 134.934 39.1276 135.662 39.3876 136.338C39.5959 136.911 39.8038 137.431 40.0118 137.951C40.2197 138.472 40.428 138.887 40.5842 139.356C37.866 139.728 35.1855 140.337 32.5735 141.176C28.8282 142.373 24.3025 144.245 20.2972 147.314L19.8809 146.222C19.3088 144.817 18.7367 143.361 18.2164 141.956C21.3375 139.356 25.2908 137.535 28.8803 136.391C32.0593 135.405 35.312 134.674 38.6073 134.206V134.206Z" fill="#F04E23"></path> <path d="M35.6433 17.5862L35.5392 17.7944L34.8109 19.1989C34.6029 19.6662 34.395 20.1872 34.1867 20.6551L33.9267 21.3316C34.3482 20.0194 34.9244 18.7621 35.6433 17.5862V17.5862Z" fill="white"></path> <path d="M32.5223 28.3018V29.8624C32.5139 30.9064 32.5835 31.9495 32.7306 32.9831C33.2742 37.1529 34.4311 41.2194 36.1638 45.0509C36.2676 45.2588 36.3197 45.5182 36.4238 45.7271C33.5106 39.1724 32.3144 33.3472 32.5223 28.3018Z" fill="white"></path> <path d="M32.8865 25.1806C32.8344 25.4405 32.7825 25.7006 32.7306 25.961L32.6785 26.7413L32.5223 28.3016C32.5733 26.7414 32.7824 25.1904 33.1465 23.6724L32.8865 25.1806Z" fill="white"></path> <path d="M36.788 46.5073L37.2056 47.3394C36.9456 46.8194 36.7383 46.2991 36.4776 45.7791L36.788 46.5073Z" fill="white"></path> <path d="M33.6675 22.1117C33.5113 22.6321 33.3555 23.1 33.2513 23.6203C33.4075 22.8921 33.6675 22.1638 33.8755 21.4355L33.6675 22.1117Z" fill="white"></path> <path d="M45.371 131.657C44.1223 132.542 42.874 133.478 41.6774 134.414C40.8973 135.038 40.117 135.716 39.3366 136.391C39.0766 135.663 38.8166 134.986 38.5565 134.258C35.6954 126.196 33.9788 117.093 35.9033 109.393C36.3173 107.674 36.9465 106.014 37.7762 104.452C37.7966 104.472 37.8213 104.487 37.8482 104.496C37.8752 104.505 37.9038 104.507 37.9321 104.504H38.0882C39.1807 111.786 43.3953 120.525 49.4805 128.951L49.168 129.108C47.9197 129.941 46.6714 130.773 45.371 131.657Z" fill="#00AEE0"></path> <path d="M46.8793 133.738C45.631 134.57 44.3303 135.454 43.0299 136.287C42.0535 136.909 41.0466 137.482 40.0129 138.003C39.8049 137.483 39.5966 136.911 39.3887 136.391C40.134 135.691 40.9153 135.032 41.7295 134.414C42.9261 133.426 44.1744 132.542 45.4227 131.657C46.6711 130.773 47.9718 129.941 49.2722 129.109L49.5843 128.952C50.0013 129.584 50.4528 130.191 50.9368 130.773C50.8326 130.877 50.7288 130.929 50.6247 131.033C49.3764 131.969 48.1277 132.854 46.8793 133.738Z" fill="#04294F"></path> <path d="M49.116 138.575C47.8677 139.459 46.6193 140.396 45.4228 141.332C44.4391 142.091 43.5012 142.907 42.614 143.777C41.9378 142.425 41.2615 140.968 40.637 139.459C40.4291 138.992 40.2212 138.523 40.065 138.055C41.0987 137.534 42.1057 136.961 43.082 136.339C44.3837 135.558 45.631 134.674 46.9314 133.79C48.2318 132.906 49.4284 131.969 50.6247 131.033C50.7288 130.929 50.833 130.877 50.9368 130.773C52.0813 132.281 53.2255 133.738 54.4749 135.194C54.0076 135.454 53.4865 135.766 53.0182 136.026C51.6651 136.807 50.3647 137.691 49.116 138.575Z" fill="#00AEE0"></path> <path d="M54.266 137.899C53.0698 138.887 51.8214 139.771 50.5728 140.656C49.3241 141.54 48.024 142.372 46.7236 143.204C45.5791 143.88 44.4873 144.557 43.2904 145.181C43.2904 145.129 43.2383 145.129 43.2383 145.077L42.5621 143.775C43.4463 142.943 44.4346 142.11 45.3712 141.331C46.5674 140.342 47.8158 139.458 49.0644 138.574C50.3131 137.689 51.6132 136.857 52.9139 136.025C53.3812 135.717 53.8676 135.439 54.3702 135.193L54.9426 135.869C55.2026 136.181 55.4626 136.441 55.7227 136.753C55.2547 137.119 54.7864 137.535 54.266 137.899Z" fill="#04294F"></path> <path d="M50.5728 140.656C51.8215 139.772 53.0698 138.835 54.2661 137.899C54.7334 137.483 55.2547 137.119 55.7227 136.703C56.711 137.847 57.7514 138.992 58.8439 140.084C59.1559 140.396 59.4159 140.708 59.728 141.02C58.7918 141.54 57.9076 142.061 57.0244 142.581C55.7227 143.361 54.4757 144.245 53.1753 145.129C51.8749 146.014 50.6783 146.95 49.4817 147.886L49.1175 148.198C46.1005 147.731 44.5922 147.47 43.4476 145.389C43.3825 145.318 43.3455 145.226 43.3435 145.129C44.5225 144.533 45.6686 143.873 46.7767 143.153C48.0849 142.388 49.352 141.554 50.5728 140.656V140.656Z" fill="#00AEE0"></path> <path d="M53.1738 145.13C54.4222 144.245 55.7225 143.413 57.023 142.581C57.9075 142.061 58.792 141.488 59.7282 141.02L60.9766 142.269C60.1441 143.049 59.2599 143.777 58.3754 144.505C57.1792 145.493 55.9308 146.377 54.6822 147.261C53.9539 147.782 53.1738 148.302 52.4458 148.822C51.1972 148.562 50.1051 148.406 49.1685 148.25L49.5326 147.937C50.675 146.912 51.8921 145.974 53.1738 145.13V145.13Z" fill="#04294F"></path> <path d="M58.3236 144.453C59.2078 143.725 60.0926 142.997 60.9244 142.217C62.1207 143.414 63.3693 144.558 64.6697 145.702L63.8373 146.378C63.7578 146.436 63.7029 146.522 63.6837 146.618C63.6644 146.715 63.6822 146.815 63.7335 146.899L63.4731 147.055C63.2891 147.185 63.1332 147.352 63.0148 147.544C62.8964 147.736 62.8178 147.951 62.7839 148.174C62.7499 148.397 62.7612 148.625 62.817 148.844C62.8729 149.062 62.9722 149.268 63.109 149.447C63.1611 149.499 63.1611 149.551 63.2131 149.604C65.3955 151.908 67.8396 153.95 70.4958 155.688L70.0286 156C68.364 157.041 66.7515 158.081 65.139 159.225C63.5266 160.369 61.9658 161.514 60.4571 162.763C59.1046 163.855 57.8042 164.948 56.5038 166.196C55.6532 165.001 54.7142 163.87 53.6948 162.815C48.1807 156.989 54.371 156.157 56.1397 156.833C59.9892 158.342 63.3703 151.58 56.0876 149.603C54.8722 149.26 53.6394 148.982 52.3944 148.771C53.1747 148.251 53.903 147.783 54.6307 147.21C55.8787 146.326 57.127 145.442 58.3236 144.453Z" fill="#F04E23"></path> <path d="M58.8438 140.084C57.8034 138.991 56.763 137.848 55.7226 136.703C55.4626 136.391 55.2026 136.13 54.9422 135.818C55.9309 135.454 56.8672 135.09 57.8555 134.726C73.3672 128.633 87.539 119.569 99.5745 108.042V108.042C99.5745 108.042 87.4019 90.9289 76.5301 71.5267C68.1552 76.7804 56.763 81.5659 44.6428 84.2186C37.8659 85.7244 30.9317 86.4055 23.9913 86.2472C25.8007 84.1084 27.8033 82.1408 29.9736 80.3693C30.0774 80.2655 30.1815 80.2135 30.2857 80.1093C34.1416 79.8927 37.9808 79.4408 41.7817 78.7563C53.1046 76.6346 64.0008 72.6631 74.0331 67.0009L73.9813 66.8447C74.9243 66.4638 75.8447 66.0292 76.738 65.543C77.6225 65.0757 78.507 64.6085 79.3912 64.0865C82.5124 62.2661 85.2691 60.2893 87.4019 57.8965C88.3319 57.7413 89.2696 57.6371 90.211 57.5845V57.5845C89.4306 60.7575 86.3095 64.4506 81.5758 68.0919C81.3158 68.2999 81.0037 68.5078 80.7437 68.7161C83.0845 72.8771 85.4773 76.8825 87.8181 80.6277C96.2961 94.2038 103.684 103.983 103.684 103.983C109.666 97.6368 112.631 93.1113 112.631 93.1113C113.821 94.6303 115.125 96.0563 116.532 97.3768C116.428 97.4309 97.8058 125.935 58.8438 140.084Z" fill="#F04E23"></path> <path d="M65.1381 159.278C66.7506 158.133 68.3631 157.093 70.0277 156.053L70.4949 155.741C71.3271 156.313 72.1595 156.833 72.9919 157.353C72.5757 157.717 72.1595 158.081 71.6902 158.446C70.1819 159.694 68.6211 160.838 67.0086 161.983C65.3961 163.129 63.7833 164.168 62.1188 165.209C60.6225 166.156 59.0772 167.025 57.4893 167.809C57.1904 167.27 56.8604 166.749 56.5009 166.249C57.7584 165.037 59.078 163.891 60.4542 162.816C62.017 161.567 63.5774 160.422 65.1381 159.278Z" fill="#04294F"></path> <path d="M62.1722 165.207C63.8368 164.167 65.4496 163.127 67.0621 161.982C68.6746 160.838 70.2353 159.694 71.7437 158.444C72.1599 158.08 72.6282 157.716 73.0454 157.352C75.8024 159.017 78.2474 160.265 79.496 160.89C79.7686 161.015 80.0678 161.071 80.3672 161.053C80.6666 161.035 80.9569 160.943 81.2123 160.786C81.8886 160.319 82.5651 159.798 83.2931 159.225C83.3629 159.307 83.4618 159.358 83.5687 159.368C83.6756 159.377 83.7821 159.345 83.8655 159.277L84.4897 158.81C86.8793 159.843 89.3498 160.678 91.8762 161.306L91.7724 161.723C77.8311 177.015 65.3468 175.923 58.5324 170.2C58.3023 169.365 57.9703 168.561 57.5441 167.807C59.1559 167.028 60.6646 166.092 62.1722 165.207Z" fill="#00AEE0"></path> <path d="M79.3912 64.0374C78.5588 64.5577 77.6222 65.0256 76.7383 65.4939C75.8449 65.98 74.9244 66.4146 73.9813 66.7956C63.3695 71.2169 51.7183 69.2404 42.3017 56.0819L42.25 56.0298L42.0937 55.7698L41.6782 55.1927C41.4702 54.9327 41.314 54.6206 41.1061 54.3606C40.9502 54.1524 40.8461 53.9444 40.6899 53.7362C40.498 53.4708 40.3243 53.1929 40.1698 52.9041C40.0657 52.6962 39.9098 52.4879 39.8057 52.28C39.5957 51.9621 39.4046 51.6321 39.2336 51.2917L38.9215 50.7714V50.7203C38.6612 50.253 38.4012 49.7858 38.1932 49.3158C38.1383 49.2586 38.102 49.1861 38.0891 49.1079C37.777 48.5358 37.517 47.9634 37.2566 47.3914L36.8407 46.559L36.5287 45.8828V45.7806C36.4195 45.5645 36.3323 45.338 36.2683 45.1044C34.5583 41.2639 33.4017 37.2003 32.833 33.035C32.7289 31.9946 32.6248 30.9543 32.6248 29.914V28.3016L32.781 26.7412L32.8327 25.9609L32.9889 25.1806L33.301 23.6723V23.6189C33.4572 23.0986 33.6131 22.6306 33.7172 22.1103L33.9252 21.4341V21.2782L34.1852 20.602C34.3935 20.1348 34.6014 19.6134 34.8097 19.1455L35.538 17.741L35.6418 17.5331C36.0445 16.8425 36.4965 16.1818 36.9943 15.5562C36.9943 15.5042 37.0464 15.5042 37.0464 15.4524L37.0984 15.4004C37.9647 14.299 38.9031 13.2564 39.9075 12.2794L39.9592 12.2273L40.0113 12.1752C40.5317 11.708 41.1038 11.2407 41.6759 10.7708L41.78 10.7187L41.8321 10.667C43.2219 9.60452 44.7013 8.66469 46.2536 7.85803C47.8661 7.02563 49.4789 6.24563 51.0394 5.56943C51.5066 5.36116 52.0277 5.15323 52.496 4.99703C52.5532 5.1472 52.6666 5.26921 52.8122 5.33718C52.9578 5.40516 53.1242 5.41376 53.276 5.36116V5.36116C56.1892 4.47703 59.2063 3.90463 62.1191 4.26876C63.5799 4.43042 65.0137 4.78009 66.3848 5.30909C67.7479 5.86521 69.0401 6.58112 70.2343 7.44183C72.6531 9.22778 74.8072 11.3468 76.6325 13.7359C78.5144 16.1511 80.2348 18.688 81.7824 21.33C83.3576 23.9692 84.7816 26.6958 86.0478 29.4964C87.3631 32.2554 88.4759 35.1065 89.3772 38.027C90.261 40.9112 90.7338 43.9056 90.7817 46.9218C90.7693 49.9055 89.9612 52.832 88.4406 55.3993V55.3993C88.3974 55.467 88.3685 55.5428 88.3556 55.622C88.3427 55.7013 88.3462 55.7823 88.3657 55.8602C88.3851 55.938 88.4203 56.0111 88.469 56.075C88.5177 56.1388 88.5789 56.192 88.6489 56.2314C88.2437 56.7914 87.8092 57.3296 87.3472 57.8438C85.2173 60.2912 82.4603 62.2684 79.3912 64.0374Z" fill="#04294F"></path> <path d="M125.428 59.4593C127.216 58.8827 128.97 58.2054 130.682 57.4307C130.682 57.4307 132.034 68.9261 139.316 77.4563C137.584 78.2397 135.813 78.9342 134.009 79.537C127.195 72.2547 125.426 59.5113 125.426 59.4589L125.428 59.4593Z" fill="#F04E23"></path> <path d="M162.413 157.977C163.817 159.279 165.222 160.681 166.678 162.191C168.811 164.427 155.13 168.277 149.928 179.044C148.472 177.847 147.015 176.703 145.559 175.611L145.663 175.507C150.657 164.427 162.206 158.029 162.413 157.977Z" fill="#F04E23"></path> <path d="M178.643 99.0432C180.515 99.4073 182.388 99.8235 184.312 100.291C183.116 102.528 178.851 111.319 180.047 121.722C178.226 121.255 176.354 120.838 174.533 120.474C173.285 110.33 177.342 101.644 178.643 99.0432Z" fill="#F04E23"></path> <path d="M195.809 167.132L195.965 167.184C199.086 168.486 204.236 172.126 202.155 183.933C200.126 195.741 192.272 209.629 184.677 210.617C176.042 210.826 186.966 163.803 195.809 167.132Z" fill="#00AEE0"></path> <path d="M216.928 91.4488C220.258 91.9161 226.188 94.1016 227.228 106.065C228.269 118.029 224.315 133.426 217.188 136.337C208.814 138.731 207.305 89.9402 216.928 91.4488Z" fill="#00AEE0"></path> <path d="M88.4405 55.4021C89.9617 52.8157 90.7694 49.872 90.7813 46.8715C90.773 43.856 90.3172 40.8584 89.4289 37.9768C88.5277 35.0562 87.415 32.2051 86.0997 29.4462C84.798 26.6893 83.3427 23.9324 81.8344 21.2797C80.3236 18.6271 78.6203 16.0888 76.7383 13.6853C74.9265 11.2841 72.7705 9.16322 70.3397 7.39121C69.1335 6.54974 67.8436 5.83514 66.4906 5.25881C65.1195 4.7295 63.6857 4.37982 62.2249 4.21848C59.312 3.85435 56.295 4.42641 53.3817 5.31055C53.2299 5.36318 53.0635 5.35463 52.9178 5.28673C52.7722 5.21882 52.6587 5.09689 52.6014 4.94675V4.94675C52.5538 4.78735 52.5643 4.61625 52.631 4.46385C52.6976 4.31145 52.8162 4.18761 52.9655 4.11435C54.4391 3.49021 55.9732 3.01957 57.5433 2.70988C59.1488 2.3629 60.7921 2.22302 62.4332 2.29368C64.0851 2.38655 65.7146 2.71947 67.2706 3.28195C68.8284 3.84833 70.3128 4.59907 71.6922 5.51815C74.4492 7.33848 76.6862 9.67948 78.7683 12.1239C80.7536 14.6003 82.5444 17.2265 84.1248 19.979C84.9051 21.3314 85.6852 22.7359 86.4135 24.1404L87.4539 26.2224C87.818 26.9506 88.1301 27.6789 88.4422 28.3551C89.7645 31.2481 90.8603 34.2393 91.7196 37.3019C92.6005 40.4118 92.9695 43.6444 92.812 46.8728C92.7065 48.5016 92.3917 50.1099 91.8755 51.6583C91.3695 53.1994 90.633 54.655 89.6909 55.9755C89.5987 56.1025 89.4647 56.1929 89.3125 56.2309C89.1603 56.2689 88.9995 56.2521 88.8584 56.1834L88.8064 56.1317C88.7247 56.1249 88.6461 56.0973 88.5782 56.0514C88.5103 56.0055 88.4553 55.9429 88.4186 55.8696C88.3819 55.7963 88.3646 55.7148 88.3684 55.633C88.3723 55.5511 88.3971 55.4716 88.4405 55.4021V55.4021Z" fill="#00AEE0"></path> <path d="M148.992 61.5922C148.995 61.5066 149.014 61.4223 149.05 61.3444C149.086 61.2664 149.136 61.1963 149.199 61.1382C149.262 61.0801 149.336 61.0351 149.417 61.0058C149.497 60.9765 149.583 60.9636 149.668 60.9678V60.9678C151.645 61.0719 153.674 61.176 155.443 60.864C156.214 60.7756 156.949 60.4888 157.576 60.0316C157.803 59.8113 157.977 59.5424 158.085 59.245C158.193 58.9477 158.232 58.6297 158.2 58.315C158.226 57.9837 158.173 57.651 158.047 57.3437C157.92 57.0364 157.723 56.7631 157.471 56.5461C156.848 56.0734 156.114 55.7689 155.339 55.662C153.57 55.402 151.645 55.6099 149.669 55.922C149.499 55.9389 149.328 55.8963 149.186 55.8015C149.043 55.7067 148.938 55.5655 148.888 55.402C148.865 55.2577 148.888 55.1099 148.953 54.9793C149.019 54.8487 149.123 54.7418 149.252 54.6737C150.222 54.2434 151.233 53.9123 152.269 53.6854C153.34 53.4183 154.448 53.3303 155.547 53.4251C156.816 53.4862 158.034 53.9412 159.032 54.7268C159.564 55.1844 159.99 55.7524 160.281 56.3912C160.542 56.9998 160.684 57.6534 160.697 58.3157C160.699 58.987 160.593 59.6543 160.384 60.2922C160.127 60.9646 159.696 61.5569 159.136 62.0088C158.634 62.4241 158.049 62.7258 157.419 62.8932C156.857 63.0473 156.283 63.1518 155.703 63.2053C153.564 63.3109 151.425 62.9927 149.409 62.2691C149.274 62.2181 149.161 62.124 149.085 62.0016C149.01 61.8791 148.977 61.7352 148.992 61.5922V61.5922Z" fill="#04294F"></path> <path d="M163.817 107.21C160.852 106.689 155.078 106.013 149.408 107.002C149.259 107.029 149.105 107.019 148.96 106.974C148.815 106.929 148.683 106.849 148.576 106.742C148.469 106.634 148.389 106.502 148.344 106.358C148.298 106.213 148.289 106.059 148.316 105.909C148.783 102.996 149.876 97.743 151.957 95.194C152.025 95.1045 152.111 95.0303 152.21 94.9765C152.308 94.9227 152.417 94.8905 152.529 94.882C154.74 94.4594 156.988 94.2677 159.238 94.3099C162.139 94.3182 165.032 94.6144 167.874 95.194C168.021 95.2168 168.16 95.2764 168.279 95.3674C168.397 95.4584 168.49 95.5777 168.55 95.7144C168.626 95.8397 168.667 95.9836 168.667 96.1304C168.667 96.2772 168.626 96.4212 168.55 96.5465C166.901 99.6821 165.676 103.023 164.908 106.482C164.856 106.721 164.713 106.93 164.51 107.066C164.306 107.202 164.058 107.253 163.817 107.21V107.21ZM154.922 95.9223C154.742 95.9062 154.562 95.9424 154.402 96.0264C153.843 96.4366 153.367 96.9483 152.997 97.5347C152.63 98.1038 152.334 98.7151 152.113 99.3554C151.89 100.011 151.75 100.693 151.697 101.384C151.643 102.092 151.75 102.803 152.009 103.465C152.036 103.553 152.08 103.635 152.141 103.704C152.201 103.774 152.275 103.831 152.358 103.87C152.442 103.909 152.533 103.93 152.625 103.932C152.717 103.934 152.808 103.917 152.893 103.881V103.881C152.976 103.849 153.052 103.801 153.114 103.738C153.177 103.675 153.226 103.6 153.257 103.517L153.309 103.465C153.57 102.892 153.777 102.372 153.986 101.8C154.194 101.28 154.35 100.76 154.558 100.187C154.763 99.6428 154.936 99.0871 155.078 98.523C155.272 97.9476 155.411 97.3554 155.494 96.754V96.6502C155.495 96.4822 155.438 96.319 155.334 96.1869C155.231 96.0548 155.085 95.9615 154.922 95.922V95.9223ZM159.5 95.8182C159.32 95.8021 159.139 95.8382 158.98 95.9223C158.421 96.3325 157.944 96.8443 157.575 97.4309C157.208 97.9999 156.911 98.6111 156.691 99.2512C156.472 99.9087 156.333 100.59 156.274 101.28C156.221 101.988 156.328 102.699 156.587 103.361C156.613 103.449 156.658 103.531 156.718 103.6C156.778 103.67 156.853 103.727 156.936 103.766C157.02 103.805 157.11 103.826 157.202 103.828C157.295 103.83 157.386 103.813 157.471 103.777V103.777C157.554 103.745 157.629 103.696 157.692 103.634C157.755 103.571 157.804 103.496 157.835 103.413L157.887 103.361C158.147 102.788 158.355 102.268 158.563 101.696C158.771 101.176 158.928 100.656 159.136 100.084C159.34 99.539 159.514 98.9833 159.656 98.4192C159.849 97.8438 159.989 97.2516 160.072 96.6502V96.5458C160.083 96.3753 160.031 96.2067 159.925 96.0723C159.819 95.938 159.668 95.8472 159.5 95.8175V95.8182ZM165.066 97.1198C165.09 96.941 165.044 96.7599 164.937 96.6144C164.83 96.469 164.671 96.3705 164.493 96.3398C164.314 96.3238 164.133 96.3598 163.973 96.4436C163.415 96.854 162.938 97.3658 162.569 97.9522C162.202 98.5212 161.905 99.1326 161.685 99.7729C161.466 100.43 161.327 101.111 161.268 101.802C161.215 102.51 161.321 103.221 161.581 103.882C161.648 104.05 161.777 104.187 161.941 104.264C162.105 104.341 162.292 104.353 162.465 104.298C162.548 104.267 162.623 104.218 162.686 104.155C162.749 104.092 162.797 104.017 162.829 103.934L162.881 103.882C163.141 103.31 163.348 102.79 163.557 102.217C163.765 101.697 163.921 101.177 164.13 100.605C164.334 100.06 164.507 99.5046 164.65 98.9405C164.843 98.3651 164.982 97.7729 165.066 97.1716V97.1198Z" fill="#FFB400"></path> <path d="M163.975 108.978C163.834 108.99 163.692 108.973 163.559 108.926C160.698 108.459 155.132 107.782 149.722 108.718C149.31 108.799 148.884 108.775 148.484 108.648C148.084 108.521 147.722 108.295 147.433 107.99C147.134 107.684 146.909 107.315 146.773 106.909C146.638 106.504 146.597 106.073 146.653 105.649C147.069 102.893 147.849 99.5113 149.098 96.8065C149.516 95.8663 150.04 94.9764 150.658 94.1538C151.055 93.6713 151.606 93.3406 152.218 93.2176C157.529 92.2802 162.97 92.3862 168.24 93.5297C168.585 93.6002 168.914 93.7384 169.206 93.9363C169.498 94.1343 169.747 94.388 169.941 94.683C170.134 94.978 170.267 95.3083 170.333 95.6549C170.398 96.0016 170.394 96.3577 170.321 96.7027C170.266 96.9391 170.178 97.1667 170.061 97.3789V97.3789C170.009 97.4828 169.957 97.5869 169.905 97.691C168.413 100.59 167.294 103.666 166.575 106.846C166.453 107.446 166.127 107.985 165.654 108.374C165.18 108.762 164.587 108.976 163.975 108.978ZM168.551 96.5459C168.628 96.4206 168.668 96.2766 168.668 96.1298C168.668 95.983 168.628 95.8391 168.551 95.7138C168.492 95.5771 168.398 95.4578 168.28 95.3668C168.162 95.2758 168.022 95.2162 167.875 95.1935C165.033 94.6138 162.14 94.3176 159.24 94.3093C156.991 94.2909 154.745 94.4824 152.531 94.8814C152.316 94.9325 152.118 95.0402 151.958 95.1935C149.93 97.7424 148.786 102.996 148.317 105.909C148.29 106.058 148.3 106.212 148.345 106.357C148.39 106.502 148.47 106.634 148.577 106.741C148.685 106.848 148.817 106.928 148.962 106.973C149.107 107.019 149.26 107.028 149.41 107.001C155.028 106.013 160.854 106.741 163.819 107.209C163.942 107.231 164.068 107.228 164.19 107.2C164.312 107.172 164.427 107.121 164.528 107.048C164.63 106.975 164.716 106.883 164.782 106.777C164.848 106.671 164.892 106.552 164.911 106.429C165.679 102.987 166.903 99.6635 168.551 96.5459V96.5459Z" fill="#04294F"></path> <path d="M164.13 100.656C163.921 101.176 163.765 101.748 163.557 102.268C163.368 102.837 163.142 103.393 162.881 103.933L162.829 103.985C162.794 104.072 162.74 104.15 162.672 104.215C162.604 104.279 162.522 104.328 162.433 104.357C162.344 104.387 162.249 104.397 162.156 104.387C162.063 104.376 161.973 104.345 161.893 104.297C161.735 104.218 161.608 104.09 161.528 103.933C161.269 103.271 161.163 102.56 161.216 101.852C161.255 101.159 161.395 100.476 161.633 99.8237C161.853 99.1834 162.15 98.572 162.517 98.0031C162.886 97.4166 163.363 96.9048 163.921 96.4945C163.994 96.4388 164.079 96.4005 164.169 96.3826C164.26 96.3646 164.353 96.3673 164.442 96.3907C164.619 96.4213 164.778 96.5198 164.885 96.6652C164.992 96.8107 165.038 96.9919 165.014 97.1707V97.2748C164.906 97.8712 164.767 98.4616 164.598 99.0437C164.493 99.5634 164.285 100.084 164.13 100.656Z" fill="#04294F"></path> <path d="M160.072 96.7026C159.968 97.2747 159.812 97.8988 159.656 98.4715C159.5 99.0443 159.292 99.5639 159.136 100.136C158.928 100.656 158.771 101.228 158.564 101.749C158.374 102.317 158.148 102.873 157.887 103.413L157.835 103.465C157.741 103.611 157.617 103.735 157.471 103.829C157.386 103.865 157.295 103.883 157.202 103.881C157.11 103.879 157.02 103.858 156.936 103.819C156.853 103.779 156.779 103.723 156.718 103.653C156.658 103.583 156.613 103.502 156.587 103.413V103.413C156.328 102.752 156.221 102.041 156.274 101.333C156.313 100.64 156.453 99.956 156.691 99.304C156.911 98.6637 157.208 98.0524 157.575 97.4833C157.945 96.8968 158.421 96.3852 158.98 95.975C159.053 95.9193 159.138 95.8809 159.228 95.8628C159.318 95.8448 159.411 95.8475 159.5 95.8709C159.678 95.9017 159.836 96.0002 159.943 96.1457C160.05 96.2912 160.096 96.4724 160.072 96.6512V96.7026Z" fill="#04294F"></path> <path d="M155.494 96.7027V96.8065C155.39 97.3789 155.234 98.0031 155.078 98.5755C154.922 99.1479 154.714 99.6679 154.558 100.24C154.399 100.788 154.208 101.327 153.986 101.853C153.796 102.421 153.57 102.977 153.309 103.517L153.257 103.569C153.226 103.652 153.177 103.728 153.114 103.79C153.052 103.853 152.976 103.902 152.893 103.933C152.808 103.969 152.717 103.987 152.625 103.985C152.532 103.983 152.442 103.962 152.358 103.922C152.275 103.883 152.201 103.827 152.141 103.757C152.08 103.687 152.036 103.605 152.009 103.517V103.517C151.75 102.856 151.643 102.145 151.697 101.436C151.735 100.743 151.875 100.06 152.113 99.4079C152.333 98.7676 152.63 98.1562 152.997 97.5872C153.367 97.0008 153.843 96.4891 154.402 96.0789C154.556 95.9757 154.743 95.9344 154.927 95.9633C155.11 95.9922 155.275 96.0892 155.39 96.2348C155.479 96.3734 155.516 96.5389 155.494 96.7021V96.7027Z" fill="#04294F"></path> <path d="M22.7429 108.198C19.6217 107.366 17.8531 103.777 18.8414 100.24C19.8297 96.7024 23.1071 94.57 26.28 95.4541C29.4529 96.3383 31.1698 99.8755 30.1815 103.413C29.2453 106.95 25.9161 109.082 22.7429 108.198Z" fill="#04294F"></path> <path d="M77.8305 99.0953C78.5506 99.0955 79.2545 99.3092 79.8532 99.7094C80.4518 100.11 80.9184 100.678 81.1938 101.344C81.4693 102.009 81.5412 102.741 81.4006 103.447C81.26 104.153 80.9131 104.802 80.4039 105.311C79.8946 105.82 79.2458 106.167 78.5395 106.307C77.8332 106.448 77.1011 106.376 76.4358 106.1C75.7706 105.824 75.2019 105.358 74.8019 104.759C74.4018 104.16 74.1883 103.456 74.1883 102.736V102.736C74.1853 102.257 74.2775 101.782 74.4595 101.339C74.6415 100.896 74.9097 100.493 75.2485 100.155C75.5873 99.816 75.99 99.548 76.4333 99.3661C76.8765 99.1842 77.3514 99.0922 77.8305 99.0953V99.0953ZM78.3509 104.349C78.7213 104.349 79.0834 104.239 79.3914 104.033C79.6994 103.827 79.9394 103.535 80.0812 103.193C80.2229 102.85 80.26 102.474 80.1877 102.11C80.1154 101.747 79.937 101.414 79.675 101.152C79.4131 100.89 79.0793 100.711 78.716 100.639C78.3527 100.567 77.9761 100.604 77.6339 100.746C77.2917 100.888 76.9993 101.128 76.7935 101.436C76.5878 101.744 76.478 102.106 76.478 102.476V102.476C76.477 102.722 76.5248 102.966 76.6185 103.194C76.7123 103.422 76.8502 103.629 77.0243 103.803C77.1984 103.977 77.4053 104.115 77.633 104.208C77.8607 104.302 78.1047 104.35 78.3509 104.349V104.349Z" fill="#04294F"></path> <path d="M68.6231 105.753C67.6175 105.753 66.8023 104.938 66.8023 103.932C66.8023 102.927 67.6175 102.112 68.6231 102.112C69.6287 102.112 70.4438 102.927 70.4438 103.932C70.4438 104.938 69.6287 105.753 68.6231 105.753Z" fill="#F04E23"></path> <path d="M71.4847 106.898C71.8448 106.898 72.1968 107.005 72.4962 107.205C72.7957 107.405 73.029 107.689 73.1668 108.022C73.3046 108.354 73.3407 108.721 73.2704 109.074C73.2001 109.427 73.0267 109.751 72.772 110.006C72.5173 110.261 72.1929 110.434 71.8397 110.504C71.4864 110.574 71.1203 110.538 70.7876 110.4C70.455 110.263 70.1706 110.029 69.9706 109.73C69.7706 109.43 69.6638 109.078 69.6639 108.718V108.718C69.6624 108.479 69.7084 108.241 69.7994 108.02C69.8904 107.798 70.0245 107.597 70.1938 107.427C70.3632 107.258 70.5645 107.124 70.7861 107.033C71.0077 106.942 71.2451 106.896 71.4847 106.898V106.898Z" fill="#F04E23"></path> <path d="M78.3508 104.349C77.3165 104.349 76.478 103.511 76.478 102.477C76.478 101.442 77.3165 100.604 78.3508 100.604C79.3851 100.604 80.2236 101.442 80.2236 102.477C80.2236 103.511 79.3851 104.349 78.3508 104.349Z" fill="#00AEE0"></path> <path d="M71.7963 90.0965C71.4957 90.413 71.144 90.6768 70.7559 90.8769C70.3801 91.0858 69.9777 91.243 69.5597 91.3441C69.1187 91.4643 68.6561 91.4821 68.2072 91.3962C68.0967 91.3854 67.99 91.3498 67.8951 91.292C67.8089 91.2413 67.7343 91.1728 67.6763 91.0912C67.6183 91.0097 67.5781 90.9168 67.5585 90.8186C67.5388 90.7205 67.5401 90.6193 67.5622 90.5216C67.5843 90.424 67.6268 90.3321 67.6868 90.252V90.252V90.2C67.9085 89.8572 68.1906 89.5576 68.5193 89.3155C68.8063 89.0722 69.1205 88.8628 69.4555 88.6914C69.7766 88.4837 70.1274 88.3261 70.4959 88.2241C70.8824 88.0882 71.2842 88.0009 71.6922 87.9641H71.7963C71.9031 87.9559 72.0102 87.9737 72.1084 88.0162C72.2931 88.094 72.4399 88.2409 72.5177 88.4256C72.5955 88.6103 72.598 88.818 72.5246 89.0044C72.3626 89.4163 72.1143 89.7886 71.7963 90.0965V90.0965Z" fill="#04294F"></path> <path d="M74.085 93.6338C73.4743 94.2552 72.6982 94.6885 71.8486 94.882C71.4078 95.003 70.945 95.0208 70.4962 94.9341C70.3856 94.9233 70.279 94.8877 70.1841 94.83C70.0986 94.7784 70.0248 94.7096 69.9674 94.628C69.91 94.5463 69.8702 94.4536 69.8506 94.3557C69.831 94.2578 69.832 94.1569 69.8536 94.0595C69.8752 93.962 69.9168 93.8701 69.9758 93.7896V93.7376C70.4218 93.0743 71.031 92.5369 71.7448 92.1772C72.0658 91.9694 72.4166 91.8118 72.7852 91.71C73.1703 91.5687 73.5729 91.4812 73.9818 91.45H74.0856C74.1923 91.4417 74.2995 91.4596 74.3977 91.502C74.5823 91.5799 74.7292 91.7268 74.807 91.9115C74.8848 92.0961 74.8873 92.3038 74.8139 92.4903C74.6653 92.924 74.4154 93.316 74.085 93.6338V93.6338Z" fill="#04294F"></path> <path d="M72.4726 98.6791C72.3872 98.6275 72.3134 98.5587 72.2559 98.4771C72.1985 98.3954 72.1588 98.3027 72.1392 98.2048C72.1196 98.1069 72.1207 98.006 72.1423 97.9085C72.1639 97.8111 72.2056 97.7192 72.2647 97.6387V97.5867C72.501 97.2558 72.7809 96.9584 73.0968 96.7025C73.3838 96.4589 73.6981 96.2494 74.0334 96.0781C74.3543 95.8703 74.705 95.7127 75.0735 95.6108C75.4599 95.4746 75.8619 95.3873 76.27 95.3508H76.3742C76.4809 95.3426 76.5879 95.3604 76.6863 95.4025C76.8706 95.4808 77.0173 95.6278 77.095 95.8124C77.1727 95.997 77.1754 96.2046 77.1025 96.3911C76.9416 96.8315 76.6733 97.2247 76.3221 97.5353C76.0215 97.8519 75.6698 98.1157 75.2817 98.3156C74.9057 98.5245 74.5032 98.6817 74.0851 98.7829C73.6441 98.9028 73.1815 98.9205 72.7327 98.8346C72.6806 98.7819 72.5768 98.7819 72.4726 98.6791Z" fill="#04294F"></path> <path d="M55.7226 93.6337C55.6185 93.2695 55.4626 92.9575 55.3585 92.6454L55.3064 92.4892C55.2026 92.1251 55.0464 91.7609 54.9422 91.3968C54.8764 91.1825 54.8934 90.9514 54.9899 90.7491C55.0864 90.5468 55.2553 90.3881 55.4633 90.3044C55.9833 90.0965 56.5557 89.8885 57.0757 89.6803L57.284 89.5761C57.8041 89.3682 58.3244 89.1603 58.7924 88.952L59.0524 88.8482C59.5197 88.6399 60.041 88.432 60.509 88.2237L60.8211 88.0679L62.1722 87.4437C66.0702 85.6956 69.797 83.5885 73.3044 81.1497C73.4077 81.0734 73.5261 81.02 73.6517 80.9931C73.7773 80.9663 73.9072 80.9665 74.0327 80.9938C74.1534 81.015 74.2678 81.0634 74.3669 81.1355C74.466 81.2076 74.5474 81.3014 74.6048 81.4097C74.6569 81.5659 82.4596 96.4957 88.2337 103.725C88.3072 103.809 88.3631 103.908 88.3977 104.014C88.4324 104.121 88.4453 104.233 88.4356 104.345C88.4259 104.456 88.3938 104.565 88.3412 104.664C88.2886 104.763 88.2166 104.85 88.1295 104.921C87.7654 105.233 79.1305 112.567 68.7787 116.002C68.6989 116.044 68.6086 116.062 68.5187 116.054C68.3859 116.047 68.2562 116.012 68.1392 115.948C68.0222 115.885 67.9208 115.797 67.8425 115.69C67.4783 115.169 59.7794 104.09 55.774 93.6867L55.7226 93.6337ZM86.4136 104.193C81.3678 97.6388 75.2817 86.3513 73.5651 83.1262C70.4706 85.1692 67.2376 86.9941 63.8895 88.5879C64.7219 90.5647 67.0627 95.8181 68.1552 97.3267C68.231 97.4201 68.2845 97.5296 68.3115 97.6468C68.3385 97.764 68.3384 97.8858 68.3111 98.0029C68.2537 98.2413 68.104 98.447 67.8949 98.575C67.739 98.6791 64.2537 100.708 61.2366 101.644C63.5369 105.992 66.0723 110.211 68.8314 114.284C77.1025 111.371 84.2811 105.909 86.4136 104.193ZM60.5083 96.9626C60.6157 97.1754 60.7941 97.3439 61.0126 97.4388C61.2312 97.5338 61.4761 97.5493 61.7049 97.4826C62.3477 97.2491 62.9733 96.971 63.5774 96.6505C63.6906 96.5928 63.7912 96.5132 63.8734 96.4164C63.9557 96.3195 64.0179 96.2074 64.0566 96.0864C64.0953 95.9654 64.1097 95.8379 64.0989 95.7113C64.0881 95.5847 64.0523 95.4616 63.9936 95.3489C63.5264 94.5165 63.0053 93.2682 62.6412 92.4358C62.5402 92.205 62.354 92.022 62.1214 91.9252C61.8888 91.8283 61.6278 91.8249 61.3928 91.9158V91.9158C60.8725 92.1237 60.3525 92.3317 59.78 92.592C59.5481 92.6936 59.3616 92.877 59.2561 93.1071C59.1506 93.3373 59.1335 93.5983 59.2079 93.8403C59.5524 94.9157 59.9879 95.9598 60.5097 96.9613L60.5083 96.9626Z" fill="#04294F"></path> <path d="M83.2925 158.601C84.5931 157.405 85.8415 156.157 87.0378 154.856L87.194 154.648C78.3509 150.695 71.2764 143.465 70.5481 142.685L69.4557 143.465L66.9066 145.285C66.0745 145.909 65.19 146.482 64.3579 147.106C64.2703 147.162 64.1665 147.188 64.0629 147.178C63.9592 147.169 63.8617 147.125 63.7858 147.054C63.7337 147.002 63.7337 147.002 63.7337 146.95C63.6874 146.865 63.6724 146.766 63.6914 146.671C63.7103 146.576 63.7621 146.491 63.8375 146.43V146.43L64.6699 145.754L66.2303 144.452L68.6232 142.475L72.6806 139.201C72.941 138.941 73.201 138.733 73.461 138.472C73.6274 138.336 73.8405 138.271 74.0545 138.29C74.2686 138.31 74.4664 138.413 74.6055 138.576C76.169 140.209 77.8371 141.738 79.5992 143.154L79.6513 143.206C80.0154 143.466 80.3275 143.778 80.6917 144.038C81.212 144.454 81.732 144.87 82.3041 145.286C85.1276 147.409 88.1814 149.206 91.4076 150.644C91.5459 150.707 91.6659 150.804 91.7567 150.926C91.8474 151.048 91.9059 151.191 91.9266 151.341C91.9474 151.492 91.9297 151.645 91.8753 151.787C91.821 151.929 91.7316 152.054 91.6156 152.152C91.6156 152.152 91.4597 152.257 91.1993 152.465C90.159 153.609 89.0668 154.701 87.9223 155.794C86.7778 156.887 85.6336 157.874 84.437 158.864L83.8128 159.332C83.7295 159.399 83.6231 159.432 83.5162 159.422C83.4093 159.412 83.3105 159.361 83.2407 159.28V159.28C83.1703 159.178 83.137 159.055 83.1464 158.932C83.1559 158.809 83.2074 158.693 83.2925 158.603V158.601Z" fill="#04294F"></path> <path d="M35.8513 146.222C35.9657 146.219 36.0788 146.246 36.1793 146.301C36.2798 146.356 36.364 146.436 36.4237 146.534C36.4716 146.609 36.5041 146.693 36.5195 146.781C36.535 146.868 36.533 146.958 36.5136 147.045C36.4943 147.132 36.458 147.214 36.4068 147.287C36.3557 147.36 36.2906 147.422 36.2154 147.47V147.47C35.4277 147.937 34.6111 148.354 33.7705 148.718C32.9384 149.082 32.158 149.447 31.3259 149.759L28.881 150.747C28.1006 151.059 27.3202 151.371 26.4881 151.735H26.4361C26.3546 151.773 26.2661 151.794 26.1762 151.796C26.0863 151.798 25.9969 151.782 25.9138 151.747C25.8306 151.713 25.7555 151.662 25.6931 151.597C25.6308 151.532 25.5825 151.455 25.5515 151.371C25.5076 151.271 25.4894 151.161 25.4985 151.052C25.5076 150.943 25.5437 150.838 25.6036 150.747C26.1674 149.931 26.8935 149.241 27.7365 148.718C28.5301 148.182 29.3861 147.745 30.2855 147.417C31.1609 147.061 32.0655 146.783 32.9891 146.584C33.9169 146.307 34.8838 146.185 35.8513 146.222V146.222Z" fill="#04294F"></path> <path d="M30.7018 152.411C31.0503 152.107 31.4574 151.877 31.8981 151.735C32.317 151.577 32.7544 151.472 33.1998 151.423C33.6705 151.38 34.1451 151.415 34.6043 151.527L34.9164 151.684C35.0675 151.808 35.1633 151.987 35.1828 152.182C35.2023 152.377 35.144 152.572 35.0205 152.724L34.9685 152.776C34.6748 153.093 34.3428 153.372 33.9802 153.608C33.6497 153.812 33.3015 153.986 32.9398 154.128C32.6015 154.273 32.2539 154.394 31.8994 154.492C31.5273 154.599 31.1419 154.651 30.7549 154.648H30.5469C30.4568 154.662 30.3648 154.644 30.2869 154.596C30.1085 154.526 29.9648 154.389 29.8869 154.213C29.809 154.038 29.8032 153.839 29.8707 153.66V153.66C29.982 153.155 30.2785 152.709 30.7018 152.411V152.411Z" fill="#04294F"></path> <path d="M38.2441 168.433C39.1807 167.913 40.117 167.392 41.0532 166.976C41.9895 166.509 42.9781 166.144 43.9664 165.728C44.9548 165.364 45.9431 164.999 46.9835 164.687H47.0355C47.3461 164.598 47.6789 164.629 47.9679 164.773C48.257 164.918 48.4811 165.166 48.596 165.468C48.7481 165.842 48.9217 166.206 49.116 166.56C49.3221 166.953 49.5478 167.335 49.7922 167.705C50.2595 168.433 50.7809 169.213 51.353 169.941C51.873 170.669 52.4454 171.397 53.0175 172.177L54.6821 174.413C54.7338 174.485 54.7708 174.566 54.7909 174.651C54.8111 174.737 54.814 174.826 54.7995 174.913C54.785 175 54.7534 175.083 54.7065 175.158C54.6596 175.232 54.5983 175.297 54.5262 175.348C54.4105 175.424 54.2748 175.465 54.136 175.465C53.9973 175.465 53.8616 175.424 53.7458 175.348C53.0175 174.724 52.2892 174.099 51.613 173.475C50.9367 172.799 50.2605 172.123 49.6363 171.446C48.9859 170.738 48.3779 169.991 47.8156 169.21C47.4514 168.69 47.1393 168.17 46.8273 167.65L44.9548 168.326L42.0415 169.366C41.0532 169.731 40.117 170.043 39.1807 170.407C38.2393 170.752 37.3187 171.151 36.4237 171.603V171.603C36.3457 171.644 36.2602 171.668 36.1724 171.674C36.0847 171.68 35.9967 171.668 35.9137 171.639C35.8308 171.61 35.7548 171.564 35.6904 171.504C35.6259 171.444 35.5745 171.371 35.5392 171.291C35.4907 171.162 35.4748 171.024 35.493 170.888C35.5112 170.751 35.5628 170.622 35.6433 170.511C36.3707 169.659 37.2533 168.954 38.2441 168.433V168.433Z" fill="#04294F"></path> <path d="M37.8282 104.401C37.699 104.333 37.5943 104.226 37.529 104.095C37.4637 103.965 37.441 103.817 37.4641 103.673C37.6684 102.713 38.0009 101.786 38.4524 100.916C38.911 100.068 39.451 99.2663 40.0649 98.5229C40.6985 97.7853 41.4141 97.1222 42.1977 96.5464C43.0189 95.9753 43.934 95.5528 44.9014 95.2981C45.0805 95.2587 45.268 95.291 45.4236 95.3883C45.5791 95.4855 45.6904 95.6398 45.7335 95.8181C45.7607 95.927 45.7607 96.0409 45.7335 96.1497C45.7064 96.2585 45.6528 96.359 45.5776 96.4423L45.5255 96.4943C44.9014 97.1705 44.2772 97.7429 43.7047 98.3671C43.1323 98.9912 42.5606 99.6153 41.9881 100.292L40.3236 102.268L38.6069 104.297L38.5552 104.349C38.4275 104.469 38.2628 104.543 38.0879 104.557H37.9317C37.932 104.453 37.88 104.453 37.8282 104.401Z" fill="#04294F"></path> <path d="M26.124 103.256L26.072 105.805C26.074 105.84 26.0688 105.875 26.0564 105.907C26.0441 105.94 26.025 105.969 26.0004 105.994C25.9759 106.018 25.9464 106.037 25.9139 106.05C25.8814 106.062 25.8466 106.067 25.8119 106.065C25.7837 106.069 25.755 106.066 25.7279 106.057C25.7009 106.048 25.6762 106.033 25.6557 106.013L23.7832 104.505C23.7053 104.458 23.6133 104.439 23.5232 104.453L21.2869 105.233C21.2566 105.248 21.2232 105.256 21.1894 105.256C21.1555 105.256 21.1221 105.248 21.0919 105.233C21.0616 105.218 21.0353 105.196 21.015 105.169C20.9946 105.142 20.9809 105.11 20.9748 105.077V104.921L21.8073 102.528C21.8593 102.476 21.8073 102.372 21.7552 102.32L20.3507 100.239C20.3239 100.215 20.3035 100.184 20.2913 100.15C20.2791 100.116 20.2753 100.079 20.2805 100.044C20.2856 100.008 20.2994 99.9736 20.3207 99.9443C20.342 99.915 20.3702 99.8913 20.4027 99.8753C20.4548 99.8232 20.5069 99.8232 20.6107 99.8232L23.0035 99.8753C23.0438 99.8745 23.0833 99.8648 23.1194 99.8469C23.1554 99.8289 23.187 99.8032 23.2118 99.7715L24.6163 97.7429C24.6365 97.7152 24.662 97.6918 24.6914 97.6742C24.7207 97.6565 24.7533 97.6449 24.7873 97.64C24.8212 97.6352 24.8557 97.6372 24.8889 97.6459C24.922 97.6546 24.953 97.6699 24.9802 97.6908C25.0322 97.7429 25.0843 97.7946 25.0843 97.8467L25.7085 100.239C25.711 100.28 25.7283 100.318 25.757 100.347C25.7858 100.376 25.8241 100.393 25.8647 100.396L28.101 101.176C28.1329 101.184 28.1625 101.199 28.1881 101.22C28.2137 101.241 28.2345 101.267 28.2493 101.297C28.264 101.326 28.2724 101.359 28.2737 101.392C28.2751 101.425 28.2695 101.457 28.2572 101.488C28.2553 101.515 28.2438 101.54 28.2246 101.559C28.2055 101.579 28.18 101.59 28.1531 101.592L26.124 103.048C26.1761 103.1 26.124 103.154 26.124 103.256Z" fill="#00AEE0"></path> <path d="M29.2453 56.0273C29.9552 55.7179 30.7254 55.5714 31.4993 55.5984C32.2732 55.6253 33.0313 55.8251 33.7179 56.1831C35.1651 56.9439 36.3184 58.1641 36.9963 59.6519C37.6743 61.1396 37.8386 62.8104 37.4633 64.4017C37.2787 65.16 36.9257 65.8671 36.4304 66.4703C35.935 67.0734 35.3101 67.5573 34.6021 67.8858C33.9588 68.1531 33.2701 68.2944 32.5734 68.302C31.7261 68.2976 30.8907 68.1021 30.1295 67.7299C28.6882 66.965 27.5428 65.7419 26.874 64.2537C26.2052 62.7655 26.0512 61.0969 26.4362 59.5114C26.6045 58.7535 26.9455 58.0448 27.4328 57.4404C27.9201 56.8361 28.5404 56.3525 29.2453 56.0273V56.0273ZM29.2453 63.1534C29.6773 64.1052 30.4078 64.8903 31.3261 65.3896C31.6698 65.5824 32.0539 65.6918 32.4475 65.7091C32.8412 65.7264 33.2335 65.6511 33.5927 65.4892C33.952 65.3273 34.2682 65.0833 34.516 64.7769C34.7638 64.4706 34.9362 64.1103 35.0194 63.7251C35.2466 62.7157 35.1354 61.6596 34.703 60.7197C34.2705 59.7797 33.5409 59.0081 32.6265 58.5238C32.224 58.3166 31.7775 58.2095 31.3247 58.2114C30.9838 58.2051 30.6458 58.2763 30.3364 58.4197C29.9795 58.5966 29.6675 58.8524 29.4242 59.1678C29.1808 59.4832 29.0125 59.8499 28.9319 60.24C28.672 61.2162 28.7832 62.2541 29.244 63.1531L29.2453 63.1534Z" fill="#04294F"></path> <path d="M24.1473 46.8194C25.6036 46.1432 27.3723 47.0794 28.2047 48.796C28.9848 50.5649 28.4647 52.489 27.0602 53.1652C25.6036 53.8414 23.7832 52.9052 23.0028 51.1887C22.1703 49.4188 22.6907 47.4436 24.1473 46.8194Z" fill="#04294F"></path> <path d="M37.1189 6.90024C36.1708 5.25825 36.5518 3.26343 37.9699 2.4447C39.388 1.62597 41.3062 2.29336 42.2543 3.93535C43.2024 5.57734 42.8213 7.57216 41.4032 8.39089C39.9851 9.20962 38.067 8.54223 37.1189 6.90024Z" fill="#F04E23"></path> <path d="M33.8228 11.7606C31.7941 13.0089 29.7654 14.3092 27.8929 15.7137L26.4883 16.8061C26.021 17.1703 25.6038 17.5861 25.1358 17.9503C24.2513 18.7306 23.3668 19.5109 22.5868 20.343C20.8904 22.0056 19.3252 23.7969 17.9052 25.7009C16.4486 27.6253 15.1482 29.6019 13.8998 31.6305C13.852 31.7056 13.7899 31.7707 13.7169 31.8218C13.644 31.873 13.5617 31.9093 13.4747 31.9286C13.3877 31.948 13.2978 31.95 13.21 31.9346C13.1223 31.9191 13.0384 31.8866 12.9633 31.8387C12.8358 31.7593 12.7401 31.6378 12.6927 31.4954C12.6452 31.3529 12.6489 31.1984 12.7032 31.0584C13.5381 28.696 14.6559 26.4434 16.0324 24.3498C16.3965 23.8295 16.7086 23.3095 17.0727 22.7891C17.4369 22.2688 17.801 21.8009 18.2173 21.2809C18.6056 20.7888 19.0225 20.3198 19.4656 19.8764C19.9329 19.4602 20.298 18.9419 20.7673 18.524C22.5395 16.7484 24.4914 15.1616 26.5915 13.7893C28.6926 12.4395 30.9442 11.3396 33.3004 10.512C33.4596 10.4531 33.6354 10.4581 33.791 10.526C33.9466 10.5939 34.0698 10.7194 34.1348 10.8762C34.1848 11.0376 34.1813 11.2108 34.125 11.3701C34.0688 11.5294 33.9627 11.6664 33.8224 11.7606H33.8228Z" fill="#04294F"></path> <path d="M4.95249 63.2565V63.3603C5.41978 64.8169 5.99288 66.2734 6.56497 67.7299C6.87706 68.4579 7.13707 69.1861 7.50122 69.8623C7.65743 70.2265 7.81331 70.5906 7.96852 70.9027C8.11038 71.2644 8.28452 71.6126 8.48887 71.943C9.8727 74.7294 11.5465 77.3621 13.4825 79.7974V79.7974C13.5653 79.8802 13.6118 79.9924 13.6118 80.1095C13.6118 80.2265 13.5653 80.3388 13.4825 80.4215C13.3998 80.5043 13.2875 80.5508 13.1705 80.5508C13.0534 80.5508 12.9411 80.5043 12.8584 80.4215C11.6082 79.3794 10.5056 78.172 9.581 76.8326C9.32099 76.5205 9.1137 76.1564 8.85302 75.8443C8.59772 75.5179 8.37145 75.1698 8.17679 74.804L7.5523 73.7637L6.9802 72.6713C6.61605 71.943 6.25189 71.2147 5.93981 70.4865C5.62773 69.7582 5.31565 68.9782 5.05564 68.2503L4.63941 67.1058C4.53527 66.7417 4.3794 66.3258 4.27526 65.9617C4.11905 65.3893 3.96317 64.7651 3.85903 64.1927C3.23486 64.2969 2.5573 64.4007 1.93447 64.5569C1.82468 64.5956 1.70407 64.5898 1.59855 64.5406C1.49303 64.4914 1.41101 64.4027 1.37013 64.2937C1.32926 64.1847 1.33279 64.064 1.37995 63.9576C1.42712 63.8511 1.51417 63.7674 1.62238 63.7245C2.4552 63.3835 3.30605 63.0883 4.17111 62.8403C4.32948 62.8072 4.49447 62.8307 4.63727 62.9068C4.78008 62.9828 4.89164 63.1066 4.95249 63.2565V63.2565Z" fill="#04294F"></path> <path d="M7.65745 54.1014C8.02738 54.3679 8.37529 54.6637 8.69784 54.9859C8.75764 55.0591 8.79444 55.1484 8.80363 55.2425C8.81283 55.3365 8.79401 55.4312 8.74953 55.5146C8.70504 55.598 8.63688 55.6664 8.55363 55.7112C8.47037 55.756 8.37573 55.7751 8.28162 55.7662C7.83625 55.7177 7.39883 55.6128 6.97987 55.4542C6.15332 55.1532 5.3671 54.7513 4.63908 54.2576C4.26993 54.0093 3.92195 53.7309 3.59869 53.4252C3.51751 53.328 3.47752 53.2029 3.48725 53.0766C3.49698 52.9502 3.55565 52.8327 3.65076 52.749C3.69178 52.7096 3.74109 52.6798 3.79508 52.6619C3.84906 52.6439 3.90638 52.6382 3.96284 52.6452C4.40824 52.6936 4.84567 52.7985 5.26459 52.9573C6.11304 53.2217 6.91895 53.6071 7.65745 54.1014V54.1014Z" fill="#04294F"></path> <path d="M9.89405 53.0092C9.45076 52.9017 9.01573 52.7626 8.5923 52.593C7.81222 52.2176 7.09329 51.7265 6.4598 51.1365C6.13807 50.8321 5.84221 50.5016 5.57527 50.1482C5.50183 50.0439 5.47166 49.9152 5.49108 49.7891C5.51049 49.663 5.57799 49.5494 5.67942 49.472C5.73319 49.4385 5.79333 49.4166 5.85602 49.4077C5.91872 49.3987 5.98258 49.4029 6.04357 49.4199C6.46947 49.5274 6.88674 49.6665 7.2919 49.8361C8.08112 50.2234 8.81578 50.7131 9.47682 51.2927C9.79844 51.597 10.0942 51.9276 10.361 52.2809C10.3945 52.3347 10.4164 52.3948 10.4253 52.4575C10.4343 52.5202 10.4301 52.5841 10.4131 52.6451C10.409 52.7059 10.3914 52.765 10.3614 52.8181C10.3315 52.8711 10.29 52.9168 10.2401 52.9518C10.1902 52.9867 10.1331 53.01 10.0729 53.0199C10.0128 53.0299 9.95122 53.0262 9.8927 53.0092H9.89405Z" fill="#04294F"></path> <path d="M201.687 105.805C202.43 106.001 203.16 106.244 203.872 106.534L203.976 106.846C204.236 107.626 204.392 108.406 204.6 109.186L205.172 111.527C205.38 112.307 205.588 113.036 205.796 113.816V113.868C205.821 113.953 205.829 114.043 205.819 114.131C205.809 114.219 205.781 114.305 205.738 114.382C205.694 114.46 205.636 114.528 205.565 114.582C205.495 114.637 205.415 114.677 205.329 114.7C205.22 114.727 205.106 114.727 204.997 114.7C204.888 114.673 204.788 114.619 204.705 114.544C203.978 113.931 203.393 113.168 202.988 112.308C202.577 111.516 202.263 110.678 202.052 109.811C201.833 108.959 201.694 108.088 201.636 107.21C201.628 106.741 201.645 106.273 201.687 105.806L201.687 105.805Z" fill="#04294F"></path> <path d="M122.099 124.427C122.151 124.219 122.202 124.063 122.254 123.855C122.252 124.056 122.198 124.252 122.099 124.427V124.427Z" fill="#04294F"></path> <path d="M125.011 123.023C124.491 123.387 122.254 123.855 122.254 123.855L122.411 123.231L122.983 120.89L123.555 118.549C123.739 117.741 123.964 116.942 124.231 116.157V116.104C124.266 116 124.328 115.907 124.41 115.835C124.492 115.762 124.591 115.711 124.698 115.688C124.784 115.663 124.873 115.655 124.962 115.665C125.05 115.675 125.135 115.703 125.213 115.747C125.29 115.79 125.359 115.849 125.413 115.919C125.468 115.989 125.508 116.069 125.531 116.155V116.155C125.788 117.015 125.894 117.912 125.843 118.808C125.824 119.703 125.702 120.594 125.479 121.461C125.366 121.993 125.209 122.516 125.011 123.023V123.023Z" fill="#04294F"></path> <path d="M147.9 158.445C147.484 159.006 146.867 159.384 146.179 159.501C145.49 159.617 144.783 159.463 144.206 159.07C141.813 157.457 137.028 154.492 131.774 153.088C131.368 152.987 130.994 152.787 130.685 152.506C130.376 152.224 130.142 151.87 130.005 151.475C129.852 151.076 129.796 150.647 129.841 150.222C129.886 149.797 130.031 149.388 130.265 149.03C131.843 146.608 133.693 144.374 135.779 142.373C136.658 141.559 137.637 140.86 138.692 140.292C139.257 140.016 139.9 139.943 140.512 140.084C145.737 141.453 150.648 143.82 154.973 147.054C155.258 147.261 155.498 147.523 155.681 147.824C155.864 148.125 155.986 148.459 156.039 148.807C156.092 149.155 156.076 149.511 155.991 149.852C155.907 150.194 155.755 150.516 155.546 150.799C155.399 150.998 155.224 151.173 155.025 151.319V151.319L154.558 151.683C152.047 153.631 149.808 155.905 147.9 158.445V158.445ZM154.35 149.134C154.346 148.98 154.306 148.83 154.234 148.694C154.162 148.559 154.059 148.442 153.934 148.353C149.808 145.228 145.106 142.949 140.097 141.645C139.89 141.581 139.666 141.6 139.473 141.697C136.507 143.205 133.334 147.471 131.67 149.915C131.589 150.046 131.537 150.193 131.519 150.346C131.501 150.498 131.517 150.653 131.566 150.799C131.62 150.936 131.704 151.058 131.812 151.157C131.92 151.256 132.049 151.329 132.19 151.371C137.704 152.88 142.698 155.897 145.143 157.613C145.352 157.742 145.603 157.787 145.845 157.739C146.086 157.69 146.3 157.552 146.444 157.353C148.592 154.529 151.112 152.01 153.935 149.862C154.063 149.789 154.169 149.683 154.242 149.555C154.315 149.427 154.353 149.282 154.351 149.134L154.35 149.134Z" fill="#04294F"></path> <path d="M150.552 149.03L150.5 149.082C150.161 149.583 149.778 150.053 149.356 150.487C148.94 150.903 148.576 151.319 148.16 151.789C147.744 152.205 147.379 152.621 146.963 152.985C146.555 153.427 146.12 153.844 145.662 154.233L145.609 154.285C145.539 154.346 145.457 154.392 145.368 154.42C145.279 154.448 145.185 154.457 145.093 154.448C145 154.438 144.91 154.409 144.829 154.363C144.748 154.318 144.677 154.256 144.621 154.181C144.523 154.045 144.469 153.882 144.465 153.714C144.52 153.007 144.714 152.317 145.037 151.685C145.358 151.078 145.761 150.518 146.234 150.021C146.692 149.517 147.217 149.079 147.794 148.719C148.388 148.353 149.038 148.09 149.719 147.939C149.858 147.918 149.999 147.935 150.129 147.988C150.259 148.041 150.373 148.128 150.458 148.239C150.543 148.351 150.596 148.483 150.613 148.622C150.629 148.762 150.608 148.903 150.551 149.031L150.552 149.03Z" fill="#04294F"></path> <path d="M146.184 146.534C145.845 147.035 145.462 147.504 145.04 147.938C144.624 148.354 144.26 148.77 143.844 149.24C143.427 149.656 143.063 150.072 142.647 150.436C142.239 150.878 141.804 151.295 141.346 151.685L141.293 151.736C141.157 151.834 140.994 151.889 140.826 151.893C140.648 151.876 140.483 151.791 140.366 151.655C140.25 151.519 140.191 151.343 140.202 151.164C140.257 150.457 140.451 149.768 140.774 149.136C141.095 148.529 141.497 147.969 141.97 147.471C142.442 146.982 142.965 146.546 143.531 146.17C144.125 145.804 144.775 145.54 145.456 145.389C145.634 145.361 145.816 145.398 145.969 145.493C146.122 145.589 146.236 145.737 146.288 145.909C146.309 145.998 146.31 146.091 146.292 146.181C146.275 146.271 146.238 146.355 146.184 146.43L146.184 146.534Z" fill="#04294F"></path> <path d="M141.969 144.713C141.647 145.213 141.282 145.683 140.877 146.118C140.461 146.534 140.097 146.95 139.681 147.419C139.308 147.844 138.909 148.243 138.484 148.616C138.076 149.058 137.641 149.474 137.183 149.864L137.13 149.916C137.06 149.977 136.978 150.023 136.889 150.051C136.8 150.079 136.706 150.088 136.614 150.078C136.521 150.069 136.431 150.04 136.35 149.994C136.269 149.948 136.198 149.886 136.142 149.812C136.044 149.676 135.99 149.513 135.986 149.345C136.041 148.638 136.235 147.948 136.558 147.316C136.879 146.709 137.282 146.149 137.755 145.652C138.213 145.148 138.738 144.71 139.315 144.35C139.909 143.984 140.559 143.721 141.24 143.57C141.329 143.549 141.422 143.547 141.511 143.565C141.601 143.583 141.686 143.62 141.76 143.674C141.835 143.722 141.9 143.784 141.951 143.857C142.003 143.93 142.039 144.012 142.058 144.099C142.078 144.186 142.08 144.276 142.064 144.363C142.049 144.451 142.016 144.535 141.968 144.61V144.61L141.969 144.713Z" fill="#04294F"></path> <path d="M182.492 204.22C182.468 204.027 182.519 203.832 182.636 203.677C182.752 203.522 182.925 203.418 183.116 203.387C183.739 203.335 184.366 203.335 184.989 203.387C185.589 203.453 186.181 203.575 186.758 203.751C187.346 203.913 187.92 204.122 188.474 204.375C189.052 204.635 189.594 204.967 190.087 205.364C190.232 205.479 190.326 205.647 190.347 205.831C190.363 205.924 190.358 206.019 190.334 206.11C190.31 206.201 190.268 206.286 190.209 206.36C190.15 206.434 190.076 206.494 189.993 206.537C189.909 206.581 189.817 206.606 189.723 206.611C189.1 206.663 188.474 206.663 187.85 206.611C187.251 206.545 186.658 206.423 186.081 206.247C185.493 206.085 184.919 205.877 184.365 205.623C183.787 205.363 183.246 205.031 182.752 204.634C182.625 204.526 182.535 204.381 182.492 204.22Z" fill="#04294F"></path> <path d="M199.658 174.154C199.035 174.206 198.409 174.206 197.786 174.154C197.186 174.088 196.594 173.966 196.016 173.79C195.429 173.628 194.854 173.42 194.3 173.166C193.723 172.906 193.181 172.574 192.687 172.177C192.578 172.091 192.498 171.973 192.455 171.84C192.413 171.707 192.412 171.565 192.451 171.431C192.49 171.297 192.568 171.178 192.675 171.089C192.782 170.999 192.913 170.944 193.052 170.929V170.929C193.671 170.825 194.304 170.825 194.924 170.929C196.13 171.075 197.306 171.408 198.409 171.917C198.987 172.177 199.529 172.509 200.023 172.906C200.132 172.993 200.213 173.11 200.255 173.243C200.297 173.376 200.299 173.518 200.26 173.652C200.221 173.786 200.143 173.905 200.036 173.995C199.929 174.084 199.797 174.14 199.659 174.154H199.658Z" fill="#04294F"></path> <path d="M194.456 179.2C193.522 178.935 192.602 178.623 191.699 178.265C190.781 177.905 189.893 177.47 189.047 176.964C188.971 176.916 188.906 176.854 188.855 176.781C188.804 176.708 188.768 176.626 188.748 176.539C188.729 176.452 188.727 176.362 188.742 176.274C188.758 176.186 188.79 176.102 188.838 176.027C188.898 175.93 188.982 175.85 189.083 175.795C189.183 175.74 189.296 175.713 189.41 175.715C190.388 175.742 191.362 175.846 192.324 176.027C193.271 176.204 194.209 176.429 195.133 176.704C196.067 176.968 196.987 177.28 197.89 177.638C198.808 177.998 199.696 178.433 200.543 178.94C200.694 179.036 200.801 179.189 200.84 179.364C200.879 179.539 200.847 179.723 200.751 179.874C200.691 179.972 200.607 180.052 200.506 180.107C200.406 180.162 200.293 180.189 200.178 180.186C199.199 180.185 198.223 180.081 197.265 179.874C196.318 179.699 195.38 179.473 194.456 179.2V179.2Z" fill="#04294F"></path> <path d="M193.104 184.714C192.064 184.454 191.075 184.089 190.033 183.725C189.016 183.339 188.026 182.888 187.068 182.373C186.917 182.276 186.808 182.127 186.76 181.954C186.712 181.781 186.729 181.597 186.808 181.436C186.866 181.325 186.957 181.235 187.069 181.179C187.181 181.123 187.308 181.104 187.432 181.124C188.516 181.186 189.594 181.325 190.657 181.54C191.698 181.749 192.738 182.008 193.779 182.269C194.819 182.581 195.807 182.893 196.849 183.257C197.866 183.643 198.856 184.095 199.814 184.609C199.965 184.706 200.075 184.855 200.123 185.028C200.17 185.201 200.153 185.385 200.074 185.546C200.017 185.657 199.925 185.747 199.813 185.803C199.701 185.859 199.574 185.878 199.45 185.858C198.367 185.796 197.289 185.657 196.225 185.442C195.169 185.273 194.126 185.03 193.104 184.714V184.714Z" fill="#04294F"></path> <path d="M191.543 190.175C190.503 189.863 189.515 189.551 188.526 189.187C187.522 188.811 186.548 188.359 185.613 187.835C185.465 187.735 185.358 187.586 185.31 187.414C185.262 187.243 185.278 187.06 185.353 186.898C185.411 186.787 185.502 186.697 185.615 186.641C185.727 186.584 185.854 186.565 185.977 186.586C187.061 186.648 188.139 186.787 189.202 187.002C190.243 187.21 191.283 187.469 192.324 187.73C193.364 188.042 194.352 188.355 195.393 188.719C196.409 189.104 197.4 189.556 198.358 190.071C198.508 190.168 198.617 190.317 198.665 190.489C198.713 190.661 198.696 190.845 198.618 191.006C198.56 191.117 198.469 191.207 198.356 191.263C198.244 191.319 198.117 191.338 197.994 191.318C196.91 191.256 195.832 191.117 194.769 190.902C193.681 190.72 192.604 190.478 191.543 190.175V190.175Z" fill="#04294F"></path> <path d="M189.619 195.481C188.684 195.221 187.694 194.909 186.757 194.546C185.805 194.187 184.883 193.751 184 193.244C183.925 193.197 183.86 193.134 183.809 193.061C183.758 192.989 183.722 192.906 183.702 192.819C183.683 192.732 183.681 192.642 183.696 192.555C183.712 192.467 183.745 192.383 183.792 192.308C183.852 192.21 183.936 192.13 184.037 192.075C184.137 192.021 184.25 191.993 184.365 191.996C185.378 192.04 186.387 192.162 187.382 192.36C188.37 192.568 189.359 192.776 190.295 193.036C191.231 193.296 192.219 193.609 193.156 193.973C194.108 194.332 195.03 194.767 195.913 195.274C196.06 195.374 196.168 195.522 196.215 195.694C196.263 195.865 196.248 196.048 196.173 196.209C196.115 196.32 196.024 196.41 195.912 196.466C195.799 196.522 195.672 196.542 195.549 196.521C194.535 196.477 193.526 196.355 192.531 196.157C191.544 196.012 190.569 195.785 189.619 195.481V195.481Z" fill="#04294F"></path> <path d="M187.85 200.89C187.055 200.677 186.273 200.417 185.509 200.11C184.728 199.802 183.979 199.419 183.273 198.966C183.121 198.869 183.015 198.716 182.976 198.541C182.937 198.366 182.969 198.183 183.065 198.031C183.114 197.935 183.188 197.855 183.28 197.8C183.372 197.745 183.478 197.717 183.585 197.719C184.422 197.711 185.258 197.78 186.082 197.927C187.707 198.194 189.295 198.648 190.816 199.279C191.596 199.587 192.345 199.971 193.052 200.424C193.203 200.52 193.31 200.673 193.349 200.848C193.388 201.023 193.356 201.207 193.26 201.358C193.205 201.46 193.122 201.544 193.02 201.599C192.918 201.655 192.803 201.679 192.688 201.67C191.851 201.679 191.015 201.609 190.191 201.462C189.409 201.306 188.63 201.098 187.85 200.89Z" fill="#04294F"></path> <path d="M175.73 178.055C175.792 177.126 175.931 176.204 176.146 175.298C176.25 174.934 176.354 174.57 176.458 174.206C177.212 175.238 177.841 176.355 178.331 177.535C178.337 177.762 178.32 177.989 178.279 178.211L178.123 180.76C178.071 181.592 178.019 182.425 177.914 183.309V183.361C177.91 183.451 177.888 183.539 177.848 183.62C177.809 183.7 177.753 183.772 177.685 183.831C177.617 183.889 177.538 183.933 177.452 183.96C177.366 183.986 177.275 183.995 177.186 183.985C177.066 183.984 176.949 183.95 176.848 183.885C176.747 183.821 176.666 183.729 176.614 183.621C176.188 182.754 175.907 181.822 175.782 180.864C175.686 179.931 175.669 178.991 175.73 178.055Z" fill="#04294F"></path> <path d="M102.331 73.7115C102.402 73.6623 102.482 73.6285 102.566 73.6123C102.65 73.5961 102.737 73.5979 102.82 73.6175C102.904 73.6371 102.982 73.6742 103.05 73.7262C103.118 73.7782 103.175 73.8441 103.216 73.9194V73.9194C104.36 75.7401 105.504 77.5607 106.597 79.4852C107.169 80.4214 107.689 81.3579 108.209 82.3462L108.313 82.5541L108.365 82.6583C106.025 82.45 105.192 82.0859 105.192 82.0859C104.885 81.6544 104.607 81.2026 104.36 80.7335C103.788 79.7375 103.267 78.7132 102.799 77.6645C102.33 76.5907 102.031 75.4498 101.915 74.2835C101.987 74.0519 102.133 73.8506 102.331 73.7115V73.7115Z" fill="#04294F"></path> <path d="M214.223 130.773C214.138 130.736 214.06 130.682 213.995 130.615C213.93 130.548 213.88 130.468 213.846 130.381C213.812 130.294 213.796 130.201 213.798 130.108C213.8 130.014 213.821 129.922 213.859 129.837C213.938 129.679 214.066 129.552 214.223 129.473C214.805 129.221 215.417 129.047 216.044 128.954C216.645 128.848 217.255 128.796 217.865 128.798C218.475 128.798 219.084 128.85 219.686 128.954C220.305 129.054 220.915 129.211 221.506 129.421C221.589 129.453 221.665 129.502 221.727 129.564C221.79 129.627 221.839 129.702 221.87 129.785C221.909 129.871 221.93 129.963 221.932 130.056C221.934 130.15 221.918 130.243 221.884 130.33C221.85 130.417 221.799 130.496 221.735 130.564C221.67 130.631 221.592 130.685 221.506 130.722V130.722C220.925 130.973 220.313 131.148 219.686 131.242C218.498 131.45 217.284 131.45 216.096 131.242C215.448 131.203 214.813 131.044 214.223 130.773Z" fill="#04294F"></path> <path d="M222.078 96.7544C221.497 97.0061 220.885 97.181 220.258 97.2747C219.657 97.3805 219.047 97.4327 218.437 97.4306C217.827 97.4304 217.218 97.3783 216.616 97.2747C215.989 97.1811 215.377 97.0062 214.796 96.7544C214.71 96.7173 214.632 96.6636 214.567 96.5963C214.503 96.529 214.452 96.4495 214.418 96.3624C214.384 96.2753 214.368 96.1824 214.37 96.0889C214.372 95.9955 214.393 95.9035 214.432 95.8182C214.511 95.6609 214.638 95.5333 214.796 95.454C215.377 95.2025 215.99 95.0277 216.616 94.934C217.808 94.7778 219.014 94.7778 220.206 94.934C220.825 95.0345 221.435 95.1909 222.026 95.4013C222.112 95.4384 222.19 95.4922 222.255 95.5595C222.319 95.6268 222.37 95.7063 222.404 95.7935C222.438 95.8806 222.454 95.9736 222.452 96.067C222.45 96.1605 222.429 96.2525 222.39 96.3379C222.338 96.5979 222.234 96.702 222.078 96.7537V96.7544Z" fill="#04294F"></path> <path d="M224.211 102.424C223.276 102.681 222.317 102.838 221.35 102.892C219.448 103.099 217.53 103.099 215.628 102.892C214.661 102.799 213.704 102.624 212.767 102.371C212.657 102.338 212.556 102.277 212.475 102.196C212.394 102.114 212.333 102.014 212.3 101.904C212.275 101.819 212.267 101.729 212.277 101.641C212.287 101.553 212.315 101.467 212.358 101.39C212.402 101.312 212.46 101.244 212.53 101.19C212.601 101.135 212.681 101.095 212.767 101.072V101.072C213.705 100.823 214.662 100.649 215.628 100.551C217.53 100.343 219.449 100.343 221.351 100.551C222.318 100.644 223.275 100.818 224.212 101.071C224.298 101.094 224.378 101.134 224.449 101.189C224.519 101.244 224.577 101.312 224.621 101.389C224.664 101.467 224.692 101.552 224.702 101.64C224.712 101.729 224.704 101.818 224.679 101.903C224.673 102.03 224.623 102.151 224.538 102.246C224.453 102.341 224.338 102.403 224.212 102.424L224.211 102.424Z" fill="#04294F"></path> <path d="M225.095 108.094C224.035 108.347 222.957 108.521 221.87 108.614C220.778 108.718 219.738 108.77 218.645 108.77C217.553 108.77 216.512 108.718 215.42 108.614C214.334 108.517 213.256 108.343 212.195 108.094C212.109 108.071 212.029 108.031 211.958 107.976C211.888 107.922 211.83 107.854 211.786 107.776C211.743 107.699 211.715 107.613 211.705 107.525C211.695 107.437 211.703 107.347 211.728 107.262C211.761 107.152 211.821 107.051 211.903 106.97C211.984 106.888 212.084 106.828 212.195 106.795C213.255 106.541 214.333 106.367 215.42 106.275C216.512 106.17 217.553 106.118 218.645 106.118C219.738 106.118 220.778 106.17 221.87 106.275C222.962 106.379 224.003 106.535 225.095 106.742C225.181 106.765 225.262 106.805 225.332 106.86C225.402 106.914 225.461 106.982 225.504 107.06C225.548 107.137 225.575 107.223 225.585 107.311C225.595 107.399 225.588 107.489 225.563 107.574C225.539 107.695 225.482 107.807 225.4 107.898C225.318 107.99 225.213 108.057 225.095 108.094V108.094Z" fill="#04294F"></path> <path d="M218.697 114.388C217.605 114.388 216.564 114.336 215.472 114.232C214.386 114.135 213.308 113.961 212.247 113.712C212.161 113.689 212.081 113.649 212.01 113.594C211.94 113.539 211.882 113.471 211.838 113.394C211.794 113.316 211.767 113.231 211.757 113.142C211.747 113.054 211.754 112.965 211.78 112.879C211.813 112.769 211.873 112.668 211.954 112.587C212.036 112.505 212.136 112.445 212.247 112.412C213.307 112.159 214.385 111.985 215.472 111.892C216.564 111.788 217.605 111.736 218.697 111.736C219.737 111.736 220.83 111.788 221.922 111.892C223.008 111.989 224.086 112.163 225.147 112.412C225.262 112.437 225.366 112.495 225.449 112.578C225.532 112.66 225.589 112.765 225.615 112.879C225.654 113.051 225.628 113.232 225.541 113.385C225.455 113.539 225.315 113.655 225.147 113.712V113.712C224.09 113.973 223.01 114.129 221.922 114.179C220.853 114.325 219.776 114.394 218.697 114.388Z" fill="#04294F"></path> <path d="M218.229 120.058C217.221 120.056 216.214 120.004 215.212 119.902C214.195 119.804 213.186 119.63 212.195 119.381C212.109 119.358 212.029 119.318 211.958 119.264C211.888 119.209 211.83 119.141 211.786 119.064C211.743 118.986 211.715 118.901 211.705 118.812C211.695 118.724 211.703 118.635 211.728 118.549C211.761 118.439 211.821 118.339 211.903 118.257C211.984 118.176 212.085 118.116 212.195 118.082C213.185 117.829 214.194 117.655 215.212 117.562C216.214 117.457 217.221 117.405 218.229 117.406C219.237 117.406 220.244 117.458 221.246 117.562C222.259 117.667 223.266 117.823 224.263 118.029C224.377 118.055 224.482 118.112 224.565 118.195C224.647 118.278 224.705 118.382 224.73 118.497C224.755 118.582 224.763 118.671 224.753 118.76C224.743 118.848 224.715 118.933 224.672 119.011C224.628 119.088 224.569 119.156 224.499 119.211C224.429 119.265 224.349 119.305 224.263 119.329V119.329C223.273 119.582 222.264 119.756 221.246 119.849C220.247 119.998 219.238 120.067 218.229 120.058V120.058Z" fill="#04294F"></path> <path d="M218.021 125.727C217.203 125.729 216.387 125.677 215.576 125.571C214.746 125.478 213.927 125.304 213.131 125.051C213.03 125.027 212.938 124.975 212.864 124.902C212.791 124.828 212.739 124.736 212.715 124.635C212.685 124.553 212.672 124.466 212.677 124.379C212.682 124.292 212.704 124.207 212.743 124.129C212.782 124.051 212.837 123.982 212.903 123.926C212.97 123.87 213.048 123.828 213.131 123.803C213.927 123.55 214.746 123.376 215.576 123.283C217.199 123.074 218.842 123.074 220.465 123.283C221.295 123.376 222.114 123.55 222.91 123.803C223.079 123.87 223.215 123.999 223.292 124.163C223.369 124.327 223.382 124.514 223.327 124.687C223.275 124.895 223.119 124.999 222.91 125.103C222.119 125.363 221.297 125.52 220.465 125.57C219.655 125.676 218.838 125.729 218.021 125.727V125.727Z" fill="#04294F"></path> </svg> 