<?xml version="1.0" encoding="UTF-8"?> <svg xmlns="http://www.w3.org/2000/svg" width="110" height="110" viewBox="0 0 110 110" fill="none"> <g filter="url(#filter0_d_146_74)"> <path fill-rule="evenodd" clip-rule="evenodd" d="M54.6316 73.0873C69.2912 73.0873 81.1752 61.2033 81.1752 46.5437C81.1752 31.884 69.2912 20 54.6316 20C39.9719 20 28.0879 31.884 28.0879 46.5437C28.0879 61.2033 39.9719 73.0873 54.6316 73.0873ZM68.6856 45.7618L61.6472 38.7233C61.2152 38.2914 60.515 38.2914 60.0831 38.7233C59.6511 39.1553 59.6511 39.8555 60.0831 40.2874L65.2335 45.4379L41.3599 45.4379C40.7491 45.4379 40.2539 45.933 40.2539 46.5439C40.2539 47.1547 40.7491 47.6498 41.3599 47.6498L65.2335 47.6498L60.0831 52.8003C59.6511 53.2322 59.6511 53.9324 60.0831 54.3644C60.515 54.7963 61.2152 54.7963 61.6472 54.3644L68.6856 47.3259C69.1175 46.894 69.1175 46.1937 68.6856 45.7618Z" fill="#FABE35"></path> </g> <defs> <filter id="filter0_d_146_74" x="0.069567" y="0.829568" width="109.124" height="109.124" filterUnits="userSpaceOnUse" color-interpolation-filters="sRGB"> <feFlood flood-opacity="0" result="BackgroundImageFix"></feFlood> <feColorMatrix in="SourceAlpha" type="matrix" values="0 0 0 0 0 0 0 0 0 0 0 0 0 0 0 0 0 0 127 0" result="hardAlpha"></feColorMatrix> <feMorphology radius="2.9493" operator="erode" in="SourceAlpha" result="effect1_dropShadow_146_74"></feMorphology> <feOffset dy="8.84789"></feOffset> <feGaussianBlur stdDeviation="15.4838"></feGaussianBlur> <feColorMatrix type="matrix" values="0 0 0 0 0.94902 0 0 0 0 0.741176 0 0 0 0 0.117647 0 0 0 0.65 0"></feColorMatrix> <feBlend mode="normal" in2="BackgroundImageFix" result="effect1_dropShadow_146_74"></feBlend> <feBlend mode="normal" in="SourceGraphic" in2="effect1_dropShadow_146_74" result="shape"></feBlend> </filter> </defs> </svg> 