<?xml version="1.0" encoding="UTF-8"?> <svg xmlns="http://www.w3.org/2000/svg" width="246" height="180" viewBox="0 0 246 180" fill="none"> <path d="M75.9764 84.4594C71.3559 81.2765 65.7317 80.6174 60.2649 81.3403C54.1584 82.1478 47.7998 83.9726 42.4648 87.3756C34.9908 92.1436 29.5219 97.8875 26.7362 106.25C24.815 112.018 24.9128 117.47 26.2241 123.29" fill="#FFB400"></path> <path d="M26.7391 125.483C27.32 125.347 27.8237 124.988 28.1406 124.484C28.4575 123.98 28.5619 123.372 28.431 122.792C27.0847 116.818 27.2244 111.934 28.8826 106.954C31.2941 99.7152 35.8583 94.2612 43.6818 89.2703C48.1667 86.4093 54.002 84.439 60.559 83.5714C66.2106 82.824 70.9649 83.7458 74.6888 86.311C74.9328 86.4792 75.2078 86.5977 75.4981 86.6598C75.7883 86.722 76.0881 86.7266 76.3803 86.6733C76.6725 86.62 76.9514 86.51 77.2011 86.3494C77.4509 86.1888 77.6665 85.9808 77.8357 85.7374C78.0049 85.4939 78.1244 85.2198 78.1873 84.9305C78.2502 84.6413 78.2554 84.3426 78.2025 84.0516C78.1495 83.7605 78.0396 83.4829 77.8789 83.2344C77.7181 82.9859 77.5098 82.7715 77.2658 82.6034C72.6556 79.4305 66.6758 78.2205 59.9704 79.1078C52.6575 80.0743 46.3581 82.2186 41.2469 85.4798C32.606 90.9924 27.3128 97.3677 24.5891 105.545C22.6846 111.266 22.5024 117.062 24.0181 123.788C24.1494 124.37 24.5078 124.877 25.0144 125.196C25.5209 125.514 26.1342 125.619 26.7194 125.488L26.7391 125.483Z" fill="#FFB400"></path> <path d="M24.6508 159.337C39.4672 160.292 55.2037 153.026 67.79 145.886C72.2311 143.342 76.4663 140.457 80.4569 137.256C88.4865 130.844 95.7056 123.484 101.955 115.34C106.482 109.456 110.919 103.371 114.095 96.6391C116.278 92.0083 118.809 84.6101 115.374 79.9743C111.277 74.4465 102.61 75.928 97.039 77.5986C75.1358 84.1662 53.5929 97.2134 38.0134 113.9C32.4682 119.84 27.2931 126.188 23.1443 133.186C19.1855 139.864 9.84722 158.384 24.6508 159.337Z" fill="#F04E23"></path> <path d="M39.8263 160.127C50.8112 157.55 61.1717 152.231 68.9062 147.845C73.4485 145.242 77.781 142.29 81.8645 139.017C90.0389 132.491 97.3872 125 103.747 116.708C107.967 111.223 112.752 104.771 116.139 97.5951C118.82 91.9132 121.179 84.0123 117.193 78.6342C113.452 73.5864 106.263 72.4813 96.3907 75.4416C73.8348 82.2055 51.9541 95.6642 36.3587 112.368C29.9141 119.27 24.9548 125.706 21.1976 132.044C17.504 138.274 11.8513 149.752 15.4939 156.628C17.0869 159.636 20.1174 161.304 24.5004 161.586C29.6097 161.915 34.785 161.31 39.8263 160.127ZM100.035 79.1273C104.591 78.0586 110.744 77.5243 113.553 81.3146C116.357 85.0979 113.813 91.9408 112.046 95.6832C108.852 102.453 104.235 108.673 100.159 113.97C94.0231 121.972 86.9334 129.2 79.0465 135.497C75.1475 138.623 71.0107 141.443 66.6737 143.93C55.8965 150.043 39.8296 158.058 24.8006 157.09C20.7166 156.827 19.7969 155.09 19.4945 154.52C17.2746 150.329 21.1214 141.024 25.0902 134.329C28.6793 128.274 33.4477 122.094 39.6672 115.432C54.7323 99.299 75.8784 86.2954 97.6868 79.7559C98.3925 79.5435 99.1866 79.3264 100.035 79.1273Z" fill="#F04E23"></path> <path d="M49.2456 138.996C50.7991 138.638 52.3182 138.145 53.7853 137.522C54.3364 137.286 54.771 136.841 54.9934 136.285C55.2158 135.73 55.2078 135.11 54.9712 134.561C54.7346 134.012 54.2887 133.58 53.7317 133.36C53.1747 133.139 52.5521 133.148 52.001 133.385C47.9939 135.107 43.413 135.448 39.4347 135.633C36.1909 135.784 32.7731 135.841 29.7794 134.766C28.5145 134.309 27.3324 133.652 26.2789 132.819C26.0462 132.634 25.7793 132.498 25.4934 132.417C25.2075 132.336 24.9083 132.312 24.6128 132.346C24.3173 132.38 24.0314 132.472 23.7715 132.617C23.5115 132.761 23.2827 132.955 23.098 133.188C22.9132 133.42 22.7763 133.687 22.6951 133.972C22.6138 134.257 22.5897 134.555 22.6243 134.85C22.6589 135.144 22.7514 135.428 22.8965 135.687C23.0416 135.945 23.2365 136.172 23.47 136.355C24.9052 137.489 26.5154 138.383 28.2383 139.004C32.0127 140.36 35.9389 140.306 39.6374 140.134C42.6296 139.995 45.944 139.77 49.2456 138.996Z" fill="#04294F"></path> <path d="M70.3493 121.867C70.9122 121.735 71.4033 121.392 71.7214 120.911C72.0395 120.429 72.1606 119.845 72.0598 119.278C70.3785 110.06 65.3373 101.793 57.9043 96.0627C57.4283 95.7073 56.8304 95.5535 56.2405 95.6348C55.6505 95.716 55.1161 96.0257 54.7532 96.4967C54.3903 96.9676 54.2282 97.5618 54.3022 98.1502C54.3761 98.7387 54.68 99.2739 55.148 99.6397C61.6901 104.682 66.1268 111.959 67.606 120.071C67.7106 120.659 68.0455 121.182 68.5371 121.523C69.0287 121.864 69.6366 121.997 70.2271 121.892C70.2685 121.885 70.309 121.877 70.3493 121.867Z" fill="#04294F"></path> <path d="M86.3534 111.793C86.9043 111.664 87.387 111.334 87.7054 110.868C89.0495 108.905 90.275 106.864 91.3754 104.756C93.101 101.452 94.174 98.6157 94.7525 95.833C95.925 90.02 95.0129 83.9852 92.1754 78.781C91.8857 78.26 91.4003 77.875 90.8256 77.7103C90.2509 77.5457 89.6336 77.6148 89.1091 77.9025C88.5845 78.1902 88.1954 78.6731 88.027 79.2453C87.8586 79.8176 87.9245 80.4327 88.2104 80.9557C90.5368 85.22 91.2852 90.1654 90.325 94.9293C89.8328 97.2947 88.8923 99.7594 87.3647 102.688C86.3474 104.635 85.2146 106.521 83.9724 108.335C83.7153 108.71 83.5779 109.154 83.5781 109.608C83.5784 110.062 83.7162 110.505 83.9737 110.879C84.2311 111.253 84.5961 111.541 85.0209 111.704C85.4456 111.868 85.9103 111.899 86.354 111.795L86.3534 111.793Z" fill="#04294F"></path> <path d="M99.7899 109.502C100.346 109.372 100.833 109.037 101.151 108.564L105.843 101.611C108.463 97.7268 111.175 93.7087 113.203 89.2914C114.787 85.9552 115.811 82.384 116.236 78.7199C116.297 78.1253 116.118 77.5315 115.739 77.0691C115.36 76.6067 114.811 76.3136 114.215 76.2543C113.618 76.195 113.022 76.3743 112.557 76.7528C112.092 77.1313 111.797 77.678 111.736 78.2726C111.361 81.4453 110.468 84.5365 109.091 87.4234C107.217 91.5061 104.611 95.3678 102.091 99.1022L97.399 106.055C97.1453 106.431 97.0111 106.874 97.0137 107.327C97.0164 107.779 97.1558 108.22 97.4139 108.592C97.6719 108.964 98.0366 109.25 98.4604 109.412C98.8842 109.575 99.3475 109.606 99.7899 109.502V109.502Z" fill="#04294F"></path> <path d="M33.8114 156.329C39.5587 154.985 45.1328 152.986 50.4235 150.372C50.6956 150.244 50.9393 150.063 51.1405 149.84C51.3417 149.617 51.4963 149.356 51.5953 149.073C51.6942 148.79 51.7355 148.49 51.7167 148.191C51.698 147.892 51.6195 147.6 51.486 147.332C51.3524 147.064 51.1665 146.825 50.939 146.629C50.7115 146.434 50.4471 146.285 50.1612 146.193C49.8753 146.101 49.5736 146.066 49.2739 146.091C48.9742 146.116 48.6824 146.201 48.4156 146.34C39.2924 150.839 29.327 153.384 19.1628 153.811C18.8648 153.821 18.5716 153.89 18.3002 154.013C18.0288 154.137 17.7844 154.312 17.5813 154.53C17.3781 154.748 17.2201 155.003 17.1163 155.282C17.0125 155.561 16.9651 155.857 16.9767 156.154C16.9883 156.451 17.0587 156.742 17.1838 157.012C17.309 157.281 17.4864 157.523 17.7059 157.724C17.9254 157.924 18.1827 158.079 18.4629 158.181C18.743 158.282 19.0406 158.326 19.3385 158.313C24.2142 158.11 29.0604 157.446 33.8114 156.329V156.329Z" fill="#04294F"></path> <path d="M100.528 112.122C100.669 110.609 100.213 109.314 98.8251 108.475C96.3512 106.98 92.4753 108.332 89.9332 108.997C84.0232 110.541 77.8876 114.876 72.9618 118.352C67.3954 122.277 62.2997 126.827 57.7751 131.911C54.0233 136.13 43.3842 151.272 55.9344 149.681C64.0068 148.658 70.8437 144.441 77.1943 139.408C82.5551 135.151 87.5814 130.493 92.2294 125.473C94.0075 123.556 100.097 116.794 100.528 112.122Z" fill="#FFB400"></path> <path d="M59.5316 151.317C67.3306 149.487 73.7409 145.02 78.5996 141.17C84.0499 136.841 89.161 132.104 93.8884 127C100.806 119.54 102.541 114.902 102.778 112.325C103.009 109.823 102.022 107.772 99.9985 106.549C96.9753 104.722 93.0927 105.794 90.2573 106.575C89.944 106.661 89.644 106.744 89.3609 106.818C83.0694 108.463 76.7637 112.91 71.6968 116.484L71.6549 116.513C65.9468 120.539 60.7213 125.205 56.0813 130.418C55.9707 130.542 45.0628 142.925 48.3644 149.163C49.5986 151.496 52.2394 152.42 56.2147 151.918C57.33 151.775 58.4371 151.574 59.5316 151.317V151.317ZM93.2557 110.447C94.8946 110.063 96.6741 109.813 97.6499 110.404C98.0325 110.635 98.3683 110.925 98.2766 111.922C98.0382 114.506 95.1575 119.001 90.5706 123.948C86.0002 128.882 81.0587 133.462 75.7892 137.647C66.1393 145.295 59.9583 146.902 55.654 147.448C53.6716 147.699 52.5609 147.421 52.3679 147.056C52.0849 146.522 52.1617 144.611 54.2436 140.841C55.7314 138.195 57.4808 135.703 59.4658 133.403C63.8754 128.449 68.8412 124.015 74.2655 120.189L74.3075 120.16C79.0749 116.797 85.0077 112.612 90.5027 111.176C90.8044 111.097 91.1242 111.009 91.4582 110.917C91.9985 110.768 92.6165 110.597 93.2557 110.447Z" fill="#FFB400"></path> <path d="M83.9621 121.723C78.7639 124.917 74.1802 129.006 69.7271 133.173C67.3237 135.421 64.8738 137.812 63.7292 140.891C63.5685 141.243 63.5071 141.632 63.5516 142.016C63.6262 142.281 63.7639 142.524 63.9529 142.725C64.1419 142.925 64.3768 143.077 64.6375 143.168C66.3913 143.9 68.3474 142.849 69.9284 141.791C74.0078 139.061 77.8794 136.034 81.5116 132.735C83.0714 131.319 94.6955 122.396 89.7474 120.097C88.1407 119.35 85.2913 120.907 83.9621 121.723Z" fill="#F04E23"></path> <path d="M67.3688 145.479C69.062 145.082 70.477 144.135 71.1859 143.66C75.3573 140.867 79.3167 137.771 83.0319 134.397C83.1775 134.265 83.4909 134.002 83.854 133.698C89.7857 128.719 93.6435 124.699 93.1893 121.256C93.0041 119.85 92.1217 118.712 90.705 118.054C88.7871 117.163 86.1202 117.752 82.7767 119.806C77.2228 123.219 72.3298 127.648 68.1805 131.531C65.4473 134.088 62.8881 136.669 61.6084 140.111C61.2984 140.849 61.2023 141.658 61.3311 142.447C61.4737 143.077 61.7698 143.661 62.1933 144.149C62.6168 144.637 63.1546 145.013 63.7593 145.245C64.9053 145.707 66.1708 145.789 67.3688 145.479V145.479ZM88.6344 122.154C88.3517 122.99 86.9898 125.179 80.9444 130.254C80.5122 130.616 80.2001 130.878 79.9897 131.07C76.4395 134.293 72.6558 137.252 68.6696 139.922C67.5464 140.673 66.6706 141.083 66.0621 141.15C67.0791 138.855 69.0297 136.914 71.2739 134.814C75.2617 131.082 79.953 126.833 85.1468 123.641C87.0091 122.495 88.1568 122.193 88.6344 122.154V122.154Z" fill="#F04E23"></path> <path d="M21.6556 161.565C22.158 161.448 22.6055 161.164 22.9237 160.759C23.242 160.354 23.412 159.853 23.4055 159.339C23.399 158.825 23.2164 158.33 22.888 157.934C22.5595 157.538 22.105 157.267 21.5999 157.164C20.8497 157.011 20.0681 156.313 19.5613 155.341C17.3577 151.13 19.6034 145.861 21.5847 141.213L21.8942 140.486C23.3047 137.162 24.9665 133.948 26.8653 130.874C30.2716 125.358 35.064 120.355 39.6977 115.516L40.4985 114.681C45.5874 109.362 51.1051 104.468 56.9959 100.047C68.647 91.2862 81.6711 84.5064 95.5392 79.9832C98.7656 78.933 102.101 77.8471 105.395 77.7786C108.72 77.7081 111.697 78.8297 113.357 80.7728C113.747 81.2224 114.3 81.4998 114.895 81.5447C115.49 81.5895 116.079 81.3981 116.534 81.0123C116.989 80.6264 117.272 80.0773 117.323 79.4847C117.373 78.8921 117.187 78.3041 116.803 77.8489C114.235 74.8422 110.046 73.1756 105.309 73.2739C101.343 73.3561 97.5178 74.6015 94.142 75.7003C79.7994 80.3776 66.3295 87.3888 54.2796 96.4493C48.1903 101.019 42.4868 106.078 37.2265 111.575L36.4281 112.41C31.6324 117.418 26.6746 122.595 23.015 128.519C20.9953 131.788 19.2278 135.205 17.7277 138.741L17.4226 139.46C15.1671 144.751 12.36 151.336 15.5496 157.431C16.7041 159.638 18.5765 161.15 20.6867 161.58C21.0068 161.645 21.3374 161.64 21.6556 161.565V161.565Z" fill="#04294F"></path> <path d="M77.0093 131.965L126.667 175.954C127.602 176.75 128.81 177.154 130.032 177.079C131.254 177.004 132.392 176.457 133.202 175.553C134.012 174.65 134.429 173.464 134.364 172.249C134.299 171.034 133.756 169.887 132.853 169.055C132.714 168.934 132.568 168.821 132.415 168.716L77.9653 130.77C77.8817 130.711 77.7872 130.668 77.6873 130.645C77.5874 130.622 77.4842 130.619 77.3835 130.636C77.2829 130.653 77.1868 130.689 77.101 130.744C77.0151 130.798 76.9412 130.869 76.8834 130.952C76.7906 131.11 76.7526 131.294 76.7753 131.477C76.7981 131.66 76.8802 131.831 77.0093 131.965V131.965Z" fill="#F04E23"></path> <path d="M116.732 153.706C115.757 152.924 114.729 152.19 113.711 151.486C113.202 151.135 112.683 150.803 112.154 150.441L110.585 149.414C109.525 148.74 108.455 148.085 107.374 147.45C106.294 146.815 105.202 146.2 104.078 145.644C104.016 145.616 103.945 145.613 103.88 145.635C103.816 145.657 103.762 145.702 103.73 145.762C103.7 145.816 103.692 145.88 103.707 145.94C103.722 146.001 103.76 146.053 103.813 146.088C104.788 146.87 105.805 147.624 106.823 148.327C107.83 149.05 108.899 149.755 109.939 150.419L111.518 151.425C112.048 151.737 112.568 152.069 113.119 152.392C114.199 153.027 115.28 153.662 116.404 154.218C116.479 154.256 116.565 154.265 116.645 154.242C116.725 154.218 116.793 154.165 116.834 154.093C116.854 154.061 116.867 154.026 116.872 153.989C116.878 153.953 116.876 153.915 116.866 153.879C116.857 153.843 116.84 153.809 116.817 153.779C116.794 153.749 116.765 153.724 116.732 153.706V153.706Z" fill="#F04E23"></path> <path d="M99.537 142.884C99.2082 142.528 98.8457 142.204 98.4547 141.916C98.0659 141.629 97.6971 141.354 97.287 141.106C96.8768 140.859 96.4666 140.612 96.0351 140.405C95.5958 140.189 95.1423 140.004 94.6778 139.85C94.6441 139.837 94.6081 139.832 94.5722 139.834C94.5363 139.836 94.5015 139.846 94.4701 139.863C94.4387 139.88 94.4115 139.904 94.3904 139.933C94.3693 139.961 94.3548 139.994 94.3479 140.029C94.3308 140.116 94.3465 140.206 94.3921 140.283C94.7206 140.644 95.0752 140.981 95.453 141.29C96.1904 141.897 96.9909 142.424 97.8406 142.861C98.271 143.093 98.7219 143.286 99.1872 143.435C99.2753 143.456 99.3676 143.445 99.4472 143.404C99.5267 143.362 99.5881 143.293 99.6199 143.21C99.6342 143.153 99.634 143.094 99.6196 143.037C99.6051 142.98 99.5767 142.927 99.537 142.884V142.884Z" fill="#F04E23"></path> <path d="M117.756 171.267C116.56 169.982 115.343 168.737 114.115 167.512C113.511 166.905 112.856 166.296 112.232 165.678L110.328 163.883C109.048 162.706 107.768 161.529 106.457 160.362C105.135 159.214 103.834 158.076 102.46 156.977C102.433 156.956 102.401 156.94 102.367 156.932C102.333 156.923 102.298 156.921 102.263 156.927C102.229 156.932 102.196 156.944 102.167 156.963C102.138 156.981 102.113 157.005 102.093 157.034C102.056 157.081 102.036 157.139 102.037 157.2C102.037 157.26 102.057 157.318 102.094 157.366C103.28 158.671 104.477 159.905 105.725 161.141C106.973 162.377 108.212 163.583 109.47 164.799L111.405 166.585C112.051 167.163 112.685 167.762 113.351 168.351C114.662 169.519 115.963 170.656 117.336 171.756C117.371 171.781 117.411 171.799 117.452 171.808C117.494 171.817 117.537 171.817 117.579 171.808C117.621 171.799 117.66 171.781 117.694 171.756C117.728 171.73 117.756 171.698 117.776 171.661C117.808 171.6 117.823 171.531 117.82 171.462C117.816 171.393 117.794 171.325 117.756 171.267V171.267Z" fill="#F04E23"></path> <path d="M122.806 168.148C122.51 167.773 122.175 167.429 121.807 167.123C121.46 166.807 121.071 166.52 120.702 166.245C120.313 165.958 119.923 165.722 119.513 165.475C119.095 165.224 118.655 165.012 118.198 164.841C118.164 164.828 118.127 164.822 118.091 164.823C118.054 164.824 118.018 164.833 117.985 164.849C117.953 164.865 117.923 164.887 117.9 164.915C117.876 164.942 117.859 164.975 117.848 165.009C117.832 165.051 117.827 165.097 117.835 165.142C117.843 165.187 117.863 165.228 117.892 165.263C118.197 165.637 118.524 165.992 118.871 166.328C119.218 166.643 119.596 166.95 119.954 167.245C120.323 167.521 120.722 167.788 121.122 168.055C121.529 168.309 121.959 168.524 122.406 168.697C122.491 168.728 122.585 168.724 122.667 168.688C122.75 168.652 122.814 168.585 122.848 168.502V168.502C122.879 168.384 122.864 168.257 122.806 168.148V168.148Z" fill="white"></path> <path d="M119.365 162.585C118.531 161.828 117.676 161.111 116.8 160.433C116.372 160.075 115.923 159.755 115.465 159.406L114.109 158.418C113.211 157.779 112.293 157.13 111.374 156.531C110.455 155.933 109.495 155.312 108.513 154.782C108.453 154.749 108.383 154.74 108.316 154.756C108.25 154.772 108.193 154.813 108.155 154.869V154.869C108.125 154.92 108.115 154.98 108.127 155.038C108.139 155.096 108.171 155.148 108.218 155.184C109.041 155.961 109.897 156.678 110.762 157.376C111.628 158.073 112.505 158.751 113.412 159.42L114.768 160.408C115.217 160.727 115.666 161.046 116.146 161.357C117.065 161.994 118.016 162.585 118.995 163.126C119.032 163.147 119.072 163.16 119.114 163.165C119.156 163.17 119.198 163.167 119.239 163.155C119.279 163.144 119.316 163.124 119.348 163.097C119.38 163.071 119.407 163.038 119.425 163.001C119.466 162.936 119.483 162.859 119.471 162.783C119.46 162.707 119.423 162.637 119.365 162.585V162.585Z" fill="white"></path> <path d="M175.319 135.359C174.758 134.279 175.741 132.656 177.514 131.734C179.288 130.812 181.18 130.94 181.741 132.02C182.302 133.1 181.319 134.722 179.546 135.644C177.772 136.566 175.88 136.438 175.319 135.359Z" fill="#00ACDC"></path> <path d="M141.767 145.59C139.77 145.662 138.115 144.734 138.071 143.518C138.027 142.302 139.611 141.258 141.608 141.187C143.606 141.115 145.261 142.043 145.305 143.259C145.348 144.475 143.765 145.519 141.767 145.59Z" fill="#00ACDC"></path> <path d="M154.617 113.537L153.388 113.86C150.712 114.565 148.426 116.305 147.033 118.697C145.64 121.089 145.253 123.937 145.958 126.614L148.102 134.751L169.51 129.111L167.366 120.974C166.661 118.297 164.921 116.009 162.53 114.614C160.139 113.219 157.293 112.832 154.617 113.537V113.537Z" fill="#00ACDC"></path> <path d="M167.662 122.095L146.257 127.734L148.4 135.871C149.106 138.548 150.845 140.836 153.236 142.231C155.627 143.626 158.474 144.013 161.15 143.308L162.378 142.985C165.054 142.28 167.34 140.54 168.734 138.148C170.127 135.756 170.514 132.909 169.808 130.231L167.665 122.094L167.662 122.095Z" fill="#00ACDC"></path> <path d="M153.396 142.299C141.732 144.253 132.472 143.103 127.62 142.129L190.855 125.469C187.085 128.641 179.678 134.025 168.802 138.121L153.396 142.299Z" fill="white"></path> <path d="M126.558 138.673L126.684 138.566L189.917 121.907L190.045 121.928C190.411 121.998 190.751 122.169 191.024 122.424C191.297 122.679 191.493 123.005 191.588 123.367C191.683 123.728 191.674 124.108 191.562 124.465C191.45 124.821 191.239 125.138 190.954 125.379L190.851 125.467L127.607 142.129L127.446 142.094C127.087 142.018 126.756 141.844 126.49 141.591C126.224 141.337 126.034 141.014 125.942 140.659C125.85 140.303 125.858 139.929 125.967 139.578C126.076 139.227 126.281 138.914 126.558 138.673V138.673Z" fill="#00ACDC"></path> <path d="M156.802 126.819L158.034 126.494C163.299 125.107 167.324 122.832 167.438 121.245L154.681 120.197L146.04 126.876C146.909 128.204 151.538 128.206 156.802 126.819Z" fill="#00ACDC"></path> <path d="M167.466 121.351C177.537 120.151 185.511 121.079 189.917 121.907L126.669 138.57C130.062 135.63 136.534 130.779 146.017 126.882L167.466 121.351Z" fill="white"></path> <path d="M234.314 18.4309C233.892 17.8623 234.3 16.8412 235.225 16.1503C236.149 15.4594 237.24 15.3603 237.662 15.9289C238.084 16.4975 237.676 17.5186 236.751 18.2095C235.827 18.9004 234.735 18.9995 234.314 18.4309Z" fill="#00ACDC"></path> <path d="M216.144 27.3636C215.011 27.5869 213.98 27.2053 213.841 26.5113C213.701 25.8173 214.506 25.0738 215.639 24.8505C216.771 24.6273 217.802 25.0089 217.942 25.7028C218.081 26.3968 217.276 27.1404 216.144 27.3636Z" fill="#00ACDC"></path> <path d="M220.454 7.79349L219.783 8.09137C218.324 8.74004 217.184 9.9471 216.615 11.447C216.045 12.9469 216.093 14.6167 216.747 16.0892L218.736 20.564L230.413 15.3745L228.424 10.8997C227.77 9.42721 226.563 8.27271 225.068 7.69018C223.573 7.10765 221.913 7.14481 220.454 7.79349V7.79349Z" fill="#00ACDC"></path> <path d="M228.698 11.5161L217.023 16.7049L219.011 21.1797C219.666 22.6522 220.873 23.8067 222.368 24.3892C223.863 24.9718 225.523 24.9346 226.982 24.2859L227.652 23.988C229.112 23.3394 230.252 22.1323 230.821 20.6324C231.391 19.1325 231.343 17.4627 230.688 15.9902L228.7 11.5154L228.698 11.5161Z" fill="#00ACDC"></path> <path d="M222.465 24.4139C215.998 26.5993 210.609 26.7834 207.75 26.6668L242.242 11.3376C240.391 13.502 236.674 17.2676 230.857 20.6108L222.465 24.4139Z" fill="white"></path> <path d="M206.819 24.7803L206.881 24.7071L241.372 9.37866L241.447 9.37909C241.663 9.38542 241.872 9.45311 242.052 9.57432C242.232 9.69552 242.374 9.86528 242.463 10.0639C242.551 10.2625 242.581 10.4819 242.551 10.6966C242.52 10.9112 242.43 11.1124 242.29 11.2767L242.24 11.3367L207.743 26.668L207.648 26.6626C207.436 26.6521 207.231 26.5822 207.055 26.4609C206.88 26.3396 206.741 26.1717 206.655 25.976C206.569 25.7804 206.539 25.5648 206.568 25.3535C206.597 25.1422 206.684 24.9437 206.819 24.7803V24.7803Z" fill="#00ACDC"></path> <path d="M222.95 15.2177L223.622 14.9191C226.494 13.6429 228.575 11.9697 228.491 11.0487L221.117 11.6106L216.819 16.232C217.439 16.915 220.079 16.4939 222.95 15.2177Z" fill="#00ACDC"></path> <path d="M228.516 11.1068C234.146 9.49964 238.781 9.30529 241.371 9.37873L206.872 24.7108C208.531 22.7137 211.764 19.3395 216.805 16.2379L228.516 11.1068Z" fill="white"></path> </svg> 