<?xml version="1.0" encoding="UTF-8"?> <svg xmlns="http://www.w3.org/2000/svg" width="143" height="143" viewBox="0 0 143 143" fill="none"> <path d="M121.44 58.7241C124.009 70.5578 110.596 70.0587 109.659 62.9348C109.222 59.4226 102.585 53.719 92.2349 60.802C81.8846 67.8849 68.5401 56.8044 78.8144 44.1506C89.0887 31.4968 81.8078 20.869 72.3744 19.7752C65.8136 19.6425 59.2325 20.7873 53.0931 23.0527C65.5442 36.6751 69.2092 49.7705 28.1683 42.8877C21.4458 52.9746 18.6342 64.7592 20.0521 76.772C20.0741 77.4603 20.2241 78.3472 20.3455 78.9715C22.4495 87.0305 36.6737 88.1317 41.5654 73.463C46.061 61.016 60.1588 63.8845 59.8658 78.263C59.4212 98.0777 73.5154 88.7257 80.5855 94.0099C90.5432 101.369 81.7219 109.295 97.0032 116.178L99.0918 114.834C117.79 102.8 126.776 80.2978 121.44 58.7241Z" fill="#00AEE0"></path> <path d="M101.466 93.2063C107.742 92.6794 109.927 87.3398 105.999 82.5622C102.071 77.7847 92.2909 69.6091 92.1158 80.6799C91.9036 89.9483 95.1554 93.8964 101.466 93.2063Z" fill="#04294F"></path> <path d="M121.075 57.2723C114.858 35.4241 95.1492 20.1521 72.3829 19.7725C81.8158 20.8663 87.8169 31.474 77.7067 44.1624C67.5965 56.8509 81.8926 67.8798 92.2423 60.7972C102.656 53.8139 109.228 59.4179 109.665 62.93C110.602 70.0534 124.015 70.5526 121.446 58.7194C121.353 58.3576 121.139 57.3715 121.075 57.2723Z" fill="#04294F"></path> <path d="M28.1735 42.896C71.358 51.3519 66.6744 36.2414 53.0998 23.0597C42.931 26.9349 34.158 33.8457 28.1735 42.896Z" fill="#04294F"></path> <path d="M97.1922 116.052C81.9756 109.268 90.6971 101.407 80.7752 93.8847C73.7054 88.6007 59.5764 98.1156 60.0565 78.1384C60.3495 63.7606 46.2304 60.2039 41.735 72.6503C37.2396 85.0967 22.3435 87.0976 20.3391 78.975C24.5858 107.149 50.9229 126.585 79.144 122.33C85.4264 121.377 91.5301 119.275 97.1922 116.052Z" fill="#04294F"></path> </svg> 