<?xml version="1.0" encoding="UTF-8"?> <svg xmlns="http://www.w3.org/2000/svg" width="111" height="110" viewBox="0 0 111 110" fill="none"> <g filter="url(#filter0_d_146_71)"> <path fill-rule="evenodd" clip-rule="evenodd" d="M55.5437 73.0873C70.2033 73.0873 82.0873 61.2033 82.0873 46.5437C82.0873 31.884 70.2033 20 55.5437 20C40.884 20 29 31.884 29 46.5437C29 61.2033 40.884 73.0873 55.5437 73.0873ZM41.4902 45.7613L48.5286 38.7229C48.9605 38.2909 49.6608 38.2909 50.0927 38.7229C50.5246 39.1548 50.5246 39.855 50.0927 40.287L44.9423 45.4374L68.8159 45.4374C69.4267 45.4374 69.9219 45.9325 69.9219 46.5434C69.9219 47.1542 69.4267 47.6494 68.8159 47.6494L44.9423 47.6494L50.0927 52.7998C50.5246 53.2317 50.5246 53.932 50.0927 54.3639C49.6608 54.7958 48.9605 54.7958 48.5286 54.3639L41.4902 47.3254C41.0582 46.8935 41.0582 46.1932 41.4902 45.7613Z" fill="#FABE35"></path> </g> <defs> <filter id="filter0_d_146_71" x="0.981676" y="0.829568" width="109.124" height="109.124" filterUnits="userSpaceOnUse" color-interpolation-filters="sRGB"> <feFlood flood-opacity="0" result="BackgroundImageFix"></feFlood> <feColorMatrix in="SourceAlpha" type="matrix" values="0 0 0 0 0 0 0 0 0 0 0 0 0 0 0 0 0 0 127 0" result="hardAlpha"></feColorMatrix> <feMorphology radius="2.9493" operator="erode" in="SourceAlpha" result="effect1_dropShadow_146_71"></feMorphology> <feOffset dy="8.84789"></feOffset> <feGaussianBlur stdDeviation="15.4838"></feGaussianBlur> <feColorMatrix type="matrix" values="0 0 0 0 0.94902 0 0 0 0 0.741176 0 0 0 0 0.117647 0 0 0 0.65 0"></feColorMatrix> <feBlend mode="normal" in2="BackgroundImageFix" result="effect1_dropShadow_146_71"></feBlend> <feBlend mode="normal" in="SourceGraphic" in2="effect1_dropShadow_146_71" result="shape"></feBlend> </filter> </defs> </svg> 