<?xml version="1.0" encoding="UTF-8"?> <svg xmlns="http://www.w3.org/2000/svg" width="267" height="254" viewBox="0 0 267 254" fill="none"> <path d="M238.282 151.868C242.042 140.788 241.571 128.712 236.96 117.959C232.348 107.207 223.921 98.5337 213.295 93.6052C213.39 88.8997 212.356 84.24 210.281 80.0146C208.206 75.7892 205.149 72.1204 201.365 69.3142C197.581 66.508 193.179 64.6456 188.527 63.8824C183.876 63.1191 179.108 63.4771 174.623 64.9264C175.6 58.1297 174.316 51.2011 170.967 45.2044C167.619 39.2077 162.391 34.4745 156.086 31.7314C149.782 28.9883 142.749 28.387 136.068 30.0199C129.387 31.6528 123.427 35.4295 119.103 40.7702C115.724 35.8867 110.947 32.1345 105.398 30.0039C99.8479 27.8732 93.7831 27.4632 87.9955 28.8273C82.208 30.1914 76.9667 33.2662 72.9562 37.6501C68.9458 42.034 66.3528 47.5232 65.5158 53.4005C57.4424 55.0927 50.0857 59.224 44.4446 65.2337C38.8035 71.2434 35.1513 78.8401 33.9838 86.9925C32.8164 95.1449 34.1903 103.458 37.9191 110.803C41.6478 118.147 47.5507 124.168 54.8262 128.047C51.1481 133.994 49.5659 140.997 50.3308 147.944C51.0957 154.89 54.1639 161.382 59.048 166.387C63.9321 171.392 70.3519 174.624 77.2877 175.57C84.2234 176.515 91.2772 175.12 97.3285 171.605C101.426 177.546 107.45 181.894 114.386 183.915C121.322 185.936 128.745 185.508 135.402 182.701C138.235 186.803 142.006 190.171 146.404 192.527C150.801 194.883 155.698 196.159 160.688 196.249C165.679 196.339 170.619 195.24 175.1 193.044C179.581 190.849 183.473 187.618 186.454 183.622C197.447 185.204 208.648 182.894 218.115 177.094C227.582 171.294 234.717 162.369 238.282 151.868V151.868Z" fill="#04294F"></path> <path d="M49.3931 181.514C47.2235 187.905 41.7122 189.36 36.163 187.484C30.6137 185.608 27.1237 181.109 29.2933 174.718C31.4629 168.327 37.7223 164.668 43.2716 166.544C48.8209 168.421 51.5627 175.123 49.3931 181.514Z" fill="#04294F"></path> <path d="M21.4364 184.924C20.0215 189.092 15.4064 190.18 11.7866 188.956C8.16679 187.732 5.89121 184.798 7.30556 180.632C8.71991 176.466 12.8023 174.077 16.4221 175.301C20.0419 176.525 22.8514 180.756 21.4364 184.924Z" fill="#04294F"></path> <path d="M170.3 181.6C173.126 180.899 175.779 179.613 178.064 177.805C184.24 172.952 192.77 170.097 199.293 169.888C199.598 169.882 199.891 169.879 200.196 169.873L200.239 169.876C200.433 169.87 200.627 169.864 200.817 169.844C215.559 169.005 226.822 156.39 225.971 141.661C225.871 140.025 225.632 138.397 225.233 136.794C225.138 136.413 225.033 136.048 224.928 135.684C224.922 135.657 224.912 135.618 224.902 135.578L224.879 135.487C224.873 135.46 224.873 135.46 224.866 135.434L224.86 135.408C224.748 135.073 224.65 134.734 224.538 134.399C223.057 129.689 222.276 125.042 222.39 119.615C222.428 117.192 222.158 114.762 221.568 112.398C218.789 101.244 209.622 93.3623 198.927 91.677C198.507 91.6139 198.073 91.5541 197.643 91.5075C191.962 90.5034 188.585 86.3612 186.085 82.0431C182.758 75.977 175.516 72.6263 168.564 74.4764C166.037 75.1453 163.722 76.4449 161.857 78.2607C161.788 78.3197 161.719 78.3787 161.654 78.4508L161.644 78.4672C161.499 78.6147 161.354 78.7622 161.213 78.9228C159.092 80.8859 155.441 81.0244 151.256 79.6912C135.225 74.2938 117.893 82.8901 112.513 98.8865C108.938 109.524 111.49 121.279 119.175 129.486C122.566 133.123 124.057 137.928 123.366 141.936L123.36 141.965C121.313 155.544 129.891 168.454 143.189 171.851C146.235 172.756 148.402 173.948 150.881 176.22C151.085 176.421 151.285 176.608 151.485 176.796L151.488 176.809C151.528 176.855 151.58 176.898 151.633 176.941C156.692 181.503 163.69 183.254 170.3 181.6Z" fill="#04294F"></path> <path d="M156.563 170.978C156.666 171.391 157.085 171.643 157.499 171.541C157.913 171.438 158.165 171.02 158.062 170.606C157.959 170.192 157.54 169.94 157.126 170.043C156.712 170.146 156.46 170.564 156.563 170.978Z" fill="#FFB400"></path> <path d="M159.826 171.911C159.891 172.172 160.155 172.331 160.417 172.266C160.678 172.202 160.837 171.937 160.772 171.676C160.707 171.415 160.442 171.256 160.181 171.321C159.92 171.385 159.76 171.65 159.826 171.911Z" fill="#FFB400"></path> <path d="M131.967 129.616C132.032 129.877 132.296 130.036 132.558 129.972C132.819 129.907 132.978 129.642 132.913 129.381C132.848 129.12 132.584 128.961 132.322 129.026C132.061 129.09 131.902 129.355 131.967 129.616Z" fill="#FFB400"></path> <path d="M120.242 123.184C120.307 123.446 120.571 123.605 120.833 123.54C121.094 123.475 121.253 123.211 121.188 122.95C121.123 122.688 120.858 122.529 120.597 122.594C120.336 122.659 120.177 122.923 120.242 123.184Z" fill="#FFB400"></path> <path d="M141.757 117.841C141.822 118.103 142.086 118.262 142.348 118.197C142.609 118.132 142.768 117.868 142.703 117.607C142.638 117.345 142.374 117.186 142.112 117.251C141.851 117.316 141.692 117.58 141.757 117.841Z" fill="#FFB400"></path> <path d="M140.258 95.3291C140.323 95.5903 140.588 95.7495 140.849 95.6847C141.111 95.6198 141.27 95.3555 141.205 95.0943C141.14 94.8331 140.875 94.6739 140.614 94.7388C140.352 94.8036 140.193 95.0679 140.258 95.3291Z" fill="#FFB400"></path> <path d="M162.901 87.0005C162.966 87.2617 163.231 87.4209 163.492 87.3561C163.754 87.2912 163.913 87.0269 163.848 86.7657C163.783 86.5045 163.518 86.3453 163.257 86.4101C162.995 86.475 162.836 86.7393 162.901 87.0005Z" fill="#FFB400"></path> <path d="M178.911 99.7035C178.974 99.9575 179.232 100.112 179.486 100.049C179.74 99.9861 179.895 99.7292 179.831 99.4752C179.768 99.2213 179.511 99.0665 179.257 99.1295C179.003 99.1926 178.848 99.4496 178.911 99.7035Z" fill="#FFB400"></path> <path d="M191.925 100.99C191.988 101.244 192.245 101.399 192.5 101.336C192.754 101.273 192.908 101.016 192.845 100.762C192.782 100.508 192.524 100.353 192.27 100.416C192.016 100.479 191.861 100.736 191.925 100.99Z" fill="#FFB400"></path> <path d="M200.553 135.649C200.616 135.903 200.874 136.058 201.128 135.995C201.382 135.932 201.537 135.675 201.473 135.421C201.41 135.167 201.153 135.012 200.899 135.075C200.645 135.138 200.49 135.395 200.553 135.649Z" fill="#FFB400"></path> <path d="M188.23 114.194C188.293 114.447 188.551 114.602 188.805 114.539C189.059 114.476 189.214 114.219 189.15 113.965C189.087 113.711 188.83 113.556 188.576 113.62C188.321 113.683 188.167 113.94 188.23 114.194Z" fill="#FFB400"></path> <path d="M179.738 130.68C179.802 130.934 180.059 131.089 180.313 131.026C180.567 130.962 180.722 130.705 180.659 130.452C180.595 130.198 180.338 130.043 180.084 130.106C179.83 130.169 179.675 130.426 179.738 130.68Z" fill="#FFB400"></path> <path d="M163.259 102.405C163.324 102.666 163.589 102.825 163.85 102.761C164.112 102.696 164.271 102.431 164.206 102.17C164.141 101.909 163.876 101.75 163.615 101.815C163.353 101.88 163.194 102.144 163.259 102.405Z" fill="#FFB400"></path> <path d="M176.696 77.174C176.759 77.4279 177.016 77.5827 177.27 77.5196C177.525 77.4566 177.679 77.1996 177.616 76.9457C177.553 76.6917 177.295 76.5369 177.041 76.6C176.787 76.663 176.632 76.92 176.696 77.174Z" fill="#FFB400"></path> <path d="M150.703 130.667C150.768 130.928 151.033 131.087 151.294 131.022C151.556 130.957 151.715 130.693 151.65 130.432C151.585 130.171 151.32 130.012 151.058 130.076C150.797 130.141 150.638 130.406 150.703 130.667Z" fill="#FFB400"></path> <path d="M216.178 156.452C216.243 156.714 216.507 156.873 216.769 156.808C217.03 156.743 217.189 156.479 217.124 156.218C217.059 155.956 216.794 155.797 216.533 155.862C216.272 155.927 216.113 156.191 216.178 156.452Z" fill="#FFB400"></path> <path d="M129.769 138.906C129.834 139.167 130.099 139.326 130.36 139.261C130.621 139.196 130.781 138.932 130.716 138.671C130.65 138.41 130.386 138.25 130.124 138.315C129.863 138.38 129.704 138.644 129.769 138.906Z" fill="#FFB400"></path> <path d="M154.423 161.204C154.488 161.465 154.753 161.624 155.014 161.559C155.276 161.494 155.435 161.23 155.37 160.969C155.305 160.708 155.04 160.548 154.779 160.613C154.517 160.678 154.358 160.942 154.423 161.204Z" fill="#FFB400"></path> <path d="M163.835 146.901C163.9 147.162 164.165 147.322 164.426 147.257C164.688 147.192 164.847 146.928 164.782 146.666C164.717 146.405 164.452 146.246 164.191 146.311C163.929 146.376 163.77 146.64 163.835 146.901Z" fill="#FFB400"></path> <path d="M144.321 139.977C144.386 140.239 144.651 140.398 144.912 140.333C145.174 140.268 145.333 140.004 145.268 139.742C145.203 139.481 144.938 139.322 144.677 139.387C144.415 139.452 144.256 139.716 144.321 139.977Z" fill="#FFB400"></path> <path d="M166.911 180.178C167.014 180.592 167.433 180.844 167.847 180.741C168.261 180.638 168.513 180.22 168.41 179.806C168.307 179.393 167.888 179.141 167.474 179.243C167.06 179.346 166.808 179.764 166.911 180.178Z" fill="#FFB400"></path> <path d="M133.637 126.956C133.74 127.369 134.159 127.622 134.573 127.519C134.986 127.416 135.238 126.998 135.135 126.584C135.032 126.17 134.613 125.918 134.199 126.021C133.785 126.124 133.534 126.542 133.637 126.956Z" fill="#FFB400"></path> <path d="M129.687 98.7491C129.79 99.1627 130.209 99.4147 130.623 99.312C131.037 99.2094 131.289 98.7909 131.186 98.3773C131.083 97.9637 130.664 97.7117 130.25 97.8143C129.836 97.917 129.584 98.3355 129.687 98.7491Z" fill="#FFB400"></path> <path d="M156.688 130.477C156.791 130.891 157.21 131.143 157.624 131.04C158.038 130.937 158.29 130.519 158.187 130.105C158.084 129.692 157.665 129.44 157.251 129.542C156.837 129.645 156.585 130.064 156.688 130.477Z" fill="#FFB400"></path> <path d="M199.792 131.863C199.895 132.277 200.314 132.529 200.728 132.426C201.142 132.324 201.394 131.905 201.291 131.492C201.188 131.078 200.769 130.826 200.355 130.929C199.941 131.031 199.689 131.45 199.792 131.863Z" fill="#FFB400"></path> <path d="M189.139 157.896C189.242 158.309 189.661 158.561 190.075 158.459C190.489 158.356 190.741 157.937 190.638 157.524C190.535 157.11 190.116 156.858 189.702 156.961C189.288 157.063 189.036 157.482 189.139 157.896Z" fill="#FFB400"></path> <path d="M159.423 85.0333C159.526 85.4469 159.945 85.6989 160.359 85.5962C160.773 85.4935 161.025 85.075 160.922 84.6615C160.819 84.2479 160.4 83.9958 159.986 84.0985C159.572 84.2012 159.32 84.6197 159.423 85.0333Z" fill="#FFB400"></path> <path d="M172.171 106.676C172.274 107.09 172.693 107.342 173.107 107.239C173.521 107.137 173.773 106.718 173.67 106.305C173.566 105.891 173.147 105.639 172.734 105.742C172.32 105.844 172.068 106.263 172.171 106.676Z" fill="#FFB400"></path> <path d="M211.189 118.184C211.292 118.597 211.711 118.849 212.125 118.747C212.539 118.644 212.791 118.225 212.688 117.812C212.585 117.398 212.166 117.146 211.752 117.249C211.338 117.352 211.086 117.77 211.189 118.184Z" fill="#FFB400"></path> <path d="M191.771 150.632C191.874 151.045 192.293 151.297 192.707 151.195C193.121 151.092 193.373 150.673 193.27 150.26C193.167 149.846 192.748 149.594 192.334 149.697C191.92 149.8 191.668 150.218 191.771 150.632Z" fill="#FFB400"></path> <path d="M198.139 99.2565C198.564 99.2214 198.879 98.8487 198.844 98.4239C198.809 97.9992 198.435 97.6833 198.01 97.7184C197.585 97.7535 197.269 98.1263 197.305 98.551C197.34 98.9758 197.714 99.2916 198.139 99.2565Z" fill="#FFB400"></path> <path d="M205.646 86.9415C205.992 88.3274 207.396 89.1719 208.783 88.8279C210.169 88.4838 211.014 87.0815 210.668 85.6956C210.323 84.3097 208.919 83.4652 207.532 83.8092C206.145 84.1533 205.301 85.5557 205.646 86.9415Z" fill="#04294F"></path> <path d="M190.751 82.6793C193.098 85.8275 196.883 86.9803 199.205 85.2541C201.527 83.5278 201.508 79.5763 199.161 76.428C196.814 73.2797 193.028 72.1269 190.706 73.8532C188.384 75.5794 188.404 79.531 190.751 82.6793Z" fill="#04294F"></path> <path d="M190.925 78.8C190.989 79.0539 191.246 79.2087 191.5 79.1456C191.754 79.0826 191.909 78.8256 191.846 78.5716C191.782 78.3177 191.525 78.1629 191.271 78.226C191.017 78.289 190.862 78.546 190.925 78.8Z" fill="#FFB400"></path> <path d="M194.344 78.6204C194.447 79.034 194.866 79.2861 195.28 79.1834C195.693 79.0807 195.945 78.6622 195.842 78.2486C195.739 77.835 195.32 77.583 194.906 77.6857C194.493 77.7883 194.241 78.2069 194.344 78.6204Z" fill="#FFB400"></path> <path d="M148.656 159.488C145.864 148.283 134.499 141.436 123.273 144.221C123.207 144.237 123.155 144.25 123.076 144.27C122.253 157.098 130.692 168.673 143.158 171.872C144.692 172.314 145.996 172.841 147.218 173.543C149.338 169.167 149.842 164.188 148.656 159.488Z" fill="#00AEE0"></path> <path d="M148.445 170.406C148.373 170.006 148.246 169.605 148.134 169.214C147.944 168.564 147.761 167.94 147.768 167.352C147.769 166.794 147.966 166.187 148.167 165.537C148.444 164.632 148.741 163.693 148.538 162.767C148.345 161.881 147.721 161.171 147.101 160.474C146.635 159.948 146.205 159.454 145.956 158.903C145.729 158.387 145.664 157.733 145.596 157.067C145.502 156.128 145.404 155.176 144.862 154.403C144.357 153.664 143.513 153.246 142.712 152.831C142.072 152.501 141.48 152.202 141.037 151.768C140.594 151.334 140.292 150.739 139.981 150.105C139.568 149.287 139.138 148.459 138.399 147.959C137.624 147.426 136.652 147.332 135.722 147.242C135.036 147.175 134.408 147.122 133.876 146.891C133.328 146.65 132.829 146.216 132.297 145.762C131.604 145.167 130.888 144.536 129.988 144.34C129.059 144.139 128.116 144.442 127.208 144.723C126.574 144.922 125.966 145.115 125.411 145.127C124.826 145.133 124.222 144.948 123.562 144.763C123.397 144.72 123.233 144.677 123.066 144.621C123.059 144.818 123.049 145.002 123.042 145.199L123.042 145.366L123.042 145.478C123.134 145.511 123.239 145.541 123.328 145.561C124.004 145.755 124.71 145.957 125.423 145.961C126.136 145.966 126.803 145.73 127.477 145.521C128.318 145.257 129.107 145.005 129.827 145.148C130.503 145.287 131.111 145.819 131.754 146.385C132.309 146.875 132.877 147.362 133.55 147.655C134.191 147.929 134.92 147.999 135.649 148.069C136.51 148.162 137.338 148.236 137.929 148.647C138.487 149.039 138.858 149.742 139.238 150.484C139.572 151.155 139.923 151.835 140.458 152.358C140.99 152.867 141.68 153.226 142.337 153.565C143.089 153.951 143.805 154.303 144.182 154.865C144.599 155.473 144.687 156.274 144.778 157.144C144.843 157.854 144.928 158.586 145.213 159.226C145.505 159.893 146.01 160.465 146.483 161.018C147.047 161.659 147.576 162.267 147.729 162.94C147.883 163.669 147.629 164.443 147.366 165.29C147.158 165.969 146.937 166.651 146.93 167.351C146.923 168.05 147.126 168.753 147.339 169.439C147.578 170.287 147.817 171.078 147.652 171.761C147.537 172.138 147.349 172.505 147.09 172.807C147.152 172.61 147.185 172.407 147.192 172.21C147.239 171.389 146.799 170.633 146.379 169.9C146.077 169.362 145.759 168.813 145.655 168.281C145.566 167.815 145.659 167.234 145.761 166.636C145.897 165.78 146.055 164.904 145.727 164.092C145.432 163.356 144.786 162.833 144.142 162.324C143.637 161.919 143.131 161.514 142.855 161.025C142.606 160.584 142.515 159.993 142.413 159.363C142.289 158.529 142.162 157.682 141.647 157.014C141.158 156.397 140.406 156.067 139.657 155.751C139.046 155.484 138.455 155.24 138.051 154.852C137.647 154.464 137.402 153.869 137.139 153.265C136.828 152.519 136.5 151.764 135.876 151.277C135.203 150.76 134.349 150.637 133.524 150.521C132.887 150.428 132.293 150.338 131.853 150.085C131.363 149.802 130.96 149.302 130.553 148.789C130.044 148.148 129.506 147.501 128.78 147.221C127.962 146.907 127.078 147.057 126.221 147.2C125.619 147.307 125.044 147.408 124.571 147.302C124.098 147.197 123.576 146.95 123.087 146.666L123.083 146.765L123.096 146.985L123.103 147.234L123.112 147.553L123.109 147.651C123.513 147.872 123.943 148.03 124.403 148.139C125.017 148.252 125.687 148.141 126.358 148.031C127.137 147.907 127.869 147.767 128.474 148.008C129.012 148.209 129.442 148.758 129.902 149.314C130.348 149.872 130.814 150.454 131.431 150.803C132.003 151.136 132.712 151.239 133.405 151.332C134.161 151.451 134.884 151.551 135.37 151.932C135.819 152.281 136.101 152.909 136.383 153.592C136.665 154.275 136.97 154.939 137.476 155.455C137.978 155.958 138.681 156.258 139.334 156.528C139.991 156.812 140.645 157.082 140.996 157.539C141.37 158.032 141.491 158.741 141.595 159.496C141.696 160.182 141.801 160.882 142.139 161.454C142.503 162.075 143.078 162.532 143.623 162.982C144.197 163.44 144.739 163.877 144.942 164.413C145.178 165.024 145.066 165.749 144.924 166.523C144.821 167.177 144.709 167.846 144.823 168.473C144.951 169.153 145.312 169.761 145.643 170.362C146.017 171.023 146.371 171.66 146.344 172.225C146.328 172.494 146.242 172.766 146.12 173.006C146.153 173.025 146.199 173.042 146.229 173.048L146.386 173.121C146.511 173.174 146.623 173.23 146.738 173.299L146.816 173.335C146.948 173.414 147.089 173.477 147.217 173.542L147.266 173.572C147.721 172.539 148.129 171.489 148.445 170.406Z" fill="#04294F"></path> <path d="M145.199 172.397C145.032 171.727 144.474 171.224 143.942 170.714C143.506 170.307 143.053 169.889 142.849 169.409C142.685 169.032 142.689 168.487 142.69 167.929C142.704 167.2 142.701 166.35 142.298 165.683C141.94 165.088 141.293 164.732 140.649 164.39C140.131 164.1 139.586 163.817 139.287 163.403C139.031 163.048 138.92 162.49 138.818 161.915C138.691 161.179 138.544 160.421 138.055 159.859C137.602 159.33 136.899 159.085 136.213 158.851C135.618 158.65 135.066 158.452 134.732 158.117C134.394 157.768 134.2 157.216 133.987 156.642C133.748 155.962 133.502 155.256 132.983 154.798C132.416 154.312 131.653 154.166 130.911 154.043C130.326 153.937 129.771 153.838 129.413 153.578C129.003 153.275 128.718 152.746 128.432 152.217C128.091 151.577 127.734 150.926 127.146 150.584C126.46 150.182 125.625 150.194 124.902 150.206C124.334 150.221 123.802 150.214 123.414 150.059L123.381 150.039C123.43 150.348 123.479 150.656 123.541 150.962C123.991 151.032 124.445 151.059 124.901 151.043C125.555 151.034 126.235 151.019 126.712 151.305C127.106 151.542 127.391 152.071 127.696 152.623C128.027 153.224 128.365 153.852 128.93 154.27C129.442 154.645 130.112 154.758 130.769 154.874C131.426 154.99 132.04 155.102 132.431 155.438C132.789 155.753 132.995 156.302 133.202 156.906C133.434 157.56 133.657 158.23 134.14 158.71C134.622 159.19 135.295 159.428 135.949 159.642C136.544 159.843 137.125 160.048 137.424 160.406C137.64 160.659 137.761 160.978 137.853 161.346C137.912 161.582 137.941 161.812 138.007 162.075C138.128 162.728 138.252 163.395 138.633 163.914C139.036 164.469 139.677 164.799 140.278 165.138C140.842 165.444 141.361 165.734 141.597 166.121C141.883 166.595 141.869 167.268 141.865 167.924C141.855 168.554 141.851 169.211 142.1 169.763C142.369 170.394 142.894 170.877 143.4 171.337C143.702 171.597 143.981 171.877 144.214 172.195C144.578 172.314 144.92 172.453 145.258 172.578C145.242 172.512 145.245 172.47 145.229 172.404L145.199 172.397Z" fill="#04294F"></path> <path d="M139.677 169.457C139.609 168.791 139.531 168.029 139.085 167.47C138.697 166.981 138.05 166.737 137.436 166.512C136.914 166.321 136.375 166.12 136.07 165.791C135.817 165.505 135.7 164.977 135.605 164.428C135.464 163.752 135.333 163.059 134.861 162.562C134.421 162.086 133.764 161.914 133.12 161.739C132.565 161.584 132.04 161.435 131.728 161.136C131.429 160.833 131.269 160.301 131.118 159.753C130.931 159.116 130.751 158.449 130.279 158.008C129.773 157.548 129.067 157.402 128.407 157.273C127.861 157.157 127.349 157.061 127.05 156.815C126.712 156.522 126.509 155.987 126.309 155.464C126.083 154.837 125.84 154.2 125.341 153.821C124.964 153.539 124.51 153.4 124.044 153.32C124.136 153.632 124.224 153.931 124.326 154.227C124.506 154.28 124.677 154.349 124.831 154.464C125.143 154.707 125.324 155.207 125.527 155.742C125.753 156.369 125.995 157.007 126.498 157.454C126.961 157.855 127.604 157.974 128.235 158.097C128.82 158.203 129.378 158.315 129.706 158.625C129.999 158.901 130.159 159.433 130.31 159.981C130.496 160.618 130.673 161.272 131.136 161.729C131.599 162.186 132.259 162.371 132.89 162.549C133.445 162.704 133.97 162.853 134.239 163.149C134.545 163.478 134.656 164.036 134.773 164.62C134.901 165.244 135.035 165.895 135.429 166.355C135.862 166.861 136.506 167.092 137.133 167.313C137.669 167.501 138.174 167.682 138.407 168.001C138.696 168.376 138.761 168.973 138.823 169.558C138.856 169.856 138.898 170.139 138.944 170.434C139.292 170.599 139.65 170.747 140.021 170.892C140.001 170.869 139.982 170.846 139.975 170.82C139.782 170.492 139.739 169.986 139.677 169.457Z" fill="#04294F"></path> <path d="M137.879 183.029C140.007 184.937 143.013 185.06 144.592 183.303C146.172 181.547 145.727 178.576 143.599 176.667C141.471 174.759 138.465 174.636 136.886 176.393C135.306 178.15 135.751 181.121 137.879 183.029Z" fill="#04294F"></path> <path d="M144.563 177.752C144.297 177.358 143.965 176.98 143.608 176.664C141.483 174.75 138.48 174.63 136.894 176.39C135.309 178.151 135.756 181.123 137.877 183.024L137.966 183.1C140.514 181.784 142.757 179.972 144.563 177.752Z" fill="#00AEE0"></path> <path d="M138.104 183.038L138.193 182.946C138.663 182.48 139.097 182.038 139.587 181.763C139.956 181.56 140.389 181.452 140.863 181.335C142.241 180.31 143.477 179.11 144.569 177.779C144.569 177.779 144.563 177.752 144.546 177.742C144.418 177.565 144.29 177.387 144.136 177.216L144.08 177.161C144.025 177.105 143.962 177.022 143.906 176.967L143.847 176.898C143.759 176.822 143.696 176.74 143.608 176.664C143.519 176.588 143.463 176.532 143.374 176.457L143.306 176.404C143.25 176.348 143.187 176.322 143.135 176.279L143.053 176.23C142.987 176.19 142.934 176.147 142.869 176.108L142.803 176.068C142.721 176.019 142.639 175.97 142.557 175.92C142.567 175.96 142.586 175.983 142.609 176.019C142.862 176.528 143.137 177.018 143.449 177.485C143.571 177.692 143.735 177.958 143.872 178.175C143.846 178.293 143.823 178.424 143.796 178.542C143.527 178.414 143.179 178.193 142.916 178.035C142.433 177.723 141.947 177.453 141.438 177.202C141.011 177.001 140.472 177.023 139.917 177.036C139.293 177.051 138.642 177.073 138.162 176.773C137.913 176.612 137.726 176.254 137.539 175.84C137.42 175.925 137.302 176.01 137.2 176.105C137.141 176.148 137.098 176.2 137.042 176.256C136.986 176.312 136.94 176.351 136.884 176.407C137.088 176.831 137.34 177.228 137.695 177.475C138.378 177.92 139.196 177.898 139.933 177.883C140.389 177.867 140.82 177.858 141.073 177.976C141.549 178.207 142.019 178.467 142.469 178.76C142.682 178.889 142.883 179.02 143.076 179.126C142.721 179.102 142.363 179.065 142.012 178.999C141.542 178.906 141.056 178.86 140.566 178.856C140.093 178.861 139.623 179.048 139.113 179.244C138.449 179.492 137.746 179.751 137.128 179.569C136.737 179.457 136.36 179.006 135.962 178.533C135.959 178.631 135.942 178.733 135.942 178.845L135.936 178.874C135.932 178.973 135.929 179.071 135.942 179.18C135.942 179.291 135.952 179.386 135.968 179.508L135.971 179.521C135.984 179.629 135.997 179.738 136.024 179.843C136.267 180.09 136.575 180.264 136.884 180.383C137.774 180.65 138.629 180.327 139.408 180.036C139.842 179.872 140.25 179.715 140.585 179.716C141.019 179.72 141.462 179.763 141.886 179.839C142.073 179.863 142.28 179.909 142.464 179.919C142.057 180.02 141.643 180.095 141.219 180.131C140.637 180.205 140.026 180.273 139.506 180.486C138.974 180.701 138.497 181.085 138.027 181.439C137.724 181.681 137.408 181.927 137.07 182.136C137.116 182.209 137.178 182.291 137.237 182.36L137.27 182.38C137.313 182.439 137.372 182.508 137.428 182.564L137.467 182.61C137.523 182.666 137.565 182.725 137.621 182.781L137.664 182.84C137.736 182.906 137.808 182.972 137.884 183.051L137.973 183.126C138.019 183.087 138.051 183.051 138.104 183.038Z" fill="#04294F"></path> <path d="M167.055 102.574C168.108 107.935 171.899 111.693 175.527 110.981C179.156 110.268 181.246 105.344 180.193 99.9824C179.14 94.621 175.349 90.8631 171.72 91.5758C168.092 92.2885 166.002 97.2126 167.055 102.574ZM172.044 104.534C172.044 104.939 171.72 105.263 171.315 105.263C170.91 105.263 170.586 104.939 170.586 104.534C170.586 104.129 170.91 103.805 171.315 103.805C171.72 103.805 172.044 104.129 172.044 104.534ZM176.969 100.938C176.969 101.667 176.386 102.25 175.657 102.25C174.928 102.25 174.345 101.667 174.345 100.938C174.345 100.209 174.928 99.6261 175.657 99.6261C176.37 99.6261 176.969 100.209 176.969 100.938Z" fill="#04294F"></path> <path d="M97.6719 185.458C98.6601 183.044 96.5541 179.902 92.974 178.444C92.6014 178.298 92.2288 178.169 91.84 178.055C90.8842 181.003 89.2481 183.676 87.0449 185.863C87.7577 186.413 88.5515 186.867 89.3939 187.207C92.974 188.665 96.6837 187.887 97.6719 185.458Z" fill="#04294F"></path> <path d="M113.434 63.1001C108.995 65.5621 103.682 65.8861 98.9678 63.991C95.7117 62.6951 92.2936 61.8529 88.8106 61.5127C64.8351 59.1155 44.6342 79.7189 47.5177 103.643C48.2953 110.041 50.6928 116.131 54.4998 121.331C57.3023 125.186 57.5777 130.304 55.2126 134.435C50.0773 143.473 50.4499 154.617 56.1845 163.283C57.1727 161.355 58.4849 159.59 60.0724 158.1C60.2506 157.938 60.3478 157.695 60.3154 157.452L60.2506 156.82C60.2344 156.674 60.2992 156.528 60.4126 156.431C60.9472 155.994 61.498 155.573 62.0812 155.184C62.2108 155.087 62.389 155.087 62.5348 155.168L62.9236 155.378C63.1666 155.508 63.4582 155.508 63.685 155.378C72.935 150.001 84.7931 153.143 90.1552 162.392C90.6088 163.153 90.9976 163.963 91.3216 164.773C91.3864 164.919 91.516 165 91.678 165L92.2288 164.984C92.3908 164.984 92.5365 165.081 92.5851 165.227C93.0225 166.458 93.3465 167.737 93.5571 169.049C93.5733 169.195 93.5085 169.357 93.3627 169.422L92.8443 169.697C92.7147 169.762 92.6499 169.908 92.6661 170.054C92.8281 171.511 92.8119 172.985 92.6337 174.443C95.2581 174.864 97.7204 175.933 99.8264 177.553C109.822 185.312 123.008 189.134 137.069 186.705C156.396 183.352 171.607 168.142 174.944 148.818C177.131 136.119 174.231 124.149 167.946 114.593C164.528 109.409 163.054 103.173 163.799 97.0019C164.026 95.123 164.09 93.244 164.009 91.3651C163.248 73.8068 149.106 59.6338 131.545 58.8563C125.227 58.5485 118.958 60.0225 113.434 63.1001ZM127.884 67.6193C127.884 67.2143 128.208 66.8904 128.613 66.8904C129.018 66.8904 129.342 67.2143 129.342 67.6193C129.342 68.0242 129.018 68.3482 128.613 68.3482C128.208 68.3482 127.884 68.0242 127.884 67.6193ZM145.493 78.4231C145.493 77.6942 146.076 77.1111 146.805 77.1111C147.534 77.1111 148.118 77.6942 148.118 78.4231C148.118 79.152 147.534 79.7351 146.805 79.7351C146.093 79.7351 145.493 79.152 145.493 78.4231ZM150.872 81.0795C150.872 80.6746 151.195 80.3507 151.6 80.3507C152.005 80.3507 152.329 80.6746 152.329 81.0795C152.329 81.4845 152.005 81.8084 151.6 81.8084C151.195 81.8084 150.872 81.4845 150.872 81.0795ZM66.5037 84.3353C66.5037 83.6064 67.0869 83.0233 67.8159 83.0233C68.5449 83.0233 69.1281 83.6064 69.1281 84.3353C69.1281 85.0642 68.5449 85.6473 67.8159 85.6473C67.0869 85.6635 66.5037 85.0642 66.5037 84.3353C66.5037 84.3353 66.5037 84.3515 66.5037 84.3353ZM139.402 86.3762C139.402 85.9713 139.726 85.6473 140.131 85.6473C140.536 85.6473 140.86 85.9713 140.86 86.3762C140.86 86.7811 140.536 87.1051 140.131 87.1051C139.726 87.1051 139.402 86.7811 139.402 86.3762ZM55.5689 92.5151C55.5689 92.1102 55.8929 91.7862 56.2979 91.7862C56.7029 91.7862 57.0269 92.1102 57.0269 92.5151C57.0269 92.9201 56.7029 93.244 56.2979 93.244C55.8929 93.244 55.5689 92.9201 55.5689 92.5151ZM150.159 116.196C150.159 115.791 150.483 115.467 150.888 115.467C151.293 115.467 151.617 115.791 151.617 116.196C151.617 116.601 151.293 116.925 150.888 116.925C150.483 116.925 150.159 116.601 150.159 116.196ZM65.1915 118.237C65.1915 117.508 65.7747 116.925 66.5037 116.925C67.2327 116.925 67.8159 117.508 67.8159 118.237C67.8159 118.966 67.2327 119.549 66.5037 119.549C65.7747 119.549 65.1915 118.966 65.1915 118.237ZM71.6714 123.323C71.6714 122.918 71.9954 122.594 72.4004 122.594C72.8054 122.594 73.1294 122.918 73.1294 123.323C73.1294 123.728 72.8054 124.052 72.4004 124.052C71.9954 124.052 71.6714 123.728 71.6714 123.323ZM55.5689 145.611C55.5689 145.206 55.8929 144.882 56.2979 144.882C56.7029 144.882 57.0269 145.206 57.0269 145.611C57.0269 146.016 56.7029 146.34 56.2979 146.34C55.8929 146.34 55.5689 146.016 55.5689 145.611ZM80.7432 148.559C80.7432 147.83 81.3264 147.247 82.0554 147.247C82.7844 147.247 83.3675 147.83 83.3675 148.559C83.3675 149.288 82.7844 149.871 82.0554 149.871C81.3264 149.871 80.7432 149.288 80.7432 148.559ZM155.553 160.724C155.553 159.995 156.136 159.412 156.865 159.412C157.594 159.412 158.178 159.995 158.178 160.724C158.178 161.453 157.594 162.036 156.865 162.036C156.136 162.036 155.537 161.453 155.553 160.724C155.537 160.724 155.537 160.724 155.553 160.724ZM152.329 165.146C152.329 164.741 152.653 164.417 153.058 164.417C153.463 164.417 153.787 164.741 153.787 165.146C153.787 165.551 153.463 165.875 153.058 165.875C152.653 165.875 152.329 165.551 152.329 165.146ZM117.857 171.916C117.857 171.511 118.181 171.187 118.586 171.187C118.991 171.187 119.315 171.511 119.315 171.916C119.315 172.321 118.991 172.645 118.586 172.645C118.181 172.645 117.857 172.321 117.857 171.916ZM138.349 179.497C138.349 179.092 138.673 178.768 139.078 178.768C139.483 178.768 139.807 179.092 139.807 179.497C139.807 179.902 139.483 180.226 139.078 180.226C138.673 180.21 138.349 179.886 138.349 179.497Z" fill="#04294F"></path> <path d="M86.0407 174.767C83.7889 175.35 81.4724 175.642 79.1396 175.642H79.1558C81.4886 175.642 83.8051 175.35 86.0731 174.767C87.4015 174.427 88.7622 174.249 90.123 174.249C88.746 174.249 87.3853 174.427 86.0407 174.767Z" fill="#04294F"></path> <path d="M92.6664 170.07C92.6502 169.924 92.7312 169.778 92.8446 169.713L93.3629 169.438C93.4925 169.357 93.5735 169.211 93.5573 169.066C93.3629 167.77 93.0389 166.49 92.5854 165.243C92.5368 165.097 92.391 165 92.229 165L91.6782 165.016C91.5324 165.016 91.3866 164.935 91.3218 164.789C87.2719 154.893 75.9483 150.163 66.0503 154.212C65.2241 154.552 64.4304 154.941 63.669 155.379C63.426 155.508 63.1344 155.508 62.9076 155.379L62.5188 155.168C62.373 155.087 62.1948 155.103 62.0652 155.184C61.482 155.573 60.9312 155.994 60.3967 156.431C60.2833 156.529 60.2185 156.674 60.2347 156.82L60.2995 157.452C60.3157 157.695 60.2347 157.938 60.0565 158.1C58.4851 159.606 57.1729 161.355 56.1685 163.283L56.1523 163.299C61.2714 171.025 69.9058 175.642 79.1396 175.642H79.1558C81.4886 175.642 83.8051 175.35 86.0569 174.767C87.3853 174.427 88.7622 174.249 90.123 174.265C90.9654 174.265 91.8078 174.33 92.634 174.476C92.8122 173.018 92.8122 171.544 92.6664 170.07Z" fill="#F04E23"></path> <path d="M73.1132 123.339C73.1132 122.937 72.7869 122.611 72.3843 122.611C71.9817 122.611 71.6553 122.937 71.6553 123.339C71.6553 123.742 71.9817 124.068 72.3843 124.068C72.7869 124.068 73.1132 123.742 73.1132 123.339Z" fill="#FFB400"></path> <path d="M57.0107 145.628C57.0107 145.225 56.6843 144.899 56.2817 144.899C55.8791 144.899 55.5527 145.225 55.5527 145.628C55.5527 146.03 55.8791 146.356 56.2817 146.356C56.6843 146.356 57.0107 146.03 57.0107 145.628Z" fill="#FFB400"></path> <path d="M57.0107 92.5314C57.0107 92.1288 56.6843 91.8025 56.2817 91.8025C55.8791 91.8025 55.5527 92.1288 55.5527 92.5314C55.5527 92.9339 55.8791 93.2603 56.2817 93.2603C56.6843 93.2603 57.0107 92.9339 57.0107 92.5314Z" fill="#FFB400"></path> <path d="M152.313 81.0958C152.313 80.6933 151.987 80.3669 151.584 80.3669C151.182 80.3669 150.855 80.6933 150.855 81.0958C150.855 81.4984 151.182 81.8247 151.584 81.8247C151.987 81.8247 152.313 81.4984 152.313 81.0958Z" fill="#FFB400"></path> <path d="M172.061 104.534C172.061 104.131 171.734 103.805 171.332 103.805C170.929 103.805 170.603 104.131 170.603 104.534C170.603 104.936 170.929 105.263 171.332 105.263C171.734 105.263 172.061 104.936 172.061 104.534Z" fill="#FFB400"></path> <path d="M134.898 105.992C134.898 105.589 134.572 105.263 134.169 105.263C133.767 105.263 133.44 105.589 133.44 105.992C133.44 106.394 133.767 106.72 134.169 106.72C134.572 106.72 134.898 106.394 134.898 105.992Z" fill="#FFB400"></path> <path d="M129.31 67.6354C129.31 67.2328 128.983 66.9065 128.581 66.9065C128.178 66.9065 127.852 67.2328 127.852 67.6354C127.852 68.0379 128.178 68.3643 128.581 68.3643C128.983 68.3643 129.31 68.0379 129.31 67.6354Z" fill="#FFB400"></path> <path d="M151.601 116.213C151.601 115.81 151.274 115.484 150.872 115.484C150.469 115.484 150.143 115.81 150.143 116.213C150.143 116.615 150.469 116.941 150.872 116.941C151.274 116.941 151.601 116.615 151.601 116.213Z" fill="#FFB400"></path> <path d="M153.755 165.162C153.755 164.759 153.428 164.433 153.026 164.433C152.623 164.433 152.297 164.759 152.297 165.162C152.297 165.565 152.623 165.891 153.026 165.891C153.428 165.891 153.755 165.565 153.755 165.162Z" fill="#FFB400"></path> <path d="M140.115 137.075C140.115 136.672 139.788 136.346 139.386 136.346C138.983 136.346 138.657 136.672 138.657 137.075C138.657 137.478 138.983 137.804 139.386 137.804C139.788 137.804 140.115 137.478 140.115 137.075Z" fill="#FFB400"></path> <path d="M140.844 86.3924C140.844 85.9899 140.517 85.6635 140.115 85.6635C139.712 85.6635 139.386 85.9899 139.386 86.3924C139.386 86.795 139.712 87.1213 140.115 87.1213C140.517 87.1213 140.844 86.795 140.844 86.3924Z" fill="#FFB400"></path> <path d="M102.499 100.938C102.499 100.536 102.173 100.209 101.77 100.209C101.368 100.209 101.042 100.536 101.042 100.938C101.042 101.341 101.368 101.667 101.77 101.667C102.173 101.667 102.499 101.341 102.499 100.938Z" fill="#FFB400"></path> <path d="M97.0561 93.9891C97.0561 93.5866 96.7297 93.2602 96.3271 93.2602C95.9245 93.2602 95.5981 93.5866 95.5981 93.9891C95.5981 94.3917 95.9245 94.718 96.3271 94.718C96.7297 94.718 97.0561 94.3917 97.0561 93.9891Z" fill="#FFB400"></path> <path d="M139.791 179.497C139.791 179.094 139.465 178.768 139.062 178.768C138.659 178.768 138.333 179.094 138.333 179.497C138.333 179.899 138.659 180.226 139.062 180.226C139.465 180.226 139.791 179.899 139.791 179.497Z" fill="#FFB400"></path> <path d="M109.109 138.533C109.109 138.13 108.782 137.804 108.38 137.804C107.977 137.804 107.651 138.13 107.651 138.533C107.651 138.935 107.977 139.262 108.38 139.262C108.782 139.262 109.109 138.935 109.109 138.533Z" fill="#FFB400"></path> <path d="M119.282 171.932C119.282 171.53 118.956 171.204 118.553 171.204C118.151 171.204 117.824 171.53 117.824 171.932C117.824 172.335 118.151 172.661 118.553 172.661C118.956 172.661 119.282 172.335 119.282 171.932Z" fill="#FFB400"></path> <path d="M96.3271 72.4462C96.3271 72.0436 96.0007 71.7173 95.5981 71.7173C95.1955 71.7173 94.8691 72.0436 94.8691 72.4462C94.8691 72.8487 95.1955 73.175 95.5981 73.175C96.0007 73.175 96.3271 72.8487 96.3271 72.4462Z" fill="#FFB400"></path> <path d="M67.7996 118.237C67.7996 117.512 67.2122 116.925 66.4875 116.925C65.7628 116.925 65.1753 117.512 65.1753 118.237C65.1753 118.962 65.7628 119.549 66.4875 119.549C67.2122 119.549 67.7996 118.962 67.7996 118.237Z" fill="#FFB400"></path> <path d="M94.8695 99.626C94.8695 98.9014 94.282 98.314 93.5573 98.314C92.8326 98.314 92.2451 98.9014 92.2451 99.626C92.2451 100.351 92.8326 100.938 93.5573 100.938C94.282 100.938 94.8695 100.351 94.8695 99.626Z" fill="#FFB400"></path> <path d="M148.101 78.4395C148.101 77.7148 147.514 77.1274 146.789 77.1274C146.065 77.1274 145.477 77.7148 145.477 78.4395C145.477 79.1641 146.065 79.7515 146.789 79.7515C147.514 79.7515 148.101 79.1641 148.101 78.4395Z" fill="#FFB400"></path> <path d="M176.969 100.938C176.969 100.213 176.382 99.626 175.657 99.626C174.932 99.626 174.345 100.213 174.345 100.938C174.345 101.663 174.932 102.25 175.657 102.25C176.382 102.25 176.969 101.663 176.969 100.938Z" fill="#FFB400"></path> <path d="M69.1116 84.3516C69.1116 83.627 68.5242 83.0395 67.7995 83.0395C67.0748 83.0395 66.4873 83.627 66.4873 84.3516C66.4873 85.0762 67.0748 85.6636 67.7995 85.6636C68.5242 85.6636 69.1116 85.0762 69.1116 84.3516Z" fill="#FFB400"></path> <path d="M158.145 160.74C158.145 160.015 157.558 159.428 156.833 159.428C156.108 159.428 155.521 160.015 155.521 160.74C155.521 161.465 156.108 162.052 156.833 162.052C157.558 162.052 158.145 161.465 158.145 160.74Z" fill="#FFB400"></path> <path d="M150.142 148.575C150.142 147.851 149.555 147.263 148.83 147.263C148.106 147.263 147.518 147.851 147.518 148.575C147.518 149.3 148.106 149.887 148.83 149.887C149.555 149.887 150.142 149.3 150.142 148.575Z" fill="#FFB400"></path> <path d="M131.934 109.053C131.934 108.328 131.346 107.741 130.622 107.741C129.897 107.741 129.31 108.328 129.31 109.053C129.31 109.778 129.897 110.365 130.622 110.365C131.346 110.365 131.934 109.778 131.934 109.053Z" fill="#FFB400"></path> <path d="M83.3514 148.575C83.3514 147.851 82.7639 147.263 82.0392 147.263C81.3145 147.263 80.7271 147.851 80.7271 148.575C80.7271 149.3 81.3145 149.887 82.0392 149.887C82.7639 149.887 83.3514 149.3 83.3514 148.575Z" fill="#FFB400"></path> <path d="M178.702 84.1085C178.702 81.9436 176.947 80.1886 174.782 80.1886C172.617 80.1886 170.862 81.9436 170.862 84.1085C170.862 86.2733 172.617 88.0283 174.782 88.0283C176.947 88.0283 178.702 86.2733 178.702 84.1085Z" fill="#04294F"></path> <path d="M77.4869 185.409C77.4869 183.763 76.1523 182.429 74.5061 182.429C72.8599 182.429 71.5254 183.763 71.5254 185.409C71.5254 187.055 72.8599 188.389 74.5061 188.389C76.1523 188.389 77.4869 187.055 77.4869 185.409Z" fill="#F04E23"></path> <path d="M51.3889 124.979C49.9697 124.644 48.5475 125.523 48.2124 126.942C47.8772 128.361 48.7561 129.783 50.1753 130.118C51.5946 130.453 53.0168 129.575 53.3519 128.156C53.687 126.737 52.8082 125.315 51.3889 124.979Z" fill="#04294F"></path> <path d="M91.9211 165.47C91.9535 165.777 91.9859 166.101 92.0507 166.409C92.1155 166.717 92.1803 167.025 92.2613 167.316C92.3423 167.608 92.4233 167.916 92.5205 168.223C92.6177 168.515 92.7149 168.823 92.8445 169.098C92.8607 169.179 92.9417 169.211 93.0065 169.195C93.0875 169.179 93.1199 169.098 93.1037 169.033C93.0713 168.725 93.0389 168.401 92.9741 168.094C92.9255 167.786 92.8445 167.478 92.7797 167.187C92.7149 166.895 92.6177 166.587 92.5205 166.28C92.4233 165.972 92.3099 165.68 92.1965 165.389C92.1803 165.308 92.0993 165.275 92.0345 165.292C91.9373 165.308 91.8887 165.389 91.9211 165.47Z" fill="#04294F"></path> <path d="M61.3199 156.82C61.4819 156.739 61.6277 156.658 61.7735 156.561C61.9193 156.464 62.0651 156.367 62.1947 156.253C62.3405 156.14 62.4539 156.01 62.5673 155.881C62.6159 155.816 62.6159 155.735 62.5511 155.686C62.5187 155.654 62.4701 155.654 62.4215 155.654C62.2595 155.702 62.0813 155.767 61.9355 155.848C61.7735 155.929 61.6277 156.01 61.4819 156.107C61.3361 156.205 61.1904 156.302 61.0608 156.415C60.915 156.529 60.8016 156.658 60.6882 156.788C60.6558 156.82 60.6558 156.869 60.6558 156.917C60.672 156.998 60.753 157.031 60.834 157.015C60.996 156.966 61.158 156.901 61.3199 156.82Z" fill="#04294F"></path> <path d="M70.2795 157.114C69.2624 157.038 68.4049 157.417 68.3642 157.961C68.3235 158.505 69.115 159.008 70.132 159.084C71.1491 159.16 72.0066 158.781 72.0474 158.237C72.0881 157.692 71.2966 157.19 70.2795 157.114Z" fill="#04294F"></path> <path d="M76.9261 170.53C76.8619 170.006 76.1259 169.665 75.2822 169.769C74.4386 169.872 73.8067 170.381 73.871 170.904C73.9352 171.428 74.6712 171.769 75.5149 171.666C76.3585 171.562 76.9904 171.054 76.9261 170.53Z" fill="#04294F"></path> <path d="M77.0902 155.963C76.5547 155.787 76.0436 155.878 75.9487 156.167C75.8537 156.456 76.2108 156.833 76.7463 157.009C77.2817 157.185 77.7928 157.093 77.8878 156.804C77.9827 156.516 77.6257 156.139 77.0902 155.963Z" fill="#04294F"></path> <path d="M86.3766 169.095C86.2241 168.552 85.863 168.179 85.5702 168.261C85.2773 168.344 85.1636 168.85 85.3161 169.393C85.4686 169.935 85.8297 170.309 86.1225 170.226C86.4154 170.144 86.5291 169.637 86.3766 169.095Z" fill="#04294F"></path> <path d="M64.2518 163.979C64.1384 163.785 63.7334 163.785 63.3608 164.012C62.9882 164.222 62.7777 164.563 62.891 164.773C63.0044 164.984 63.4094 164.967 63.782 164.741C64.1546 164.514 64.3652 164.174 64.2518 163.979Z" fill="#04294F"></path> <path d="M67.7999 159.153C67.8809 159.039 67.9457 158.91 67.9943 158.78C68.0429 158.65 68.0753 158.521 68.0915 158.375C68.1077 158.229 68.0915 158.1 68.0591 157.954C68.0429 157.921 68.0267 157.889 67.9943 157.873C67.9295 157.841 67.8323 157.857 67.7999 157.921V157.938C67.6865 158.148 67.5893 158.359 67.5083 158.586C67.4273 158.812 67.3625 159.023 67.2977 159.25V159.282C67.2815 159.314 67.2977 159.347 67.3139 159.379C67.3463 159.444 67.4435 159.476 67.5083 159.444C67.6217 159.379 67.7189 159.282 67.7999 159.153Z" fill="#04294F"></path> <path d="M72.9837 159.509C72.9675 159.266 72.9189 159.023 72.8541 158.796C72.7893 158.569 72.7245 158.359 72.6435 158.132V158.116C72.6111 158.035 72.5301 158.003 72.4653 158.035C72.4329 158.051 72.4005 158.067 72.3843 158.1C72.3195 158.229 72.2871 158.375 72.2871 158.521C72.2871 158.65 72.3033 158.796 72.3357 158.926C72.3681 159.055 72.4167 159.185 72.4815 159.298C72.5463 159.428 72.6273 159.541 72.7407 159.622C72.8055 159.671 72.8865 159.671 72.9513 159.606C72.9837 159.574 72.9837 159.541 72.9837 159.509Z" fill="#04294F"></path> <path d="M87.8868 162.705C87.339 162.055 86.6121 161.767 86.2632 162.061C85.9143 162.355 86.0756 163.12 86.6234 163.77C87.1712 164.42 87.8981 164.708 88.2469 164.414C88.5958 164.12 88.4346 163.355 87.8868 162.705Z" fill="#04294F"></path> <path d="M85.5707 162.36C85.6679 162.311 85.7651 162.246 85.8623 162.181C85.9595 162.1 86.0405 162.003 86.0891 161.906C86.1053 161.874 86.1053 161.841 86.1053 161.809C86.0891 161.728 86.0243 161.679 85.9433 161.679H85.9271C85.7327 161.712 85.5383 161.776 85.3601 161.857C85.2791 161.89 85.1819 161.938 85.1009 161.987C85.0199 162.036 84.9389 162.084 84.8579 162.133L84.8255 162.149C84.8093 162.165 84.7931 162.181 84.7769 162.214C84.7445 162.295 84.7931 162.376 84.8579 162.392C84.9713 162.441 85.1171 162.441 85.2305 162.424C85.3439 162.441 85.4573 162.408 85.5707 162.36Z" fill="#04294F"></path> <path d="M88.2111 164.708C88.1301 164.789 88.0491 164.87 87.9843 164.968C87.9195 165.065 87.8871 165.178 87.8547 165.275C87.8223 165.389 87.8061 165.518 87.8223 165.632C87.8385 165.713 87.9033 165.761 87.9843 165.761C88.0167 165.761 88.0491 165.745 88.0653 165.729L88.0815 165.713C88.2273 165.567 88.3407 165.405 88.4379 165.243C88.4865 165.162 88.5351 165.081 88.5675 164.984C88.6161 164.903 88.6485 164.806 88.6809 164.725L88.6971 164.692C88.6971 164.66 88.6971 164.644 88.6971 164.611C88.6809 164.53 88.5999 164.482 88.5189 164.498C88.4055 164.546 88.2921 164.611 88.2111 164.708Z" fill="#04294F"></path> <path d="M87.7091 177.909C86.2997 178.25 85.1982 179.027 84.7122 180.193C83.967 182.024 84.9714 184.259 87.0611 185.863C89.2643 183.676 90.9004 181.003 91.84 178.055C91.0786 177.845 90.301 177.731 89.5235 177.715C88.7297 177.618 87.7091 177.909 87.7091 177.909Z" fill="#F04E23"></path> <path d="M88.503 179.821C89.0376 179.853 89.5074 179.205 89.5722 178.363C89.5884 178.152 89.5722 177.926 89.5398 177.715C88.9242 177.65 88.2924 177.715 87.7092 177.91C87.693 178.007 87.6768 178.12 87.6606 178.217C87.5958 179.06 87.9684 179.772 88.503 179.821Z" fill="#04294F"></path> <path d="M221.5 127.106C218.915 120.231 212.239 124.886 214.106 128.825C215.039 130.758 213.531 135.843 205.922 135.628C198.313 135.413 195.154 145.439 204.558 148.519C213.962 151.598 213.747 159.404 209.296 163.057C205.994 165.277 202.261 166.852 198.385 167.712C200.251 156.683 197.81 148.805 179.146 165.778C172.398 162.842 167.086 157.757 163.856 151.169C163.64 150.811 163.425 150.309 163.282 149.951C161.702 145.153 168.594 139.925 175.916 145.797C182.305 150.667 188.55 144.58 183.669 137.347C176.921 127.392 187.186 127.536 189.053 122.523C191.709 115.504 184.602 114.358 190.129 105.836H191.637C205.132 105.836 217.121 114.358 221.5 127.106Z" fill="#04294F"></path> <path d="M199.964 116.077C203.338 114.287 206.209 116.292 205.778 120.016C205.348 123.74 203.051 131.116 199.318 125.53C196.159 120.875 196.518 117.796 199.964 116.077Z" fill="#F04E23"></path> <path d="M221.787 127.965C225.807 141.142 220.782 155.394 209.296 163.057C213.747 159.404 213.316 152.028 203.984 148.877C194.652 145.726 198.313 135.413 205.922 135.628C213.531 135.771 215.039 130.758 214.106 128.825C212.239 124.886 218.915 120.231 221.499 127.106C221.571 127.321 221.787 127.894 221.787 127.965Z" fill="#F04E23"></path> <path d="M179.146 165.778C198.385 147.301 200.969 156.54 198.385 167.712C191.924 169.072 185.176 168.428 179.146 165.778Z" fill="#F04E23"></path> <path d="M190.273 105.836C184.745 114.287 191.78 115.433 189.196 122.523C187.33 127.536 176.993 127.321 183.812 137.347C188.694 144.58 182.664 151.025 176.275 146.156C169.886 141.286 161.63 145.153 163.282 149.951C156.175 134.196 163.21 115.647 179.003 108.558C182.52 106.982 186.325 106.051 190.273 105.836Z" fill="#F04E23"></path> <path d="M96.6791 104.316C95.5052 101.196 94.1013 97.743 93.2824 95.7383L92.5813 94.068C92.5225 93.9008 92.5207 93.7886 92.4065 93.6785C91.6789 93.861 90.9531 94.1556 90.2844 94.5053C80.6245 98.3404 74.9172 106.87 75.3828 107.871C75.7913 108.817 85.7195 111.207 95.4365 107.427C96.107 107.19 96.8881 106.838 97.5586 106.6C97.4997 106.433 97.4426 106.378 97.3838 106.211L96.6791 104.316Z" fill="#F04E23"></path> <path d="M84.9837 103.869C85.2192 104.538 90.6908 105.835 96.6773 104.204L93.3359 95.569C87.8756 98.481 84.7501 103.312 84.9837 103.869Z" fill="#FFB400"></path> <path d="M99.2801 98.3167C97.992 95.0863 96.7094 92.1924 96.7786 89.497L93.9878 90.6735C92.7591 91.1463 92.0495 92.451 92.3511 93.7361C92.4099 93.9033 93.1146 95.798 93.1146 95.798L96.4542 104.321C96.4542 104.321 97.2124 106.046 97.4443 106.491C98.0811 107.657 99.4365 108.08 100.665 107.607L103.456 106.431C101.628 104.558 100.568 101.547 99.2801 98.3167Z" fill="white"></path> <path d="M125.484 74.9661C122.924 69.5151 107.038 70.5521 100.952 72.971C95.2012 75.2712 96.7283 79.3951 98.8352 84.6303C100.328 83.086 102.721 81.6365 106.35 80.1631C112.55 77.8543 118.929 76.1593 125.484 74.9661Z" fill="white"></path> <path d="M134.218 97.417C128.656 101.004 122.524 104.042 116.441 106.685C112.812 108.158 110.066 108.604 107.872 108.478C109.924 113.771 111.79 118 117.485 115.757C123.795 113.222 136.107 103.105 134.218 97.417Z" fill="white"></path> <path d="M67.4414 106.734C66.3161 106.643 65.2496 106.72 64.1868 107.021C63.1222 107.21 62.1164 107.566 61.1677 107.977C60.219 108.389 59.2151 108.857 58.2682 109.381C57.3213 109.904 56.4904 110.65 55.7165 111.45C55.4954 111.679 55.3884 112.018 55.3368 112.3C55.2923 113.03 55.8648 113.693 56.6531 113.79C57.7784 113.88 58.8448 113.803 59.9647 113.557C61.0294 113.368 62.0351 113.012 62.9838 112.601C63.9325 112.19 64.9365 111.721 65.8833 111.198C66.8302 110.674 67.6612 109.928 68.435 109.128C68.9878 108.556 68.9181 107.715 68.3474 107.165C68.0638 107.002 67.7802 106.839 67.4414 106.734Z" fill="#F04E23"></path> <path d="M76.1113 114.76C75.7707 114.543 75.43 114.325 74.9788 114.221C74.697 114.17 74.36 114.177 74.08 114.239C73.7447 114.357 73.5236 114.586 73.3025 114.815C73.0832 115.156 72.921 115.552 72.8158 116.003C72.7179 116.903 73.0693 117.794 73.7524 118.342C74.0378 118.617 74.4908 118.833 74.8849 118.882C75.1667 118.932 75.5037 118.926 75.7837 118.864C76.119 118.745 76.3401 118.517 76.5612 118.288C76.7805 117.947 76.9427 117.551 77.0479 117.1C77.2029 116.255 76.7944 115.309 76.1113 114.76Z" fill="#F04E23"></path> <path d="M70.3198 97.0242C69.9972 97.9284 70.461 98.8175 71.3099 99.194C71.8753 99.4075 72.5512 99.5067 73.1682 99.4387C74.2346 99.3619 75.3509 98.8913 76.239 98.2006C76.7382 97.798 77.1234 97.2854 77.4514 96.7178L77.5049 96.5484C77.7723 95.7013 77.3638 94.7551 76.5149 94.3786C75.9495 94.165 75.2736 94.0659 74.6566 94.1339C73.5349 94.2679 72.4738 94.6813 71.5287 95.317C71.0294 95.7195 70.6443 96.2321 70.3162 96.7997C70.3751 96.967 70.3198 97.0242 70.3198 97.0242Z" fill="#F04E23"></path> <path d="M116.776 106.566C122.915 103.978 128.766 100.89 134.328 97.3026C146.067 89.9474 157.326 80.6931 155.508 75.9575C153.69 71.2219 139.095 72.1777 125.595 74.8523C119.04 76.0455 112.718 77.7955 106.461 80.0493C102.832 81.5227 100.439 82.9722 98.9462 84.5165C97.6178 85.7769 96.8031 87.5326 96.7766 89.3853C96.7074 92.0808 97.99 94.9746 99.278 98.205C100.566 101.435 101.626 104.446 103.399 106.376C104.656 107.699 106.409 108.394 108.264 108.415C110.345 108.543 113.09 107.985 116.776 106.566Z" fill="#00AEE0"></path> <path d="M133.955 84.5692C135.302 87.9669 137.141 90.5132 140.604 89.2114C144.125 87.9647 145.973 84.1123 144.682 80.6573C143.39 77.2024 139.595 75.3114 136.132 76.6132L136.077 76.6704L135.741 76.7891C132.276 77.9787 132.607 81.0593 133.955 84.5692Z" fill="#04294F"></path> <path d="M105.07 98.4857C107.258 98.2749 109.498 97.7826 111.565 97.013C113.632 96.2434 115.64 95.3065 117.592 94.4268C119.545 93.5471 121.551 92.498 123.559 91.5612C125.51 90.5693 127.459 89.4652 129.294 88.251C130.127 87.6175 130.333 86.491 129.814 85.6591C129.411 85.0495 128.789 84.7809 128.059 84.8512C125.93 85.2291 123.747 85.7765 121.622 86.3788C119.553 87.0363 117.37 87.5836 115.359 88.2961C113.292 89.0657 111.223 89.7231 109.158 90.6049C107.036 91.4318 105.144 92.5909 103.368 93.9723C102.646 94.4914 102.266 95.3407 102.448 96.179C102.413 97.4706 103.44 98.4611 104.733 98.4922C104.79 98.5472 104.903 98.545 105.07 98.4857Z" fill="white"></path> </svg> 