<?xml version="1.0" encoding="UTF-8"?> <svg xmlns="http://www.w3.org/2000/svg" width="555" height="494" viewBox="0 0 555 494" fill="none"> <g clip-path="url(#clip0_170_577)"> <path d="M435.007 329.954C435.007 320.124 432.95 310.386 428.88 301.425C417.997 277.238 415.573 246.971 420.192 225.437C420.42 224.431 420.649 223.471 420.878 222.465L420.923 222.328C421.061 221.688 421.198 221.048 421.289 220.408C430.526 171.441 398.334 124.258 349.361 115.022C343.919 114.016 338.387 113.468 332.808 113.468C331.482 113.468 330.201 113.513 328.921 113.559C328.83 113.559 328.692 113.559 328.555 113.559H328.235C328.144 113.559 328.144 113.559 328.052 113.559H327.961C326.772 113.651 325.583 113.696 324.394 113.788C307.75 114.794 291.882 113.559 274.186 108.759C266.275 106.655 258.09 105.558 249.859 105.558C211.037 105.558 177.748 129.15 163.527 162.8C162.978 164.126 162.43 165.498 161.927 166.869C154.016 184.654 137.691 192.336 121.504 196.999C98.915 202.943 82.0418 223.928 82.4533 248.206C82.5905 257.03 84.9683 265.671 89.4038 273.261C89.541 273.535 89.6782 273.809 89.8611 274.084L89.9068 274.129C90.2726 274.724 90.6384 275.318 91.05 275.913C95.7598 284.462 93.2449 296.532 85.4713 309.151C54.7428 357.249 68.8267 421.029 116.886 451.708C148.849 472.099 189.454 473.333 222.606 454.862C237.284 446.724 254.249 445.764 266.824 451.296L266.915 451.342C309.761 469.127 359.055 451.57 381.004 410.788C386.445 401.552 392.116 395.426 401.581 389.162C402.404 388.659 403.181 388.156 403.959 387.653H404.005C404.187 387.562 404.37 387.425 404.553 387.288C423.621 374.44 435.053 352.951 435.007 329.954Z" fill="#04294F"></path> <path d="M389.052 366.21C390.491 366.21 391.658 365.044 391.658 363.604C391.658 362.165 390.491 360.998 389.052 360.998C387.612 360.998 386.445 362.165 386.445 363.604C386.445 365.044 387.612 366.21 389.052 366.21Z" fill="#FFB400"></path> <path d="M394.768 356.289C395.677 356.289 396.414 355.552 396.414 354.643C396.414 353.734 395.677 352.997 394.768 352.997C393.859 352.997 393.122 353.734 393.122 354.643C393.122 355.552 393.859 356.289 394.768 356.289Z" fill="#FFB400"></path> <path d="M233.398 413.028C234.307 413.028 235.044 412.291 235.044 411.382C235.044 410.473 234.307 409.736 233.398 409.736C232.488 409.736 231.751 410.473 231.751 411.382C231.751 412.291 232.488 413.028 233.398 413.028Z" fill="#FFB400"></path> <path d="M202.761 446.176C203.67 446.176 204.407 445.439 204.407 444.53C204.407 443.621 203.67 442.884 202.761 442.884C201.852 442.884 201.115 443.621 201.115 444.53C201.115 445.439 201.852 446.176 202.761 446.176Z" fill="#FFB400"></path> <path d="M202.761 371.377C203.67 371.377 204.407 370.64 204.407 369.731C204.407 368.822 203.67 368.085 202.761 368.085C201.852 368.085 201.115 368.822 201.115 369.731C201.115 370.64 201.852 371.377 202.761 371.377Z" fill="#FFB400"></path> <path d="M127.723 357.935C128.632 357.935 129.369 357.198 129.369 356.289C129.369 355.38 128.632 354.643 127.723 354.643C126.814 354.643 126.077 355.38 126.077 356.289C126.077 357.198 126.814 357.935 127.723 357.935Z" fill="#FFB400"></path> <path d="M118.852 277.01C119.761 277.01 120.498 276.273 120.498 275.364C120.498 274.455 119.761 273.718 118.852 273.718C117.943 273.718 117.206 274.455 117.206 275.364C117.206 276.273 117.943 277.01 118.852 277.01Z" fill="#FFB400"></path> <path d="M173.541 234.947C174.425 234.947 175.142 234.231 175.142 233.347C175.142 232.463 174.425 231.747 173.541 231.747C172.657 231.747 171.941 232.463 171.941 233.347C171.941 234.231 172.657 234.947 173.541 234.947Z" fill="#FFB400"></path> <path d="M188.357 193.387C189.241 193.387 189.957 192.671 189.957 191.787C189.957 190.903 189.241 190.187 188.357 190.187C187.473 190.187 186.756 190.903 186.756 191.787C186.756 192.671 187.473 193.387 188.357 193.387Z" fill="#FFB400"></path> <path d="M309.03 193.387C309.914 193.387 310.63 192.671 310.63 191.787C310.63 190.903 309.914 190.187 309.03 190.187C308.146 190.187 307.429 190.903 307.429 191.787C307.429 192.671 308.146 193.387 309.03 193.387Z" fill="#FFB400"></path> <path d="M228.642 216.247C229.526 216.247 230.243 215.531 230.243 214.647C230.243 213.763 229.526 213.047 228.642 213.047C227.758 213.047 227.042 213.763 227.042 214.647C227.042 215.531 227.758 216.247 228.642 216.247Z" fill="#FFB400"></path> <path d="M275.786 257.487C276.67 257.487 277.387 256.771 277.387 255.887C277.387 255.003 276.67 254.287 275.786 254.287C274.903 254.287 274.186 255.003 274.186 255.887C274.186 256.771 274.903 257.487 275.786 257.487Z" fill="#FFB400"></path> <path d="M169.654 288.394C170.564 288.394 171.301 287.657 171.301 286.748C171.301 285.839 170.564 285.102 169.654 285.102C168.745 285.102 168.008 285.839 168.008 286.748C168.008 287.657 168.745 288.394 169.654 288.394Z" fill="#FFB400"></path> <path d="M97.8634 223.837C98.7473 223.837 99.4638 223.12 99.4638 222.237C99.4638 221.353 98.7473 220.636 97.8634 220.636C96.9795 220.636 96.2629 221.353 96.2629 222.237C96.2629 223.12 96.9795 223.837 97.8634 223.837Z" fill="#FFB400"></path> <path d="M252.1 352.54C253.009 352.54 253.746 351.803 253.746 350.894C253.746 349.985 253.009 349.248 252.1 349.248C251.191 349.248 250.454 349.985 250.454 350.894C250.454 351.803 251.191 352.54 252.1 352.54Z" fill="#FFB400"></path> <path d="M389.966 159.188C390.876 159.188 391.613 158.451 391.613 157.542C391.613 156.633 390.876 155.896 389.966 155.896C389.057 155.896 388.32 156.633 388.32 157.542C388.32 158.451 389.057 159.188 389.966 159.188Z" fill="#FFB400"></path> <path d="M262.069 427.796C262.978 427.796 263.715 427.059 263.715 426.15C263.715 425.241 262.978 424.504 262.069 424.504C261.159 424.504 260.422 425.241 260.422 426.15C260.422 427.059 261.159 427.796 262.069 427.796Z" fill="#FFB400"></path> <path d="M355.26 365.25C356.169 365.25 356.906 364.513 356.906 363.604C356.906 362.695 356.169 361.958 355.26 361.958C354.351 361.958 353.614 362.695 353.614 363.604C353.614 364.513 354.351 365.25 355.26 365.25Z" fill="#FFB400"></path> <path d="M316.026 322.776C316.935 322.776 317.672 322.039 317.672 321.13C317.672 320.221 316.935 319.484 316.026 319.484C315.117 319.484 314.38 320.221 314.38 321.13C314.38 322.039 315.117 322.776 316.026 322.776Z" fill="#FFB400"></path> <path d="M277.433 381.024C278.342 381.024 279.079 380.287 279.079 379.378C279.079 378.469 278.342 377.732 277.433 377.732C276.523 377.732 275.786 378.469 275.786 379.378C275.786 380.287 276.523 381.024 277.433 381.024Z" fill="#FFB400"></path> <path d="M427.645 339.83C429.085 339.83 430.252 338.663 430.252 337.224C430.252 335.784 429.085 334.618 427.645 334.618C426.206 334.618 425.039 335.784 425.039 337.224C425.039 338.663 426.206 339.83 427.645 339.83Z" fill="#FFB400"></path> <path d="M226.036 405.393C227.475 405.393 228.642 404.226 228.642 402.787C228.642 401.347 227.475 400.181 226.036 400.181C224.596 400.181 223.429 401.347 223.429 402.787C223.429 404.226 224.596 405.393 226.036 405.393Z" fill="#FFB400"></path> <path d="M130.329 395.334C131.769 395.334 132.936 394.168 132.936 392.728C132.936 391.289 131.769 390.122 130.329 390.122C128.89 390.122 127.723 391.289 127.723 392.728C127.723 394.168 128.89 395.334 130.329 395.334Z" fill="#FFB400"></path> <path d="M256.353 332.789C257.792 332.789 258.959 331.622 258.959 330.183C258.959 328.743 257.792 327.577 256.353 327.577C254.913 327.577 253.746 328.743 253.746 330.183C253.746 331.622 254.913 332.789 256.353 332.789Z" fill="#FFB400"></path> <path d="M295.998 192.793C297.437 192.793 298.604 191.626 298.604 190.187C298.604 188.747 297.437 187.581 295.998 187.581C294.558 187.581 293.391 188.747 293.391 190.187C293.391 191.626 294.558 192.793 295.998 192.793Z" fill="#FFB400"></path> <path d="M372.682 248.892C374.121 248.892 375.288 247.725 375.288 246.286C375.288 244.846 374.121 243.68 372.682 243.68C371.242 243.68 370.075 244.846 370.075 246.286C370.075 247.725 371.242 248.892 372.682 248.892Z" fill="#FFB400"></path> <path d="M109.569 286.794C111.009 286.794 112.176 285.627 112.176 284.188C112.176 282.749 111.009 281.582 109.569 281.582C108.13 281.582 106.963 282.749 106.963 284.188C106.963 285.627 108.13 286.794 109.569 286.794Z" fill="#FFB400"></path> <path d="M190.917 262.699C192.357 262.699 193.524 261.533 193.524 260.093C193.524 258.654 192.357 257.487 190.917 257.487C189.478 257.487 188.311 258.654 188.311 260.093C188.311 261.533 189.478 262.699 190.917 262.699Z" fill="#FFB400"></path> <path d="M260.422 144.329C261.862 144.329 263.029 143.162 263.029 141.723C263.029 140.284 261.862 139.117 260.422 139.117C258.983 139.117 257.816 140.284 257.816 141.723C257.816 143.162 258.983 144.329 260.422 144.329Z" fill="#FFB400"></path> <path d="M351.007 234.353C352.447 234.353 353.614 233.186 353.614 231.747C353.614 230.307 352.447 229.141 351.007 229.141C349.568 229.141 348.401 230.307 348.401 231.747C348.401 233.186 349.568 234.353 351.007 234.353Z" fill="#FFB400"></path> <path d="M187.732 171.63C187.962 170.209 186.997 168.871 185.576 168.64C184.155 168.409 182.817 169.374 182.586 170.795C182.355 172.216 183.32 173.554 184.741 173.785C186.162 174.015 187.501 173.051 187.732 171.63Z" fill="#FFB400"></path> <path d="M153.467 137.014C158.291 137.014 162.201 133.104 162.201 128.281C162.201 123.458 158.291 119.549 153.467 119.549C148.644 119.549 144.733 123.458 144.733 128.281C144.733 133.104 148.644 137.014 153.467 137.014Z" fill="#04294F"></path> <path d="M127.363 182.314C139.594 177.198 146.451 165.743 142.68 156.729C138.908 147.715 125.936 144.554 113.706 149.669C101.475 154.785 94.6179 166.24 98.3894 175.254C102.161 184.268 115.133 187.429 127.363 182.314Z" fill="#04294F"></path> <path d="M114.782 178.574C115.666 178.574 116.383 177.857 116.383 176.974C116.383 176.09 115.666 175.373 114.782 175.373C113.898 175.373 113.182 176.09 113.182 176.974C113.182 177.857 113.898 178.574 114.782 178.574Z" fill="#FFB400"></path> <path d="M116.977 167.235C118.417 167.235 119.583 166.068 119.583 164.629C119.583 163.19 118.417 162.023 116.977 162.023C115.538 162.023 114.371 163.19 114.371 164.629C114.371 166.068 115.538 167.235 116.977 167.235Z" fill="#FFB400"></path> <path d="M344.925 382.716C305.92 382.716 274.232 414.354 274.232 453.399C274.232 453.628 274.232 453.811 274.232 454.085C315.614 467.253 360.427 449.056 381.05 410.834C383.748 406.17 386.537 402.33 389.829 398.901C377.209 388.385 361.296 382.67 344.925 382.716Z" fill="#00AEE0"></path> <path d="M380.547 392.317C379.175 392.225 377.757 392.317 376.386 392.362C374.099 392.454 371.904 392.545 369.984 392.042C368.155 391.585 366.326 390.442 364.359 389.254C361.616 387.608 358.781 385.87 355.58 385.779C352.516 385.687 349.681 387.15 346.892 388.613C344.788 389.711 342.822 390.717 340.81 391.082C338.935 391.402 336.74 391.082 334.5 390.762C331.345 390.305 328.144 389.848 325.172 390.991C322.336 392.042 320.279 394.466 318.267 396.752C316.666 398.58 315.203 400.272 313.42 401.369C311.636 402.467 309.442 402.97 307.109 403.473C304.091 404.158 301.028 404.89 298.787 406.902C296.409 409.005 295.312 412.114 294.26 415.086C293.483 417.28 292.797 419.292 291.608 420.846C290.373 422.447 288.544 423.727 286.624 425.098C284.109 426.881 281.457 428.71 280.085 431.499C278.667 434.38 278.896 437.717 279.079 440.918C279.216 443.158 279.353 445.307 278.942 447.136C278.484 449.056 277.387 450.885 276.244 452.896C275.969 453.399 275.695 453.902 275.375 454.405C276.015 454.588 276.61 454.771 277.25 454.954L277.799 455.091L278.164 455.182C278.347 454.908 278.53 454.588 278.667 454.314C279.856 452.256 281.091 450.107 281.685 447.776C282.28 445.444 282.051 443.066 281.914 440.689C281.731 437.717 281.548 434.928 282.6 432.688C283.606 430.585 285.846 429.03 288.224 427.384C290.282 425.967 292.34 424.504 293.849 422.538C295.266 420.663 296.089 418.332 296.912 416C297.918 413.257 298.833 410.605 300.662 409.005C302.4 407.496 305.006 406.856 307.75 406.216C310.219 405.667 312.734 405.073 314.883 403.747C316.986 402.421 318.724 400.455 320.37 398.58C322.245 396.432 323.983 394.374 326.132 393.597C328.464 392.728 331.162 393.094 334.088 393.506C336.466 393.871 338.935 394.191 341.267 393.78C343.691 393.368 345.977 392.18 348.172 391.082C350.733 389.756 353.156 388.522 355.488 388.568C358.003 388.659 360.335 390.122 362.896 391.677C364.954 392.911 367.012 394.191 369.298 394.786C371.584 395.38 374.054 395.289 376.477 395.151C379.449 395.06 382.239 394.923 384.342 396.02C385.485 396.706 386.537 397.62 387.314 398.718C386.72 398.352 386.08 398.078 385.44 397.895C382.787 397.072 379.952 397.895 377.209 398.672C375.197 399.221 373.139 399.815 371.31 399.723C369.71 399.632 367.88 398.855 366.006 398.032C363.308 396.889 360.564 395.654 357.638 396.066C354.985 396.432 352.745 398.123 350.55 399.815C348.812 401.141 347.075 402.467 345.246 402.97C343.599 403.427 341.587 403.244 339.438 403.061C336.603 402.787 333.722 402.512 331.116 403.655C328.693 404.753 327.001 406.947 325.354 409.142C323.983 410.925 322.702 412.662 321.102 413.668C319.501 414.674 317.352 414.994 315.157 415.36C312.459 415.771 309.716 416.229 307.612 417.874C305.372 419.658 304.274 422.355 303.223 424.961C302.4 426.973 301.622 428.847 300.433 430.082C299.107 431.453 297.141 432.368 295.129 433.282C292.614 434.425 290.053 435.66 288.544 437.809C286.852 440.232 286.624 443.249 286.395 446.175C286.258 448.233 286.121 450.199 285.389 451.662C284.658 453.125 283.423 454.634 282.097 456.005L282.417 456.097L283.149 456.234L283.972 456.417L285.023 456.645L285.343 456.737C286.395 455.594 287.264 454.314 287.996 452.896C288.864 450.976 289.047 448.69 289.23 446.404C289.459 443.752 289.596 441.238 290.876 439.455C291.974 437.854 294.123 436.894 296.318 435.843C298.513 434.837 300.799 433.785 302.445 432.048C304 430.448 304.915 428.207 305.783 426.013C306.789 423.635 307.704 421.349 309.35 420.069C310.859 418.88 313.145 418.469 315.615 418.103C318.084 417.737 320.507 417.28 322.611 416.046C324.669 414.811 326.223 412.754 327.641 410.834C329.104 408.913 330.522 406.993 332.305 406.216C334.225 405.393 336.649 405.576 339.21 405.85C341.542 406.079 343.92 406.307 346.069 405.667C348.401 404.981 350.367 403.473 352.288 402.055C354.254 400.546 356.129 399.129 358.049 398.901C360.244 398.626 362.53 399.586 364.954 400.684C367.012 401.552 369.115 402.467 371.264 402.604C373.596 402.741 375.883 402.055 378.123 401.461C380.592 400.775 382.97 400.135 384.799 400.684C385.668 400.958 386.491 401.461 387.177 402.055C387.269 401.964 387.36 401.827 387.406 401.735L387.772 401.278C388.046 400.912 388.32 400.592 388.64 400.272L388.823 400.044C389.189 399.678 389.509 399.266 389.829 398.901L389.966 398.763C386.949 396.432 383.839 394.237 380.547 392.317Z" fill="#04294F"></path> <path d="M384.434 404.57C382.101 404.57 379.998 405.987 377.895 407.313C376.203 408.41 374.465 409.553 372.727 409.828C371.356 410.056 369.572 409.599 367.743 409.142C365.365 408.502 362.576 407.816 360.061 408.593C357.82 409.279 356.129 411.108 354.482 412.937C353.111 414.4 351.739 415.954 350.138 416.594C348.767 417.143 346.846 417.052 344.88 416.914C342.365 416.732 339.758 416.594 337.518 417.737C335.414 418.789 334.043 420.892 332.716 422.95C331.573 424.733 330.476 426.379 329.104 427.202C327.687 428.025 325.72 428.207 323.663 428.436C321.239 428.665 318.724 428.893 316.804 430.219C314.746 431.682 313.648 434.06 312.642 436.391C311.819 438.22 311.042 439.958 309.899 440.918C308.573 442.015 306.606 442.518 304.64 443.021C302.262 443.615 299.839 444.255 298.238 445.901C296.364 447.821 295.723 450.565 295.175 452.942C294.763 454.817 294.306 456.554 293.483 457.697L293.391 457.789C294.443 457.88 295.495 457.971 296.547 458.017C297.141 456.6 297.598 455.137 297.918 453.628C298.421 451.479 298.924 449.239 300.25 447.913C301.348 446.816 303.314 446.313 305.372 445.764C307.612 445.17 309.944 444.575 311.774 443.067C313.42 441.695 314.334 439.592 315.249 437.534C316.163 435.477 317.032 433.557 318.45 432.551C319.776 431.636 321.742 431.408 323.891 431.225C326.223 430.996 328.601 430.813 330.567 429.625C332.534 428.436 333.86 426.424 335.094 424.458C336.237 422.675 337.381 420.938 338.798 420.252C339.804 419.749 340.947 419.612 342.228 419.612C343.051 419.612 343.828 419.703 344.743 419.703C346.983 419.841 349.27 419.978 351.282 419.155C353.431 418.286 355.031 416.457 356.632 414.766C358.095 413.165 359.467 411.702 360.93 411.245C362.713 410.696 364.908 411.291 367.057 411.839C369.115 412.388 371.264 412.937 373.276 412.571C375.563 412.205 377.574 410.879 379.495 409.599C380.592 408.822 381.736 408.136 382.97 407.633C383.656 406.536 384.388 405.53 385.074 404.524C384.845 404.524 384.708 404.479 384.479 404.479L384.434 404.57Z" fill="#04294F"></path> <path d="M370.304 420.252C368.063 419.932 365.503 419.566 363.308 420.572C361.387 421.441 360.061 423.361 358.826 425.19C357.775 426.744 356.677 428.345 355.351 429.076C354.208 429.671 352.379 429.625 350.504 429.488C348.172 429.396 345.794 429.259 343.782 430.402C341.862 431.454 340.764 433.465 339.667 435.431C338.707 437.123 337.792 438.723 336.557 439.5C335.323 440.232 333.448 440.323 331.527 440.369C329.287 440.461 326.955 440.506 325.126 441.695C323.205 442.975 322.153 445.17 321.193 447.227C320.37 448.919 319.638 450.519 318.587 451.296C317.352 452.165 315.432 452.394 313.557 452.622C311.316 452.851 309.03 453.125 307.384 454.451C306.149 455.457 305.326 456.828 304.686 458.292C305.783 458.246 306.835 458.2 307.887 458.109C308.207 457.56 308.573 457.057 309.076 456.646C310.127 455.823 311.911 455.64 313.831 455.411C316.072 455.183 318.358 454.908 320.233 453.628C321.925 452.439 322.839 450.428 323.754 448.462C324.577 446.633 325.4 444.895 326.68 444.072C327.824 443.341 329.698 443.25 331.619 443.204C333.86 443.112 336.146 443.067 338.021 441.924C339.895 440.781 341.039 438.769 342.136 436.849C343.096 435.157 344.011 433.557 345.2 432.917C346.526 432.185 348.446 432.277 350.458 432.368C352.608 432.459 354.848 432.551 356.677 431.637C358.689 430.631 359.97 428.71 361.204 426.836C362.256 425.236 363.262 423.727 364.497 423.224C365.96 422.584 367.972 422.858 369.938 423.133C370.944 423.27 371.904 423.361 372.91 423.453C373.733 422.447 374.511 421.395 375.288 420.298C375.197 420.344 375.105 420.389 375.014 420.389C373.779 420.755 372.087 420.481 370.304 420.252Z" fill="#04294F"></path> <path d="M413.357 437.211C421.344 431.8 424.19 422.059 419.714 415.453C415.237 408.847 405.134 407.878 397.147 413.288C389.16 418.699 386.314 428.44 390.79 435.046C395.266 441.652 405.37 442.621 413.357 437.211Z" fill="#04294F"></path> <path d="M401.49 411.017C399.981 411.565 398.472 412.343 397.145 413.257C389.143 418.652 386.308 428.39 390.789 435.02C395.271 441.649 405.376 442.609 413.333 437.214L413.653 436.986C411.412 427.567 407.297 418.743 401.49 411.017Z" fill="#00AEE0"></path> <path d="M413.561 436.483L413.333 436.117C412.19 434.197 411.092 432.414 410.589 430.585C410.223 429.213 410.223 427.705 410.223 426.059C407.983 420.709 405.056 415.68 401.581 411.017C401.581 411.017 401.489 411.017 401.444 411.062C400.758 411.337 400.072 411.611 399.386 411.977L399.157 412.114C398.929 412.251 398.609 412.388 398.38 412.525L398.106 412.663C397.786 412.891 397.466 413.028 397.145 413.257C396.825 413.486 396.597 413.623 396.277 413.851L396.048 414.034C395.819 414.171 395.682 414.354 395.499 414.491L395.271 414.72C395.088 414.903 394.905 415.04 394.722 415.223L394.539 415.406C394.31 415.634 394.082 415.863 393.853 416.092C393.99 416.092 394.082 416.046 394.219 416C396.094 415.589 397.923 415.086 399.706 414.446C400.483 414.217 401.489 413.897 402.313 413.623C402.678 413.806 403.09 413.988 403.456 414.171C402.816 414.949 401.81 415.909 401.078 416.64C399.66 417.966 398.38 419.338 397.145 420.801C396.139 422.035 395.774 423.818 395.362 425.647C394.905 427.705 394.448 429.853 393.076 431.179C392.344 431.865 391.018 432.185 389.509 432.46C389.692 432.917 389.875 433.374 390.103 433.785C390.195 434.014 390.332 434.197 390.469 434.425C390.606 434.654 390.698 434.837 390.835 435.066C392.39 434.746 393.899 434.243 394.996 433.282C397.008 431.408 397.603 428.71 398.151 426.287C398.472 424.778 398.792 423.361 399.386 422.63C400.529 421.258 401.764 419.932 403.09 418.698C403.684 418.103 404.279 417.555 404.782 417.006C404.416 418.149 404.004 419.292 403.501 420.389C402.816 421.852 402.267 423.407 401.855 425.007C401.489 426.562 401.718 428.253 401.947 430.082C402.221 432.459 402.495 434.974 401.398 436.849C400.712 438.037 398.929 438.906 397.054 439.82C397.374 439.912 397.694 440.049 398.06 440.141L398.151 440.186C398.472 440.278 398.792 440.369 399.157 440.415C399.523 440.506 399.843 440.552 400.255 440.598H400.301C400.666 440.643 401.032 440.689 401.398 440.689C402.404 440.095 403.227 439.226 403.867 438.312C405.468 435.614 405.102 432.551 404.782 429.762C404.599 428.207 404.416 426.744 404.69 425.647C405.056 424.23 405.559 422.812 406.154 421.487C406.382 420.892 406.702 420.252 406.885 419.658C406.885 421.075 406.794 422.492 406.565 423.91C406.337 425.876 406.062 427.933 406.337 429.808C406.611 431.728 407.48 433.603 408.257 435.431C408.806 436.62 409.354 437.855 409.766 439.135C410.04 439.043 410.36 438.906 410.635 438.769L410.726 438.677C410.955 438.586 411.229 438.449 411.458 438.312L411.641 438.22C411.869 438.083 412.098 437.992 412.327 437.855L412.555 437.763C412.83 437.58 413.104 437.397 413.424 437.214L413.744 436.986C413.653 436.803 413.561 436.666 413.561 436.483Z" fill="#04294F"></path> <path d="M369.36 297.852C369.305 298.051 369.18 298.226 369.006 298.342C368.833 298.458 368.623 298.509 368.416 298.485C361.854 296.973 355.389 295.087 349.053 292.837C345.537 291.639 342.046 290.271 338.63 288.878C340.015 291.098 341.448 293.464 342.806 295.855C342.906 296.037 342.929 296.25 342.872 296.45C342.815 296.651 342.681 296.822 342.5 296.927C342.327 296.997 342.142 297.03 341.956 297.024C336.937 296.065 332.051 294.54 327.394 292.478C322.786 290.471 318.367 288.069 314.19 285.299C309.967 282.549 306.039 279.385 302.463 275.854C300.633 274.042 298.929 272.11 297.363 270.071C296.53 269.048 295.766 267.973 295.075 266.851C294.394 265.778 293.69 264.631 293.06 263.461C291.438 260.265 291.507 255.706 292.716 253.123C293.505 251.583 294.593 250.21 295.916 249.081C297.24 247.953 298.773 247.091 300.429 246.546C305.03 245.232 309.852 244.896 314.576 245.559C318.918 246.19 323.142 247.425 327.124 249.226C330.964 250.97 334.579 253.158 337.892 255.745C341.273 258.314 344.223 261.393 346.636 264.87L346.756 265.236C346.774 265.346 346.768 265.46 346.737 265.568C346.707 265.676 346.653 265.776 346.579 265.862C346.505 265.948 346.414 266.017 346.311 266.064C346.208 266.112 346.096 266.137 345.982 266.137V266.137C342.796 266.452 339.883 266.596 336.995 266.813L340.667 269.741C345.71 273.841 350.652 278.137 355.419 282.651C360.317 287.238 364.932 292.111 369.242 297.242C369.324 297.434 369.364 297.642 369.36 297.852V297.852Z" fill="#00AEE0"></path> <path d="M369.521 286.295C369.574 286.706 369.704 287.103 369.905 287.466C370.077 287.744 370.322 287.972 370.614 288.125C370.904 288.289 371.219 288.404 371.548 288.467C371.949 288.494 372.351 288.444 372.734 288.321C373.064 288.2 373.344 287.973 373.53 287.677C373.716 287.381 373.798 287.033 373.761 286.689C373.709 286.278 373.579 285.881 373.378 285.518C373.206 285.239 372.961 285.012 372.669 284.859C372.379 284.695 372.063 284.58 371.735 284.517C371.335 284.452 370.923 284.502 370.549 284.662C370.211 284.772 369.921 284.996 369.733 285.295C369.545 285.594 369.47 285.948 369.521 286.295V286.295Z" fill="#00AEE0"></path> <path d="M340.206 304.483C340.258 304.894 340.388 305.292 340.589 305.654C340.761 305.933 341.006 306.16 341.298 306.313C341.588 306.477 341.904 306.592 342.233 306.655C342.633 306.682 343.035 306.633 343.418 306.51C343.748 306.388 344.028 306.161 344.215 305.865C344.401 305.57 344.482 305.222 344.446 304.877C344.393 304.466 344.263 304.069 344.062 303.706C343.89 303.428 343.645 303.2 343.353 303.047C343.063 302.883 342.748 302.768 342.419 302.705C342.019 302.678 341.616 302.728 341.233 302.851C340.903 302.972 340.623 303.199 340.437 303.495C340.251 303.791 340.169 304.139 340.206 304.483V304.483Z" fill="#00AEE0"></path> <path d="M374.557 311.46C374.609 311.871 374.739 312.268 374.94 312.631C375.112 312.91 375.357 313.137 375.649 313.29C375.939 313.454 376.255 313.569 376.583 313.632C376.984 313.697 377.395 313.647 377.769 313.486C378.099 313.365 378.379 313.138 378.565 312.842C378.752 312.547 378.833 312.199 378.797 311.854C378.744 311.443 378.614 311.046 378.413 310.683C378.241 310.405 377.996 310.177 377.704 310.024C377.414 309.86 377.099 309.745 376.77 309.682C376.37 309.617 375.958 309.667 375.584 309.828C375.263 309.961 374.991 310.19 374.807 310.483C374.622 310.776 374.535 311.118 374.557 311.46V311.46Z" fill="#00AEE0"></path> <path d="M354.671 270.826C355.068 271.493 355.57 272.095 356.159 272.607C357.223 273.634 358.492 274.432 359.886 274.95C360.598 275.251 361.353 275.441 362.126 275.513C362.275 275.525 362.426 275.508 362.569 275.462C362.712 275.415 362.845 275.341 362.959 275.243C363.072 275.146 363.165 275.026 363.232 274.893C363.298 274.759 363.337 274.614 363.345 274.465V274.465C363.344 274.256 363.305 274.05 363.228 273.856C362.83 273.188 362.328 272.587 361.74 272.075C361.177 271.611 360.614 271.147 359.977 270.708C359.348 270.334 358.691 270.008 358.012 269.731C357.301 269.43 356.545 269.24 355.773 269.169C355.633 269.155 355.492 269.168 355.358 269.209C355.223 269.249 355.098 269.315 354.989 269.404C354.88 269.492 354.79 269.601 354.724 269.723C354.658 269.846 354.617 269.98 354.604 270.118V270.118C354.54 270.229 354.512 270.357 354.524 270.483C354.536 270.61 354.587 270.73 354.671 270.826V270.826Z" fill="#00AEE0"></path> <path d="M350.659 302.761C351.269 303.542 351.947 304.269 352.686 304.933C354.169 306.17 355.809 307.212 357.566 308.033C358.479 308.444 359.436 308.756 360.419 308.962C360.552 308.991 360.689 308.994 360.824 308.969C360.958 308.944 361.086 308.892 361.2 308.817C361.314 308.742 361.411 308.645 361.486 308.531C361.561 308.418 361.612 308.291 361.636 308.158V308.158C361.666 308.027 361.667 307.892 361.638 307.761C361.61 307.631 361.552 307.508 361.47 307.402C360.86 306.621 360.182 305.894 359.443 305.231C358.704 304.585 357.909 304.006 357.067 303.498C356.248 302.979 355.386 302.53 354.489 302.155C353.576 301.743 352.62 301.432 351.636 301.226C351.504 301.196 351.366 301.194 351.231 301.219C351.097 301.243 350.969 301.295 350.855 301.37C350.741 301.445 350.644 301.543 350.569 301.656C350.494 301.769 350.443 301.896 350.42 302.029C350.423 302.292 350.507 302.547 350.659 302.761V302.761Z" fill="#00AEE0"></path> <path d="M324.868 285.771C325.121 286.34 325.485 286.854 325.939 287.283C326.33 287.714 326.784 288.084 327.286 288.382C327.783 288.69 328.309 288.952 328.857 289.163C329.461 289.388 330.108 289.481 330.754 289.433C331.064 289.414 331.357 289.281 331.574 289.06C331.791 288.839 331.916 288.546 331.926 288.239V288.239C331.941 288.081 331.917 287.922 331.856 287.776C331.604 287.206 331.24 286.692 330.785 286.263C330.394 285.833 329.941 285.463 329.439 285.165C328.941 284.856 328.415 284.595 327.867 284.384C327.264 284.158 326.616 284.066 325.97 284.114C325.66 284.132 325.368 284.266 325.151 284.487C324.934 284.708 324.808 285.001 324.799 285.307C324.784 285.466 324.808 285.625 324.868 285.771Z" fill="#04294F"></path> <path d="M325.577 256.051C325.829 256.621 326.193 257.135 326.648 257.564C327.472 258.39 328.467 259.031 329.566 259.443C330.17 259.669 330.817 259.761 331.463 259.713C331.776 259.703 332.074 259.573 332.292 259.35C332.511 259.127 332.634 258.829 332.634 258.52C332.65 258.361 332.626 258.202 332.565 258.056C332.313 257.487 331.949 256.973 331.494 256.544C331.103 256.113 330.65 255.743 330.148 255.446C329.65 255.137 329.124 254.875 328.576 254.664C327.972 254.439 327.325 254.347 326.679 254.394C326.369 254.413 326.076 254.546 325.859 254.767C325.642 254.988 325.517 255.281 325.508 255.588C325.492 255.746 325.516 255.905 325.577 256.051V256.051Z" fill="#04294F"></path> <path d="M320.074 273.893C320.764 274.671 321.544 275.368 322.398 275.968C323.233 276.566 324.101 277.12 324.997 277.628C325.868 278.133 326.779 278.566 327.723 278.922C328.699 279.316 329.726 279.58 330.775 279.705C330.911 279.727 331.051 279.721 331.185 279.689C331.32 279.656 331.446 279.597 331.558 279.515C331.669 279.434 331.763 279.331 331.833 279.212C331.904 279.094 331.949 278.964 331.968 278.828C332.001 278.682 331.994 278.531 331.948 278.389C331.901 278.247 331.817 278.121 331.704 278.023C331.014 277.245 330.234 276.549 329.38 275.949C327.75 274.731 325.959 273.737 324.055 272.995C323.079 272.6 322.052 272.337 321.003 272.212C320.867 272.19 320.728 272.195 320.593 272.228C320.458 272.26 320.332 272.319 320.22 272.401C320.109 272.483 320.015 272.586 319.945 272.704C319.874 272.822 319.829 272.953 319.81 273.089V273.089C319.797 273.234 319.813 273.38 319.859 273.518C319.904 273.657 319.977 273.784 320.074 273.893V273.893Z" fill="#04294F"></path> <path d="M299.833 254.518C299.833 254.518 298.627 259.369 298.725 261.929C298.725 262.076 298.755 262.22 298.813 262.354C298.871 262.488 298.956 262.609 299.063 262.71L301.43 265.418C301.607 265.615 301.716 265.862 301.744 266.125L301.926 267.686C301.964 268.006 302.119 268.301 302.362 268.515C303.169 269.223 305.275 270.882 307.369 271.25C307.531 271.287 307.699 271.287 307.862 271.25L311.275 270.375C311.424 270.327 311.596 270.351 311.745 270.303L314.555 270.598C314.821 270.621 315.089 270.562 315.321 270.427C317.317 269.31 318.997 267.714 320.207 265.788C321.416 263.862 322.115 261.669 322.238 259.413C322.235 259.15 322.151 258.895 321.999 258.682L320.151 255.803C320.02 255.617 319.843 255.466 319.638 255.363C319.432 255.261 319.204 255.211 318.973 255.217V255.217C318.81 255.239 318.644 255.227 318.486 255.183C318.328 255.138 318.182 255.062 318.055 254.959C317.929 254.856 317.826 254.728 317.752 254.584C317.678 254.439 317.636 254.281 317.626 254.119L317.603 254.046L317.456 251.339C317.441 251.043 317.319 250.763 317.114 250.548C316.908 250.334 316.631 250.199 316.333 250.168C314.582 250.093 311.178 249.993 308.876 250.747C308.729 250.803 308.573 250.83 308.416 250.826C308.259 250.822 308.105 250.786 307.963 250.722L305.259 249.744C305.062 249.689 304.855 249.674 304.652 249.699C304.448 249.724 304.251 249.789 304.073 249.89C302.904 250.84 300.492 252.764 299.833 254.518Z" fill="#04294F"></path> <path d="M302.454 259.007C302.507 259.418 302.637 259.815 302.838 260.177C303.01 260.456 303.255 260.683 303.547 260.836C303.837 261 304.152 261.116 304.481 261.178C304.881 261.244 305.293 261.193 305.667 261.033C305.997 260.911 306.277 260.684 306.463 260.389C306.649 260.093 306.731 259.745 306.694 259.4C306.642 258.989 306.512 258.592 306.311 258.23C306.139 257.951 305.894 257.723 305.602 257.571C305.285 257.388 304.932 257.275 304.566 257.241C304.2 257.207 303.83 257.253 303.482 257.374C303.15 257.493 302.869 257.72 302.682 258.016C302.496 258.312 302.415 258.661 302.454 259.007Z" fill="#00AEE0"></path> <path d="M314.367 259.48C314.37 259.742 314.454 259.997 314.606 260.211C314.725 260.368 314.855 260.515 314.997 260.651C315.173 260.751 315.364 260.825 315.562 260.87C315.829 260.884 316.096 260.851 316.353 260.774C316.571 260.68 316.756 260.522 316.882 260.321C317.007 260.12 317.068 259.887 317.054 259.653C317.051 259.39 316.967 259.135 316.815 258.921C316.697 258.765 316.566 258.618 316.424 258.482C316.248 258.381 316.058 258.307 315.859 258.262C315.592 258.249 315.325 258.282 315.069 258.359C314.859 258.464 314.682 258.625 314.559 258.823C314.435 259.021 314.368 259.248 314.367 259.48V259.48Z" fill="#00AEE0"></path> <path d="M338.637 278.102C338.689 278.513 338.819 278.91 339.02 279.273C339.192 279.551 339.437 279.779 339.729 279.932C340.019 280.096 340.334 280.211 340.663 280.274C341.063 280.339 341.475 280.289 341.849 280.128C342.179 280.007 342.459 279.78 342.645 279.484C342.831 279.188 342.913 278.84 342.876 278.496C342.824 278.085 342.694 277.687 342.493 277.325C342.321 277.046 342.076 276.819 341.784 276.666C341.494 276.502 341.178 276.387 340.85 276.324C340.45 276.259 340.038 276.309 339.664 276.469C339.326 276.579 339.037 276.803 338.848 277.102C338.66 277.401 338.585 277.755 338.637 278.102V278.102Z" fill="#04294F"></path> <path d="M463.932 164.704C461.965 163.963 460.062 163.105 458.172 162.224C456.282 161.342 454.424 160.399 452.574 159.423C450.724 158.448 448.911 157.441 447.133 156.352C445.338 155.269 443.611 154.079 441.961 152.787C441.913 152.748 441.879 152.693 441.867 152.632C441.854 152.57 441.864 152.507 441.894 152.452C441.924 152.397 441.972 152.354 442.03 152.331C442.088 152.308 442.153 152.306 442.212 152.326C444.201 152.999 446.148 153.792 448.042 154.7C449.929 155.587 451.774 156.552 453.6 157.556C455.426 158.56 457.231 159.599 459.011 160.686C460.792 161.773 462.549 162.898 464.249 164.134C464.311 164.181 464.355 164.249 464.371 164.325C464.388 164.401 464.376 164.481 464.34 164.55C464.303 164.618 464.242 164.672 464.17 164.7C464.097 164.728 464.017 164.73 463.943 164.704H463.932Z" fill="#04294F"></path> <path d="M484.858 180.495C483.695 180.166 482.555 179.76 481.446 179.28C480.34 178.811 479.26 178.297 478.202 177.745C477.137 177.201 476.103 176.597 475.107 175.936C474.087 175.271 473.138 174.502 472.276 173.642C472.224 173.594 472.194 173.527 472.192 173.457C472.189 173.386 472.215 173.317 472.264 173.266C472.268 173.262 472.272 173.257 472.276 173.253C472.307 173.222 472.346 173.199 472.388 173.187C472.43 173.174 472.475 173.172 472.518 173.181C473.709 173.429 474.87 173.799 475.984 174.287C477.08 174.759 478.148 175.293 479.183 175.886C480.228 176.466 481.249 177.084 482.248 177.75C483.26 178.412 484.226 179.142 485.138 179.935C485.195 179.984 485.233 180.051 485.247 180.125C485.26 180.199 485.248 180.276 485.212 180.342C485.177 180.408 485.119 180.46 485.05 180.489C484.981 180.518 484.904 180.523 484.831 180.503L484.858 180.495Z" fill="#04294F"></path> <path d="M476.112 141.512C474.947 141.185 473.806 140.779 472.697 140.297C471.593 139.828 470.514 139.314 469.456 138.763C468.391 138.219 467.358 137.616 466.361 136.956C465.341 136.292 464.392 135.527 463.527 134.671C463.476 134.618 463.447 134.548 463.447 134.475C463.447 134.402 463.476 134.331 463.527 134.279C463.558 134.248 463.597 134.225 463.639 134.212C463.682 134.2 463.726 134.198 463.77 134.207C464.96 134.456 466.121 134.826 467.235 135.313C468.335 135.785 469.407 136.319 470.447 136.911C471.491 137.492 472.512 138.114 473.51 138.776C474.523 139.437 475.49 140.167 476.402 140.961C476.459 141.01 476.497 141.077 476.511 141.151C476.525 141.225 476.512 141.301 476.477 141.367C476.441 141.433 476.384 141.485 476.315 141.515C476.245 141.544 476.168 141.549 476.096 141.528L476.112 141.512Z" fill="#04294F"></path> <path d="M459.238 173.355C458.074 173.026 456.934 172.62 455.826 172.137C454.72 171.671 453.64 171.157 452.582 170.602C451.517 170.059 450.483 169.456 449.487 168.796C448.467 168.131 447.518 167.362 446.656 166.502C446.604 166.454 446.574 166.387 446.572 166.317C446.569 166.246 446.595 166.177 446.644 166.126C446.648 166.122 446.652 166.117 446.656 166.113C446.688 166.083 446.726 166.061 446.768 166.048C446.81 166.035 446.855 166.032 446.898 166.039C448.088 166.289 449.249 166.659 450.364 167.144C451.463 167.617 452.536 168.151 453.576 168.743C454.621 169.324 455.642 169.942 456.642 170.608C457.653 171.268 458.619 171.997 459.531 172.79C459.582 172.84 459.615 172.905 459.626 172.975C459.637 173.045 459.626 173.117 459.593 173.18C459.56 173.243 459.508 173.294 459.444 173.326C459.38 173.357 459.308 173.367 459.238 173.355V173.355Z" fill="#04294F"></path> <path d="M474.257 191.844C471.156 190.493 468.125 189.025 465.097 187.531C463.591 186.777 462.082 186.023 460.589 185.242L458.342 184.083L456.114 182.892L453.883 181.704L451.665 180.494C450.188 179.682 448.732 178.835 447.269 177.998C445.805 177.162 444.369 176.28 442.937 175.382C441.506 174.484 440.08 173.581 438.691 172.606C438.642 172.567 438.608 172.512 438.596 172.451C438.583 172.389 438.593 172.326 438.623 172.271C438.653 172.216 438.701 172.173 438.759 172.15C438.817 172.127 438.882 172.125 438.941 172.145C440.519 172.768 442.06 173.461 443.593 174.164C445.126 174.868 446.645 175.606 448.159 176.346C449.673 177.087 451.172 177.86 452.662 178.646L454.893 179.831L457.113 181.043L459.331 182.253L461.536 183.489C463.007 184.307 464.468 185.154 465.924 185.999C468.834 187.701 471.729 189.43 474.563 191.276C474.635 191.323 474.685 191.396 474.703 191.48C474.72 191.564 474.704 191.651 474.657 191.722V191.724C474.616 191.789 474.553 191.837 474.479 191.859C474.406 191.881 474.327 191.875 474.257 191.844V191.844Z" fill="#04294F"></path> <path d="M452.84 195.513C452.112 195.413 451.397 195.235 450.708 194.98C450.035 194.743 449.38 194.461 448.746 194.135C448.107 193.821 447.499 193.447 446.93 193.019C446.33 192.573 445.806 192.034 445.379 191.42C445.335 191.355 445.319 191.274 445.335 191.197C445.35 191.119 445.396 191.051 445.462 191.007C445.51 190.974 445.568 190.957 445.627 190.957C446.376 190.975 447.117 191.116 447.821 191.372C448.492 191.612 449.139 191.913 449.753 192.273C450.374 192.625 450.969 193.018 451.537 193.45C452.128 193.887 452.669 194.387 453.149 194.942C453.209 195.012 453.239 195.103 453.232 195.194C453.225 195.286 453.182 195.371 453.112 195.431L453.109 195.433C453.072 195.464 453.029 195.487 452.983 195.5C452.937 195.514 452.888 195.518 452.84 195.513V195.513Z" fill="#04294F"></path> <path d="M439.869 158.6C439.141 158.5 438.426 158.322 437.736 158.067C437.067 157.831 436.413 157.551 435.78 157.231C435.141 156.915 434.534 156.54 433.964 156.112C433.363 155.667 432.839 155.127 432.413 154.513C432.383 154.468 432.366 154.416 432.363 154.362C432.361 154.309 432.373 154.255 432.398 154.208C432.424 154.16 432.462 154.12 432.508 154.092C432.554 154.065 432.607 154.05 432.661 154.05C433.411 154.068 434.153 154.209 434.857 154.465C435.527 154.706 436.174 155.008 436.787 155.369C437.408 155.721 438.005 156.113 438.573 156.543C439.16 156.981 439.697 157.482 440.173 158.038C440.202 158.072 440.225 158.112 440.239 158.155C440.253 158.198 440.258 158.243 440.255 158.288C440.252 158.333 440.239 158.377 440.219 158.417C440.199 158.457 440.171 158.493 440.136 158.523L440.133 158.526C440.096 158.555 440.054 158.577 440.008 158.589C439.963 158.602 439.916 158.606 439.869 158.6V158.6Z" fill="#04294F"></path> <path d="M470.818 183.859C470.644 183.912 470.465 183.944 470.284 183.953C470.124 183.963 469.964 183.958 469.805 183.937C469.513 183.901 469.229 183.82 468.962 183.697C468.692 183.582 468.453 183.405 468.264 183.18C468.029 182.893 467.879 182.546 467.829 182.178C467.816 182.085 467.833 181.989 467.878 181.906C467.923 181.823 467.994 181.757 468.08 181.717C468.411 181.558 468.78 181.492 469.146 181.528C469.438 181.564 469.717 181.667 469.962 181.829C470.213 181.983 470.437 182.177 470.626 182.402C470.729 182.522 470.818 182.654 470.892 182.794C470.984 182.951 471.057 183.118 471.111 183.292C471.146 183.406 471.134 183.529 471.08 183.635C471.025 183.741 470.931 183.821 470.818 183.859V183.859Z" fill="#04294F"></path> <path d="M483.075 156.362C482.901 156.416 482.722 156.447 482.541 156.456C482.381 156.467 482.221 156.461 482.062 156.44C481.769 156.404 481.484 156.323 481.217 156.2C480.947 156.085 480.709 155.907 480.521 155.683C480.286 155.396 480.136 155.049 480.086 154.681C480.072 154.588 480.089 154.493 480.134 154.41C480.178 154.327 480.249 154.26 480.334 154.22C480.666 154.061 481.034 153.996 481.401 154.031C481.691 154.067 481.97 154.17 482.214 154.332C482.465 154.486 482.69 154.68 482.88 154.905C482.983 155.025 483.072 155.157 483.147 155.297C483.241 155.453 483.314 155.62 483.365 155.795C483.401 155.909 483.39 156.032 483.336 156.138C483.281 156.244 483.188 156.325 483.075 156.362V156.362Z" fill="#04294F"></path> <path d="M445.739 144.89C445.565 144.941 445.386 144.972 445.206 144.981C445.046 144.993 444.885 144.988 444.726 144.965C444.434 144.931 444.149 144.85 443.883 144.725C443.614 144.609 443.375 144.432 443.185 144.208C442.951 143.922 442.8 143.576 442.751 143.209C442.737 143.115 442.754 143.02 442.799 142.936C442.844 142.852 442.915 142.786 443.001 142.746C443.332 142.586 443.702 142.521 444.067 142.559C444.359 142.593 444.638 142.695 444.883 142.858C445.134 143.012 445.358 143.205 445.547 143.43C445.649 143.551 445.739 143.683 445.813 143.822C445.905 143.979 445.978 144.146 446.032 144.32C446.066 144.435 446.055 144.558 446 144.664C445.945 144.77 445.852 144.852 445.739 144.89Z" fill="#04294F"></path> <path d="M472.159 159.13C471.47 159.054 470.793 158.899 470.141 158.667C469.508 158.451 468.892 158.19 468.296 157.886C467.695 157.59 467.126 157.233 466.598 156.821C466.035 156.393 465.55 155.872 465.164 155.281C465.137 155.235 465.122 155.184 465.12 155.131C465.119 155.078 465.131 155.025 465.156 154.979C465.181 154.932 465.218 154.893 465.263 154.864C465.307 154.836 465.359 154.82 465.412 154.817C466.124 154.818 466.831 154.942 467.502 155.185C468.134 155.401 468.742 155.682 469.317 156.021C469.899 156.352 470.455 156.724 470.983 157.135C471.536 157.551 472.037 158.03 472.478 158.563C472.507 158.599 472.529 158.639 472.542 158.683C472.555 158.727 472.559 158.773 472.555 158.819C472.55 158.865 472.536 158.909 472.515 158.949C472.493 158.989 472.463 159.025 472.428 159.054L472.425 159.056C472.388 159.086 472.346 159.108 472.3 159.121C472.254 159.134 472.206 159.137 472.159 159.13Z" fill="#04294F"></path> <path d="M468.648 124.462C467.96 124.385 467.282 124.229 466.63 123.998C465.997 123.783 465.38 123.522 464.785 123.217C464.185 122.92 463.616 122.563 463.087 122.152C462.524 121.724 462.038 121.203 461.65 120.612C461.608 120.543 461.595 120.461 461.614 120.382C461.632 120.304 461.681 120.236 461.749 120.194C461.795 120.166 461.847 120.15 461.901 120.148C462.608 120.146 463.31 120.265 463.977 120.5C464.609 120.719 465.217 121 465.793 121.339C466.373 121.671 466.93 122.042 467.459 122.45C468.01 122.869 468.512 123.349 468.954 123.881C469.012 123.954 469.038 124.046 469.028 124.138C469.018 124.23 468.973 124.315 468.901 124.374C468.867 124.404 468.827 124.428 468.783 124.443C468.74 124.458 468.694 124.464 468.648 124.462Z" fill="#04294F"></path> </g> <defs> <clipPath id="clip0_170_577"> <rect width="555" height="494" fill="white" transform="matrix(-1 0 0 1 555 0)"></rect> </clipPath> </defs> </svg> 